<?xml version="1.0" encoding="utf-8"?>
<!-- Generator: Adobe Illustrator 21.1.0, SVG Export Plug-In . SVG Version: 6.00 Build 0)  -->
<svg version="1.1" id="Web_and_Development" xmlns="http://www.w3.org/2000/svg" xmlns:xlink="http://www.w3.org/1999/xlink"
	 x="0px" y="0px" viewBox="0 0 352.3 472.7" style="enable-background:new 0 0 352.3 472.7;" xml:space="preserve">
<style type="text/css">
	.st0{fill:#FFDDA6;}
	.st1{opacity:0.1;}
	.st2{opacity:0.4;fill:#FFFFFF;}
	.st3{opacity:0.5;fill:#FFFFFF;}
</style>
<g id="Push">
	<path class="st0" d="M0,217l0.9,128.3c0,0,55.6,56.3,72.3,86c16.8,29.7,47.8,41.3,49.1,41.3c1.3,0,183.5,0,183.5,0
		s45.2-12.9,46.5-74.9V187.2c0,0-27.6-52.8-54.3,0h-16.8v-32.3c0,0-32.3-50.4-60.7,0v29.7h-16.8v-52.1c0,0-32.3-56-59.4,0v52.1
		h-18.1V27c0,0-28.4-60.7-56.8,0v310.2c0,0-8-7.7-13.1-25.8l-5-60.9C51.2,250.5,36.2,188.3,0,217z"/>
	<path class="st1" d="M88.7,2.1C82.5,5.4,75.9,12.9,69.3,27v313.9l19.4-0.7V2.1z"/>
	<path class="st1" d="M150.4,121.9c-2.1,3-4.1,6.5-6.1,10.6v52.1h-18.1V27c0,0-1.5-3.2-4.1-7.3v2.9v169.9h28.3V121.9z"/>
	<path class="st1" d="M224.5,148.6c-1.3,1.9-2.7,4-4,6.3v29.7h-16.8v-52.1c0,0-2.3-3.9-6.1-8.7v64.5h26.9V148.6z"/>
	<path class="st1" d="M298,187.2h-16.8v-32.3c0,0-1.9-3-5.2-6.8v44.4h27.6v-14.8C301.7,180.4,299.9,183.5,298,187.2z"/>
	<path class="st2" d="M11.6,239C10.3,222.9,0,220.9,0,220.9l0.2,31.6h11.4V239z"/>
	<path class="st3" d="M97.5,11.5c-9.5,0-17.2,9.2-17.2,20.5h34.4C114.7,20.7,107,11.5,97.5,11.5z"/>
</g>
</svg>
