<?xml version="1.0" encoding="utf-8"?>
<!-- Generator: Adobe Illustrator 21.1.0, SVG Export Plug-In . SVG Version: 6.00 Build 0)  -->
<svg version="1.1" id="Web_and_Development" xmlns="http://www.w3.org/2000/svg" xmlns:xlink="http://www.w3.org/1999/xlink"
	 x="0px" y="0px" viewBox="0 0 361.6 272.2" style="enable-background:new 0 0 361.6 272.2;" xml:space="preserve">
<style type="text/css">
	.st0{fill:#0B2E44;}
	.st1{opacity:0.7;fill:#FFFFFF;}
	.st2{fill:#19475E;}
</style>
<g id="Shop">
	<path class="st0" d="M29.8,35.7l-27.9,101c-10.4,37.7,11.7,76.7,49.4,87.1L217,269.6c37.7,10.4,76.7-11.7,87.1-49.4l27.9-101
		L29.8,35.7z"/>
	<path class="st1" d="M29.3,169c-1.1,3.9-5.1,6.2-9.1,5.1l0,0c-3.9-1.1-6.2-5.1-5.1-9.1l26.5-95.8c1.1-3.9,5.1-6.2,9.1-5.1l0,0
		c3.9,1.1,6.2,5.1,5.1,9.1L29.3,169z"/>
	<path class="st1" d="M84.7,184.3c-1.1,3.9-5.2,6.2-9.1,5.1l0,0c-3.9-1.1-6.2-5.1-5.1-9.1L97,84.6c1.1-3.9,5.1-6.2,9.1-5.1l0,0
		c3.9,1.1,6.2,5.1,5.1,9.1L84.7,184.3z"/>
	<path class="st1" d="M140.2,199.7c-1.1,3.9-5.2,6.2-9.1,5.1l0,0c-3.9-1.1-6.2-5.1-5.1-9.1l26.5-95.8c1.1-3.9,5.1-6.2,9.1-5.1l0,0
		c3.9,1.1,6.2,5.1,5.1,9.1L140.2,199.7z"/>
	<path class="st1" d="M199.5,216c-1.1,3.9-5.2,6.2-9.1,5.1l0,0c-3.9-1.1-6.2-5.1-5.1-9.1l26.5-95.8c1.1-3.9,5.1-6.2,9.1-5.1l0,0
		c3.9,1.1,6.2,5.1,5.1,9.1L199.5,216z"/>
	<path class="st1" d="M257.7,232.1c-1.1,3.9-5.1,6.2-9.1,5.1l0,0c-3.9-1.1-6.2-5.1-5.1-9.1l26.5-95.8c1.1-3.9,5.1-6.2,9.1-5.1l0,0
		c3.9,1.1,6.2,5.1,5.1,9.1L257.7,232.1z"/>
	<path class="st2" d="M360.9,110.1c-2.6,9.5-12.5,15.1-22,12.5L22.2,35.2c-9.5-2.6-15.1-12.5-12.5-22l0,0C12.3,3.6,22.2-2,31.7,0.7
		l316.7,87.5C358,90.8,363.5,100.6,360.9,110.1L360.9,110.1z"/>
	<path class="st0" d="M326.5,41.2c-0.5,7.2-6.8,12.6-14,12.1l-239.7-17c-7.2-0.5-12.6-6.8-12.1-14l0,0c0.5-7.2,6.8-12.6,14-12.1
		l239.7,17C321.5,27.7,327,34,326.5,41.2L326.5,41.2z"/>
</g>
</svg>
