<?xml version="1.0" encoding="utf-8"?>
<!-- Generator: Adobe Illustrator 21.1.0, SVG Export Plug-In . SVG Version: 6.00 Build 0)  -->
<svg version="1.1" id="Web_and_Development" xmlns="http://www.w3.org/2000/svg" xmlns:xlink="http://www.w3.org/1999/xlink"
	 x="0px" y="0px" viewBox="0 0 411.5 471" style="enable-background:new 0 0 411.5 471;" xml:space="preserve">
<style type="text/css">
	.st0{fill:#34A7B7;}
	.st1{fill:#48C0D6;}
	.st2{fill:#259199;}
	.st3{fill:#39B6C6;}
	.st4{opacity:0.4;}
	.st5{fill:#EFEFEF;}
</style>
<g id="Items">
	<g>
		<polygon class="st0" points="411.5,278.2 168.8,424.7 17.8,128.4 269.8,0 		"/>
		
			<rect x="60.1" y="92.3" transform="matrix(0.891 -0.454 0.454 0.891 -95.4524 119.6574)" class="st1" width="282.8" height="332.6"/>
		<polygon class="st2" points="272.1,4.6 226.6,45.8 252,46.3 387.3,311.8 411.5,278.2 		"/>
		<path class="st2" d="M17.8,128.4c0,0,7.8,20.1-17.8,46.3l44.9-22.9l-1-18.1L17.8,128.4z"/>
		<polygon class="st3" points="43.9,133.7 0,174.7 44.9,151.8 		"/>
		<polygon class="st3" points="226.6,45.8 232,56.5 252,46.3 		"/>
	</g>
	<circle class="st4" cx="93.3" cy="175.4" r="8"/>
	<circle class="st4" cx="201.5" cy="118.1" r="8"/>
	<path class="st5" d="M204.7,120.2c0-1.8-1.5-3.2-3.2-3.2c-1.8,0-3.3,1.5-3.3,3.2c0,0.2,0,0.3,0,0.4c0.1,38.3-8.7,62.2-26.1,71
		c-28.5,14.5-71.9-15.3-76.5-18.5c-0.6-0.6-1.4-1-2.3-1c-1.8,0-3.2,1.5-3.2,3.2c0,1.3,0.7,2.3,1.8,2.9c4,2.9,34.1,23.7,62.4,23.7
		c7.2,0,14.3-1.3,20.8-4.6c19.7-10,29.7-35.8,29.7-76.7C204.7,120.5,204.7,120.4,204.7,120.2z"/>
</g>
</svg>
