<?xml version="1.0" encoding="utf-8"?>
<!-- Generator: Adobe Illustrator 21.1.0, SVG Export Plug-In . SVG Version: 6.00 Build 0)  -->
<svg version="1.1" id="Web_and_Development" xmlns="http://www.w3.org/2000/svg" xmlns:xlink="http://www.w3.org/1999/xlink"
	 x="0px" y="0px" viewBox="0 0 450.9 499" style="enable-background:new 0 0 450.9 499;" xml:space="preserve">
<style type="text/css">
	.st0{fill:#D3D3D3;}
	.st1{fill:#2E586C;}
	.st2{fill:#12B8C9;}
	.st3{opacity:0.5;}
	.st4{fill:#FFFFFF;}
	.st5{fill:#FFB945;}
	.st6{fill:#FFD559;}
	.st7{fill:#1DB0FF;}
	.st8{fill:#046E8E;}
	.st9{fill:#FF4C5E;}
	.st10{fill:#003784;}
	.st11{fill:#FFCE69;}
	.st12{fill:#25C1BC;}
	.st13{fill:#E2E2E2;}
	.st14{opacity:0.1;fill:#231F20;}
	.st15{fill:#44BACA;}
	.st16{fill:#FDB940;}
	.st17{fill:#42536C;}
	.st18{fill:#F47F74;}
	.st19{fill:#BCBCBC;}
	.st20{fill:#223666;}
	.st21{opacity:0.6;}
	.st22{opacity:0.1;}
	.st23{fill:#FF3E03;}
</style>
<g id="Sheet_1_">
	<path class="st0" d="M138.2,75.8c0.2-2.2,0.3-4.4,0.3-6.6C138.5,31,107.5,0,69.3,0C31,0,0,31,0,69.3c0,2.2,0.1,4.4,0.3,6.6H0V499
		h364.2V75.8H138.2z"/>
	<path class="st1" d="M450.8,69.3c0-38.3-31-68.3-69.3-68.3H70.1c38.3,0,69.3,31,69.3,69.3c0,2.2-0.1,4.4-0.3,6.6h242.5h69.3
		C451.1,74,450.8,72.2,450.8,69.3z"/>
	<rect x="0.8" y="112.2" class="st2" width="364.2" height="110.8"/>
	<g class="st3">
		<path class="st4" d="M16.2,161.4l11.3-11.3v3.2l-9.5,9.2v0.1l9.5,9.2v3.2L16.2,164V161.4z"/>
	</g>
	<g class="st3">
		<path class="st4" d="M348.8,164l-11.3,11.3V172l9.5-9.2v-0.1l-9.5-9.2v-3.2l11.3,11.3V164z"/>
	</g>
	<rect x="27.5" y="253.1" class="st5" width="78.2" height="61.3"/>
	<rect x="142.7" y="253.1" class="st6" width="78.2" height="61.3"/>
	<rect x="259.4" y="253.1" class="st7" width="78.2" height="61.3"/>
	<rect x="27.5" y="333.7" class="st8" width="310.1" height="5.1"/>
	<rect x="27.8" y="345.2" class="st8" width="310.1" height="5.1"/>
	<rect x="28.7" y="357.2" class="st8" width="310.1" height="5.1"/>
	<rect x="29.1" y="368.6" class="st8" width="310.1" height="5.1"/>
	<circle class="st9" cx="66.5" cy="424.7" r="32"/>
	<circle class="st10" cx="182.9" cy="424.7" r="32"/>
	<circle class="st11" cx="298.5" cy="424.7" r="32"/>
	<g id="Globe_8_">
		<circle class="st12" cx="67.5" cy="423.1" r="26.7"/>
		<path class="st13" d="M82.9,436.6c-0.2,0-0.4-0.3-0.6-0.5c-0.2-0.2-1.4,0.1-1.7,0.1c-0.3,0-0.4-0.1-0.7-0.3
			c-0.3-0.2-0.5,0-0.7,0.1c-0.2,0-0.3-0.1-0.2-0.4c0.1-0.2-0.4-0.2-0.8-0.1c-0.4,0.1-0.2,0.3-0.6,0.2c-0.3-0.1,0.4-0.5,0.6-0.8
			c0.2-0.3,0-0.8-0.2-0.8c-0.1,0-0.4-0.4-0.8-0.8c-0.4-0.3-0.7-0.1-1.2-0.1c-0.5,0-0.6-0.2-0.8-0.4c-0.2-0.2-0.2-0.5-1.1-1
			c-0.9-0.5-0.5-0.2-0.5-0.3c0.1-0.1,0.1-0.1-0.2-0.2c-0.3-0.1-0.6,0.2-0.9,0.3c-0.3,0.1-0.7,0.1-0.8,0.1c-0.1,0-0.3-0.4-0.4-0.4
			c-0.2-0.1-0.3-0.2-0.4-0.4c-0.1-0.2-0.4-0.1-0.4,0.2c0,0.3-0.2,0.5-0.5,0.6c-0.3,0.1-0.2-0.3-0.2-0.5c0-0.1,0.3-0.3,0.3-0.5
			c0-0.2-0.3,0.2-0.6,0.5c-0.3,0.3-0.5,0-1.1,0.1c-0.6,0.1-0.3,0.6-0.3,1c0,0.3-0.5,0.4-0.6,0.4c-0.1-0.1-0.1-0.3-0.2-0.3
			c-0.2,0-0.2-0.3-0.3-0.4c0-0.1-0.6-0.2-0.8,0.2c-0.2,0.4-0.4,0.1-0.7,0c-0.3-0.1-0.8-1.1-0.7-1.3c0.1-0.2,0.1-0.3,0-0.4
			c-0.1-0.1-0.1-0.2,0-0.4c0.1-0.2,0.4-0.4-0.2-0.7c-0.5-0.4-1.4-0.1-1.8-0.1c-0.4,0-0.1-0.4,0-0.5c0.1-0.1,0.3-0.4,0.4-0.7
			c0.1-0.3-0.1-0.3,0.1-0.7c0.2-0.4,0.1-0.6-0.2-0.6c-0.4,0-0.7,0.2-0.7,0.8c0,0.5-0.5,0.5-1.7,0.4c-1.2-0.1-1.1-1-1.2-1.8
			c-0.1-0.8,0.2-1.4,0.3-1.8c0-0.4,0.5-0.8,0.9-1.1c0.4-0.3,1.1-0.3,1.1-0.3s0.9,0.2,1.1,0.2c0.3,0,0-0.2,0.1-0.5
			c0-0.3,1.3-0.1,1.6-0.1c0.2,0,0.2,0.2,0.4,0.4c0.3,0.2,0.2-0.2,0.4-0.2c0.2,0,0,0.2,0.4,0.8c0.4,0.6,0.3,0.8,0.4,1.3
			c0.1,0.5,0.4,0.2,0.5-0.2c0.2-0.4-0.2-1.7-0.3-2.4c-0.1-0.7,0.5-0.4,1.1-1.1c0.6-0.6,1.2-0.7,1.5-1.1c0.3-0.4,0-1.2,0.1-0.8
			c0.2,0.4,0.2-0.2,0.2-0.6c0-0.4,0.2-0.6,0.4-0.4c0.1,0.2,0.2,0.1,0.3-0.4c0.1-0.4,0.5-0.9,0.7-1.1c0.2-0.2,0.5,0,1,0
			c0.5,0,0-0.1-0.1-0.6c-0.1-0.5,0.3-0.7,0.5-0.7c0.2,0,1-0.4,1.2-0.6c0.2-0.1,0.4-0.1,0.7,0.1c0.3,0.2-0.3,0.1-0.5,0.4
			c-0.2,0.4,0.3,0.4,0.5,0.1c0.2-0.3,0.7-0.2,1.1-0.6c0.4-0.4-0.5-0.3-0.7-0.3c-0.2-0.1-0.3-0.5-0.3-0.7c0-0.2-0.1-0.5-0.3-0.7
			c-0.2-0.2-0.7,0-1.2,0.2c-0.5,0.2-0.6,0.4-0.6,0.1c0-0.2,0.8-0.7,1-0.8c0.2,0,0.8-0.3,1-0.6c0.3-0.3,1,0,1.4,0.1
			c0.4,0,0.9,0.2,1,0c0.2-0.3,0.3-0.3,0.7-0.3c0.4-0.1,0.4-0.6,0.2-0.8c-0.3-0.2-0.6-1.1-1.1-1.4c-0.5-0.3-0.3-0.4-0.1-0.7
			c0.2-0.2-0.5-0.8-0.8-1.3c-0.2-0.6,0-0.7-0.2-0.7c-0.3,0-0.1,0.4-0.2,0.8c-0.1,0.4-0.7,0.2-0.8,0.2c-0.1,0-0.4-0.4-0.4-0.8
			c0-0.4,0.1-0.7,0-0.8c-0.1-0.1-0.4,0-0.5-0.2c-0.1-0.1-0.3-0.5-0.5-0.7c-0.2-0.2-0.7-0.1-1-0.1c-0.3-0.1-0.6,0-0.5,0.2
			c0.1,0.2,0,0.5-0.1,1.2c-0.1,0.7-0.3,0.3-0.5,0.5c-0.2,0.2,0.1,0.2,0.3,0.7c0.2,0.5-0.2,0.9-0.4,1.1c-0.2,0.2-0.7,0.3-1,0.4
			c-0.3,0.1,0,0.5,0.1,0.9c0,0.4-0.3,0.9-0.5,0.9c-0.2,0.1-0.8-0.7-0.8-1.1c0-0.4,0.4-0.9,0.2-1c-0.2-0.1-0.9-0.1-1.5-0.7
			c-0.7-0.5-1.4-0.8-1.7-1.5c-0.3-0.7,0.3-1.2,0.5-1.7c0.2-0.5,0.7-0.4,1.4-0.7c0.7-0.3,0.3-0.5,0.4-0.5c0.2,0,0.8-0.1,0.9-0.3
			c0.1-0.2,0.4-0.4,0.7-0.5c0.3-0.2,0.4-0.5,0.5-0.7c0.1-0.2,0.4,0.2,0.8,0.2c0.4-0.1,0.3,0.1,0.8-0.2c0.5-0.2,0.1-0.4,0-0.6
			c0-0.2,0.3-0.2,0.2-0.4c-0.1-0.3-0.6-0.5-0.9-0.5c-0.3,0,0.1,0.4-0.2,0.7c-0.3,0.3-0.3,0.5-0.4,0.6c-0.1,0-0.6-0.1-0.6-0.3
			c0-0.2,0.2-0.3,0.3-0.4c0.1-0.1-0.1-0.4-0.1-0.5c0-0.1-0.2,0.1-0.3,0.4c0,0.2-0.3,0.2-0.2,0c0.1-0.2-0.2-0.4-0.4-0.7
			c-0.2-0.2,0.2-0.2,0.4-0.5c0.2-0.3,0.1-0.4-0.1-0.6c-0.3-0.2-0.6,0.1-0.9,0.4c-0.3,0.3-0.2,0.3-0.1,0.7c0.1,0.4,0,0,0.1,0.4
			c0.1,0.4-0.5,0.4-0.5,0.4s-0.3,0-0.4-0.1c-0.1,0,0-0.2-0.2-0.3c-0.2-0.1-0.4,0.3-0.4,0.3s-0.7,0-0.9,0c-0.3,0-0.7-0.1-0.7-0.3
			c-0.1-0.1-0.4-0.3-0.7-0.3c-0.3,0-0.4,0.3-0.4,0.5c0,0.3-0.5,0.3-0.5,0.2c0-0.1-0.1-0.6-0.1-0.6l-0.3,0.2c0,0-0.7,0-1-0.1
			c-0.2,0-0.2-0.3-0.2-0.3l0.5,0l0.1-0.1c0,0-0.1-0.1-0.3-0.2c-0.1,0-0.7-0.2-0.7-0.2l-0.2-0.2c0,0-0.3,0-0.4,0
			c-0.1,0-0.3,0.2-0.4,0.2c-0.1,0-0.1-0.2-0.1-0.2l0-0.2c0,0,0,0-0.2,0.1c-0.2,0.1-0.3,0-0.3,0l0.1-0.2l0-0.3c0,0-0.1-0.2-0.1,0
			c0,0.1-0.2,0.4-0.4,0.3c-0.2,0-0.3,0.2-0.6,0.1c-0.3-0.1-0.9,0.1-1.2,0.4c-0.3,0.3-0.5,0.4-0.5,0c0.1-0.3-0.9-0.3-1-0.3
			c-0.2-0.1-0.6-0.1-0.9-0.2c-0.4,0-0.5-0.4-0.5-0.4l-0.2-0.6c-2,1.1-3.8,2.4-5.4,3.9c0.2,0.4,0.4,0.8,0.5,0.8c0.2,0.1,0.3,0,0.3,0
			s-0.6,0.4-1.6,1.3c-1,0.9-0.7,1-0.7,1.3c0,0.3,0.2,0.2,0.2,0.2s-0.8,0.8-1,1c-0.2,0.2-0.6,0.5-0.6,0.5l-0.4,0.5l0.2,0.1l2.4-2.1
			c0,0,0.2,0,0.2-0.1c0-0.1,0.2-0.4,0.2-0.4c0.1,0,0.3-0.4,0.3-0.4s0.2-0.1,0.3-0.2c0.2-0.2,0.4-0.4,0.5-0.4c0.1,0,0,0.2-0.3,0.4
			c-0.3,0.2-0.6,0.7-0.6,0.7s0.9-0.5,1.2-0.7c0.3-0.2,0.2-0.5,0.3-0.5c0.1,0,0.4,0.2,0.5,0.5c0.1,0.3,0.2-0.1,0.6,0
			c0.5,0,0.2,0.4,0.3,0.6c0.2,0.2,0.2,0.3,0.6,0.2c0.4-0.1-0.2,0.9-0.2,0.9l0,0.3c0,0,0.2,0.2,0.2,0.3c0,0-0.2,0.6-0.2,0.6H53
			c0,0-0.1,0.2-0.3,0.3c-0.2,0.1,0,0.4,0.2,0.5c0.2,0.1,0,0-0.2,0.5c-0.2,0.5,0,0.4,0.3,0.7c0.3,0.4,0.4,0.5,0.6,0.8
			c0.2,0.2,0,0.8-0.2,0.8c-0.2,0-0.6-0.3-0.6-0.3c0,5.1-0.3,1.7-0.5,2.1c-0.2,0.4-0.4,0.7-0.4,0.9s0,0.7-0.3,1c-0.3,0.4,0,1.2,0,1.3
			c0,0.1,0.2,0.5,0.2,0.5s0,0.9,0,1.4c0,0.4,0.8,0.7,1.1,1.1c0.3,0.4,0.2,1.1,0.2,1.2c0,0.1,0.2,0.4,0.3,0.6
			c0.2,0.2,0.2,0.4,0.3,0.6c0.1,0.2-0.2,0.1-0.2,0.4c0,0.3,0.3,0.3,0.4,0.4c0.2,0.1,0.3,0.2,0.3,0.5c-0.1,0.3,0,0.2,0.1,0.4
			c0.2,0.2,0.1,0.1,0.2,0.4c0.1,0.3,0.3,0.2,0.3,0.2s0,0.2,0,0.2c0,0.1,0.2,0.1,0.2,0.1l0.1-0.2c0,0-0.1,0-0.1-0.1c0,0,0-0.2,0-0.2
			l-0.3-0.1c0,0,0-0.2,0-0.2c0-0.1,0-0.2,0-0.3c0,0-0.1-0.1-0.1-0.1s0-0.3,0-0.5c0-0.2-0.3-0.4-0.3-0.4c0-0.1,0-0.3-0.1-0.5
			c-0.1-0.2-0.4-0.5-0.4-0.9c0-0.4-0.1-0.6,0.1-0.6s0.4,0.4,0.5,0.4c0.1,0.1,0,0.5,0.3,0.9c0.3,0.4,1,1.3,0.9,1.3
			c-0.1,0.1-0.3,0-0.2,0.3c0.1,0.2,0.3,0.3,0.5,0.4c0.2,0.1,0.5,1.1,0.7,1.4c0.2,0.3-0.1,0.3-0.1,0.6c0,0.2,0,0.3,0.4,0.5
			c0.3,0.2,0.3,0.5,0.7,0.6c0.4,0.1,1.1,0.6,1.3,0.7c0.2,0,0.2,0.2,0.5,0.3c0.3,0,0.3,0.1,0.4,0.2c0.1,0.1,0.6-0.1,0.7-0.2
			c0.1-0.1,0.2,0,0.4,0c0.3,0,1,0.8,1.2,1c0.2,0.2,0.4-0.1,0.6,0c0.2,0.1,0.5,0.3,0.7,0.3c0.1,0,0.1-0.1,0.2-0.1
			c0.1,0,0,0.2,0.4,0.6c0.3,0.4,0.3,0.5,0.3,0.6c0,0.1,0.2,0.4,0.4,0.4c0.2,0,0.4,0.2,0.4,0.2v0.4c0,0,0.8,0,0.9,0.1
			c0.2,0,0.2,0.4,0.2,0.4c0.1,0,0.3-0.3,0.3-0.4c0-0.2,0.3-0.3,0.4-0.4c0.1-0.1,0.3,0.2,0.4,0.3c0.1,0.1,0.4,0.5,0.4,0.7
			c0,0.3,0,0.7,0,1.1c0,0.4-0.3,0.6-0.6,0.9c-0.2,0.3-0.5,0.4-0.6,0.6c-0.1,0.1-0.2,0.6-0.2,0.8c0,0.2,0.4,0,0.4,0.3
			c0,0.3-0.3,0.1-0.6,0.4c-0.3,0.3,0,0.3,0.2,0.5c0.1,0.2-0.2,0-0.2,0.3c0,0.3,0.4,0.2,0.8,0.3c0.4,0.1,0.8,1.1,1,1.6
			c0.2,0.5,0.4,1,0.7,1.1c0.2,0.1,0.2,0.3,0.7,0.4c0.5,0.1,0.8,0.5,1.1,0.5c0.3,0,0.3,0.5,0.2,0.6c-0.1,0.2,0,0.2,0.1,0.9
			c0.1,0.7-0.1,2.2-0.2,2.4c-0.1,0.2-0.1,0.1,0.1,0.3c0.1,0.1-0.2,0.7-0.2,0.8c0,0.2-0.3,0.3-0.4,0.4c-0.1,0.2,0.2,0.2,0.2,0.3
			c0,0.1-0.1,0.5,0,0.6c0.1,0.1,0.3,0.1,0.3,0.3c0,0.2-0.1,0.4-0.4,0.4c-0.2,0-0.2,0.2-0.1,0.2c0.1-0.1,0.2,0,0.2,0l0.2,0.3
			c0.6-0.1,1.1-0.1,1.6-0.2c0.1-0.1,0.2-0.2,0.3-0.3c0.3,0,0.1-0.3,0-0.9c-0.2-0.6,0.4-0.1,0.7-0.2c0.3-0.1,0.2-0.6,0.7-0.7
			c0.5-0.1,1-0.5,1.2-0.8c0.2-0.3-0.1-0.5,0.7-0.4c0.7,0.1,1.4-0.9,2-1.6c0.6-0.7,0.1-0.9,1.1-1.6c1-0.7,2.7-2.4,2.8-3
			c0.1-0.6-0.2-0.6,0.4-1c0.6-0.4,1.3-1.5,1.4-1.8C83.2,437.1,83.1,436.6,82.9,436.6z"/>
		<path class="st13" d="M77.2,399.6c-0.9,0-1,0.9-0.3,1c0.8,0.1,2.3,0.1,2.6,1.3c0.3,1.1-0.8,1.4,0,2c0.8,0.5-0.2,1.1-0.2,1.9
			c0,0.8,0.4,1.4,0.9,1.8c0.5,0.4,1.1,0.9,1.1,1.3c0,0.3,0.6,0.2,0.6,0.2s0-0.2,0-0.5c0-0.3,0.5-0.6,0.5-1.3c0-0.8,0.4-0.7,0.7-0.7
			c0.3,0,0.9,0,1.1,0c0.2,0,1.3,0,1.3-0.5c0.1-0.5-0.7-1.4-0.7-1.4s0.5-0.7,0.4-1.1c0-0.1,0-0.2-0.1-0.4c-2.2-1.9-4.7-3.5-7.4-4.7
			C77.9,398.9,77.8,399.6,77.2,399.6z"/>
		<path class="st13" d="M93.2,421.6c-1.5-1.3-2.6-1.3-2.7-0.9c-0.1,0.3,1.1,1.5,0,3c-1.1,1.5-1.9,2.1-1.5,3.3
			c0.4,1.2-1.7,2.3-0.1,3.4c1.6,1.1,1.3,1.1,2.4,1c1.1-0.1,1,1.7,0.9,2c1.3-3.2,2-6.6,2-10.2c0-0.1,0-0.2,0-0.3
			C94,422.5,93.7,422.1,93.2,421.6z"/>
		<path class="st14" d="M70,449.7c13.6-1.2,24.2-12.7,24.2-26.6c0-13.2-9.5-24.1-22.1-26.3C87.6,403,95.3,440.8,70,449.7z"/>
	</g>
	<g id="Data_7_">
		<path class="st15" d="M154.5,198.5l-5.9-7.6c-5,4.2-11.6,6.8-18.6,6.8c-3.5,0-6.8-0.6-9.9-1.7l-2.6,9.3c3.9,1.3,8.1,2.1,12.5,2.1
			C139.3,207.3,147.8,204,154.5,198.5z"/>
		<path class="st16" d="M148.6,190.9l5.9,7.6c8.7-7.1,14.2-17.9,14.2-30c0-5.1-1-10-2.8-14.5l-9.5,2.4c1.7,3.7,2.6,7.8,2.6,12.1
			C159.1,177.5,155,185.5,148.6,190.9z"/>
		<path class="st17" d="M116.9,142.5l-3.8-8.9c-12.9,6.3-21.8,19.5-21.8,34.9c0,17,11,31.5,26.2,36.7l2.6-9.3
			c-11.2-4-19.2-14.8-19.2-27.4C100.9,157.2,107.4,147.3,116.9,142.5z"/>
		<path class="st18" d="M130,139.5c11.8,0,21.9,7,26.5,17l9.5-2.4c-5.7-14.2-19.7-24.3-35.9-24.3c-6,0-11.8,1.4-16.9,3.9l3.8,8.9
			C120.9,140.6,125.3,139.5,130,139.5z"/>
	</g>
	<g id="Data_6_">
		<path class="st15" d="M237.1,195l-3.9-5c-3.3,2.8-7.6,4.5-12.3,4.5c-2.3,0-4.5-0.4-6.5-1.1l-1.7,6.1c2.6,0.9,5.4,1.4,8.2,1.4
			C227,200.7,232.6,198.6,237.1,195z"/>
		<path class="st16" d="M233.2,189.9l3.9,5c5.7-4.7,9.3-11.8,9.3-19.7c0-3.4-0.7-6.6-1.8-9.5l-6.2,1.6c1.1,2.4,1.7,5.1,1.7,7.9
			C240,181.1,237.4,186.4,233.2,189.9z"/>
		<path class="st17" d="M212.3,158.1l-2.5-5.8c-8.5,4.1-14.4,12.9-14.4,23c0,11.2,7.2,20.7,17.3,24.1l1.7-6.1
			c-7.4-2.7-12.6-9.7-12.6-18C201.7,167.7,206,161.3,212.3,158.1z"/>
		<path class="st18" d="M220.9,156.1c7.7,0,14.4,4.6,17.4,11.2l6.2-1.6c-3.8-9.4-12.9-16-23.7-16c-4,0-7.8,0.9-11.1,2.5l2.5,5.8
			C214.9,156.8,217.8,156.1,220.9,156.1z"/>
	</g>
	<g id="Data_5_">
		<path class="st15" d="M294.1,191.5l-2.2-2.9c-1.9,1.6-4.3,2.5-7,2.5c-1.3,0-2.5-0.2-3.7-0.7l-1,3.5c1.5,0.5,3,0.8,4.7,0.8
			C288.4,194.8,291.6,193.6,294.1,191.5z"/>
		<path class="st16" d="M291.9,188.7l2.2,2.9c3.2-2.7,5.3-6.7,5.3-11.2c0-1.9-0.4-3.7-1-5.4l-3.5,0.9c0.6,1.4,1,2.9,1,4.5
			C295.8,183.7,294.3,186.7,291.9,188.7z"/>
		<path class="st17" d="M280,170.6l-1.4-3.3c-4.8,2.3-8.2,7.3-8.2,13c0,6.4,4.1,11.8,9.8,13.7l1-3.5c-4.2-1.5-7.2-5.5-7.2-10.2
			C274,176.1,276.5,172.4,280,170.6z"/>
		<path class="st18" d="M284.9,169.4c4.4,0,8.2,2.6,9.9,6.4l3.5-0.9c-2.1-5.3-7.4-9.1-13.4-9.1c-2.3,0-4.4,0.5-6.3,1.5l1.4,3.3
			C281.5,169.9,283.1,169.4,284.9,169.4z"/>
	</g>
	<g id="Key_6_">
		<path class="st19" d="M305.7,409.2h3.9v-6c0-1.7-1.4-3-3-3h-16.5c-1.7,0-3,1.4-3,3v24.7c0,1.7,1.4,3,3,3h0.9v-27.6h14.6V409.2z"/>
		<path class="st20" d="M313.1,446.1c0,1.7-1.4,3-3,3h-23.3c-1.7,0-3-1.4-3-3v-25.8c0-1.7,1.4-3,3-3h23.3c1.7,0,3,1.4,3,3V446.1z"/>
		<path class="st21" d="M301.1,430.2c0-1.4-1.2-2.6-2.6-2.6c-1.4,0-2.6,1.2-2.6,2.6c0,1,0.6,1.8,1.4,2.3v6.3h2.5v-6.3
			C300.5,432.1,301.1,431.2,301.1,430.2z"/>
		<path class="st3" d="M298.5,428.2c-1.1,0-2.1,0.9-2.1,2.1c0,0.8,0.4,1.5,1.1,1.8v5v1.3h2v-1.3l0,0v-5c0.6-0.4,1.1-1,1.1-1.8
			C300.5,429.1,299.6,428.2,298.5,428.2z"/>
		<path class="st22" d="M286.8,449.1h23.3c1.7,0,3-1.4,3-3v-25.8c0-1.1-0.6-2.1-1.5-2.6l-25.9,31.2
			C286.1,449.1,286.4,449.1,286.8,449.1z"/>
	</g>
	<g id="Command_3_">
		<g>
			<path class="st23" d="M187.7,407.4c13,0,23.6,8.1,23.6,18c0,7-5.1,13-12.7,16c0.8,1.9,2.4,4.2,5.3,6c0,0-5.2-2.2-8-5.1
				c-2.6,0.7-5.3,1.1-8.2,1.1c-13,0-23.6-8.1-23.6-18.1C164.1,415.5,174.7,407.4,187.7,407.4z"/>
			<g>
				<circle class="st22" cx="201.9" cy="425.4" r="2"/>
				<circle class="st22" cx="194.3" cy="425.4" r="2"/>
				<circle class="st22" cx="187.2" cy="425.4" r="2"/>
				<ellipse class="st22" cx="180.1" cy="425.4" rx="2" ry="2"/>
				<circle class="st22" cx="172.6" cy="425.4" r="2"/>
			</g>
			<path class="st22" d="M211.3,425.4c0,7-5.1,13-12.7,16c0.8,1.9,2.4,4.2,5.3,6c0,0-5.2-2.2-8-5.1c-2.6,0.7-5.3,1.1-8.2,1.1
				c-13,0-23.6-8.1-23.6-18.1H211.3z"/>
		</g>
		<g>
			<path class="st4" d="M178.1,401.9c-13,0-23.6,8.1-23.6,18c0,7,5.1,13,12.7,16c-0.8,1.9-2.4,4.2-5.3,6c0,0,5.2-2.2,8-5.1
				c2.6,0.7,5.3,1.1,8.2,1.1c13,0,23.6-8.1,23.6-18.1C201.7,410,191.1,401.9,178.1,401.9z"/>
			<g>
				<circle class="st22" cx="163.9" cy="419.9" r="2"/>
				<circle class="st22" cx="171.5" cy="419.9" r="2"/>
				<circle class="st22" cx="178.6" cy="419.9" r="2"/>
				<circle class="st22" cx="185.7" cy="419.9" r="2"/>
				<circle class="st22" cx="193.2" cy="419.9" r="2"/>
			</g>
			<path class="st22" d="M154.5,419.9c0,7,5.1,13,12.7,16c-0.8,1.9-2.4,4.2-5.3,6c0,0,5.2-2.2,8-5.1c2.6,0.7,5.3,1.1,8.2,1.1
				c13,0,23.6-8.1,23.6-18.1H154.5z"/>
		</g>
	</g>
</g>
</svg>
