<?xml version="1.0" encoding="utf-8"?>
<!-- Generator: Adobe Illustrator 21.1.0, SVG Export Plug-In . SVG Version: 6.00 Build 0)  -->
<svg version="1.1" id="Web_and_Development" xmlns="http://www.w3.org/2000/svg" xmlns:xlink="http://www.w3.org/1999/xlink"
	 x="0px" y="0px" viewBox="0 0 1067.7 1163.1" style="enable-background:new 0 0 1067.7 1163.1;" xml:space="preserve">
<style type="text/css">
	.st0{fill:#FFB85A;}
	.st1{fill:#DDCAB3;}
	.st2{fill:#F9D5A5;}
	.st3{opacity:0.2;}
	.st4{opacity:0.1;}
	.st5{fill-rule:evenodd;clip-rule:evenodd;fill:#0B2E44;}
	.st6{opacity:0.8;fill-rule:evenodd;clip-rule:evenodd;fill:#39C3DE;}
	.st7{opacity:0.1;fill-rule:evenodd;clip-rule:evenodd;}
	.st8{fill:#EFEFEF;}
	.st9{fill:#4DABCF;}
	.st10{fill:#D8472A;}
	.st11{fill:#0093A2;}
	.st12{fill:#E2614B;}
	.st13{fill:#F9DEBD;}
	.st14{opacity:0.5;fill:#FFFFFF;}
	.st15{fill:#0B2E44;}
	.st16{opacity:0.7;fill:#FFFFFF;}
	.st17{opacity:0.7;}
	.st18{fill:#19475E;}
	.st19{fill:#EAE8E8;}
	.st20{fill:#0898AF;}
	.st21{fill:#3F3F3F;}
	.st22{fill:#E0E0E0;}
	.st23{opacity:0.2;fill:#FFFFFF;}
	.st24{fill:#1C8254;}
</style>
<g id="E-Commerce">
	<g id="Background_21_">
		<circle id="Background_2_21_" class="st0" cx="535.7" cy="618.9" r="532"/>
	</g>
	<g id="E-Commerce_2_">
		<g id="Acces_2_">
			<path class="st1" d="M532.8,757.6h122.5l52.7,121.8v283.7H456.4v-51.4c0,0-99.9-72.4-107.1-130.4c0,0,33-4.7,125.8-6
				c92.8-1.3,100.5-51.9,151.8-80.2l-17.8-59.3C609.2,835.9,535.5,837.9,532.8,757.6z"/>
			<path class="st2" d="M370.5,680.5c-6.7,11.3-25,12.7-41,3.3l-42.2-25c-16-9.5-23.5-26.3-16.8-37.5l4-6.8c6.7-11.3,25-12.7,41-3.3
				l42.2,25c16,9.5,23.5,26.3,16.8,37.5L370.5,680.5z"/>
			<path class="st3" d="M350.2,986.4c1.4,6.5,3.8,13.2,7.1,20h263.6l10.6-52.4h-70l-7.2,0.6c-18.2,11.8-41.7,20.3-79,20.8
				c-65.3,0.9-101,3.5-116.4,5L350.2,986.4z"/>
			<path class="st4" d="M357.7,636.2l-14.2-8.4v61.4c11.5,2.4,22.3-0.7,27-8.7l4-6.8C381.2,662.4,373.6,645.6,357.7,636.2z"/>
			<g id="Phone_6_">
				<path class="st5" d="M660.1,978.8c0,10.1-8.2,18.3-18.3,18.3H367.5c-10.1,0-18.3-8.2-18.3-18.3V474.4c0-10.1,8.2-18.3,18.3-18.3
					h274.3c10.1,0,18.3,8.2,18.3,18.3V978.8z"/>
				<rect x="377.8" y="520.3" class="st6" width="253.6" height="369.9"/>
				<polygon class="st7" points="631.4,520.3 626.7,520.3 377.8,875.2 377.8,890.1 631.4,890.1 				"/>
			</g>
			<g>
				<rect x="377.8" y="520.3" class="st8" width="253.6" height="369.9"/>
				<rect x="377.8" y="520.3" class="st9" width="253.6" height="52.3"/>
				<rect x="377.8" y="618.9" class="st10" width="253.6" height="94.4"/>
				<rect x="393.3" y="736.8" class="st10" width="27.2" height="27.2"/>
				<rect x="393.3" y="788.8" class="st10" width="27.2" height="27.2"/>
				<rect x="393.3" y="841.8" class="st10" width="27.2" height="27.2"/>
				<g>
					<rect x="440" y="736.8" class="st11" width="126.7" height="2.9"/>
					<rect x="440" y="744" class="st11" width="126.7" height="3.5"/>
					<rect x="440" y="753.1" class="st11" width="126.7" height="2.9"/>
					<rect x="440" y="761.1" class="st11" width="126.7" height="2.9"/>
				</g>
				<g>
					<rect x="440" y="788.8" class="st11" width="126.7" height="2.9"/>
					<rect x="440" y="796" class="st11" width="126.7" height="3.5"/>
					<rect x="440" y="805.1" class="st11" width="126.7" height="2.9"/>
					<rect x="440" y="813.1" class="st11" width="126.7" height="2.9"/>
				</g>
				<g>
					<rect x="440" y="841.8" class="st11" width="126.7" height="2.9"/>
					<rect x="440" y="849" class="st11" width="126.7" height="3.5"/>
					<rect x="440" y="858" class="st11" width="126.7" height="2.9"/>
					<rect x="440" y="866" class="st11" width="126.7" height="2.9"/>
				</g>
				<circle class="st12" cx="504.6" cy="666.1" r="43.2"/>
			</g>
			<path class="st13" d="M733.8,879.4l-52.7-121.8H558.7c2.6,80.3,76.4,78.3,76.4,78.3l17.8,59.3c-51.4,28.3-60.6,103.4-60.6,103.4
				s-17.7,102.4,47.9,164.6h93.6V879.4z"/>
			<g>
				<path class="st2" d="M370.5,765.4c-6.7,11.3-21.2,15-32.5,8.3l-29.7-17.6c-11.3-6.7-15-21.2-8.3-32.5l4-6.8
					c6.7-11.3,21.2-15,32.5-8.3l29.7,17.6c11.3,6.7,15,21.2,8.3,32.5L370.5,765.4z"/>
				<path class="st14" d="M362.9,729.8l-2.9-1.7l-22.8,39.2l2.6,1.5c9.2,5.5,21.1,2.4,26.6-6.8l3.3-5.6
					C375.2,747.2,372.1,735.3,362.9,729.8z"/>
			</g>
			<g>
				<path class="st2" d="M370.5,843.7c-6.7,11.3-21.2,15-32.5,8.3l-29.7-17.6c-11.3-6.7-15-21.2-8.3-32.5l4-6.8
					c6.7-11.3,21.2-15,32.5-8.3l29.7,17.6c11.3,6.7,15,21.2,8.3,32.5L370.5,843.7z"/>
				<path class="st14" d="M362.9,808.1l-2.9-1.7l-22.8,39.2l2.6,1.5c9.2,5.5,21.1,2.4,26.6-6.8l3.3-5.6
					C375.2,825.5,372.1,813.6,362.9,808.1z"/>
			</g>
			<g>
				<path class="st2" d="M364.6,915.8c-5.5,9.3-17.4,12.3-26.7,6.8l-24.5-14.5c-9.3-5.5-12.3-17.4-6.8-26.7l3.3-5.6
					c5.5-9.3,17.4-12.3,26.7-6.8l24.5,14.5c9.3,5.5,12.3,17.4,6.8,26.7L364.6,915.8z"/>
				<path class="st14" d="M358.3,886.5l-2.4-1.4l-18.8,32.2l2.1,1.3c7.6,4.5,17.4,2,21.9-5.6l2.7-4.6
					C368.5,900.8,365.9,891,358.3,886.5z"/>
			</g>
			<path class="st14" d="M611.7,759.1c0-0.5,0-1-0.1-1.5h-46.2c-0.1,0.5-0.1,1-0.1,1.5c0,9.6,10.4,17.4,23.2,17.4
				C601.3,776.6,611.7,768.8,611.7,759.1z"/>
			<g>
				<path class="st15" d="M462.1,653.7v28.4c0,10.6,8.6,19.2,19.2,19.2h46.6c10.6,0,19.2-8.6,19.2-19.2v-28.4H462.1z"/>
				<path class="st16" d="M471.6,688.6c0,1.1-0.9,2-2,2l0,0c-1.1,0-2-0.9-2-2v-26.9c0-1.1,0.9-2,2-2l0,0c1.1,0,2,0.9,2,2V688.6z"/>
				<path class="st17" d="M475.6,688.6c0,1.1-0.9,2-2,2l0,0c-1.1,0-2-0.9-2-2v-26.9c0-1.1,0.9-2,2-2l0,0c1.1,0,2,0.9,2,2V688.6z"/>
				<path class="st17" d="M491.2,688.6c0,1.1-0.9,2-2,2l0,0c-1.1,0-2-0.9-2-2v-26.9c0-1.1,0.9-2,2-2l0,0c1.1,0,2,0.9,2,2V688.6z"/>
				<path class="st17" d="M506.8,688.6c0,1.1-0.9,2-2,2l0,0c-1.1,0-2-0.9-2-2v-26.9c0-1.1,0.9-2,2-2l0,0c1.1,0,2,0.9,2,2V688.6z"/>
				<path class="st17" d="M523.5,688.6c0,1.1-0.9,2-2,2l0,0c-1.1,0-2-0.9-2-2v-26.9c0-1.1,0.9-2,2-2l0,0c1.1,0,2,0.9,2,2V688.6z"/>
				<path class="st17" d="M539.8,688.6c0,1.1-0.9,2-2,2l0,0c-1.1,0-2-0.9-2-2v-26.9c0-1.1,0.9-2,2-2l0,0c1.1,0,2,0.9,2,2V688.6z"/>
				<path class="st16" d="M487.2,688.6c0,1.1-0.9,2-2,2l0,0c-1.1,0-2-0.9-2-2v-26.9c0-1.1,0.9-2,2-2l0,0c1.1,0,2,0.9,2,2V688.6z"/>
				<path class="st16" d="M502.8,688.6c0,1.1-0.9,2-2,2l0,0c-1.1,0-2-0.9-2-2v-26.9c0-1.1,0.9-2,2-2l0,0c1.1,0,2,0.9,2,2V688.6z"/>
				<path class="st16" d="M519.5,688.6c0,1.1-0.9,2-2,2l0,0c-1.1,0-2-0.9-2-2v-26.9c0-1.1,0.9-2,2-2l0,0c1.1,0,2,0.9,2,2V688.6z"/>
				<path class="st16" d="M535.8,688.6c0,1.1-0.9,2-2,2l0,0c-1.1,0-2-0.9-2-2v-26.9c0-1.1,0.9-2,2-2l0,0c1.1,0,2,0.9,2,2V688.6z"/>
				<path class="st18" d="M554,649.3c0,2.7-2.2,4.9-4.9,4.9h-89.1c-2.7,0-4.9-2.2-4.9-4.9l0,0c0-2.7,2.2-4.9,4.9-4.9h89.1
					C551.8,644.5,554,646.6,554,649.3L554,649.3z"/>
				<path class="st15" d="M540,633.8c0.4,1.9-0.9,3.8-2.8,4.2l-63.9,12.9c-1.9,0.4-3.8-0.9-4.2-2.8l0,0c-0.4-1.9,0.9-3.8,2.8-4.2
					l63.9-12.9C537.8,630.6,539.6,631.9,540,633.8L540,633.8z"/>
			</g>
		</g>
		<g id="Search_2_">
			<path class="st19" d="M607,550.6c0,4-3.3,7.3-7.3,7.3H407.4c-4,0-7.3-3.3-7.3-7.3v-3.8c0-4,3.3-7.3,7.3-7.3h192.3
				c4,0,7.3,3.3,7.3,7.3V550.6z"/>
			<path class="st20" d="M599.7,539.6h-35.5v18.4h35.5c4,0,7.3-3.3,7.3-7.3v-3.8C607,542.8,603.7,539.6,599.7,539.6z"/>
			<g>
				<path class="st21" d="M412.4,546.4c-0.1,0.2-0.3,0.4-0.5,0.6c-0.2,0.2-0.4,0.4-0.6,0.6c-0.2,0.2-0.4,0.4-0.6,0.6
					c-0.2,0.2-0.4,0.4-0.6,0.6c0.2,0.1,0.4,0.3,0.7,0.5c0.2,0.2,0.5,0.4,0.7,0.7c0.2,0.2,0.4,0.5,0.6,0.7c0.2,0.3,0.4,0.5,0.5,0.7
					h-0.8c-0.1-0.2-0.3-0.5-0.5-0.7c-0.2-0.2-0.4-0.4-0.6-0.7c-0.2-0.2-0.4-0.4-0.6-0.6c-0.2-0.2-0.4-0.3-0.6-0.5v2.4h-0.7v-5.1h0.7
					v2.2c0.2-0.2,0.4-0.3,0.6-0.5c0.2-0.2,0.4-0.4,0.6-0.6c0.2-0.2,0.4-0.4,0.6-0.6c0.2-0.2,0.3-0.4,0.4-0.5H412.4z"/>
				<path class="st21" d="M413.3,551.4v-5.1h3.1v0.6H414v1.5h2.1v0.6H414v1.8h2.6v0.6H413.3z"/>
				<path class="st21" d="M418.6,551.4v-2c-0.3-0.5-0.6-1-0.9-1.5c-0.3-0.5-0.6-1-0.8-1.5h0.8c0.2,0.4,0.4,0.8,0.6,1.2
					c0.2,0.4,0.5,0.8,0.7,1.2c0.2-0.4,0.5-0.8,0.7-1.2c0.2-0.4,0.4-0.8,0.6-1.2h0.8c-0.3,0.5-0.5,1-0.8,1.5c-0.3,0.5-0.6,1-0.9,1.5
					v2H418.6z"/>
				<path class="st21" d="M426.3,548c-0.2,0.7-0.4,1.3-0.6,1.8c-0.2,0.6-0.4,1.1-0.6,1.6h-0.7c-0.3-0.7-0.5-1.5-0.7-2.4
					c-0.2-0.8-0.4-1.7-0.6-2.7h0.7c0.1,0.4,0.1,0.8,0.2,1.1c0.1,0.4,0.1,0.7,0.2,1.1c0.1,0.4,0.2,0.7,0.2,1c0.1,0.3,0.2,0.6,0.2,0.9
					c0.2-0.5,0.4-1.1,0.6-1.7c0.2-0.6,0.4-1.2,0.6-1.9h0.6c0.2,0.7,0.4,1.3,0.6,1.9c0.2,0.6,0.4,1.2,0.6,1.7
					c0.1-0.3,0.2-0.6,0.2-0.9c0.1-0.3,0.2-0.7,0.2-1c0.1-0.4,0.1-0.7,0.2-1.1c0.1-0.4,0.1-0.8,0.2-1.1h0.7c-0.2,1-0.4,1.9-0.6,2.7
					c-0.2,0.8-0.4,1.6-0.7,2.4h-0.7c-0.2-0.5-0.4-1.1-0.6-1.6C426.7,549.3,426.5,548.7,426.3,548z"/>
				<path class="st21" d="M429.9,548.9c0-0.4,0.1-0.8,0.2-1.1c0.1-0.3,0.3-0.6,0.5-0.8c0.2-0.2,0.5-0.4,0.8-0.5
					c0.3-0.1,0.6-0.2,0.9-0.2c0.3,0,0.6,0.1,0.9,0.2c0.3,0.1,0.5,0.3,0.8,0.5c0.2,0.2,0.4,0.5,0.5,0.8c0.1,0.3,0.2,0.7,0.2,1.1
					c0,0.4-0.1,0.8-0.2,1.1c-0.1,0.3-0.3,0.6-0.5,0.8c-0.2,0.2-0.5,0.4-0.8,0.5c-0.3,0.1-0.6,0.2-0.9,0.2c-0.3,0-0.6-0.1-0.9-0.2
					c-0.3-0.1-0.6-0.3-0.8-0.5c-0.2-0.2-0.4-0.5-0.5-0.8C430,549.7,429.9,549.3,429.9,548.9z M430.7,548.9c0,0.3,0,0.6,0.1,0.8
					c0.1,0.3,0.2,0.5,0.3,0.6c0.1,0.2,0.3,0.3,0.5,0.4c0.2,0.1,0.4,0.1,0.7,0.1c0.3,0,0.5,0,0.7-0.1c0.2-0.1,0.4-0.2,0.5-0.4
					c0.1-0.2,0.3-0.4,0.3-0.6c0.1-0.2,0.1-0.5,0.1-0.8c0-0.3,0-0.6-0.1-0.8c-0.1-0.2-0.2-0.5-0.3-0.6c-0.1-0.2-0.3-0.3-0.5-0.4
					c-0.2-0.1-0.4-0.1-0.7-0.1c-0.3,0-0.5,0-0.7,0.1c-0.2,0.1-0.4,0.2-0.5,0.4c-0.1,0.2-0.3,0.4-0.3,0.6
					C430.7,548.3,430.7,548.6,430.7,548.9z"/>
				<path class="st21" d="M438.3,549.3c0.1,0.1,0.2,0.2,0.3,0.4c0.1,0.2,0.2,0.3,0.4,0.5c0.1,0.2,0.3,0.4,0.4,0.6
					c0.1,0.2,0.2,0.4,0.3,0.6h-0.8c-0.1-0.2-0.2-0.4-0.3-0.6c-0.1-0.2-0.2-0.4-0.3-0.5c-0.1-0.2-0.2-0.3-0.3-0.5
					c-0.1-0.1-0.2-0.3-0.3-0.4c-0.1,0-0.1,0-0.2,0c-0.1,0-0.1,0-0.2,0h-0.6v2h-0.7v-5c0.2,0,0.4-0.1,0.7-0.1c0.2,0,0.5,0,0.7,0
					c0.7,0,1.3,0.1,1.6,0.4s0.6,0.7,0.6,1.2c0,0.3-0.1,0.6-0.3,0.9C438.9,549,438.6,549.2,438.3,549.3z M437.2,547
					c-0.3,0-0.5,0-0.7,0v1.9h0.5c0.2,0,0.5,0,0.7,0c0.2,0,0.4-0.1,0.5-0.1c0.1-0.1,0.2-0.2,0.3-0.3c0.1-0.1,0.1-0.3,0.1-0.5
					c0-0.2,0-0.4-0.1-0.5c-0.1-0.1-0.2-0.2-0.3-0.3c-0.1-0.1-0.3-0.1-0.4-0.2C437.6,547,437.4,547,437.2,547z"/>
				<path class="st21" d="M444.6,548.9c0,0.4-0.1,0.8-0.2,1.1c-0.1,0.3-0.3,0.6-0.6,0.8c-0.2,0.2-0.5,0.4-0.9,0.5
					c-0.3,0.1-0.7,0.2-1.1,0.2c-0.2,0-0.4,0-0.7,0c-0.2,0-0.5-0.1-0.7-0.1v-4.9c0.2,0,0.4-0.1,0.7-0.1c0.2,0,0.5,0,0.7,0
					c0.4,0,0.8,0,1.1,0.2c0.3,0.1,0.6,0.3,0.9,0.5c0.2,0.2,0.4,0.5,0.6,0.8C444.5,548.1,444.6,548.5,444.6,548.9z M441.8,550.9
					c0.7,0,1.2-0.2,1.5-0.5c0.3-0.3,0.5-0.8,0.5-1.4c0-0.6-0.2-1.1-0.5-1.4c-0.3-0.3-0.8-0.5-1.5-0.5c-0.2,0-0.4,0-0.5,0
					c-0.1,0-0.2,0-0.2,0v3.9c0,0,0.1,0,0.2,0C441.5,550.9,441.6,550.9,441.8,550.9z"/>
				<path class="st21" d="M446.1,551.1c0,0.1,0,0.2-0.1,0.3c-0.1,0.1-0.2,0.1-0.4,0.1c-0.1,0-0.3-0.1-0.4-0.1
					c-0.1-0.1-0.1-0.2-0.1-0.3c0-0.1,0-0.2,0.1-0.3c0.1-0.1,0.2-0.1,0.4-0.1c0.1,0,0.3,0,0.4,0.1
					C446.1,550.8,446.1,550.9,446.1,551.1z"/>
				<path class="st21" d="M447.9,551.1c0,0.1,0,0.2-0.1,0.3c-0.1,0.1-0.2,0.1-0.4,0.1c-0.1,0-0.3-0.1-0.4-0.1
					c-0.1-0.1-0.1-0.2-0.1-0.3c0-0.1,0-0.2,0.1-0.3c0.1-0.1,0.2-0.1,0.4-0.1c0.2,0,0.3,0,0.4,0.1
					C447.9,550.8,447.9,550.9,447.9,551.1z"/>
				<path class="st21" d="M449.7,551.1c0,0.1,0,0.2-0.1,0.3c-0.1,0.1-0.2,0.1-0.4,0.1c-0.1,0-0.3-0.1-0.4-0.1
					c-0.1-0.1-0.1-0.2-0.1-0.3c0-0.1,0-0.2,0.1-0.3c0.1-0.1,0.2-0.1,0.4-0.1c0.1,0,0.3,0,0.4,0.1
					C449.7,550.8,449.7,550.9,449.7,551.1z"/>
			</g>
			<g>
				<path class="st22" d="M571.5,546.1v0.6h-1.6v4.4h-0.7v-4.4h-1.6v-0.6H571.5z"/>
				<path class="st22" d="M573.7,551.1v-2c-0.3-0.5-0.6-1-0.9-1.5c-0.3-0.5-0.6-1-0.8-1.5h0.8c0.2,0.4,0.4,0.8,0.6,1.2
					c0.2,0.4,0.5,0.8,0.7,1.2c0.2-0.4,0.5-0.8,0.7-1.2c0.2-0.4,0.4-0.8,0.6-1.2h0.8c-0.3,0.5-0.5,1-0.8,1.5c-0.3,0.5-0.6,1-0.9,1.5
					v2H573.7z"/>
				<path class="st22" d="M578.2,546c0.7,0,1.3,0.1,1.6,0.4c0.4,0.3,0.6,0.7,0.6,1.2c0,0.3-0.1,0.5-0.2,0.7
					c-0.1,0.2-0.3,0.4-0.4,0.5c-0.2,0.1-0.4,0.2-0.7,0.3s-0.6,0.1-1,0.1h-0.6v1.9h-0.7v-5c0.2-0.1,0.4-0.1,0.7-0.1
					C577.8,546,578,546,578.2,546z M578.2,546.7c-0.3,0-0.5,0-0.7,0v2h0.5c0.2,0,0.5,0,0.7,0c0.2,0,0.4-0.1,0.5-0.2
					c0.1-0.1,0.2-0.2,0.3-0.3c0.1-0.1,0.1-0.3,0.1-0.5c0-0.2,0-0.4-0.1-0.5c-0.1-0.1-0.2-0.2-0.3-0.3c-0.1-0.1-0.3-0.1-0.4-0.2
					C578.6,546.7,578.4,546.7,578.2,546.7z"/>
				<path class="st22" d="M581.3,551.1v-5.1h3.1v0.6H582v1.5h2.1v0.6H582v1.8h2.6v0.6H581.3z"/>
				<path class="st22" d="M590.5,546.1v0.6h-1.6v4.4h-0.7v-4.4h-1.6v-0.6H590.5z"/>
				<path class="st22" d="M591.3,551.1v-5.1h3.1v0.6H592v1.5h2.1v0.6H592v1.8h2.6v0.6H591.3z"/>
				<path class="st22" d="M598.5,551.1c-0.1-0.1-0.2-0.3-0.3-0.5c-0.1-0.2-0.2-0.4-0.3-0.6c-0.1-0.2-0.2-0.4-0.4-0.6
					c-0.1-0.2-0.3-0.4-0.4-0.5c-0.1,0.2-0.3,0.4-0.4,0.5c-0.1,0.2-0.3,0.4-0.4,0.6c-0.1,0.2-0.2,0.4-0.3,0.6
					c-0.1,0.2-0.2,0.3-0.3,0.5H595c0.2-0.4,0.5-0.9,0.8-1.3c0.3-0.4,0.6-0.9,0.9-1.4l-1.6-2.4h0.8l1.3,1.9l1.2-1.9h0.8l-1.6,2.4
					c0.3,0.5,0.6,0.9,0.9,1.4c0.3,0.4,0.6,0.9,0.8,1.3H598.5z"/>
				<path class="st22" d="M603.5,546.1v0.6h-1.6v4.4h-0.7v-4.4h-1.6v-0.6H603.5z"/>
			</g>
			<path class="st23" d="M602.4,543c0,0.6-0.5,1.1-1.1,1.1h-33.7c-0.6,0-1.1-0.5-1.1-1.1l0,0c0-0.6,0.5-1.1,1.1-1.1h33.7
				C601.9,541.9,602.4,542.4,602.4,543L602.4,543z"/>
		</g>
		<g id="Money">
			<path class="st24" d="M464.5,492.7c-2.5-5.7-6-10.5-10.5-14.5c-4.6-4-10.1-7.5-16.5-10.5c-6.5-3-13.8-6.1-22-9.2
				c-6.2-2.2-11.6-4.3-16-6.3c-4.5-2-8.2-4.2-11.2-6.5c-3-2.3-5.2-4.9-6.7-7.8c-1.5-2.9-2.2-6.2-2.2-10c0-7.4,3.2-12.7,9.7-16.2
				c6.5-3.5,14-5.2,22.7-5.2c10,0,18.6,1,25.7,2.8c7.1,1.9,12.4,3.7,15.7,5.5l5.7-26.7c-1.8-0.7-4.3-1.4-7.5-2.3
				c-3.2-0.9-7-1.7-11.2-2.5c-4.2-0.8-8.8-1.4-13.7-2c-2.9-0.3-5.7-0.5-8.6-0.7v-27.9H396v28.8c-12.3,1.8-22.5,6-30.7,12.4
				c-11.4,9-17,21.2-17,36.6c0,7.8,1.3,14.4,4,19.7c2.7,5.3,6.2,9.9,10.7,13.7c4.4,3.8,9.7,7.1,15.9,9.9c6.1,2.8,12.5,5.5,19.2,8.2
				c13.8,5.6,23.7,10.6,29.7,15c6,4.5,9,10.5,9,18c0,7.4-3.1,12.7-9.2,16c-6.1,3.3-15.5,5-28.2,5c-12.9,0-23.3-1.3-31.1-4
				c-7.8-2.7-13.5-4.7-17-6l-5.7,26.7c3.1,1.3,9,3.3,17.7,5.8c8.4,2.5,19.9,3.7,34.5,3.8V591h21.9v-30c12.5-1.8,22.7-5.5,30.7-11
				c11.9-8.2,17.9-20.4,17.9-36.4C468.2,505.3,467,498.4,464.5,492.7z"/>
			<path class="st24" d="M627,349.3c-1.6-3.8-4-7-7-9.7c-3.1-2.7-6.7-5-11-7c-4.3-2-9.2-4.1-14.7-6.1c-4.2-1.5-7.7-2.9-10.7-4.2
				c-3-1.3-5.5-2.8-7.5-4.4c-2-1.6-3.5-3.3-4.5-5.2c-1-1.9-1.4-4.2-1.4-6.7c0-4.9,2.2-8.5,6.5-10.8c4.3-2.3,9.4-3.5,15.2-3.5
				c6.7,0,12.4,0.6,17.2,1.9c4.8,1.3,8.3,2.5,10.5,3.7l3.8-17.9c-1.2-0.4-2.9-1-5-1.6c-2.2-0.6-4.7-1.2-7.5-1.7
				c-2.8-0.5-5.9-1-9.1-1.3c-1.9-0.2-3.8-0.4-5.8-0.4v-18.6h-14.6V275c-8.2,1.2-15.1,4-20.5,8.3c-7.6,6-11.4,14.2-11.4,24.4
				c0,5.2,0.9,9.6,2.7,13.2c1.8,3.6,4.2,6.6,7.1,9.2c3,2.5,6.5,4.7,10.6,6.6c4.1,1.9,8.4,3.7,12.8,5.5c9.2,3.7,15.8,7.1,19.9,10
				c4,3,6,7,6,12.1c0,4.9-2,8.5-6.1,10.7c-4.1,2.2-10.4,3.3-18.9,3.3c-8.6,0-15.5-0.9-20.8-2.7c-5.2-1.8-9-3.1-11.4-4l-3.8,17.9
				c2.1,0.9,6,2.2,11.8,3.9c5.6,1.6,13.3,2.5,23,2.6V415H597v-20c8.3-1.2,15.2-3.7,20.5-7.3c8-5.5,11.9-13.6,11.9-24.3
				C629.5,357.8,628.7,353.1,627,349.3z"/>
			<path class="st24" d="M430.8,169c-1.3-3-3.2-5.6-5.6-7.7c-2.4-2.1-5.4-4-8.8-5.6c-3.4-1.6-7.4-3.2-11.7-4.9
				c-3.3-1.2-6.2-2.3-8.5-3.4c-2.4-1.1-4.4-2.2-6-3.5c-1.6-1.2-2.8-2.6-3.6-4.2c-0.8-1.5-1.2-3.3-1.2-5.3c0-3.9,1.7-6.8,5.2-8.6
				c3.4-1.8,7.5-2.8,12.1-2.8c5.3,0,9.9,0.5,13.7,1.5c3.8,1,6.6,2,8.4,2.9l3-14.2c-1-0.4-2.3-0.8-4-1.3c-1.7-0.5-3.7-0.9-6-1.3
				c-2.3-0.4-4.7-0.8-7.3-1.1c-1.5-0.2-3.1-0.3-4.6-0.4V94.4h-11.6v15.4c-6.6,1-12,3.2-16.3,6.6c-6,4.8-9.1,11.3-9.1,19.5
				c0,4.1,0.7,7.6,2.1,10.5c1.4,2.8,3.3,5.3,5.7,7.3c2.4,2,5.2,3.8,8.5,5.2c3.3,1.5,6.7,2.9,10.2,4.4c7.4,3,12.6,5.6,15.8,8
				c3.2,2.4,4.8,5.6,4.8,9.6c0,3.9-1.6,6.8-4.9,8.5c-3.3,1.8-8.3,2.7-15,2.7c-6.9,0-12.4-0.7-16.5-2.1c-4.2-1.4-7.2-2.5-9.1-3.2
				l-3,14.2c1.7,0.7,4.8,1.8,9.4,3.1c4.5,1.3,10.6,2,18.4,2v15.2h11.6v-16c6.6-1,12.1-2.9,16.3-5.8c6.3-4.4,9.5-10.9,9.5-19.4
				C432.7,175.7,432.1,172,430.8,169z"/>
			<path class="st24" d="M557.2,47c-0.8-1.9-2-3.5-3.5-4.9c-1.5-1.3-3.4-2.5-5.6-3.5c-2.2-1-4.6-2-7.4-3.1c-2.1-0.7-3.9-1.5-5.4-2.1
				c-1.5-0.7-2.7-1.4-3.8-2.2c-1-0.8-1.8-1.7-2.2-2.6c-0.5-1-0.7-2.1-0.7-3.4c0-2.5,1.1-4.3,3.2-5.4c2.2-1.2,4.7-1.7,7.6-1.7
				c3.4,0,6.2,0.3,8.6,1c2.4,0.6,4.1,1.3,5.3,1.8l1.9-9c-0.6-0.2-1.4-0.5-2.5-0.8c-1.1-0.3-2.3-0.6-3.8-0.8c-1.4-0.3-3-0.5-4.6-0.7
				c-1-0.1-1.9-0.2-2.9-0.2V0h-7.3v9.7c-4.1,0.6-7.6,2-10.3,4.2c-3.8,3-5.7,7.1-5.7,12.3c0,2.6,0.4,4.8,1.3,6.6
				c0.9,1.8,2.1,3.3,3.6,4.6c1.5,1.3,3.3,2.4,5.3,3.3c2.1,0.9,4.2,1.8,6.4,2.7c4.6,1.9,8,3.5,10,5c2,1.5,3,3.5,3,6.1
				c0,2.5-1,4.3-3.1,5.4c-2.1,1.1-5.2,1.7-9.5,1.7c-4.3,0-7.8-0.4-10.4-1.3c-2.6-0.9-4.5-1.6-5.7-2l-1.9,9c1,0.4,3,1.1,5.9,2
				c2.8,0.8,6.7,1.3,11.6,1.3V80h7.3V69.9c4.2-0.6,7.6-1.8,10.3-3.7c4-2.8,6-6.8,6-12.2C558.4,51.3,558,48.9,557.2,47z"/>
		</g>
	</g>
</g>
</svg>
