<?xml version="1.0" encoding="utf-8"?>
<!-- Generator: Adobe Illustrator 21.1.0, SVG Export Plug-In . SVG Version: 6.00 Build 0)  -->
<svg version="1.1" id="Web_and_Development" xmlns="http://www.w3.org/2000/svg" xmlns:xlink="http://www.w3.org/1999/xlink"
	 x="0px" y="0px" viewBox="0 0 419.9 364.6" style="enable-background:new 0 0 419.9 364.6;" xml:space="preserve">
<style type="text/css">
	.st0{fill:#FFF064;}
	.st1{fill:#4F4E4F;}
	.st2{fill:#1E2F47;}
	.st3{opacity:0.1;fill:#FFFFFF;}
	.st4{opacity:0.1;}
	.st5{opacity:0.4;fill:#FFFFFF;}
</style>
<g id="Lamp_2_">
	<path class="st0" d="M211.8,123.7c-8.7-0.2-85.4,0.3-85.5,86.3c0,33.9,46.8,104,46.8,104H211h1.6h37.9c0,0,46.8-70.2,46.8-104
		C297.2,124,220.5,123.5,211.8,123.7z"/>
	<g>
		<path class="st1" d="M222.6,316.4c0-0.2-3.5-16.1-3.8-45.7c-0.1-8.6,0.6-15.1,2.1-19.5c-1.9,0.3-4.1,0.4-6.5,0
			c-1.8-0.3-3-1.1-3.7-1.9c-2,1.5-4.7,2.4-7.5,2.8c0.3,0.4,0.6,0.8,0.9,1.3c6.1,9.4,2.2,60.7,2.1,62.8l-2.4-0.2
			c1.1-14.6,3-54.1-1.7-61.3c-0.6-0.9-1.2-1.7-1.7-2.4c-0.6,0-1.2,0-1.7,0c-5-0.2-5.3-1.6-5.4-2.1c-0.2-1.1,0.5-2.7,1.9-3.2
			c1.3-0.5,3.4-0.3,6.3,2.9c1.7-0.1,3.5-0.4,5.2-1.1c1.2-0.4,2.2-1,3-1.7c0,0,0-0.1,0-0.1c-0.5-2.7,1-5.6,2.2-6.4
			c0.6-0.4,1.3-0.4,1.8,0c0.8,0.6,0.9,1.8,0.3,4.1c-0.3,1.1-0.8,2.1-1.5,3c0.5,0.6,1.3,1,2.4,1.2c2.8,0.5,5.2,0.3,7.2-0.3
			c0.8-1.5,1.8-2.6,2.9-3.3c2-1.2,3.9-0.7,4.7-0.3l1.4,0.8l-1.1,1.1c-0.1,0.1-2.4,2.3-6.2,3.7c-1.4,3.2-2.6,9.1-2.5,20.2
			c0.3,29.4,3.7,45,3.7,45.2L222.6,316.4z M195.8,249.5c0.5,0.1,1.2,0.3,2.1,0.4c-0.9-0.6-1.5-0.7-1.8-0.6
			C195.9,249.3,195.8,249.4,195.8,249.5z"/>
	</g>
	<path class="st2" d="M173.1,314.1v40.9c0,5.3,4.1,9.7,9.2,9.7h59c5.1,0,9.2-4.3,9.2-9.7v-40.9H173.1z"/>
	<g>
		<path class="st3" d="M250.5,320.3c0,1.4-1.3,2.6-2.9,2.6H176c-1.6,0-2.9-1.2-2.9-2.6l0,0c0-1.4,1.3-2.6,2.9-2.6h71.5
			C249.2,317.7,250.5,318.9,250.5,320.3L250.5,320.3z"/>
		<path class="st3" d="M250.5,330.8c0,1.5-1.3,2.6-2.9,2.6H176c-1.6,0-2.9-1.2-2.9-2.6l0,0c0-1.4,1.3-2.6,2.9-2.6h71.5
			C249.2,328.2,250.5,329.3,250.5,330.8L250.5,330.8z"/>
		<path class="st3" d="M250.5,341.3c0,1.4-1.3,2.6-2.9,2.6H176c-1.6,0-2.9-1.2-2.9-2.6l0,0c0-1.5,1.3-2.6,2.9-2.6h71.5
			C249.2,338.6,250.5,339.8,250.5,341.3L250.5,341.3z"/>
		<path class="st3" d="M250.5,351.8c0,1.4-1.3,2.6-2.9,2.6H176c-1.6,0-2.9-1.2-2.9-2.6l0,0c0-1.5,1.3-2.6,2.9-2.6h71.5
			C249.2,349.1,250.5,350.3,250.5,351.8L250.5,351.8z"/>
		<path class="st4" d="M250.5,325.5c0,1.5-1.3,2.6-2.9,2.6H176c-1.6,0-2.9-1.2-2.9-2.6l0,0c0-1.4,1.3-2.6,2.9-2.6h71.5
			C249.2,322.9,250.5,324.1,250.5,325.5L250.5,325.5z"/>
		<path class="st4" d="M250.5,336c0,1.5-1.3,2.6-2.9,2.6H176c-1.6,0-2.9-1.2-2.9-2.6l0,0c0-1.4,1.3-2.6,2.9-2.6h71.5
			C249.2,333.4,250.5,334.6,250.5,336L250.5,336z"/>
		<path class="st4" d="M250.5,346.5c0,1.4-1.3,2.6-2.9,2.6H176c-1.6,0-2.9-1.2-2.9-2.6l0,0c0-1.4,1.3-2.6,2.9-2.6h71.5
			C249.2,343.9,250.5,345.1,250.5,346.5L250.5,346.5z"/>
		<path class="st4" d="M250.5,357c0,1.4-1.3,2.6-2.9,2.6H176c-1.6,0-2.9-1.2-2.9-2.6l0,0c0-1.4,1.3-2.6,2.9-2.6h71.5
			C249.2,354.4,250.5,355.5,250.5,357L250.5,357z"/>
	</g>
	<path class="st4" d="M233.8,314.2h16.7c0,0,46.8-70.2,46.8-104c-0.1-58.8-35.9-77.6-61.4-83.6"/>
	
		<ellipse transform="matrix(0.9433 -0.3318 0.3318 0.9433 -56.8713 63.8137)" class="st5" cx="158.4" cy="198.4" rx="13.3" ry="8.8"/>
	
		<ellipse transform="matrix(0.9433 -0.3318 0.3318 0.9433 -44.5345 67.6369)" class="st5" cx="175.8" cy="164.2" rx="25.7" ry="16.9"/>
	<g>
		<polygon class="st0" points="80.6,50.3 83.3,47.9 155.4,121.3 152.7,123.7 		"/>
		<polygon class="st0" points="2.5,153.9 3,150.4 106.8,163.7 106.3,167.2 		"/>
		<polygon class="st0" points="6.6,252 5.9,248.5 108.5,228.6 109.2,232 		"/>
		<polygon class="st0" points="334.7,50.3 332,47.9 259.9,121.3 262.6,123.7 		"/>
		<polygon class="st0" points="419.9,159.3 419.5,155.8 315.7,169.1 316.1,172.6 		"/>
		<polygon class="st0" points="412.9,243.8 413.7,240.3 311,220.4 310.3,223.8 		"/>
		<polygon class="st0" points="214.2,104.1 210.6,104.1 208.6,4.6 212.3,4.5 		"/>
	</g>
</g>
</svg>
