<?xml version="1.0" encoding="utf-8"?>
<!-- Generator: Adobe Illustrator 21.1.0, SVG Export Plug-In . SVG Version: 6.00 Build 0)  -->
<svg version="1.1" id="Web_and_Development" xmlns="http://www.w3.org/2000/svg" xmlns:xlink="http://www.w3.org/1999/xlink"
	 x="0px" y="0px" viewBox="0 0 359.6 288.5" style="enable-background:new 0 0 359.6 288.5;" xml:space="preserve">
<style type="text/css">
	.st0{fill:#FF3E03;}
	.st1{opacity:0.1;}
	.st2{fill:#FFFFFF;}
</style>
<g id="Command_2_">
	<g>
		<path class="st0" d="M210.2,34.7c82.5,0,149.5,51.2,149.5,114.4c0,44.1-32.6,82.3-80.3,101.4c5.4,11.8,15.3,26.8,33.6,37.9
			c0,0-33.2-13.9-50.7-32.1c-16.2,4.6-33.8,7.2-52.1,7.2c-82.5,0-149.5-51.2-149.5-114.4S127.6,34.7,210.2,34.7z"/>
		<g>
			<path class="st1" d="M287.6,149.1c0,7,5.7,12.7,12.7,12.7c7,0,12.7-5.7,12.7-12.7c0-7-5.7-12.7-12.7-12.7
				C293.2,136.4,287.6,142.1,287.6,149.1z"/>
			<path class="st1" d="M239.2,149.1c0,7,5.7,12.7,12.7,12.7c7,0,12.7-5.7,12.7-12.7c0-7-5.7-12.7-12.7-12.7
				C244.9,136.4,239.2,142.1,239.2,149.1z"/>
			<path class="st1" d="M194.1,149.1c0,7,5.7,12.7,12.7,12.7c7,0,12.7-5.7,12.7-12.7c0-7-5.7-12.7-12.7-12.7
				C199.8,136.4,194.1,142.1,194.1,149.1z"/>
			<path class="st1" d="M149.4,149.1c0,7,5.7,12.7,12.7,12.7c7,0,12.7-5.7,12.7-12.7c0-7-5.7-12.7-12.7-12.7
				C155.1,136.4,149.4,142.1,149.4,149.1z"/>
			<path class="st1" d="M102.1,149.1c0,7,5.7,12.7,12.7,12.7c7,0,12.7-5.7,12.7-12.7c0-7-5.7-12.7-12.7-12.7
				C107.8,136.4,102.1,142.1,102.1,149.1z"/>
		</g>
		<path class="st1" d="M359.6,149.1c0,44.1-32.6,82.3-80.3,101.4c5.4,11.8,15.3,26.8,33.6,37.9c0,0-33.2-13.9-50.7-32.1
			c-16.2,4.6-33.8,7.2-52.1,7.2c-82.5,0-149.5-51.2-149.5-114.4H359.6z"/>
	</g>
	<g>
		<path class="st2" d="M149.4,0C66.9,0,0,51.2,0,114.4c0,44.1,32.6,82.3,80.3,101.4C75,227.6,65,242.6,46.7,253.8
			c0,0,33.2-13.9,50.7-32.1c16.2,4.6,33.8,7.2,52.1,7.2c82.5,0,149.5-51.2,149.5-114.4S232,0,149.4,0z"/>
		<g>
			<path class="st1" d="M72.1,114.4c0,7-5.7,12.7-12.7,12.7c-7,0-12.7-5.7-12.7-12.7c0-7,5.7-12.7,12.7-12.7
				C66.4,101.7,72.1,107.4,72.1,114.4z"/>
			<ellipse class="st1" cx="107.8" cy="114.4" rx="12.7" ry="12.7"/>
			<ellipse class="st1" cx="152.8" cy="114.4" rx="12.7" ry="12.7"/>
			<path class="st1" d="M210.2,114.4c0,7-5.7,12.7-12.7,12.7c-7,0-12.7-5.7-12.7-12.7c0-7,5.7-12.7,12.7-12.7
				C204.5,101.7,210.2,107.4,210.2,114.4z"/>
			<circle class="st1" cx="244.9" cy="114.4" r="12.7"/>
		</g>
	</g>
</g>
</svg>
