<?xml version="1.0" encoding="utf-8"?>
<!-- Generator: Adobe Illustrator 21.1.0, SVG Export Plug-In . SVG Version: 6.00 Build 0)  -->
<svg version="1.1" id="Web_and_Development" xmlns="http://www.w3.org/2000/svg" xmlns:xlink="http://www.w3.org/1999/xlink"
	 x="0px" y="0px" viewBox="0 0 349.6 240.6" style="enable-background:new 0 0 349.6 240.6;" xml:space="preserve">
<style type="text/css">
	.st0{fill-rule:evenodd;clip-rule:evenodd;fill:#FF3E03;}
	.st1{opacity:0.1;fill-rule:evenodd;clip-rule:evenodd;fill:#020202;}
	.st2{fill-rule:evenodd;clip-rule:evenodd;fill:#FABE00;}
	.st3{fill-rule:evenodd;clip-rule:evenodd;fill:#E6E8E8;}
	.st4{fill-rule:evenodd;clip-rule:evenodd;}
	.st5{opacity:0.2;}
	.st6{fill-rule:evenodd;clip-rule:evenodd;fill:#F7D959;}
	.st7{fill-rule:evenodd;clip-rule:evenodd;fill:#F9623E;}
</style>
<g id="Document_6_">
	<g>
		<path class="st0" d="M243.9,0H106.8c-0.6,0-1.2,0-1.8,0c-30.3,0-60.6,0-91,0C6.3,0,0,6.3,0,14.1v129.9c0,7.7,6.3,14,14.1,14h222.6
			c7.7,0,14.1-6.3,14.1-14V18.6V6.8C250.7,3.1,247.6,0,243.9,0z M108.9,0.2L108.9,0.2L108.9,0.2z M110.7,0.4L110.7,0.4L110.7,0.4z
			 M121.8,15.1c0.1,0.1,0.1,0.1,0.1,0.2C121.9,15.2,121.9,15.2,121.8,15.1z M120.9,13.7C120.9,13.7,120.9,13.8,120.9,13.7
			C120.9,13.8,120.9,13.7,120.9,13.7z M121.3,14.4c0,0,0.1,0.1,0.1,0.1C121.4,14.5,121.3,14.5,121.3,14.4z M122.5,15.8
			c0.1,0.1,0.1,0.1,0.2,0.2C122.6,15.9,122.6,15.8,122.5,15.8z M123.3,16.4c0.1,0.1,0.2,0.1,0.3,0.2
			C123.5,16.5,123.4,16.4,123.3,16.4z M124.3,16.9c0.1,0.1,0.2,0.1,0.4,0.2C124.5,17.1,124.4,17,124.3,16.9z M125.4,17.4
			c0.2,0.1,0.3,0.1,0.5,0.2C125.7,17.5,125.6,17.5,125.4,17.4z M126.8,17.8c0.2,0,0.4,0.1,0.5,0.1C127.2,17.9,127,17.9,126.8,17.8z
			 M128.4,18.2c0.2,0,0.4,0.1,0.6,0.1C128.8,18.2,128.6,18.2,128.4,18.2z M130.3,18.4c0.2,0,0.4,0.1,0.7,0.1
			C130.7,18.5,130.5,18.4,130.3,18.4z M132.5,18.6c0.2,0,0.4,0,0.6,0C132.9,18.6,132.7,18.6,132.5,18.6z"/>
		<path class="st1" d="M243.9,0H106.8c23.4,0.9,1.4,19.1,28.7,18.6h115.1V6.8C250.7,3.1,247.6,0,243.9,0z"/>
		<path class="st2" d="M135.6,18.6H238c-2.1-7.2-8.9-12.5-16.7-12.5H118.9C120.8,11.6,118.1,18.9,135.6,18.6z"/>
		<rect x="69.9" y="44.4" class="st3" width="110.9" height="64.6"/>
		<rect x="79.8" y="66.3" class="st4" width="91.2" height="4.3"/>
		<rect x="79.8" y="73.5" class="st4" width="91.2" height="4.3"/>
		<rect x="79.8" y="80.7" class="st4" width="91.2" height="4.3"/>
		<rect x="79.8" y="87.9" class="st4" width="91.2" height="4.3"/>
		<path class="st5" d="M199.4,158h37.3c7.7,0,14.1-6.3,14.1-14V65.2C240.9,96.6,224.1,137.8,199.4,158z"/>
	</g>
	<g id="Document">
		<path class="st6" d="M341.4,63H177.2c-0.7,0-1.4,0-2.2,0c-36.3,0-72.7,0-109,0c-9.3,0-16.8,7.1-16.8,15.8v146.1
			c0,8.7,7.6,15.8,16.8,15.8h266.8c9.3,0,16.8-7.1,16.8-15.8v-141V70.6C349.6,66.4,345.9,63,341.4,63z M179.6,63.1L179.6,63.1
			L179.6,63.1z M181.8,63.4L181.8,63.4L181.8,63.4z M195.2,79.9c0.1,0.1,0.1,0.1,0.2,0.2C195.3,80,195.2,80,195.2,79.9z M194,78.3
			C194,78.4,194,78.4,194,78.3C194,78.4,194,78.4,194,78.3z M194.5,79.1c0,0.1,0.1,0.1,0.1,0.2C194.6,79.2,194.6,79.2,194.5,79.1z
			 M196,80.7c0.1,0.1,0.2,0.1,0.3,0.2C196.1,80.8,196,80.7,196,80.7z M196.9,81.3c0.1,0.1,0.2,0.1,0.4,0.2
			C197.1,81.5,197,81.4,196.9,81.3z M198.1,82c0.2,0.1,0.3,0.1,0.4,0.2C198.4,82.1,198.2,82,198.1,82z M199.5,82.5
			c0.2,0.1,0.4,0.1,0.5,0.2C199.8,82.6,199.7,82.6,199.5,82.5z M201.1,83c0.2,0.1,0.4,0.1,0.7,0.2C201.5,83.1,201.3,83,201.1,83z
			 M203,83.4c0.3,0,0.5,0.1,0.8,0.1C203.5,83.4,203.3,83.4,203,83.4z M205.2,83.6c0.3,0,0.5,0.1,0.8,0.1
			C205.8,83.7,205.5,83.7,205.2,83.6z M207.9,83.8c0.3,0,0.5,0,0.7,0C208.4,83.8,208.2,83.8,207.9,83.8z"/>
		<path class="st1" d="M341.4,63H177.2c28,1,1.7,21.4,34.4,20.9h138V70.6C349.6,66.4,345.9,63,341.4,63z"/>
		<path class="st7" d="M211.6,83.9h122.8c-2.6-8.1-10.6-14.1-20.1-14.1H191.6C193.9,76,190.7,84.2,211.6,83.9z"/>
		<rect x="132.9" y="112.9" class="st3" width="132.9" height="72.6"/>
		<rect x="144.7" y="137.5" class="st0" width="109.3" height="4.8"/>
		<rect x="144.7" y="145.6" class="st0" width="109.3" height="4.8"/>
		<rect x="144.7" y="153.7" class="st0" width="109.3" height="4.8"/>
		<rect x="144.7" y="161.8" class="st0" width="109.3" height="4.8"/>
	</g>
</g>
</svg>
