<?xml version="1.0" encoding="utf-8"?>
<!-- Generator: Adobe Illustrator 21.1.0, SVG Export Plug-In . SVG Version: 6.00 Build 0)  -->
<svg version="1.1" id="Web_and_Development" xmlns="http://www.w3.org/2000/svg" xmlns:xlink="http://www.w3.org/1999/xlink"
	 x="0px" y="0px" viewBox="0 0 1218.6 1064" style="enable-background:new 0 0 1218.6 1064;" xml:space="preserve">
<style type="text/css">
	.st0{fill:#FFB85A;}
	.st1{fill:#EFEFEF;}
	.st2{fill-rule:evenodd;clip-rule:evenodd;fill:#154F77;}
	.st3{fill-rule:evenodd;clip-rule:evenodd;fill:#0D3858;}
	.st4{fill-rule:evenodd;clip-rule:evenodd;fill:#FFFEFE;}
	.st5{opacity:0.1;}
	.st6{fill:#AEC647;}
	.st7{fill:#F3AE1B;}
	.st8{fill:#DF3F11;}
	.st9{fill:#BCDEDE;}
	.st10{fill:#C84119;}
	.st11{fill:#6BB5CE;}
	.st12{fill:#00D0E5;}
	.st13{fill:#FF81ED;}
	.st14{fill:#00C982;}
	.st15{opacity:0.7;}
	.st16{opacity:0.4;}
	.st17{fill-rule:evenodd;clip-rule:evenodd;fill:#0B2E44;}
	.st18{opacity:0.8;fill-rule:evenodd;clip-rule:evenodd;fill:#FFFFFF;}
	.st19{opacity:0.2;fill-rule:evenodd;clip-rule:evenodd;fill:#FFFFFF;}
	.st20{fill:#D0EDFA;}
	.st21{fill:#FF651F;}
	.st22{fill:#0051C4;}
	.st23{fill:#E46400;}
	.st24{fill:#C0003B;}
	.st25{fill:#FFEA50;}
	.st26{fill:#FF2C0D;}
	.st27{fill:#FF1A2C;}
	.st28{fill:#FF2C4D;}
	.st29{fill:#FFD74C;}
	.st30{fill:#6CD2EA;}
	.st31{fill:#F7674F;}
	.st32{fill:#FFF064;}
	.st33{fill:#4F4E4F;}
	.st34{fill:#1E2F47;}
	.st35{opacity:0.1;fill:#FFFFFF;}
	.st36{opacity:0.4;fill:#FFFFFF;}
	.st37{fill:#0B2E44;}
	.st38{fill:#BABABA;}
	.st39{fill:#00DED4;}
</style>
<g id="Application_Development">
	<g id="Background_18_">
		<circle id="Background_2_17_" class="st0" cx="579.4" cy="532" r="532"/>
	</g>
	<g id="Application_Development_1_">
		<g id="Line_5_">
			<g>
				<polygon class="st1" points="501.7,662.5 326.9,662.5 326.9,562.4 127.4,562.4 127.4,554.4 334.9,554.4 334.9,654.5 
					501.7,654.5 				"/>
			</g>
			<g>
				<polygon class="st1" points="560.3,621.8 552.3,621.8 552.3,516.5 475.2,516.5 475.2,328 483.2,328 483.2,508.5 560.3,508.5 
									"/>
			</g>
			<g>
				<polygon class="st1" points="691.1,648 691.1,486.7 1068.9,486.7 1068.9,494.7 699.1,494.7 699.2,641.6 785.1,641.6 785.1,648 
									"/>
			</g>
			<g>
				<polygon class="st1" points="1004.1,832.8 831.4,832.8 831.4,773.7 768.4,727.2 691.1,727.2 691.1,644.8 699.1,644.8 
					699.1,719.2 771.1,719.2 839.4,769.6 839.4,824.8 1004.1,824.8 				"/>
			</g>
			<g>
				<rect x="569" y="641.6" class="st1" width="122.1" height="6.4"/>
			</g>
		</g>
		<g id="Coding_1_">
			<path class="st2" d="M824,342.5c0,12.7-10.3,23.1-23.1,23.1H339.3c-12.8,0-23.1-10.3-23.1-23.1V56.9c0-12.7,10.3-23.1,23.1-23.1
				h461.6c12.7,0,23.1,10.3,23.1,23.1V342.5z"/>
			<rect x="338.9" y="55.7" class="st3" width="464.4" height="286.7"/>
			<path class="st4" d="M216.9,363.9c-0.3,2-0.5,4.2-0.5,6.3c0,18.2,11.1,33,24.7,33H901c13.6,0,24.7-14.8,24.7-33
				c0-2.2-0.2-4.3-0.5-6.3H216.9z"/>
			<path class="st5" d="M218.6,383.6c3.8,11.6,12.5,19.7,22.6,19.7H901c10.1,0,18.8-8.1,22.6-19.7H218.6z"/>
			<g>
				<rect x="363" y="82.5" class="st6" width="116.3" height="5.8"/>
				<rect x="363" y="99.9" class="st7" width="116.3" height="5.8"/>
				<rect x="363" y="115.9" class="st8" width="116.3" height="5.8"/>
				<rect x="363" y="265.2" class="st6" width="116.3" height="5.8"/>
				<rect x="363" y="246.1" class="st6" width="116.3" height="5.8"/>
				<rect x="363" y="284.9" class="st6" width="116.3" height="5.8"/>
				<rect x="501.7" y="152.5" class="st7" width="116.3" height="5.8"/>
				<rect x="379" y="152.5" class="st6" width="116.3" height="5.8"/>
				<rect x="379" y="168.6" class="st7" width="116.3" height="5.8"/>
				<rect x="501.7" y="168.6" class="st6" width="54.6" height="5.8"/>
				<rect x="379" y="199.7" class="st6" width="116.3" height="5.8"/>
				<rect x="501.7" y="199.7" class="st7" width="54.6" height="5.8"/>
				<rect x="640.5" y="184" class="st7" width="54.6" height="5.8"/>
				<rect x="379" y="133.9" class="st9" width="251.2" height="5.8"/>
				<rect x="379" y="184" class="st9" width="251.2" height="5.8"/>
				<rect x="640.5" y="218.1" class="st6" width="54.6" height="5.8"/>
				<rect x="379" y="218.1" class="st6" width="251.2" height="5.8"/>
				<rect x="624.4" y="300.9" class="st10" width="54.6" height="5.8"/>
				<rect x="363" y="300.9" class="st11" width="251.2" height="5.8"/>
			</g>
			<g>
				<circle class="st12" cx="364.5" cy="373.7" r="4.6"/>
				<circle class="st13" cx="335.5" cy="373.7" r="4.6"/>
				<circle class="st14" cx="349.8" cy="373.7" r="4.6"/>
				<path class="st15" d="M324.2,373.7c0,2.3-1.9,4.2-4.2,4.2h-35.7c-2.3,0-4.2-1.9-4.2-4.2l0,0c0-2.3,1.9-4.2,4.2-4.2H320
					C322.3,369.6,324.2,371.4,324.2,373.7L324.2,373.7z"/>
			</g>
			<circle class="st16" cx="571.1" cy="44.6" r="6.8"/>
		</g>
		<g id="Phone_1_">
			<path class="st17" d="M223,879.5c0,7.2-5.8,13-13,13H16.2c-7.2,0-13-5.8-13-13V523c0-7.2,5.8-13,13-13H210c7.2,0,13,5.8,13,13
				V879.5z"/>
			<rect x="23.5" y="555.4" class="st18" width="179.2" height="261.4"/>
			<g>
				<g id="Setting_1_">
					<path class="st7" d="M95.9,682.8c0,16.6-13.5,30.1-30.1,30.1c-16.6,0-30.1-13.5-30.1-30.1c0-16.6,13.5-30.1,30.1-30.1
						C82.4,652.7,95.9,666.2,95.9,682.8z"/>
					<g>
						<path class="st17" d="M68,662.9h-4.1c-0.2,0-0.4,0.2-0.4,0.4v2.1c-2.6,0.4-5,1.4-7.1,2.8l-2-2c-0.2-0.2-0.4-0.2-0.6,0
							l-2.9,2.9c-0.2,0.2-0.2,0.4,0,0.6l1.9,1.9c-1.3,1.7-2.4,3.7-3.1,5.8l-2.7-0.5c-0.2,0-0.4,0.1-0.5,0.3l-0.7,4
							c0,0.2,0.1,0.4,0.3,0.5l2.8,0.5c0,0.2,0,0.4,0,0.6c0,1.6,0.2,3.2,0.6,4.7l-2.5,1.2c-0.2,0.1-0.3,0.3-0.2,0.5l1.7,3.7
							c0.1,0.2,0.3,0.3,0.5,0.2l2.3-1.1c1,1.6,2.2,3.1,3.6,4.3l-1.2,2c-0.1,0.2,0,0.4,0.1,0.5l3.5,2c0.2,0.1,0.4,0,0.5-0.1l1-1.8
							c1.8,0.8,3.7,1.3,5.7,1.4l0.2,2c0,0.2,0.2,0.4,0.4,0.4l4.1-0.4c0.2,0,0.4-0.2,0.4-0.4l-0.2-2.1c1.9-0.5,3.7-1.3,5.2-2.4
							l1.5,1.8c0.1,0.2,0.4,0.2,0.6,0.1l3.1-2.6c0.2-0.1,0.2-0.4,0.1-0.6l-1.7-2c1.1-1.4,2.1-3,2.7-4.7l2.8,0.7
							c0.2,0.1,0.4-0.1,0.5-0.3l1.1-3.9c0.1-0.2-0.1-0.4-0.3-0.5l-2.9-0.8c0.1-0.6,0.1-1.3,0.1-1.9c0-1.1-0.1-2.3-0.3-3.3l2.8-1
							c0.2-0.1,0.3-0.3,0.2-0.5l-1.4-3.8c-0.1-0.2-0.3-0.3-0.5-0.2l-2.7,1c-0.8-1.7-1.9-3.2-3.1-4.5l1.5-2.1
							c0.1-0.2,0.1-0.4-0.1-0.5l-3.3-2.3c-0.2-0.1-0.4-0.1-0.5,0.1l-1.3,1.9c-1.6-0.9-3.5-1.6-5.4-1.9v-2.2
							C68.4,663.1,68.2,662.9,68,662.9L68,662.9z M65.7,674.3c4.7,0,8.5,3.8,8.5,8.5c0,4.7-3.8,8.5-8.5,8.5c-4.7,0-8.5-3.8-8.5-8.5
							C57.2,678.1,61,674.3,65.7,674.3L65.7,674.3z"/>
						<path class="st19" d="M65.7,671c6.5,0,11.8,5.3,11.8,11.8c0,6.5-5.3,11.8-11.8,11.8c-6.5,0-11.8-5.3-11.8-11.8
							C53.9,676.3,59.2,671,65.7,671L65.7,671z M65.7,674.3c4.7,0,8.5,3.8,8.5,8.5c0,4.7-3.8,8.5-8.5,8.5c-4.7,0-8.5-3.8-8.5-8.5
							C57.2,678.1,61,674.3,65.7,674.3L65.7,674.3z"/>
					</g>
				</g>
				<g id="Game_1_">
					<circle class="st20" cx="129.5" cy="649.8" r="30.1"/>
					<g id="Rocket_1_">
						<path class="st21" d="M142,636.9c0,0-17.6-4.6-27.6,11.6l3.5,5l3.5,5C140,655,142,636.9,142,636.9z"/>
						<path class="st22" d="M118.1,653.9l-0.1-0.1l-3.6-5.3c0,0-0.8,2.5-0.4,3.9l1.9,2.8l0.1,0.1l1.7,2.5c1,0.7,3.5,0.7,3.5,0.7
							L118.1,653.9z"/>
						
							<rect x="114.1" y="652.3" transform="matrix(0.8234 -0.5674 0.5674 0.8234 -351.6283 181.0118)" class="st23" width="1.8" height="6.3"/>
						<polygon class="st24" points="115,658.5 112.1,654.4 112.8,653.9 115.7,658.1 						"/>
						<polygon class="st25" points="121.8,642.3 110.9,642.1 116.1,649.1 						"/>
						<polygon class="st25" points="129.9,653 126.2,663.3 121.5,655.9 						"/>
						<path class="st26" d="M140.4,642.7c1.3-3.3,1.6-5.8,1.6-5.8s-2.4-0.6-6-0.6L140.4,642.7z"/>
						<polygon class="st27" points="107.6,660.6 111.7,660.3 115.9,659.9 113.6,656.5 111.2,653 109.4,656.8 						"/>
						<polygon class="st28" points="109.3,659.3 112.3,659.1 115.3,659 113.5,656.4 111.7,653.8 110.5,656.6 						"/>
						<polygon class="st29" points="111.5,657.8 113.1,657.9 114.7,658.1 113.5,656.4 112.3,654.6 111.9,656.2 						"/>
					</g>
					<g>
						<path class="st30" d="M125.7,665.4c-0.2,0-0.3,0-0.5,0.1c-0.5-2.2-2.2-3.8-4.3-3.8c-1.5,0-2.8,0.9-3.6,2.2
							c-0.5-0.2-1.1-0.4-1.7-0.4c-2.1,0-3.8,1.7-3.8,3.8c0,0.3,0,0.6,0.1,0.9h4.7h2.7h4.2h1.7h2.6c0-0.2,0.1-0.3,0.1-0.5
							C127.9,666.4,126.9,665.4,125.7,665.4z"/>
					</g>
					<g>
						<path class="st30" d="M131.1,630.3c-0.3,0-0.5,0-0.8,0.1c-0.8-3.3-3.4-5.8-6.4-5.8c-2.3,0-4.2,1.3-5.5,3.4
							c-0.8-0.4-1.6-0.6-2.5-0.6c-3.2,0-5.7,2.5-5.7,5.7c0,0.4,0.1,0.9,0.1,1.3h7.1h4.1h6.4h2.5h3.9c0.1-0.2,0.1-0.5,0.1-0.8
							C134.4,631.8,132.9,630.3,131.1,630.3z"/>
					</g>
					<g>
						<path class="st30" d="M154,654.3c-0.2,0-0.4,0-0.7,0.1c-0.7-2.9-2.9-5-5.5-5c-1.9,0-3.6,1.1-4.7,2.9c-0.7-0.3-1.4-0.5-2.2-0.5
							c-2.7,0-4.9,2.2-4.9,4.9c0,0.4,0,0.8,0.1,1.1h6.1h3.5h5.5h2.2h3.4c0-0.2,0.1-0.4,0.1-0.7C156.9,655.5,155.6,654.3,154,654.3z"
							/>
					</g>
				</g>
				<g id="Idea_3_">
					<circle class="st31" cx="120.6" cy="722.3" r="30.1"/>
					<g id="Lamp_1_">
						<path class="st32" d="M120.6,715.4c-1,0-9.7,0-9.7,9.8c0,3.8,5.3,11.8,5.3,11.8h4.3h0.2h4.3c0,0,5.3-8,5.3-11.8
							C130.3,715.4,121.6,715.4,120.6,715.4z"/>
						<g>
							<path class="st33" d="M121.9,737.3c0,0-0.4-1.8-0.4-5.2c0-1,0.1-1.7,0.2-2.2c-0.2,0-0.5,0-0.7,0c-0.2,0-0.3-0.1-0.4-0.2
								c-0.2,0.2-0.5,0.3-0.8,0.3c0,0,0.1,0.1,0.1,0.1c0.7,1.1,0.3,6.9,0.2,7.1l-0.3,0c0.1-1.7,0.3-6.1-0.2-7
								c-0.1-0.1-0.1-0.2-0.2-0.3c-0.1,0-0.1,0-0.2,0c-0.6,0-0.6-0.2-0.6-0.2c0-0.1,0.1-0.3,0.2-0.4c0.2-0.1,0.4,0,0.7,0.3
								c0.2,0,0.4-0.1,0.6-0.1c0.1-0.1,0.2-0.1,0.3-0.2c0,0,0,0,0,0c-0.1-0.3,0.1-0.6,0.2-0.7c0.1,0,0.1,0,0.2,0
								c0.1,0.1,0.1,0.2,0,0.5c0,0.1-0.1,0.2-0.2,0.3c0.1,0.1,0.1,0.1,0.3,0.1c0.3,0.1,0.6,0,0.8,0c0.1-0.2,0.2-0.3,0.3-0.4
								c0.2-0.1,0.4-0.1,0.5,0l0.2,0.1l-0.1,0.1c0,0-0.3,0.3-0.7,0.4c-0.2,0.4-0.3,1-0.3,2.3c0,3.3,0.4,5.1,0.4,5.1L121.9,737.3z
								 M118.8,729.7c0,0,0.1,0,0.2,0C119,729.6,118.9,729.6,118.8,729.7C118.8,729.6,118.8,729.7,118.8,729.7z"/>
						</g>
						<path class="st34" d="M116.2,737v4.6c0,0.6,0.5,1.1,1,1.1h6.7c0.6,0,1-0.5,1-1.1V737H116.2z"/>
						<g>
							<path class="st35" d="M125,737.7c0,0.2-0.1,0.3-0.3,0.3h-8.1c-0.2,0-0.3-0.1-0.3-0.3l0,0c0-0.2,0.1-0.3,0.3-0.3h8.1
								C124.9,737.4,125,737.5,125,737.7L125,737.7z"/>
							<path class="st35" d="M125,738.9c0,0.2-0.1,0.3-0.3,0.3h-8.1c-0.2,0-0.3-0.1-0.3-0.3l0,0c0-0.2,0.1-0.3,0.3-0.3h8.1
								C124.9,738.6,125,738.7,125,738.9L125,738.9z"/>
							<path class="st35" d="M125,740.1c0,0.2-0.1,0.3-0.3,0.3h-8.1c-0.2,0-0.3-0.1-0.3-0.3l0,0c0-0.2,0.1-0.3,0.3-0.3h8.1
								C124.9,739.8,125,739.9,125,740.1L125,740.1z"/>
							<path class="st35" d="M125,741.3c0,0.2-0.1,0.3-0.3,0.3h-8.1c-0.2,0-0.3-0.1-0.3-0.3l0,0c0-0.2,0.1-0.3,0.3-0.3h8.1
								C124.9,741,125,741.1,125,741.3L125,741.3z"/>
							<path class="st5" d="M125,738.3c0,0.2-0.1,0.3-0.3,0.3h-8.1c-0.2,0-0.3-0.1-0.3-0.3l0,0c0-0.2,0.1-0.3,0.3-0.3h8.1
								C124.9,738,125,738.1,125,738.3L125,738.3z"/>
							<path class="st5" d="M125,739.5c0,0.2-0.1,0.3-0.3,0.3h-8.1c-0.2,0-0.3-0.1-0.3-0.3l0,0c0-0.2,0.1-0.3,0.3-0.3h8.1
								C124.9,739.2,125,739.3,125,739.5L125,739.5z"/>
							<path class="st5" d="M125,740.7c0,0.2-0.1,0.3-0.3,0.3h-8.1c-0.2,0-0.3-0.1-0.3-0.3l0,0c0-0.2,0.1-0.3,0.3-0.3h8.1
								C124.9,740.4,125,740.5,125,740.7L125,740.7z"/>
							<path class="st5" d="M125,741.9c0,0.2-0.1,0.3-0.3,0.3h-8.1c-0.2,0-0.3-0.1-0.3-0.3l0,0c0-0.2,0.1-0.3,0.3-0.3h8.1
								C124.9,741.6,125,741.7,125,741.9L125,741.9z"/>
						</g>
						<path class="st5" d="M123.4,715.7c1.4,3.1,4.6,12.3-0.2,21.3h1.9c0,0,5.3-8,5.3-11.8C130.3,718.5,126.3,716.4,123.4,715.7z"/>
						
							<ellipse transform="matrix(0.9432 -0.3321 0.3321 0.9432 -233.9172 79.147)" class="st36" cx="114.6" cy="723.9" rx="1.5" ry="1"/>
						
							<ellipse transform="matrix(0.9434 -0.3318 0.3318 0.9434 -232.2586 79.4409)" class="st36" cx="116.5" cy="720" rx="2.9" ry="1.9"/>
						<g>
							<polygon class="st32" points="105.7,707.1 106,706.8 114.2,715.1 113.9,715.4 							"/>
							<polygon class="st32" points="96.9,718.8 96.9,718.4 108.7,719.9 108.7,720.3 							"/>
							<polygon class="st32" points="97.4,730 97.3,729.6 108.9,727.3 109,727.7 							"/>
							<polygon class="st32" points="134.6,707.1 134.3,706.8 126.1,715.1 126.4,715.4 							"/>
							<polygon class="st32" points="144.3,719.4 144.2,719 132.4,720.6 132.5,721 							"/>
							<polygon class="st32" points="143.5,729 143.5,728.6 131.9,726.4 131.8,726.8 							"/>
							<polygon class="st32" points="120.9,713.2 120.5,713.2 120.3,701.9 120.7,701.9 							"/>
						</g>
					</g>
				</g>
			</g>
		</g>
		<g id="Button">
			<circle class="st37" cx="540.9" cy="665" r="87"/>
			<ellipse class="st38" cx="540.9" cy="665" rx="64.7" ry="64.6"/>
			<circle class="st37" cx="540.9" cy="665" r="43.2"/>
		</g>
		<g id="Setting">
			<path class="st39" d="M991.6,644.8c0,59.2-48,107.2-107.2,107.2c-59.2,0-107.2-48-107.2-107.2c0-59.2,48-107.2,107.2-107.2
				C943.6,537.6,991.6,585.6,991.6,644.8z"/>
			<g>
				<path class="st17" d="M892.2,573.9h-14.5c-0.8,0-1.4,0.6-1.4,1.4v7.5c-9.2,1.3-17.8,4.8-25.2,10l-7.1-7.1c-0.5-0.5-1.4-0.5-2,0
					L831.9,596c-0.5,0.5-0.5,1.4,0,2l6.8,6.7c-4.8,6.1-8.5,13.1-10.9,20.7l-9.7-1.7c-0.8-0.1-1.5,0.4-1.6,1.1l-2.5,14.3
					c-0.1,0.8,0.4,1.5,1.1,1.6l9.9,1.7c0,0.8,0,1.5,0,2.3c0,5.8,0.8,11.5,2.2,16.8l-8.9,4.2c-0.7,0.3-1,1.2-0.7,1.9l6.1,13.1
					c0.3,0.7,1.2,1,1.9,0.7l8.3-3.9c3.4,5.8,7.8,11,12.8,15.4l-4.1,7.2c-0.4,0.7-0.2,1.5,0.5,1.9l12.6,7.3c0.7,0.4,1.5,0.2,1.9-0.5
					l3.7-6.5c6.3,2.8,13.1,4.5,20.2,4.9l0.6,7.2c0.1,0.8,0.8,1.3,1.5,1.3l14.4-1.3c0.8-0.1,1.3-0.8,1.3-1.5l-0.6-7.3
					c6.7-1.7,13-4.6,18.6-8.5l5.4,6.4c0.5,0.6,1.4,0.7,2,0.2l11.1-9.3c0.6-0.5,0.7-1.4,0.2-2l-5.9-7.1c4-5,7.3-10.6,9.7-16.7
					l9.9,2.7c0.7,0.2,1.5-0.2,1.7-1l3.8-14c0.2-0.7-0.2-1.5-1-1.7l-10.3-2.8c0.2-2.3,0.4-4.6,0.4-6.9c0-4.1-0.4-8-1.1-11.8l10.1-3.7
					c0.7-0.3,1.1-1.1,0.8-1.8l-5-13.6c-0.3-0.7-1.1-1.1-1.8-0.8l-9.5,3.5c-2.9-5.9-6.6-11.3-11-15.9l5.3-7.6c0.4-0.6,0.3-1.5-0.3-2
					l-11.9-8.3c-0.6-0.4-1.5-0.3-1.9,0.4l-4.8,6.8c-5.9-3.4-12.3-5.7-19.2-6.9v-7.7C893.6,574.5,893,573.9,892.2,573.9L892.2,573.9z
					 M884.3,614.4c16.8,0,30.4,13.6,30.4,30.4c0,16.8-13.6,30.4-30.4,30.4c-16.8,0-30.4-13.6-30.4-30.4
					C853.9,628,867.5,614.4,884.3,614.4L884.3,614.4z"/>
				<path class="st19" d="M884.3,602.7c23.3,0,42.1,18.8,42.1,42.1c0,23.2-18.8,42.1-42.1,42.1c-23.2,0-42.1-18.8-42.1-42.1
					C842.2,621.6,861.1,602.7,884.3,602.7L884.3,602.7z M884.3,614.4c16.8,0,30.4,13.6,30.4,30.4c0,16.8-13.6,30.4-30.4,30.4
					c-16.8,0-30.4-13.6-30.4-30.4C853.9,628,867.5,614.4,884.3,614.4L884.3,614.4z"/>
			</g>
		</g>
		<g id="Game">
			<ellipse class="st20" cx="1111.4" cy="527.3" rx="107.2" ry="107.2"/>
			<g id="Rocket">
				<path class="st21" d="M1155.8,481.4c0,0-62.7-16.3-98.3,41.4l12.3,17.9l12.3,17.9C1148.6,545.8,1155.8,481.4,1155.8,481.4z"/>
				<path class="st22" d="M1070.7,542l-0.3-0.4l-13-18.8c0,0-2.8,8.9-1.3,13.8l6.9,10l0.3,0.4l6,8.8c3.7,2.7,12.6,2.6,12.6,2.6
					L1070.7,542z"/>
				<polygon class="st23" points="1063.5,558.7 1050.7,540.1 1056.1,536.4 1068.9,555 				"/>
				<polygon class="st24" points="1059.6,558.4 1049.5,543.8 1052,542 1062.1,556.7 				"/>
				<polygon class="st25" points="1083.9,500.7 1045.1,500 1063.6,524.9 				"/>
				<polygon class="st25" points="1112.8,538.8 1099.6,575.3 1082.9,549.2 				"/>
				<path class="st26" d="M1150.2,502c4.6-11.8,5.6-20.6,5.6-20.6s-8.6-2.2-21.3-2.1L1150.2,502z"/>
				<polygon class="st27" points="1033.2,565.8 1048.1,564.6 1063.1,563.5 1054.6,551.1 1046.1,538.8 1039.6,552.3 				"/>
				<polygon class="st28" points="1039.4,561.2 1050,560.5 1060.6,559.9 1054.4,550.8 1048.1,541.7 1043.7,551.4 				"/>
				<polygon class="st29" points="1047.1,555.6 1052.8,556.3 1058.6,556.9 1054.3,550.7 1050,544.5 1048.6,550.1 				"/>
			</g>
			<g>
				<path class="st30" d="M1097.9,582.9c-0.6,0-1.2,0.1-1.8,0.2c-1.9-7.9-7.9-13.7-15.2-13.7c-5.3,0-10,3.1-12.9,8
					c-1.8-0.9-3.9-1.4-6-1.4c-7.5,0-13.5,6-13.5,13.4c0,1.1,0.1,2.1,0.4,3.1h16.7h9.6h15h6h9.3c0.1-0.6,0.2-1.2,0.2-1.8
					C1105.7,586.3,1102.2,582.9,1097.9,582.9z"/>
			</g>
			<g>
				<path class="st30" d="M1117,457.9c-1,0-1.9,0.1-2.7,0.3c-2.8-11.9-12-20.6-22.9-20.6c-8,0-15.1,4.8-19.4,12
					c-2.7-1.3-5.8-2.1-9.1-2.1c-11.3,0-20.4,9-20.4,20.2c0,1.6,0.2,3.1,0.5,4.6h25.3h14.5h22.6h9.1h14.1c0.2-0.9,0.3-1.8,0.3-2.7
					C1128.9,463.1,1123.5,457.9,1117,457.9z"/>
			</g>
			<g>
				<path class="st30" d="M1198.5,543.2c-0.8,0-1.6,0.1-2.4,0.3c-2.4-10.2-10.3-17.7-19.6-17.7c-6.9,0-13,4.1-16.7,10.3
					c-2.3-1.1-5-1.8-7.8-1.8c-9.7,0-17.5,7.8-17.5,17.3c0,1.4,0.2,2.7,0.5,4h21.7h12.5h19.4h7.8h12.1c0.2-0.7,0.3-1.5,0.3-2.3
					C1208.7,547.7,1204.1,543.2,1198.5,543.2z"/>
			</g>
		</g>
		<g id="Idea_2_">
			<path class="st31" d="M1186.8,785.4c0,59.2-48,107.2-107.2,107.2c-59.2,0-107.2-48-107.2-107.2c0-59.2,48-107.2,107.2-107.2
				C1138.8,678.2,1186.8,726.2,1186.8,785.4z"/>
			<g id="Lamp">
				<path class="st32" d="M1079.8,760.9c-3.5-0.1-34.5,0.1-34.5,34.9c0,13.7,18.9,42,18.9,42h15.3h0.7h15.3c0,0,18.9-28.3,18.9-42
					C1114.3,761,1083.3,760.8,1079.8,760.9z"/>
				<g>
					<path class="st33" d="M1084.1,838.7c0-0.1-1.4-6.5-1.5-18.5c0-3.5,0.3-6.1,0.9-7.9c-0.8,0.1-1.7,0.1-2.6,0
						c-0.7-0.1-1.2-0.4-1.5-0.8c-0.8,0.6-1.9,1-3,1.1c0.1,0.2,0.2,0.3,0.4,0.5c2.4,3.8,0.9,24.5,0.8,25.4l-1-0.1
						c0.5-5.9,1.2-21.9-0.7-24.8c-0.2-0.4-0.5-0.7-0.7-1c-0.2,0-0.5,0-0.7,0c-2-0.1-2.1-0.7-2.2-0.9c-0.1-0.5,0.2-1.1,0.8-1.3
						c0.5-0.2,1.4-0.1,2.5,1.2c0.7-0.1,1.4-0.2,2.1-0.4c0.5-0.2,0.9-0.4,1.2-0.7c0,0,0,0,0,0c-0.2-1.1,0.4-2.3,0.9-2.6
						c0.2-0.2,0.5-0.2,0.7,0c0.3,0.2,0.4,0.7,0.1,1.7c-0.1,0.5-0.3,0.9-0.6,1.2c0.2,0.2,0.5,0.4,1,0.5c1.1,0.2,2.1,0.1,2.9-0.1
						c0.3-0.6,0.7-1.1,1.2-1.3c0.8-0.5,1.6-0.3,1.9-0.1l0.6,0.3l-0.5,0.5c-0.1,0.1-1,1-2.5,1.5c-0.6,1.3-1.1,3.7-1,8.2
						c0.1,11.9,1.5,18.2,1.5,18.2L1084.1,838.7z M1073.3,811.7c0.2,0.1,0.5,0.1,0.9,0.1c-0.4-0.2-0.6-0.3-0.7-0.2
						C1073.4,811.6,1073.3,811.6,1073.3,811.7z"/>
				</g>
				<path class="st34" d="M1064.1,837.8v16.5c0,2.2,1.7,3.9,3.7,3.9h23.8c2.1,0,3.7-1.7,3.7-3.9v-16.5H1064.1z"/>
				<g>
					<path class="st35" d="M1095.4,840.3c0,0.6-0.5,1.1-1.2,1.1h-28.9c-0.7,0-1.2-0.5-1.2-1.1l0,0c0-0.6,0.5-1.1,1.2-1.1h28.9
						C1094.9,839.2,1095.4,839.7,1095.4,840.3L1095.4,840.3z"/>
					<path class="st35" d="M1095.4,844.5c0,0.6-0.5,1.1-1.2,1.1h-28.9c-0.7,0-1.2-0.5-1.2-1.1l0,0c0-0.6,0.5-1.1,1.2-1.1h28.9
						C1094.9,843.5,1095.4,843.9,1095.4,844.5L1095.4,844.5z"/>
					<path class="st35" d="M1095.4,848.8c0,0.6-0.5,1.1-1.2,1.1h-28.9c-0.7,0-1.2-0.5-1.2-1.1l0,0c0-0.6,0.5-1.1,1.2-1.1h28.9
						C1094.9,847.7,1095.4,848.2,1095.4,848.8L1095.4,848.8z"/>
					<path class="st35" d="M1095.4,853c0,0.6-0.5,1.1-1.2,1.1h-28.9c-0.7,0-1.2-0.5-1.2-1.1l0,0c0-0.6,0.5-1.1,1.2-1.1h28.9
						C1094.9,851.9,1095.4,852.4,1095.4,853L1095.4,853z"/>
					<path class="st5" d="M1095.4,842.4c0,0.6-0.5,1.1-1.2,1.1h-28.9c-0.7,0-1.2-0.5-1.2-1.1l0,0c0-0.6,0.5-1.1,1.2-1.1h28.9
						C1094.9,841.3,1095.4,841.8,1095.4,842.4L1095.4,842.4z"/>
					<path class="st5" d="M1095.4,846.6c0,0.6-0.5,1.1-1.2,1.1h-28.9c-0.7,0-1.2-0.5-1.2-1.1l0,0c0-0.6,0.5-1.1,1.2-1.1h28.9
						C1094.9,845.6,1095.4,846,1095.4,846.6L1095.4,846.6z"/>
					<path class="st5" d="M1095.4,850.9c0,0.6-0.5,1.1-1.2,1.1h-28.9c-0.7,0-1.2-0.5-1.2-1.1l0,0c0-0.6,0.5-1.1,1.2-1.1h28.9
						C1094.9,849.8,1095.4,850.3,1095.4,850.9L1095.4,850.9z"/>
					<path class="st5" d="M1095.4,855.1c0,0.6-0.5,1.1-1.2,1.1h-28.9c-0.7,0-1.2-0.5-1.2-1.1l0,0c0-0.6,0.5-1.1,1.2-1.1h28.9
						C1094.9,854,1095.4,854.5,1095.4,855.1L1095.4,855.1z"/>
				</g>
				
					<ellipse transform="matrix(0.9434 -0.3316 0.3316 0.9434 -202.4395 395.66)" class="st36" cx="1058.2" cy="791" rx="5.4" ry="3.5"/>
				
					<ellipse transform="matrix(0.9433 -0.3318 0.3318 0.9433 -197.5475 397.4964)" class="st36" cx="1065.2" cy="777.2" rx="10.4" ry="6.8"/>
				<g>
					<polygon class="st32" points="1026.8,731.2 1027.8,730.2 1057,759.9 1055.9,760.9 					"/>
					<polygon class="st32" points="995.2,773 995.4,771.6 1037.3,777 1037.1,778.4 					"/>
					<polygon class="st32" points="996.9,812.7 996.6,811.3 1038,803.2 1038.3,804.6 					"/>
					<polygon class="st32" points="1129.4,731.2 1128.3,730.2 1099.2,759.9 1100.3,760.9 					"/>
					<polygon class="st32" points="1163.9,775.2 1163.7,773.8 1121.7,779.2 1121.9,780.6 					"/>
					<polygon class="st32" points="1161,809.4 1161.3,808 1119.9,799.9 1119.6,801.3 					"/>
					<polygon class="st32" points="1080.8,752.9 1079.3,753 1078.5,712.7 1080,712.7 					"/>
				</g>
			</g>
		</g>
	</g>
</g>
</svg>
