<?xml version="1.0" encoding="utf-8"?>
<!-- Generator: Adobe Illustrator 21.1.0, SVG Export Plug-In . SVG Version: 6.00 Build 0)  -->
<svg version="1.1" id="Web_and_Development" xmlns="http://www.w3.org/2000/svg" xmlns:xlink="http://www.w3.org/1999/xlink"
	 x="0px" y="0px" viewBox="0 0 632.8 632.8" style="enable-background:new 0 0 632.8 632.8;" xml:space="preserve">
<style type="text/css">
	.st0{fill:#008AAF;}
	.st1{fill:#E2E2E2;}
</style>
<g id="Globe">
	<ellipse class="st0" cx="316.4" cy="316.4" rx="316.4" ry="316.4"/>
	<path class="st1" d="M498.6,476.8c-2,0-4.4-3.8-7-6.2c-2.6-2.4-16.5,0.7-19.9,0.7s-5.1-1.5-8.1-3.3c-3.1-1.9-6.4,0.4-8.8,0.9
		c-2.4,0.5-3.5-1.6-2-4.3c1.5-2.7-4.9-2-9.7-1.1c-4.8,0.9-2.9,3.3-6.8,2c-3.9-1.3,4.5-5.7,7.3-9.1c2.8-3.3-0.5-8.9-2.1-9.5
		c-1.6-0.5-4.7-5.3-9.5-9.1c-4.8-3.7-8.4-0.9-14.1-0.9c-5.7,0-7.1-2.5-9.7-4.5c-2.7-2-1.9-6-12.5-11.6c-10.7-5.6-6.1-2.5-5.5-3.6
		c0.7-1.1,1.7-0.9-2-2.7c-3.7-1.7-6.8,2-10.5,3.5c-3.7,1.5-8.3,1.1-9.9,0.7c-1.6-0.4-3.5-4.3-5.3-5.1c-1.9-0.8-3.5-2.5-4.7-4.4
		c-1.2-1.9-5.1-1.1-4.9,2.4c0.1,3.5-1.9,5.5-5.6,6.9c-3.7,1.5-2.1-4.1-2.1-5.9c0-1.7,3.3-3.5,3.6-6.1c0.3-2.7-3.3,2.5-6.8,6.3
		c-3.5,3.7-5.9,0.3-12.5,0.9c-6.7,0.7-3.5,7.6-3.5,11.5c0,3.9-5.6,5.2-6.5,4.3c-0.9-0.9-0.9-3.1-2.9-3.1c-2,0-2.5-3.2-3.1-4.4
		c-0.5-1.2-7.3-2.4-9.9,2.4c-2.5,4.8-5.2,0.9-8.3,0c-3.1-0.9-9.1-12.9-7.7-15.1c1.3-2.1,1.3-3.1-0.1-4.5c-1.5-1.5-0.8-2.5,0.4-4.8
		c1.2-2.3,4.4-4.4-2-8.5c-6.4-4.1-16.4-0.5-21.7-1.1c-5.3-0.5-1.1-4.4,0-5.5c1.1-1.1,3.2-4.8,4.3-8c1.1-3.2-0.9-3.5,0.9-7.7
		c1.9-4.3,1.3-7.2-2.9-7.5c-4.3-0.3-8.3,2.9-8.5,9.1c-0.3,6.1-6.4,5.9-20.5,4.8c-14.1-1.1-12.8-12.3-14.4-21.3
		c-1.6-9.1,2.9-16.8,3.2-21.3c0.3-4.5,5.9-9.6,11.2-13.6c5.3-4,12.9-3,12.9-3s10.3,2.2,13.5,1.9c3.2-0.3,0.5-2.7,0.8-5.9
		c0.3-3.2,15.7-1.1,18.4-1.1c2.7,0,2.1,2.1,5.1,5c2.9,2.9,2.4-2.9,5.3-2.4c2.9,0.5,0.5,2.4,4.8,9.3c4.3,6.9,3.5,9.3,4.8,15.2
		c1.3,5.9,4.3,2.9,6.1-1.9c1.9-4.8-2.1-20.3-3.2-28.3c-1.1-8,6.1-5.1,13.1-12.5c6.9-7.5,14.1-8,17.3-13.3c3.2-5.3-0.3-14.1,1.6-9.3
		c1.9,4.8,2.1-1.9,2.4-6.9c0.3-5.1,2.9-7.2,4.3-4.3c1.3,2.9,2.9,0.8,4-4.3c1.1-5.1,5.6-10.3,7.7-12.8c2.1-2.5,6.4-0.1,12.3,0
		c5.9,0.1,0.3-1.1-1.5-6.9c-1.7-5.9,3.7-7.9,6-7.9c2.3,0,12-5.2,14.1-6.5c2.1-1.3,4.9-1.2,8.7,1.6c3.7,2.8-3.5,0.7-5.9,4.8
		c-2.4,4.1,3.5,4.7,6,0.9c2.5-3.7,8.1-2,12.9-6.8c4.8-4.8-5.5-3.1-7.7-3.7c-2.3-0.7-3.7-6.3-3.5-8.1c0.2-1.8-1.4-6.4-3.8-8.4
		c-2.4-2-8.6,0.2-14,2.4c-5.4,2.2-7,4.2-6.6,1.6c0.4-2.6,9.4-8.6,11.8-9c2.4-0.4,9.2-3.2,12.4-6.8c3.2-3.6,12.4,0.6,16.6,1
		c4.2,0.4,10.2,2.8,12.4-0.2c2.2-3,4-3,8.4-3.6c4.4-0.6,5.2-7,2.2-9.8c-3-2.8-7.4-13-13.6-16.2c-6.2-3.2-3.8-5.2-1.8-7.8
		c2-2.6-6.3-9-8.9-15.7c-2.7-6.7,0.3-8.3-2.9-8.5c-3.2-0.3-1.1,4.8-2.7,9.3c-1.6,4.5-8.3,2.1-9.3,1.9c-1.1-0.3-4.8-4.8-4.5-9.1
		c0.3-4.3,1.3-8,0-9.3c-1.3-1.3-4.3-0.3-5.9-1.9c-1.6-1.6-3.7-6.4-6.1-8.5c-2.4-2.1-7.7-0.8-11.5-1.6c-3.7-0.8-7.2,0.5-6.4,2.9
		c0.8,2.4,0.3,5.6-1.1,14.1c-1.3,8.5-4,4-6.1,6.1c-2.1,2.1,1.3,2.7,3.2,8.8c1.9,6.1-2.4,10.7-4.3,12.5c-1.9,1.9-8,3.2-12,4.5
		c-4,1.3,0.3,6.4,0.8,10.7c0.5,4.3-3.5,10.4-5.6,11.2c-2.1,0.8-9.1-8-9.6-13.1c-0.5-5.1,4.3-10.7,2.1-12.3c-2.1-1.6-10.4-1.6-18.1-8
		c-7.7-6.4-17.1-9.9-20.3-17.6c-3.2-7.7,3.2-14.7,5.9-20.3c2.7-5.6,8-4.8,16.5-8c8.5-3.2,3.2-6.1,5.3-6.1c2.1,0,9.1-1.1,10.7-3.2
		c1.6-2.1,5.3-4.3,8.8-6.1c3.5-1.9,4.3-5.6,5.6-7.7c1.3-2.1,5.1,2.9,9.3,2.4c4.3-0.5,4,0.8,9.9-1.9c5.9-2.7,0.8-4.3,0.3-7.2
		c-0.5-2.9,3.7-2.1,2.4-5.3c-1.3-3.2-7.2-6.4-11.1-5.9c-3.9,0.5,1.2,4.3-2.8,8c-4,3.7-3.2,6.1-4.5,6.7c-1.3,0.5-7.2-1.3-7.2-3.2
		c0-1.9,2.7-3.5,3.7-4.3c1.1-0.8-0.8-4.8-1.3-6.1c-0.5-1.3-2.9,1.6-3.5,4.3c-0.5,2.7-3.5,2.9-2.7,0.5c0.8-2.4-2.1-5.3-4.3-8.3
		c-2.1-2.9,2.1-2.7,4.5-6.4c2.4-3.7,1.6-5.3-1.6-7.2c-3.2-1.9-6.9,1.1-10.7,5.1c-3.7,4-2.4,3.7-1.1,8.8c1.3,5.1,0,0,0.8,4.8
		c0.8,4.8-6.1,4.3-6.1,4.3s-3.5-0.3-4.8-0.8c-1.3-0.5,0-2.4-2.9-3.5c-2.9-1.1-4.3,3.7-4.3,3.7s-8-0.3-11.2-0.3
		c-3.2,0-7.7-1.6-8.5-2.9c-0.8-1.3-4.8-4-8.3-4c-3.5,0-4.8,2.9-4.8,6.4c0,3.5-5.9,3.7-5.6,2.1c0.3-1.6-0.8-7.2-0.8-7.2l-3.2,1.9
		c0,0-8.8-0.5-11.7-0.8c-2.9-0.3-1.9-4-1.9-4l5.9-0.5l0.8-1.3c0,0-1.6-1.6-3.2-2.1c-1.6-0.5-8.5-1.9-8.5-1.9l-2.1-2.9
		c0,0-3.2,0-4.5,0c-1.3,0-3.5,2.7-4.5,2.7c-1.1,0-1.1-2.9-1.1-2.9l0.5-2.4c0,0,0,0-2.7,1.3c-2.7,1.3-3.7,0.3-3.7,0.3l1.1-2.7
		l0.3-2.9c0,0-1.6-1.9-1.6-0.5c0,1.3-2.7,4.3-5.1,4c-2.4-0.3-4,2.1-7.5,1.3c-3.5-0.8-10.1,1.6-13.9,4.8c-3.7,3.2-6.1,4.3-5.3,0.5
		c0.8-3.7-10.4-3.2-12.3-4c-1.9-0.8-6.7-1.3-11.2-1.9c-4.5-0.5-5.6-4.3-5.6-4.3l-1.8-6.6c-23.3,12.7-44.8,28.3-64.1,46.2
		c2.6,4.7,5.1,9.1,6,9.7c1.9,1.3,3.7,0,3.7,0s-7.5,5.1-19.5,15.7c-12,10.6-8,11.8-8,15.8c0,4,2.4,2.4,2.4,2.4s-9.3,9.6-12,12.3
		c-2.7,2.7-7.5,6.4-7.5,6.4l-4.8,5.9l2.1,0.8l29-24.3c0,0,1.8-0.4,2-1.4c0.2-1,1.8-4.4,2.4-4.6c0.6-0.2,3.2-4.4,3.2-4.4
		s1.8-0.8,4-2.8c2.2-2,4.4-5,6.2-5.2c1.8-0.2,0,2.6-3.2,5.2c-3.2,2.6-7,8.2-7,8.2s10.6-5.6,14.2-8c3.6-2.4,2.4-6,3.8-6.2
		c1.4-0.2,4.6,2.8,5.6,5.8c1,3,2.2-0.6,7.6,0c5.4,0.6,1.8,4.8,3.8,7.6c2,2.8,2,3.6,7.2,2.4c5.2-1.2-2,11.2-2,11.2l-0.4,4
		c0,0,2,2.8,2,3.2c0,0.4-2.4,7.6-2.4,7.6h4c0,0-1.6,2-3.6,3.2c-2,1.2,0.4,4.4,2.4,6c2,1.6,0,0-2.8,6.4c-2.8,6.4,0,4.4,3.2,8.8
		c3.2,4.4,5.2,6.4,7.6,9.2c2.4,2.8,0,9.2-2.4,9.6c-2.4,0.4-7.6-3.6-7.6-3.6c0.4,60-3.6,20-5.6,25.2c-2,5.2-4.8,8-4.8,11.2
		c0,3.2,0,8-3.2,12.4c-3.2,4.4-0.4,14.4,0,15.6c0.4,1.2,2.9,6.4,2.9,6.4s0,11.1,0,16.4s9.6,8,12.8,12.5c3.2,4.5,2.4,13.3,2.7,14.8
		c0.3,1.5,2.3,5.1,4.1,6.8c1.9,1.7,2,4.7,3.5,7.3c1.5,2.7-2.3,1.7-2.7,5.2c-0.4,3.5,3.3,3.6,5.3,4.4c2,0.8,4,2,2.9,5.7
		c-1.1,3.7-0.5,2.4,1.5,4.5c2,2.1,1.1,0.8,2.1,4.8c1.1,4,3.7,2.3,3.7,2.3s0,1.7,0,2.4c0,0.7,2.4,1.3,2.4,1.3l1.6-2.4
		c0,0-1.2-0.5-1.2-0.9c0-0.4-0.3-2.4-0.3-2.4l-3.6-1.5c0,0-0.5-2-0.5-2.8c0-0.8,0-2.9,0-3.5c0-0.5-1.3-0.9-1.3-0.9s-0.1-3.6-0.1-5.7
		c0-2.1-3.5-4.1-3.6-5.1c-0.1-0.9-0.4-4-1.7-6c-1.3-2-4.5-6.3-4.4-10.8c0.1-4.5-1.1-7.5,0.7-7.5c1.7,0,4.7,4.4,5.5,5.2
		c0.8,0.8,0.1,6.1,3.5,11.1c3.3,4.9,12,15.1,11.2,15.9c-0.8,0.8-3,0.5-1.8,3.5c1.2,3,4.1,3.7,6.3,4.3c2.2,0.6,5.8,12.8,8.2,16.8
		c2.4,4-0.6,4-1.2,6.6c-0.6,2.6,0.2,4,4.2,5.8c4,1.8,3.2,6.2,7.8,7.6c4.6,1.4,13.6,7.3,16,7.8c2.4,0.5,2.1,2.7,5.3,3
		c3.2,0.3,3.7,1.3,5.3,2.4c1.6,1.1,7.2-1.1,8.3-1.9c1.1-0.8,2.1-0.5,5.1,0c2.9,0.5,11.5,9.6,14.1,12.3c2.7,2.7,4.8-1.1,6.9,0
		c2.1,1.1,6.1,3.5,7.7,3.2c1.6-0.3,1.6-1.6,2.7-1.6s0.3,2.1,4.3,7.2c4,5.1,3.2,6.1,3.2,6.9c0,0.8,1.9,4.8,4.5,4.3
		c2.7-0.5,5.3,2.3,5.3,2.3v4.4c0,0,9.1,0.5,10.9,1.1c1.9,0.5,2.1,4.5,2.9,5.1c0.8,0.5,4-3.2,3.5-5.3c-0.5-2.1,3.5-3.2,5.1-4.8
		c1.6-1.6,3.7,1.9,5.1,3.5c1.3,1.6,4.3,5.6,4.3,8.8c0,3.2-0.3,8-0.3,13.1c0,5.1-4,7.5-6.9,10.9c-2.9,3.5-5.6,5.1-6.9,6.7
		c-1.3,1.6-2.4,6.7-1.9,9.6c0.5,2.9,4.3,0.3,4.3,3.7c0,3.5-3.5,1.6-7.5,4.8c-4,3.2,0.5,3.5,1.9,6.1c1.3,2.7-1.9,0.5-1.9,3.7
		c0,3.2,4.8,2.7,9.3,4c4.5,1.3,9.3,13.1,12,19.2c2.7,6.1,5.3,11.5,8,12.5c2.7,1.1,2.9,3.5,8.5,4.8c5.6,1.3,10,5.7,13.1,5.7
		s3.1,5.4,2.1,7.6c-1,2.2-0.2,2.8,0.6,10.8c0.8,8-1.8,26-2.7,28c-0.9,2-0.6,1.6,0.9,3.1c1.5,1.5-2.4,7.9-2.5,9.9
		c-0.1,2-3.9,3.2-4.6,5.1c-0.8,1.9,1.8,1.9,2.4,3.6c0.5,1.7-1.1,6,0.5,7.6c1.6,1.6,3.1,1.1,3.5,3.6c0.4,2.5-1.5,4.9-4.1,4.9
		c-2.7,0-2.7,2.8-1.5,1.9c1.2-0.9,2.8,0,2.8,0l2.1,3.8c6.5-0.7,13-1.6,19.4-2.6c1.4-1.6,2.6-2.9,3.5-3c3.2-0.5,1.6-3.7-0.3-10.4
		c-1.9-6.7,4.5-1.1,8.5-2.7c4-1.6,2.7-6.9,8.3-7.7c5.6-0.8,11.7-5.9,14.1-9.6c2.4-3.7-1.1-5.6,7.7-4.5c8.8,1.1,16.8-10.1,23.7-18.4
		c6.9-8.3,0.8-10.9,13.1-18.7c12.3-7.7,32.1-28.7,33.3-35.3c1.2-6.6-2.2-6.8,4.8-11.4c7-4.6,15.8-17.4,16.6-21
		C502.6,482.2,500.6,476.8,498.6,476.8z"/>
	<path class="st1" d="M431.1,38c-10.1,0-12.3,10.1-3.2,11.7c9.1,1.6,27.7,1.6,30.9,14.9c3.2,13.3-9.6,17.1,0,23.5
		c9.6,6.4-2.1,13.3-2.1,22.4c0,9.1,4.3,16.5,10.7,21.3c6.4,4.8,12.8,11.2,13.3,14.9c0.5,3.7,6.9,2.7,6.9,2.7s-0.5-2.1,0-5.3
		c0.5-3.2,5.9-6.9,5.9-16c0-9.1,4.8-8.5,8.5-8c3.8,0.5,11.2-0.5,13.4,0c2.1,0.5,14.9,0.5,16-5.9c1.1-6.4-8.5-16-8.5-16
		s5.4-8.9,5.3-13c0-0.8-0.6-2.8-1.5-5.3c-25.7-22.9-55.2-41.6-87.4-55.2C439.2,29.8,438.1,38,431.1,38z"/>
	<path class="st1" d="M620.4,298.6c-18.4-15.2-30.4-15.2-32-11.2c-1.6,4,12.8,18.4,0,36c-12.8,17.6-22.4,24.8-17.6,39.2
		c4.8,14.4-20.1,27.2-1.3,40c18.9,12.8,14.9,12.8,28.5,12c13.4-0.8,11.6,20.4,10.6,23.3c15.6-37.4,24.2-78.4,24.2-121.4
		c0-1.3,0-2.6-0.1-3.9C630.5,308.7,627.1,304.1,620.4,298.6z"/>
</g>
</svg>
