<?xml version="1.0" encoding="utf-8"?>
<!-- Generator: Adobe Illustrator 21.1.0, SVG Export Plug-In . SVG Version: 6.00 Build 0)  -->
<svg version="1.1" id="Web_and_Development" xmlns="http://www.w3.org/2000/svg" xmlns:xlink="http://www.w3.org/1999/xlink"
	 x="0px" y="0px" viewBox="0 0 971.1 663.9" style="enable-background:new 0 0 971.1 663.9;" xml:space="preserve">
<style type="text/css">
	.st0{fill:#34495E;}
	.st1{fill:#EDEDED;}
	.st2{fill:#F4B147;}
	.st3{fill:#1E2F47;}
	.st4{fill:#F94851;}
	.st5{fill:#FCE2DB;}
	.st6{fill:#586771;}
	.st7{fill:#00BB83;}
	.st8{opacity:0.3;fill:#FFFFFF;}
	.st9{opacity:0.2;}
	.st10{fill:#F9E7E4;}
</style>
<g id="Acces">
	<g id="Tablet_1_">
		<path class="st0" d="M731.7,320.7c0,35.5-4.7,33.4-40.1,33.4H278.2c-35.5,0-38.8-3.3-38.8-38.8V38.4C239.4,3,246.8,1,282.2,1
			l397.3-0.4c35.5,0,51.8-7.1,51.8,28.4L731.7,320.7z"/>
		<rect x="270" y="33.9" class="st1" width="431.2" height="286.4"/>
		<path class="st2" d="M354.5,279.2c0,14.8-12,26.8-26.8,26.8l0,0c-14.8,0-26.8-12-26.8-26.8V79.9c0-14.8,12-26.8,26.8-26.8l0,0
			c14.8,0,26.8,12,26.8,26.8V279.2z"/>
		<path class="st3" d="M596.6,63.8v38.8h85.6V63.8H596.6z M676.2,98.6h-74.2V67.9h74.2V98.6z"/>
		<rect x="596.6" y="131.6" class="st3" width="85.6" height="38.8"/>
		<rect x="596.6" y="202.1" class="st3" width="85.6" height="38.8"/>
		<rect x="596.6" y="257.1" class="st3" width="85.6" height="38.8"/>
		<g>
			<path class="st4" d="M563,210.7c0,10.6-8.6,19.2-19.2,19.2H416.9c-10.6,0-19.2-8.6-19.2-19.2v-78.9c0-10.6,8.6-19.2,19.2-19.2
				h126.9c10.6,0,19.2,8.6,19.2,19.2V210.7z"/>
			<polygon class="st1" points="516.6,172.3 485.7,190.2 454.8,208 454.8,172.3 454.8,136.7 485.7,154.5 			"/>
		</g>
	</g>
	<g id="Hand_1_">
		<g>
			<path class="st5" d="M89.6,469.6l25.4-115c0,0,1.3-18.7,34.8-52.2c33.4-33.4,89.6-106.3,89.6-106.3v100.4L214,343.2l70.9-80.9
				c0,0,48.2-24.2,40.4,29.4c0,0-60.5,85.7-61.8,92.4c-1.3,6.7-2.7,41.5-29.4,78.9c-26.8,37.5-28.1,49.5-28.1,49.5l-5.4,8
				L89.6,469.6z"/>
			<path class="st6" d="M73.6,464.3L222,520.5c0,0-12,57.5-32.1,107C169.9,677,0,663.6,0,663.6l16-53.5L73.6,464.3z"/>
			<path class="st7" d="M222,520.5L73.6,464.3l-13.2,33.5l153.2,57.5C219,534.8,222,520.5,222,520.5z"/>
			<path class="st8" d="M282.2,269.6l36.6,27C318.8,296.5,331,243.3,282.2,269.6z"/>
			<path class="st9" d="M222,520.5l-75.6-28.6L83.1,664.3c46.2-2.5,96.5-11.3,106.8-36.9c19.2-47.3,31-102,32-106.7
				C222,520.6,222,520.5,222,520.5z"/>
		</g>
		<g>
			<path class="st10" d="M881.5,470l-25.4-115c0,0-1.3-18.7-34.8-52.2c-33.4-33.4-89.6-106.3-89.6-106.3v100.4l25.4,46.7l-70.9-80.9
				c0,0-49.1-26.1-40.5,29.3c0,0,60.5,85.7,61.9,92.4c1.3,6.7,2.7,41.5,29.4,78.9c26.8,37.5,28.1,49.5,28.1,49.5l5.4,8L881.5,470z"
				/>
			<path class="st6" d="M897.5,464.6l-148.5,56.2c0,0,12,57.5,32.1,107c20.1,49.5,189.9,36.1,189.9,36.1l-16-53.5L897.5,464.6z"/>
			<path class="st7" d="M749.1,520.8l148.5-56.2l13.2,33.5l-153.2,57.5C752,535.1,749.1,520.8,749.1,520.8z"/>
			<path class="st8" d="M688.9,269.9l-36.6,27C652.3,296.9,640.1,243.6,688.9,269.9z"/>
			<path class="st9" d="M749.1,520.8l75.6-28.6L888,664.7c-46.2-2.5-96.5-11.3-106.8-36.9c-19.2-47.3-31-102-32-106.7
				C749.1,520.9,749.1,520.8,749.1,520.8z"/>
		</g>
	</g>
</g>
</svg>
