<?xml version="1.0" encoding="utf-8"?>
<!-- Generator: Adobe Illustrator 21.1.0, SVG Export Plug-In . SVG Version: 6.00 Build 0)  -->
<svg version="1.1" id="Web_and_Development" xmlns="http://www.w3.org/2000/svg" xmlns:xlink="http://www.w3.org/1999/xlink"
	 x="0px" y="0px" viewBox="0 0 293.6 88.9" style="enable-background:new 0 0 293.6 88.9;" xml:space="preserve">
<style type="text/css">
	.st0{fill:#0C4670;}
	.st1{opacity:0.6;fill:#FFFFFF;}
	.st2{fill:#ED3393;}
	.st3{opacity:0.2;fill:#FFFFFF;}
</style>
<g id="Glass">
	<path class="st0" d="M128.7,23.5c0,0-59.3,12.9-64.3,32.2c-5,19.3,5.9,17.2,13.6,6.9c7.7-10.2,39.8-26.1,50.8-28.8
		C139.6,31.2,128.7,23.5,128.7,23.5z"/>
	<path class="st0" d="M169.8,23.5c0,0,59.3,12.9,64.3,32.2c5,19.3-5.9,17.2-13.6,6.9c-7.7-10.2-39.8-26.1-50.8-28.8
		C158.9,31.2,169.8,23.5,169.8,23.5z"/>
	<path class="st0" d="M288.1,33.9c0,5.7-4.6,10.4-10.4,10.4H23.3c-5.7,0-10.4-4.6-10.4-10.4l0,0c0-5.7,4.6-10.4,10.4-10.4h254.5
		C283.5,23.5,288.1,28.2,288.1,33.9L288.1,33.9z"/>
	<path class="st1" d="M95.8,84.2H43.2c-37.2-5.5-25.2-58-25.2-58c22.4-31.8,82.3-25.4,104.7-2.4C122.8,23.7,125.4,82,95.8,84.2z"/>
	<path class="st0" d="M128.6,21.4C103.9-3.9,38.2-11,12.9,23.5C11.6,22,9.6,21,7.4,21C3.3,21,0,24.3,0,28.4v9.9
		c0,4.1,3.3,7.4,7.4,7.4c1.1,0,2.1-0.2,3-0.6c0.1,17.4,5.2,39.9,30,43.5h58.3C131.5,86.1,128.6,21.4,128.6,21.4z M95.8,84.2H43.2
		c-37.2-5.5-25.2-58-25.2-58c22.4-31.8,82.3-25.4,104.7-2.4C122.8,23.7,125.4,82,95.8,84.2z"/>
	<path class="st1" d="M197.8,84.5h52.6c37.2-5.5,25.2-58,25.2-58c-22.4-31.8-82.3-25.4-104.7-2.4C170.9,24.1,168.3,82.4,197.8,84.5z
		"/>
	<path class="st0" d="M194.9,88.9h58.3c24.8-3.7,29.9-26.2,30-43.5c0.9,0.4,1.9,0.6,3,0.6c4.1,0,7.4-3.3,7.4-7.4v-9.9
		c0-4.1-3.3-7.4-7.4-7.4c-2.2,0-4.2,1-5.5,2.5c-25.3-34.5-91-27.4-115.7-2.1C165,21.8,162.1,86.5,194.9,88.9z M170.9,24.1
		c22.4-23,82.3-29.3,104.7,2.4c0,0,12,52.6-25.2,58h-52.6C168.3,82.4,170.9,24.1,170.9,24.1z"/>
	<path class="st2" d="M10.8,36.2c0,2.4-1.9,4.3-4.3,4.3l0,0c-2.4,0-4.3-1.9-4.3-4.3v-5.5c0-2.4,1.9-4.3,4.3-4.3l0,0
		c2.4,0,4.3,1.9,4.3,4.3V36.2z"/>
	<path class="st2" d="M290.3,36.2c0,2.4-1.9,4.3-4.3,4.3l0,0c-2.4,0-4.3-1.9-4.3-4.3v-5.5c0-2.4,1.9-4.3,4.3-4.3l0,0
		c2.4,0,4.3,1.9,4.3,4.3V36.2z"/>
	<path class="st3" d="M134.7,31.6c0,0,12-8.8,23.5,0v7.5h-23.5V31.6z"/>
</g>
</svg>
