<?xml version="1.0" encoding="utf-8"?>
<!-- Generator: Adobe Illustrator 21.1.0, SVG Export Plug-In . SVG Version: 6.00 Build 0)  -->
<svg version="1.1" id="Web_and_Development" xmlns="http://www.w3.org/2000/svg" xmlns:xlink="http://www.w3.org/1999/xlink"
	 x="0px" y="0px" viewBox="0 0 246.7 223.1" style="enable-background:new 0 0 246.7 223.1;" xml:space="preserve">
<style type="text/css">
	.st0{fill:#FC5454;}
	.st1{opacity:0.4;}
	.st2{opacity:0.4;fill:#FFFFFF;}
	.st3{opacity:0.5;}
	.st4{fill:#00C6F6;}
</style>
<g id="Setting_2_">
	<g id="Setting_2">
		<path class="st0" d="M85.9,118.8c0.1-0.1,0.2-0.2,0.3-0.3l78.5-95.8c3-3.7,2.5-9.2-1.2-12.2l-10.1-8.3c-3.7-3-9.2-2.5-12.2,1.2
			L62.6,99.3c-0.1,0.1-0.2,0.2-0.2,0.3c-18-6.6-39-1.6-51.9,14.1c-12.3,15.1-13.6,35.5-4.8,51.6l30-36.6c3-3.7,8.5-4.3,12.2-1.2
			l13.5,11c3.7,3,4.3,8.5,1.2,12.2l-30,36.6c17.5,5.4,37.3,0.2,49.7-14.9C95.1,156.8,95.9,135.2,85.9,118.8z"/>
		<path class="st1" d="M72.3,137.2L48,117.3c-3.7-3-9.2-2.5-12.2,1.2l-33,40.3c0.8,2.2,1.8,4.4,2.9,6.6l30-36.6
			c3-3.7,8.5-4.3,12.2-1.2l13.5,11c3.7,3,4.3,8.5,1.2,12.2l-30,36.6c2.8,0.9,5.6,1.4,8.4,1.8l32.5-39.7
			C76.5,145.7,76,140.2,72.3,137.2z"/>
		<path class="st2" d="M164.9,12.1c-0.4-0.6-0.9-1.1-1.5-1.6l-10.1-8.3c-0.6-0.5-1.2-0.9-1.9-1.2l-81,98.8
			c-3.5,4.2-3.3,10.1,0.4,13.2c3.7,3,9.5,2.1,13-2.2L164.9,12.1z"/>
		
			<ellipse transform="matrix(0.6335 -0.7737 0.7737 0.6335 41.6831 122.2631)" class="st3" cx="149.9" cy="17.1" rx="7.2" ry="7.2"/>
	</g>
	<g id="Setting1">
		<path class="st4" d="M161.4,103.7c-0.1,0.1-0.2,0.2-0.3,0.3l-76.1,97.8c-2.9,3.8-2.3,9.3,1.5,12.2l10.3,8
			c3.8,2.9,9.2,2.3,12.2-1.5l76.1-97.8c0.1-0.1,0.1-0.2,0.2-0.3c18.2,6.2,39,0.6,51.5-15.4c11.9-15.4,12.7-35.9,3.5-51.7l-29.1,37.4
			c-2.9,3.8-8.4,4.5-12.2,1.5l-13.7-10.7c-3.8-2.9-4.5-8.4-1.5-12.2L213,33.9c-17.6-5-37.3,0.8-49.3,16.1
			C151.3,66,151,87.6,161.4,103.7z"/>
		<path class="st1" d="M174.6,85.1l24.8,19.3c3.8,2.9,9.3,2.3,12.2-1.5l32-41.1c-0.9-2.2-1.9-4.4-3.1-6.5l-29.1,37.4
			c-2.9,3.8-8.4,4.5-12.2,1.5l-13.7-10.7c-3.8-2.9-4.5-8.4-1.5-12.2L213,33.9c-2.8-0.8-5.6-1.3-8.4-1.6L173,72.9
			C170.1,76.6,170.8,82.1,174.6,85.1z"/>
		<path class="st2" d="M85.1,212.4c0.4,0.6,1,1.1,1.5,1.6l10.3,8c0.6,0.5,1.2,0.8,1.9,1.1l78.5-100.9c3.4-4.3,3-10.2-0.8-13.2
			c-3.8-2.9-9.6-1.8-12.9,2.5L85.1,212.4z"/>
		<ellipse transform="matrix(0.614 -0.7893 0.7893 0.614 -124.8124 158.8166)" class="st3" cx="100" cy="207" rx="7.2" ry="7.2"/>
	</g>
</g>
</svg>
