<?xml version="1.0" encoding="utf-8"?>
<!-- Generator: Adobe Illustrator 21.1.0, SVG Export Plug-In . SVG Version: 6.00 Build 0)  -->
<svg version="1.1" id="Web_and_Development" xmlns="http://www.w3.org/2000/svg" xmlns:xlink="http://www.w3.org/1999/xlink"
	 x="0px" y="0px" viewBox="0 0 1063.8 1074.3" style="enable-background:new 0 0 1063.8 1074.3;" xml:space="preserve">
<style type="text/css">
	.st0{fill:#FFB952;}
	.st1{fill:#34495E;}
	.st2{opacity:0.8;fill:#FFFFFF;}
	.st3{fill:#1ABC9C;}
	.st4{fill:#F4BD42;}
	.st5{fill:#F7D9CD;}
	.st6{fill:#586771;}
	.st7{fill:#00BB83;}
	.st8{opacity:0.3;fill:#FFFFFF;}
	.st9{opacity:0.2;}
	.st10{fill:#F7DDD5;}
	.st11{fill:#20C9A9;}
	.st12{fill:#FFFAB7;}
	.st13{fill:#EDEDED;}
	.st14{fill:#88604A;}
	.st15{fill:#785741;}
	.st16{fill:#213B51;}
	.st17{fill:#CECECE;}
	.st18{opacity:0.3;}
	.st19{fill:#3A3939;}
</style>
<g id="Application_Maker_1_">
	<g id="Background_19_">
		<circle id="Background_2_18_" class="st0" cx="532" cy="532" r="532"/>
	</g>
	<g id="Application_Maker">
		<g id="Tablet">
			<g>
				<path class="st1" d="M796.1,729.4c0,35.5-4.7,33.4-40.1,33.4H342.7c-35.5,0-38.8-3.3-38.8-38.8V447.2c0-35.5,7.3-37.4,42.8-37.4
					l397.3-0.4c35.5,0,51.8-7.1,51.8,28.4L796.1,729.4z"/>
				<path class="st2" d="M766.7,712.2c0,31.2-4.1,29.4-35.3,29.4H367.5c-31.2,0-34.2-2.9-34.2-34.2V463.7c0-31.2,6.5-33,37.7-33
					l349.8-0.4c31.2,0,45.6-6.2,45.6,25L766.7,712.2z"/>
				<path class="st3" d="M418.9,687.9c0,14.8-12,26.8-26.7,26.8l0,0c-14.8,0-26.8-12-26.8-26.8V488.6c0-14.8,12-26.8,26.8-26.8l0,0
					c14.8,0,26.7,12,26.7,26.8V687.9z"/>
				<rect x="453.7" y="472.6" class="st4" width="189.9" height="231.4"/>
				<path class="st3" d="M661,472.6v38.8h85.6v-38.8H661z M740.6,507.4h-74.2v-30.8h74.2V507.4z"/>
				<rect x="661" y="540.4" class="st3" width="85.6" height="38.8"/>
				<rect x="661" y="610.8" class="st3" width="85.6" height="38.8"/>
				<rect x="661" y="665.9" class="st3" width="85.6" height="38.8"/>
			</g>
			<g>
				<path class="st5" d="M154.1,878.4l25.4-115c0,0,1.3-18.7,34.8-52.2c33.4-33.4,89.6-106.3,89.6-106.3v100.4L278.5,752l70.9-80.9
					c0,0,48.2-24.2,40.4,29.4c0,0-60.5,85.7-61.8,92.4c-1.3,6.7-2.7,41.5-29.4,78.9c-26.8,37.5-28.1,49.5-28.1,49.5l-5.4,8
					L154.1,878.4z"/>
				<path class="st6" d="M138,873l148.5,56.2c0,0-12,57.5-32.1,107c-20.1,49.5-189.9,36.1-189.9,36.1l16.1-53.5L138,873z"/>
				<path class="st7" d="M286.5,929.2L138,873l-13.2,33.5L278,964C283.5,943.5,286.5,929.2,286.5,929.2z"/>
				<path class="st8" d="M346.7,678.3l36.6,27C383.3,705.3,395.5,652,346.7,678.3z"/>
				<path class="st9" d="M286.5,929.2l-75.6-28.6l-63.3,172.5c46.2-2.5,96.5-11.3,106.8-36.9c19.2-47.3,31-102,32-106.7
					C286.5,929.4,286.5,929.2,286.5,929.2z"/>
			</g>
			<g>
				<path class="st10" d="M945.9,878.7l-25.4-115c0,0-1.3-18.7-34.8-52.2s-89.6-106.3-89.6-106.3v100.4l25.4,46.7l-70.9-80.9
					c0,0-49.1-26.1-40.5,29.3c0,0,60.5,85.7,61.9,92.4c1.3,6.7,2.7,41.5,29.4,78.9c26.8,37.5,28.1,49.5,28.1,49.5l5.4,8L945.9,878.7
					z"/>
				<path class="st6" d="M962,873.4l-148.5,56.2c0,0,12,57.5,32.1,107c20.1,49.5,189.9,36.1,189.9,36.1l-16-53.5L962,873.4z"/>
				<path class="st7" d="M813.5,929.5L962,873.4l13.2,33.5L822,964.3C816.5,943.8,813.5,929.5,813.5,929.5z"/>
				<path class="st8" d="M753.3,678.6l-36.6,27C716.7,705.6,704.5,652.3,753.3,678.6z"/>
				<path class="st9" d="M813.5,929.5l75.6-28.6l63.3,172.5c-46.2-2.5-96.5-11.3-106.8-36.9c-19.2-47.3-31-102-32-106.7
					C813.5,929.7,813.5,929.5,813.5,929.5z"/>
			</g>
		</g>
		<g id="Document_5_">
			<path class="st11" d="M488.3,201.4c0,0,5.9-30.4,7.5-30.4c1.6,0,7.5,0.9,32,7.1c24.5,6.2,45.3,11.5,45.3,11.5s9.1,2.7,11.2-3.5
				c2.1-6.1,1.1-6.1,13.3-2.9c12.3,3.2,30.9,8.5,30.9,8.5s5.9,2.1,5.9,6.4c0,4.3,0,7.5,0,7.5l19.2,4.8c0,0,7.5,1.6,3.7,14.4
				c-3.7,12.8-45.9,160-45.9,160L488.3,201.4z"/>
			<path class="st12" d="M614.7,388.1l-32-151.5c0,0,1.6-6.4-8.5-10.1c-10.1-3.7-16-4.3-16-4.3s1.8-10.7-9.2-13.9
				c-11-3.2-43.6-13.3-43.6-13.3l-4.8,6.9l-63.5-19.7c0,0-3.2-5.3,0,10.1c3.2,15.5,30.9,128,30.9,128L614.7,388.1z"/>
		</g>
		<g id="Cup_1_">
			<path class="st13" d="M942.3,486.5c-40.5-23.2-92.1-9.1-115.2,31.3c-23.2,40.5-9.1,92.1,31.3,115.3c37.2,21.3,83.7,11.1,109-22.1
				c0.5,0.4,1.1,0.9,1.7,1.2l21.6,12.4c5.7,3.2,12.9,1.3,16.1-4.4c3.2-5.7,1.3-12.9-4.4-16.1l-21.6-12.4c-0.7-0.4-1.3-0.7-2-0.9
				C994,552.4,979.2,507.6,942.3,486.5z"/>
			
				<ellipse transform="matrix(0.4968 -0.8679 0.8679 0.4968 -32.7576 1063.0179)" class="st14" cx="900.3" cy="559.8" rx="69.8" ry="69.8"/>
			<path class="st15" d="M919.8,525.8c18.8,10.7,25.3,34.7,14.5,53.5c-10.7,18.8-34.7,25.3-53.5,14.5
				c-18.8-10.7-25.3-34.7-14.5-53.5C877.1,521.5,901,515,919.8,525.8z"/>
		</g>
		<g id="Phone_2_">
			<path class="st16" d="M168.4,486.7c0,0.9-0.7,1.7-1.7,1.7l0,0c-0.9,0-1.7-0.7-1.7-1.7v-10.8c0-0.9,0.8-1.7,1.7-1.7l0,0
				c0.9,0,1.7,0.7,1.7,1.7V486.7z"/>
			<path class="st16" d="M168.4,504.9c0,0.9-0.7,1.7-1.7,1.7l0,0c-0.9,0-1.7-0.7-1.7-1.7v-10.8c0-0.9,0.8-1.7,1.7-1.7l0,0
				c0.9,0,1.7,0.7,1.7,1.7V504.9z"/>
			<path class="st16" d="M261.5,503c0,0.9-0.8,1.7-1.7,1.7l0,0c-0.9,0-1.7-0.8-1.7-1.7v-10.8c0-0.9,0.7-1.7,1.7-1.7l0,0
				c0.9,0,1.7,0.7,1.7,1.7V503z"/>
			<path class="st1" d="M259.9,608.3c0,4.9-4,8.9-8.9,8.9h-74.9c-4.9,0-8.9-4-8.9-8.9V472.4c0-4.9,4-8.9,8.9-8.9H251
				c4.9,0,8.9,4,8.9,8.9V608.3z"/>
			<rect x="176.4" y="476.3" class="st17" width="74.4" height="119.2"/>
			<path class="st8" d="M227.1,605.8c0,3.8-3.1,6.9-7,6.9h-13.4c-3.8,0-6.9-3.1-6.9-6.9l0,0c0-3.8,3.1-6.9,6.9-6.9h13.4
				C224,598.9,227.1,602,227.1,605.8L227.1,605.8z"/>
			<path class="st18" d="M216.3,469.3c0,0.6-0.5,1.1-1.1,1.1h-15.9c-0.6,0-1.1-0.5-1.1-1.1l0,0c0-0.6,0.5-1.1,1.1-1.1h15.9
				C215.8,468.2,216.3,468.7,216.3,469.3L216.3,469.3z"/>
			<path class="st18" d="M221.6,469.3c0,0.6-0.5,1.1-1.1,1.1h-1c-0.6,0-1.1-0.5-1.1-1.1l0,0c0-0.6,0.5-1.1,1.1-1.1h1
				C221.1,468.2,221.6,468.7,221.6,469.3L221.6,469.3z"/>
			<path class="st3" d="M217.4,517.9l5,5L206,539.4l-5-5c-2.9,3.3-3.8,7.3-1.9,9.2l1.2,1.2c2,2,6.5,0.9,10-2.6l14.9-14.8
				c3.5-3.5,4.7-8,2.6-10l-1.2-1.2C224.7,514.2,220.8,515,217.4,517.9z"/>
			<g>
				<path class="st19" d="M196.2,555.3c0.3-0.1,0.9-0.1,1.4-0.1c0.8,0,1.3,0.1,1.6,0.4c0.3,0.2,0.5,0.6,0.5,1.1c0,0.6-0.4,1.1-1,1.3
					v0c0.6,0.2,1.2,0.6,1.2,1.5c0,0.5-0.2,0.9-0.5,1.2c-0.4,0.4-1.1,0.6-2.1,0.6c-0.5,0-0.9,0-1.2-0.1V555.3z M196.9,557.7h0.7
					c0.8,0,1.3-0.4,1.3-1c0-0.7-0.5-1-1.3-1c-0.4,0-0.6,0-0.7,0.1V557.7z M196.9,560.6c0.2,0,0.4,0,0.7,0c0.8,0,1.5-0.3,1.5-1.2
					c0-0.8-0.7-1.2-1.5-1.2h-0.6V560.6z"/>
				<path class="st19" d="M204.6,560c0,0.4,0,0.8,0,1.2h-0.7l0-0.7h0c-0.2,0.4-0.7,0.8-1.4,0.8c-0.7,0-1.5-0.4-1.5-1.9v-2.5h0.8v2.4
					c0,0.8,0.2,1.4,1,1.4c0.5,0,0.9-0.4,1-0.7c0.1-0.1,0.1-0.3,0.1-0.4v-2.7h0.8V560z"/>
				<path class="st19" d="M205.8,560.4c0.2,0.2,0.6,0.3,1,0.3c0.6,0,0.8-0.3,0.8-0.6c0-0.4-0.2-0.6-0.8-0.8
					c-0.8-0.3-1.1-0.7-1.1-1.2c0-0.7,0.6-1.3,1.5-1.3c0.4,0,0.8,0.1,1.1,0.3l-0.2,0.6c-0.2-0.1-0.5-0.3-0.9-0.3
					c-0.5,0-0.7,0.3-0.7,0.6c0,0.4,0.3,0.5,0.8,0.7c0.8,0.3,1.1,0.7,1.1,1.3c0,0.8-0.6,1.3-1.6,1.3c-0.5,0-0.9-0.1-1.2-0.3
					L205.8,560.4z"/>
				<path class="st19" d="M210.3,555.7c0,0.3-0.2,0.5-0.5,0.5c-0.3,0-0.5-0.2-0.5-0.5c0-0.3,0.2-0.5,0.5-0.5
					C210.1,555.2,210.3,555.4,210.3,555.7z M209.4,561.2v-4.3h0.8v4.3H209.4z"/>
				<path class="st19" d="M211.5,558c0-0.4,0-0.8,0-1.2h0.7l0,0.7h0c0.2-0.4,0.7-0.8,1.4-0.8c0.6,0,1.5,0.4,1.5,1.8v2.6h-0.8v-2.5
					c0-0.7-0.3-1.3-1-1.3c-0.5,0-0.9,0.4-1.1,0.8c0,0.1-0.1,0.2-0.1,0.4v2.6h-0.8V558z"/>
				<path class="st19" d="M216.5,558c0-0.4,0-0.8,0-1.2h0.7l0,0.7h0c0.2-0.4,0.7-0.8,1.4-0.8c0.6,0,1.5,0.4,1.5,1.8v2.6h-0.8v-2.5
					c0-0.7-0.3-1.3-1-1.3c-0.5,0-0.9,0.4-1.1,0.8c0,0.1-0.1,0.2-0.1,0.4v2.6h-0.8V558z"/>
				<path class="st19" d="M221.9,559.2c0,1.1,0.7,1.5,1.5,1.5c0.6,0,0.9-0.1,1.2-0.2l0.1,0.6c-0.3,0.1-0.7,0.3-1.4,0.3
					c-1.3,0-2.1-0.9-2.1-2.2c0-1.3,0.8-2.3,2-2.3c1.4,0,1.8,1.2,1.8,2c0,0.2,0,0.3,0,0.4H221.9z M224.2,558.6c0-0.5-0.2-1.3-1.1-1.3
					c-0.8,0-1.1,0.7-1.2,1.3H224.2z"/>
				<path class="st19" d="M225.8,560.4c0.2,0.2,0.6,0.3,1,0.3c0.6,0,0.8-0.3,0.8-0.6c0-0.4-0.2-0.6-0.8-0.8
					c-0.8-0.3-1.1-0.7-1.1-1.2c0-0.7,0.6-1.3,1.5-1.3c0.4,0,0.8,0.1,1.1,0.3l-0.2,0.6c-0.2-0.1-0.5-0.3-0.9-0.3
					c-0.5,0-0.7,0.3-0.7,0.6c0,0.4,0.3,0.5,0.8,0.7c0.8,0.3,1.1,0.7,1.1,1.3c0,0.8-0.6,1.3-1.6,1.3c-0.5,0-0.9-0.1-1.2-0.3
					L225.8,560.4z"/>
				<path class="st19" d="M196.9,565.9v6h-0.8v-6H196.9z"/>
				<path class="st19" d="M198.3,568.8c0-0.4,0-0.8,0-1.2h0.7l0.1,0.7h0c0.2-0.4,0.7-0.8,1.4-0.8c0.6,0,1.5,0.4,1.5,1.8v2.6h-0.8
					v-2.5c0-0.7-0.3-1.3-1-1.3c-0.5,0-0.9,0.4-1.1,0.8c0,0.1-0.1,0.2-0.1,0.4v2.6h-0.8V568.8z"/>
				<path class="st19" d="M206.4,571.7c-0.2,0.1-0.7,0.2-1.3,0.2c-1.3,0-2.1-0.9-2.1-2.2c0-1.3,0.9-2.3,2.3-2.3
					c0.5,0,0.9,0.1,1.1,0.2l-0.2,0.6c-0.2-0.1-0.5-0.2-0.9-0.2c-1,0-1.5,0.7-1.5,1.6c0,1,0.6,1.6,1.5,1.6c0.5,0,0.7-0.1,1-0.2
					L206.4,571.7z"/>
				<path class="st19" d="M211.2,569.7c0,1.6-1.1,2.3-2.2,2.3c-1.2,0-2.1-0.9-2.1-2.2c0-1.4,1-2.3,2.1-2.3
					C210.3,567.5,211.2,568.4,211.2,569.7z M207.7,569.8c0,0.9,0.5,1.7,1.3,1.7c0.8,0,1.3-0.7,1.3-1.7c0-0.7-0.4-1.7-1.3-1.7
					C208.1,568.1,207.7,568.9,207.7,569.8z"/>
				<path class="st19" d="M212.2,568.8c0-0.4,0-0.8,0-1.2h0.7l0,0.7h0c0.2-0.4,0.6-0.8,1.4-0.8c0.6,0,1,0.4,1.2,0.9h0
					c0.1-0.2,0.3-0.4,0.5-0.6c0.3-0.2,0.5-0.3,1-0.3c0.6,0,1.4,0.4,1.4,1.9v2.5h-0.8v-2.4c0-0.8-0.3-1.3-0.9-1.3
					c-0.4,0-0.8,0.3-0.9,0.7c0,0.1-0.1,0.3-0.1,0.4v2.7h-0.8v-2.6c0-0.7-0.3-1.2-0.9-1.2c-0.5,0-0.8,0.4-1,0.8
					c0,0.1-0.1,0.3-0.1,0.4v2.6h-0.8V568.8z"/>
				<path class="st19" d="M220.5,566.4c0,0.3-0.2,0.5-0.5,0.5c-0.3,0-0.5-0.2-0.5-0.5c0-0.3,0.2-0.5,0.5-0.5
					C220.3,565.9,220.5,566.1,220.5,566.4z M219.6,571.9v-4.3h0.8v4.3H219.6z"/>
				<path class="st19" d="M221.7,568.8c0-0.4,0-0.8,0-1.2h0.7l0,0.7h0c0.2-0.4,0.7-0.8,1.4-0.8c0.6,0,1.5,0.4,1.5,1.8v2.6h-0.8v-2.5
					c0-0.7-0.3-1.3-1-1.3c-0.5,0-0.9,0.4-1,0.8c0,0.1-0.1,0.2-0.1,0.4v2.6h-0.8V568.8z"/>
				<path class="st19" d="M230.4,567.6c0,0.3,0,0.7,0,1.2v2.5c0,1-0.2,1.6-0.6,2c-0.4,0.4-1,0.5-1.6,0.5c-0.5,0-1.1-0.1-1.4-0.4
					l0.2-0.6c0.3,0.2,0.7,0.3,1.3,0.3c0.8,0,1.4-0.4,1.4-1.5v-0.5h0c-0.2,0.4-0.7,0.7-1.4,0.7c-1.1,0-1.8-0.9-1.8-2.1
					c0-1.5,1-2.3,1.9-2.3c0.8,0,1.2,0.4,1.4,0.7h0l0-0.7H230.4z M229.6,569.3c0-0.1,0-0.3,0-0.4c-0.1-0.5-0.5-0.8-1.1-0.8
					c-0.7,0-1.3,0.6-1.3,1.6c0,0.8,0.4,1.6,1.3,1.6c0.5,0,0.9-0.3,1.1-0.8c0-0.1,0.1-0.3,0.1-0.4V569.3z"/>
				<path class="st19" d="M200.4,582.4c-0.3,0.1-0.9,0.3-1.6,0.3c-1.7,0-3-1.1-3-3c0-1.9,1.3-3.2,3.2-3.2c0.7,0,1.2,0.2,1.4,0.3
					l-0.2,0.6c-0.3-0.1-0.7-0.3-1.2-0.3c-1.4,0-2.4,0.9-2.4,2.5c0,1.5,0.8,2.4,2.3,2.4c0.5,0,1-0.1,1.3-0.3L200.4,582.4z"/>
				<path class="st19" d="M202.3,580.7l-0.6,1.9h-0.8l2.1-6h0.9l2.1,6h-0.8l-0.6-1.9H202.3z M204.3,580.1l-0.6-1.7
					c-0.1-0.4-0.2-0.8-0.3-1.1h0c-0.1,0.4-0.2,0.7-0.3,1.1l-0.6,1.7H204.3z"/>
				<path class="st19" d="M206.8,576.6h0.8v5.4h2.6v0.7h-3.3V576.6z"/>
				<path class="st19" d="M211,576.6h0.8v5.4h2.6v0.7H211V576.6z"/>
				<path class="st19" d="M216.9,582.2c0-0.3,0.2-0.6,0.5-0.6s0.5,0.2,0.5,0.6c0,0.3-0.2,0.6-0.5,0.6
					C217.2,582.7,216.9,582.5,216.9,582.2z"/>
				<path class="st19" d="M218.8,582.2c0-0.3,0.2-0.6,0.5-0.6s0.5,0.2,0.5,0.6c0,0.3-0.2,0.6-0.5,0.6
					C219,582.7,218.8,582.5,218.8,582.2z"/>
				<path class="st19" d="M220.6,582.2c0-0.3,0.2-0.6,0.5-0.6s0.5,0.2,0.5,0.6c0,0.3-0.2,0.6-0.5,0.6
					C220.9,582.7,220.6,582.5,220.6,582.2z"/>
			</g>
		</g>
	</g>
</g>
</svg>
