<?xml version="1.0" encoding="utf-8"?>
<!-- Generator: Adobe Illustrator 21.1.0, SVG Export Plug-In . SVG Version: 6.00 Build 0)  -->
<svg version="1.1" id="Web_and_Development" xmlns="http://www.w3.org/2000/svg" xmlns:xlink="http://www.w3.org/1999/xlink"
	 x="0px" y="0px" viewBox="0 0 1107.4 1141.3" style="enable-background:new 0 0 1107.4 1141.3;" xml:space="preserve">
<style type="text/css">
	.st0{fill:#FFB948;}
	.st1{fill:#FFFFFF;}
	.st2{fill:#EDEDED;}
	.st3{fill:#184F78;}
</style>
<g id="Notification_Massage_1_">
	<g id="Background_8_">
		<circle id="Background_2_8_" class="st0" cx="575.4" cy="532" r="532"/>
	</g>
	<g id="Notification_Massage_2_">
		<g id="Line_8_">
			<g>
				
					<rect x="698" y="594.6" transform="matrix(0.9331 -0.3596 0.3596 0.9331 -168.5802 294.4561)" class="st1" width="18.5" height="11.6"/>
				
					<rect x="723.7" y="584.7" transform="matrix(0.9331 -0.3596 0.3596 0.9331 -163.2991 303.0369)" class="st1" width="18.5" height="11.6"/>
				
					<rect x="749.4" y="574.8" transform="matrix(0.9331 -0.3596 0.3596 0.9331 -158.0189 311.6166)" class="st1" width="18.5" height="11.6"/>
				<polygon class="st1" points="795.1,572.8 790.9,561.9 773.6,568.6 777.8,579.4 				"/>
				
					<rect x="800.8" y="555" transform="matrix(0.9332 -0.3593 0.3593 0.9332 -147.3951 328.5256)" class="st1" width="18.5" height="11.6"/>
				
					<rect x="826.5" y="545.1" transform="matrix(0.933 -0.3598 0.3598 0.933 -142.2207 337.5674)" class="st1" width="18.5" height="11.6"/>
				
					<rect x="852.2" y="535.1" transform="matrix(0.9331 -0.3596 0.3596 0.9331 -136.8949 345.9382)" class="st1" width="18.5" height="11.6"/>
			</g>
			<g>
				
					<rect x="622.3" y="509.6" transform="matrix(0.7866 -0.6174 0.6174 0.7866 -183.5111 499.9153)" class="st1" width="18.5" height="11.6"/>
				
					<rect x="643.9" y="492.6" transform="matrix(0.7869 -0.6171 0.6171 0.7869 -168.3928 509.2765)" class="st1" width="18.5" height="11.6"/>
				
					<rect x="665.6" y="475.6" transform="matrix(0.7866 -0.6174 0.6174 0.7866 -153.2635 519.4124)" class="st1" width="18.5" height="11.6"/>
				
					<rect x="687.3" y="458.6" transform="matrix(0.7867 -0.6174 0.6174 0.7867 -138.1427 529.1045)" class="st1" width="18.5" height="11.6"/>
				
					<rect x="708.9" y="441.6" transform="matrix(0.7866 -0.6174 0.6174 0.7866 -123.0135 538.9189)" class="st1" width="18.5" height="11.6"/>
				
					<rect x="730.6" y="424.6" transform="matrix(0.7866 -0.6174 0.6174 0.7866 -107.8867 548.6664)" class="st1" width="18.5" height="11.6"/>
				
					<rect x="752.3" y="407.6" transform="matrix(0.7866 -0.6174 0.6174 0.7866 -92.7628 558.4204)" class="st1" width="18.5" height="11.6"/>
			</g>
			<g>
				
					<rect x="564.5" y="430.2" transform="matrix(0.4898 -0.8719 0.8719 0.4898 -87.3626 722.7161)" class="st1" width="18.5" height="11.6"/>
				
					<rect x="578" y="406.2" transform="matrix(0.4901 -0.8716 0.8716 0.4901 -59.6748 721.9518)" class="st1" width="18.5" height="11.6"/>
				
					<rect x="591.5" y="382.2" transform="matrix(0.4902 -0.8716 0.8716 0.4902 -31.8685 721.4604)" class="st1" width="18.5" height="11.6"/>
				
					<rect x="605" y="358.2" transform="matrix(0.4899 -0.8718 0.8718 0.4899 -3.9491 721.1671)" class="st1" width="18.5" height="11.6"/>
				
					<rect x="618.5" y="334.1" transform="matrix(0.4905 -0.8715 0.8715 0.4905 23.6281 720.3073)" class="st1" width="18.5" height="11.6"/>
				
					<rect x="632" y="310.1" transform="matrix(0.4897 -0.8719 0.8719 0.4897 51.7901 720.3531)" class="st1" width="18.5" height="11.6"/>
				
					<rect x="645.5" y="286.1" transform="matrix(0.4898 -0.8719 0.8719 0.4898 79.5826 719.829)" class="st1" width="18.5" height="11.6"/>
			</g>
			<g>
				<g>
					<path class="st2" d="M208.6,731.9l-8.4,7.6c0,0,4.3,4.9,9,9.5c2.3,2.3,4.7,4.6,6.5,6.2c0.9,0.8,1.7,1.5,2.3,2
						c0.5,0.5,0.9,0.7,0.9,0.7l7.4-8.6c0,0-0.3-0.3-0.8-0.7c-0.5-0.4-1.2-1.1-2.1-1.8c-1.7-1.5-4-3.7-6.2-5.9
						C212.8,736.6,208.6,731.9,208.6,731.9z"/>
					<path class="st2" d="M185.9,702.6l-9.5,6.2c0,0,0.2,0.3,0.6,0.9c0.4,0.6,0.9,1.5,1.6,2.5c1.4,2,3.2,4.7,5.2,7.3
						c3.8,5.3,8,10.3,8,10.3l8.8-7.2c0,0-4-4.8-7.6-9.8c-1.9-2.5-3.6-5.1-5-7c-0.7-1-1.2-1.8-1.6-2.3
						C186.1,702.9,185.9,702.6,185.9,702.6z"/>
					<path class="st2" d="M168.8,670.3l-10.7,3.9c0,0,0.6,1.6,1.6,3.8c1,2.3,2.3,5.3,3.8,8.3c0.7,1.5,1.5,3,2.2,4.3
						c0.7,1.4,1.4,2.6,2,3.7c1.2,2.2,2,3.6,2,3.6l9.9-5.6c0,0-0.7-1.3-1.8-3.4c-0.6-1-1.2-2.2-1.9-3.5c-0.6-1.3-1.3-2.7-2-4
						c-1.4-2.7-2.6-5.6-3.5-7.6C169.3,671.8,168.8,670.3,168.8,670.3z"/>
					<path class="st2" d="M159.3,635.1l-11.4,1.1c0,0,0.2,1.6,0.6,4.1c0.3,2.5,1.1,5.7,1.7,8.9c0.3,1.6,0.7,3.2,1.2,4.7
						c0.4,1.5,0.8,2.9,1.1,4.1c0.3,1.2,0.6,2.2,0.9,2.9c0.2,0.7,0.4,1.1,0.4,1.1l11-3c0,0-0.1-0.4-0.3-1c-0.2-0.6-0.5-1.5-0.8-2.7
						c-0.3-1.1-0.7-2.4-1-3.8c-0.4-1.4-0.8-2.9-1.1-4.4c-0.6-3-1.4-6-1.6-8.3C159.5,636.6,159.3,635.1,159.3,635.1z"/>
					<path class="st2" d="M160,598.7l-11.3-1.7c0,0-0.2,1.6-0.6,4.1c-0.2,1.2-0.4,2.7-0.6,4.2c-0.2,1.5-0.2,3.2-0.4,4.8
						c-0.1,1.6-0.2,3.3-0.3,4.8c-0.1,1.5,0,3,0,4.2c0,2.5,0,4.1,0,4.1l11.5-0.2c0,0,0-1.5,0-3.8c0-1.2-0.1-2.5,0-3.9
						c0.1-1.4,0.2-3,0.3-4.5c0.1-1.5,0.1-3.1,0.4-4.5c0.2-1.4,0.4-2.8,0.5-3.9C159.7,600.2,160,598.7,160,598.7z"/>
					<path class="st2" d="M171.7,564.2l-10.5-4.4c0,0-0.7,1.5-1.8,3.7c-0.5,1.1-1.2,2.4-1.8,3.8c-0.6,1.4-1.2,3-1.8,4.5
						c-0.6,1.5-1.2,3.1-1.8,4.5c-0.6,1.4-0.9,2.9-1.3,4c-0.7,2.4-1.2,4-1.2,4l11.2,2.6c0,0,0.4-1.5,1.1-3.7c0.4-1.1,0.7-2.4,1.2-3.7
						c0.5-1.3,1.1-2.8,1.6-4.2c0.6-1.4,1.1-2.9,1.6-4.2c0.6-1.3,1.2-2.5,1.7-3.5C171,565.6,171.7,564.2,171.7,564.2z"/>
					<path class="st2" d="M189.6,531.6l-9.9-5.7c0,0-3.2,5.6-6.3,11.1c-3.1,5.7-6.3,11.3-6.3,11.3l10.1,5.2c0,0,3-5.5,6.1-11
						C186.5,537.1,189.6,531.6,189.6,531.6z"/>
				</g>
				<g>
					<polygon class="st2" points="208.8,498.9 199,493 186,515.1 195.8,520.8 					"/>
					<polygon class="st2" points="228.2,466.1 218.4,460.4 205.4,482.3 215.2,488.1 					"/>
					<path class="st2" d="M247,432.9l-10-5.4c0,0-3.1,5.6-6.1,11.1c-3.1,5.5-6.3,11-6.3,11l9.9,5.7c0,0,3.2-5.5,6.3-11.2
						c1.6-2.8,3.1-5.6,4.3-7.7C246.3,434.3,247,432.9,247,432.9z"/>
					<path class="st2" d="M264.2,398.5l-10.4-4.7c0,0-0.7,1.4-1.6,3.6c-1,2.2-2.3,5-3.7,7.8c-1.4,2.8-2.8,5.7-3.9,7.8
						c-1.1,2.1-1.8,3.5-1.8,3.5l10.1,5.2c0,0,0.7-1.4,1.8-3.6c1.1-2.1,2.5-5,3.9-7.9c1.4-2.9,2.8-5.8,3.8-8
						C263.5,400,264.2,398.5,264.2,398.5z"/>
					<path class="st2" d="M278.1,362.4l-10.8-3.4c0,0-0.5,1.5-1.2,3.7c-0.7,2.2-1.7,5.2-2.8,8.1c-1,2.9-2.2,5.9-3.1,8
						c-0.9,2.2-1.5,3.6-1.5,3.6l10.5,4.3c0,0,0.6-1.5,1.5-3.8c0.9-2.3,2.1-5.3,3.2-8.3c1.1-3,2.2-6.1,2.9-8.5
						C277.6,364,278.1,362.4,278.1,362.4z"/>
					<path class="st2" d="M286.5,324.2l-11.3-1.3c0,0,0,0.4-0.1,1.1c-0.1,0.7-0.2,1.6-0.4,2.8c-0.4,2.3-0.7,5.4-1.4,8.4
						c-0.6,3-1.2,6.1-1.8,8.3c-0.5,2.3-0.9,3.8-0.9,3.8l11,2.8c0,0,0.4-1.6,1-4c0.6-2.4,1.3-5.6,1.9-8.8c0.7-3.2,1.1-6.5,1.5-8.9
						c0.2-1.2,0.3-2.2,0.4-3C286.5,324.6,286.5,324.2,286.5,324.2z"/>
					<path class="st2" d="M285.9,284.8l-11.2,1.7c0,0,0.2,1.5,0.6,3.8c0.3,2.3,0.5,5.3,0.7,8.4c0.1,3.1,0.1,6.1,0.2,8.4
						c-0.1,2.3-0.1,3.8-0.1,3.8l11.4,0.4c0,0,0.1-1.7,0.1-4.1c-0.1-2.5-0.1-5.8-0.2-9.1c-0.3-3.3-0.5-6.6-0.8-9.1
						C286.2,286.5,285.9,284.8,285.9,284.8z"/>
				</g>
			</g>
			<g>
				<g>
					<path class="st2" d="M492.9,719l-10.4,3c0,0-2.4-5.8-4.3-11.7c-1-3-1.9-5.9-2.6-8.2c-0.3-1.1-0.6-2.1-0.8-2.8
						c-0.2-0.7-0.3-1-0.3-1l10.8-1.8c0,0,0.1,0.4,0.3,1c0.2,0.6,0.4,1.5,0.7,2.5c0.6,2.1,1.5,4.9,2.5,7.7
						C490.6,713.4,492.9,719,492.9,719z"/>
					<path class="st2" d="M508.6,751.2l-9.6,4.6c0,0-0.2-0.3-0.6-0.9c-0.4-0.6-0.9-1.4-1.4-2.5c-1.1-2.1-2.7-4.8-4.1-7.7
						c-2.9-5.6-5.5-11.3-5.5-11.3l10.2-3.5c0,0,2.5,5.5,5.3,10.8c1.3,2.7,2.9,5.3,4,7.3c0.5,1,1,1.8,1.4,2.4
						C508.4,750.8,508.6,751.2,508.6,751.2z"/>
					<path class="st2" d="M529.4,780.4l-8.1,6.7c0,0-1.1-1.2-2.6-3.1c-1.5-1.9-3.7-4.4-5.6-7c-1-1.3-1.9-2.6-2.9-3.8
						c-0.9-1.2-1.7-2.4-2.4-3.4c-1.4-2-2.3-3.3-2.3-3.3l9.2-5.2c0,0,0.9,1.2,2.1,3.1c0.6,0.9,1.4,2,2.2,3.2c0.8,1.1,1.8,2.3,2.7,3.5
						c1.8,2.4,3.7,4.7,5.1,6.5C528.4,779.3,529.4,780.4,529.4,780.4z"/>
					<path class="st2" d="M556.1,804.9l-6,8.6c0,0-1.3-1-3.3-2.4c-2-1.4-4.5-3.6-7.1-5.7c-1.3-1-2.5-2.1-3.6-3.2
						c-1.1-1-2.2-2-3.1-2.9c-0.9-0.8-1.7-1.5-2.1-2.1c-0.5-0.5-0.8-0.8-0.8-0.8l7.4-7.3c0,0,0.3,0.3,0.7,0.7c0.5,0.5,1.1,1.1,2,1.9
						c0.8,0.8,1.8,1.7,2.9,2.7c1,1,2.2,2,3.4,3c2.4,1.9,4.6,4,6.5,5.3C554.9,804,556.1,804.9,556.1,804.9z"/>
					<path class="st2" d="M588.3,821.9l-3.5,9.9c0,0-1.5-0.6-3.8-1.5c-1.2-0.5-2.5-1-3.9-1.5c-1.4-0.6-2.9-1.3-4.4-2
						c-1.5-0.7-3-1.4-4.4-2.1c-1.4-0.7-2.6-1.4-3.7-2c-2.2-1.2-3.6-2-3.6-2l5.2-9c0,0,1.3,0.7,3.3,1.9c1,0.6,2.2,1.3,3.4,1.9
						c1.3,0.6,2.7,1.3,4.1,1.9c1.4,0.6,2.7,1.4,4.1,1.9c1.3,0.5,2.6,1,3.7,1.4C586.9,821.3,588.3,821.9,588.3,821.9z"/>
					<path class="st2" d="M623.6,829.2l-0.7,10.5c0,0-1.6-0.1-4-0.4c-1.2-0.1-2.6-0.2-4.2-0.4c-1.5-0.2-3.1-0.5-4.7-0.8
						c-1.6-0.3-3.2-0.5-4.7-0.8c-1.5-0.2-2.9-0.7-4.1-0.9c-2.4-0.6-4-1-4-1l2.6-10.1c0,0,1.5,0.4,3.7,0.9c1.1,0.2,2.4,0.6,3.8,0.8
						c1.4,0.2,2.9,0.5,4.4,0.7c1.5,0.2,3,0.5,4.4,0.7c1.4,0.1,2.7,0.2,3.9,0.4C622.1,829.1,623.6,829.2,623.6,829.2z"/>
					<path class="st2" d="M660.1,830.7l0.7,10.6c0,0-6.3-0.2-12.5-0.3c-6.3-0.2-12.7-0.5-12.7-0.5l-0.2-10.6c0,0,6.2,0.2,12.3,0.5
						C653.9,830.5,660.1,830.7,660.1,830.7z"/>
				</g>
				<g>
					<polygon class="st2" points="697.2,831.1 698,841.7 673,841.5 672.3,830.9 					"/>
					<polygon class="st2" points="734.4,831.4 735.1,842 710.2,841.8 709.4,831.2 					"/>
					<path class="st2" d="M771.8,832.5l0.4,10.6c0,0-6.2-0.2-12.4-0.5c-6.2-0.2-12.4-0.3-12.4-0.3l-0.6-10.6c0,0,6.3,0.1,12.5,0.3
						c3.1,0.1,6.3,0.2,8.6,0.3C770.2,832.4,771.8,832.5,771.8,832.5z"/>
					<path class="st2" d="M809.4,835.4l-0.4,10.5c0,0-1.5-0.2-3.9-0.4c-2.3-0.3-5.4-0.6-8.5-0.8c-3.1-0.3-6.2-0.5-8.5-0.7
						c-2.3-0.2-3.9-0.3-3.9-0.3l-0.1-10.6c0,0,1.6,0.1,3.9,0.3c2.4,0.2,5.5,0.4,8.7,0.7c3.2,0.3,6.3,0.6,8.7,0.8
						C807.8,835.2,809.4,835.4,809.4,835.4z"/>
					<path class="st2" d="M847.1,841.7l-1.8,10.3c0,0-1.5-0.3-3.8-0.8c-2.3-0.5-5.3-1.1-8.4-1.7c-3-0.6-6.1-1.1-8.4-1.4
						c-2.3-0.4-3.8-0.6-3.8-0.6l0.8-10.5c0,0,1.6,0.2,4,0.6c2.4,0.4,5.5,0.9,8.7,1.5c3.2,0.6,6.3,1.2,8.7,1.7
						C845.5,841.3,847.1,841.7,847.1,841.7z"/>
					<path class="st2" d="M884.2,853.4l-3.8,9.6c0,0-0.4-0.1-1-0.4c-0.6-0.2-1.5-0.6-2.6-1c-2.2-0.8-5-2-7.9-2.9
						c-2.9-1-5.8-2-8.1-2.6c-2.2-0.7-3.7-1.1-3.7-1.1l2.4-10.1c0,0,1.6,0.5,3.9,1.2c2.4,0.6,5.5,1.7,8.6,2.8c3.1,1,6.2,2.3,8.5,3.1
						c1.2,0.4,2.1,0.8,2.8,1.1C883.9,853.2,884.2,853.4,884.2,853.4z"/>
					<path class="st2" d="M918.5,872.8l-6.4,8.1c0,0-1.2-0.9-3.1-2.3c-1.9-1.3-4.5-2.9-7-4.6c-2.6-1.6-5.3-3.1-7.3-4.2
						c-2.1-1-3.4-1.7-3.4-1.7l4.6-9.2c0,0,1.5,0.8,3.7,1.9c2.2,1.3,5.1,2.9,7.9,4.6c2.8,1.8,5.6,3.6,7.6,5
						C917.2,871.8,918.5,872.8,918.5,872.8z"/>
				</g>
			</g>
		</g>
		<g id="Command">
			<polygon class="st3" points="394.8,1072.5 303,1141.3 213.9,943.4 267.8,903 			"/>
			<path class="st1" d="M687.1,657.7c10.9,14.5,7.9,35-6.6,45.9l-556,302.7c-30.6,13.8-41-0.1-51.9-14.6L11,909.4
				c-10.9-14.5-17.6-31.2-0.7-49.5l462.8-433.2c14.5-10.9,35-7.9,45.9,6.6L687.1,657.7z"/>
			<path class="st3" d="M28.7,842.7l-18.4,17.2c-16.9,18.4-10.2,35.1,0.7,49.5l61.7,82.4c10.9,14.5,21.3,28.4,51.9,14.6l19-10.3
				L28.7,842.7z"/>
			<path class="st3" d="M473.1,426.7L442.9,455l201.2,268.5l36.5-19.9c14.5-10.9,17.4-31.4,6.6-45.9L519,433.3
				C508.1,418.8,487.6,415.8,473.1,426.7z"/>
		</g>
	</g>
</g>
</svg>
