<?xml version="1.0" encoding="utf-8"?>
<!-- Generator: Adobe Illustrator 21.1.0, SVG Export Plug-In . SVG Version: 6.00 Build 0)  -->
<svg version="1.1" id="Web_and_Development" xmlns="http://www.w3.org/2000/svg" xmlns:xlink="http://www.w3.org/1999/xlink"
	 x="0px" y="0px" viewBox="0 0 429.4 431.7" style="enable-background:new 0 0 429.4 431.7;" xml:space="preserve">
<style type="text/css">
	.st0{fill:#FF3E03;}
	.st1{opacity:0.6;fill:#0F0F0F;}
	.st2{fill:#E8E8E6;}
	.st3{fill:#00EAA6;}
	.st4{opacity:0.2;}
	.st5{opacity:0.4;}
	.st6{opacity:0.7;}
</style>
<g id="Mail">
	<g id="Envelop_9_">
		<g id="Envelop_10_">
			<path class="st0" d="M156,421.9c0,5.4-4.4,9.8-9.9,9.8H10.4c-5.4,0-9.8-4.4-9.8-9.8V275.2c0-5.4,4.4-9.9,9.8-9.9h135.7
				c5.4,0,9.9,4.4,9.9,9.9V421.9z"/>
			<path class="st1" d="M4.1,348.5H156l-55.6,39.8c0,0-45.2,10.3-53,4.5c-7.8-5.7-35.7-24.6-35.7-24.6L4.1,348.5z"/>
			<rect x="15.5" y="279.1" class="st2" width="125.6" height="137.5"/>
			<path class="st3" d="M4.1,348.5H0.5v73.4c0,5.4,4.4,9.8,9.8,9.8h135.7c5.4,0,9.9-4.4,9.9-9.8v-73.4l-77.7,41.6L4.1,348.5z"/>
			<path class="st4" d="M10.4,431.7h135.7c5.4,0,9.9-4.4,9.9-9.8v-73.4l-77.7,41.6L3.2,428.6C5,430.5,7.5,431.7,10.4,431.7z"/>
		</g>
		<g id="Text_5_" class="st5">
			<rect x="30.7" y="292.3" class="st6" width="101" height="3.7"/>
			<rect x="30.7" y="298.9" class="st6" width="101" height="3.7"/>
			<rect x="30.7" y="305.8" class="st6" width="101" height="3.7"/>
			<rect x="30.7" y="312.6" class="st6" width="101" height="3.7"/>
			<rect x="30.7" y="321.2" class="st6" width="101" height="3.7"/>
			<rect x="30.7" y="331.5" class="st6" width="101" height="3.7"/>
			<rect x="30.7" y="338.7" class="st6" width="101" height="3.7"/>
			<rect x="30.7" y="345.4" class="st6" width="101" height="3.7"/>
			<rect x="30.7" y="353.2" class="st6" width="101" height="3.7"/>
		</g>
	</g>
	<g id="Envelop_7_">
		<g id="Envelop_8_">
			<path class="st0" d="M429.4,269.1c0,9.3-7.6,16.9-16.9,16.9h-233c-9.3,0-16.9-7.6-16.9-16.9V17.3c0-9.3,7.6-16.9,16.9-16.9h233
				c9.3,0,16.9,7.6,16.9,16.9V269.1z"/>
			<path class="st1" d="M168.7,143.2h260.7L334,211.5c0,0-77.5,17.6-90.9,7.8c-13.4-9.9-61.3-42.3-61.3-42.3L168.7,143.2z"/>
			<rect x="188.2" y="24.1" class="st2" width="215.6" height="236"/>
			<path class="st3" d="M168.7,143.2h-6.1v125.9c0,9.3,7.6,16.9,16.9,16.9h233c9.3,0,16.9-7.6,16.9-16.9V143.2L296,214.6
				L168.7,143.2z"/>
			<path class="st4" d="M179.5,286h233c9.3,0,16.9-7.6,16.9-16.9V143.2L296,214.6l-128.9,66C170.2,283.9,174.6,286,179.5,286z"/>
		</g>
		<g id="Text_4_" class="st5">
			<rect x="214.3" y="46.7" class="st6" width="173.3" height="6.3"/>
			<rect x="214.3" y="57.9" class="st6" width="173.3" height="6.3"/>
			<rect x="214.3" y="69.9" class="st6" width="173.3" height="6.3"/>
			<rect x="214.3" y="81.5" class="st6" width="173.3" height="6.3"/>
			<rect x="214.3" y="96.3" class="st6" width="173.3" height="6.3"/>
			<rect x="214.3" y="113.9" class="st6" width="173.3" height="6.3"/>
			<rect x="214.3" y="126.3" class="st6" width="173.3" height="6.3"/>
			<rect x="214.3" y="137.9" class="st6" width="173.3" height="6.3"/>
			<rect x="214.3" y="151.3" class="st6" width="173.3" height="6.3"/>
		</g>
	</g>
</g>
</svg>
