<?xml version="1.0" encoding="utf-8"?>
<!-- Generator: Adobe Illustrator 21.1.0, SVG Export Plug-In . SVG Version: 6.00 Build 0)  -->
<svg version="1.1" id="Web_and_Development" xmlns="http://www.w3.org/2000/svg" xmlns:xlink="http://www.w3.org/1999/xlink"
	 x="0px" y="0px" viewBox="0 0 467.5 580.7" style="enable-background:new 0 0 467.5 580.7;" xml:space="preserve">
<style type="text/css">
	.st0{fill:#008AAC;}
	.st1{fill:#E2E2E2;}
	.st2{fill:#FFD648;}
	.st3{fill:#FF5C60;}
	.st4{opacity:0.1;}
</style>
<g id="Globe_6_">
	<g id="Globe_7_">
		<ellipse class="st0" cx="233.8" cy="233.8" rx="233.8" ry="233.8"/>
		<path class="st1" d="M368.4,352.3c-1.5,0-3.3-2.8-5.2-4.6c-1.9-1.8-12.2,0.5-14.7,0.5c-2.5,0-3.7-1.1-6-2.5
			c-2.3-1.4-4.7,0.3-6.5,0.7c-1.8,0.4-2.6-1.2-1.5-3.2c1.1-2-3.6-1.5-7.2-0.8c-3.5,0.7-2.2,2.5-5,1.5c-2.9-1,3.3-4.2,5.4-6.7
			c2.1-2.5-0.4-6.6-1.6-7c-1.2-0.4-3.5-3.9-7-6.7c-3.5-2.8-6.2-0.7-10.4-0.7c-4.2,0-5.2-1.9-7.2-3.4c-2-1.5-1.4-4.4-9.3-8.6
			c-7.9-4.1-4.5-1.9-4-2.7c0.5-0.8,1.3-0.7-1.5-2c-2.8-1.3-5,1.5-7.8,2.6c-2.8,1.1-6.1,0.8-7.3,0.5c-1.2-0.3-2.6-3.2-3.9-3.8
			c-1.4-0.6-2.6-1.9-3.4-3.2c-0.9-1.4-3.7-0.8-3.6,1.8c0.1,2.6-1.4,4-4.1,5.1c-2.8,1.1-1.6-3.1-1.6-4.3c0-1.3,2.5-2.6,2.7-4.5
			c0.2-2-2.5,1.9-5,4.6c-2.6,2.8-4.3,0.2-9.3,0.7c-4.9,0.5-2.6,5.6-2.6,8.5c0,2.9-4.1,3.8-4.8,3.2c-0.7-0.7-0.7-2.3-2.2-2.3
			c-1.5,0-1.9-2.4-2.3-3.3c-0.4-0.9-5.4-1.8-7.3,1.8c-1.9,3.5-3.8,0.7-6.1,0c-2.3-0.7-6.7-9.6-5.7-11.1c1-1.6,1-2.3-0.1-3.4
			c-1.1-1.1-0.6-1.9,0.3-3.5c0.9-1.7,3.3-3.2-1.5-6.3c-4.7-3.1-12.1-0.4-16.1-0.8c-3.9-0.4-0.8-3.3,0-4c0.8-0.8,2.4-3.5,3.2-5.9
			c0.8-2.4-0.7-2.6,0.7-5.7c1.4-3.2,1-5.3-2.2-5.5c-3.2-0.2-6.1,2.2-6.3,6.7c-0.2,4.5-4.7,4.3-15.2,3.5c-10.4-0.8-9.5-9.1-10.6-15.8
			c-1.2-6.7,2.2-12.4,2.4-15.8c0.2-3.4,4.3-7.1,8.3-10.1c3.9-3,9.6-2.2,9.6-2.2s7.6,1.6,10,1.4c2.4-0.2,0.4-2,0.6-4.3
			c0.2-2.4,11.6-0.8,13.6-0.8c2,0,1.6,1.6,3.7,3.7c2.2,2.1,1.8-2.1,3.9-1.7c2.2,0.4,0.4,1.8,3.5,6.9c3.2,5.1,2.6,6.9,3.5,11.2
			c1,4.3,3.2,2.2,4.5-1.4c1.4-3.5-1.6-15-2.4-20.9c-0.8-5.9,4.5-3.7,9.7-9.3c5.1-5.5,10.4-5.9,12.8-9.9c2.4-3.9-0.2-10.4,1.2-6.9
			c1.4,3.5,1.6-1.4,1.8-5.1c0.2-3.7,2.2-5.3,3.2-3.2c1,2.2,2.2,0.6,3-3.2c0.8-3.7,4.1-7.6,5.7-9.5c1.6-1.9,4.7-0.1,9.1,0
			c4.3,0.1,0.2-0.8-1.1-5.1c-1.3-4.3,2.8-5.8,4.4-5.8c1.7,0,8.9-3.8,10.4-4.8c1.6-1,3.6-0.9,6.4,1.2c2.8,2.1-2.6,0.5-4.3,3.5
			c-1.8,3.1,2.6,3.5,4.4,0.7c1.9-2.8,6-1.5,9.6-5c3.5-3.5-4-2.3-5.7-2.8c-1.7-0.5-2.7-4.6-2.6-6c0.1-1.3-1-4.7-2.8-6.2
			c-1.8-1.5-6.4,0.2-10.3,1.8c-4,1.6-5.2,3.1-4.9,1.2c0.3-1.9,6.9-6.4,8.7-6.7c1.8-0.3,6.8-2.4,9.2-5c2.4-2.7,9.2,0.4,12.3,0.7
			c3.1,0.3,7.5,2.1,9.2-0.1c1.6-2.2,3-2.2,6.2-2.7c3.3-0.4,3.8-5.2,1.6-7.2c-2.2-2.1-5.5-9.6-10-12c-4.6-2.4-2.8-3.8-1.3-5.8
			c1.5-1.9-4.6-6.6-6.6-11.6c-2-4.9,0.2-6.1-2.2-6.3c-2.4-0.2-0.8,3.5-2,6.9c-1.2,3.3-6.1,1.6-6.9,1.4c-0.8-0.2-3.5-3.5-3.3-6.7
			c0.2-3.2,1-5.9,0-6.9c-1-1-3.2-0.2-4.3-1.4c-1.2-1.2-2.8-4.7-4.5-6.3c-1.8-1.6-5.7-0.6-8.5-1.2c-2.8-0.6-5.3,0.4-4.7,2.2
			c0.6,1.8,0.2,4.1-0.8,10.4c-1,6.3-3,3-4.5,4.5c-1.6,1.6,1,2,2.4,6.5c1.4,4.5-1.8,7.9-3.2,9.3c-1.4,1.4-5.9,2.4-8.9,3.3
			c-3,1,0.2,4.7,0.6,7.9c0.4,3.2-2.6,7.7-4.1,8.3c-1.6,0.6-6.7-5.9-7.1-9.7c-0.4-3.7,3.2-7.9,1.6-9.1c-1.6-1.2-7.7-1.2-13.4-5.9
			c-5.7-4.7-12.6-7.3-15-13c-2.4-5.7,2.4-10.8,4.3-15c2-4.1,5.9-3.5,12.2-5.9c6.3-2.4,2.4-4.5,3.9-4.5c1.6,0,6.7-0.8,7.9-2.4
			c1.2-1.6,3.9-3.2,6.5-4.5c2.6-1.4,3.2-4.1,4.1-5.7c1-1.6,3.7,2.2,6.9,1.8c3.2-0.4,3,0.6,7.3-1.4c4.3-2,0.6-3.2,0.2-5.3
			c-0.4-2.2,2.8-1.6,1.8-3.9c-1-2.4-5.3-4.7-8.2-4.3c-2.9,0.4,0.9,3.2-2.1,5.9c-3,2.8-2.4,4.5-3.3,4.9c-1,0.4-5.3-1-5.3-2.4
			c0-1.4,2-2.6,2.8-3.2c0.8-0.6-0.6-3.5-1-4.5c-0.4-1-2.2,1.2-2.6,3.2c-0.4,2-2.6,2.2-2,0.4c0.6-1.8-1.6-3.9-3.2-6.1
			c-1.6-2.2,1.6-2,3.3-4.7c1.8-2.8,1.2-3.9-1.2-5.3c-2.4-1.4-5.1,0.8-7.9,3.8c-2.8,2.9-1.8,2.8-0.8,6.5c1,3.7,0,0,0.6,3.5
			c0.6,3.5-4.5,3.2-4.5,3.2s-2.6-0.2-3.5-0.6c-1-0.4,0-1.8-2.2-2.6c-2.2-0.8-3.2,2.8-3.2,2.8s-5.9-0.2-8.3-0.2
			c-2.4,0-5.7-1.2-6.3-2.2c-0.6-1-3.5-3-6.1-3c-2.6,0-3.5,2.2-3.5,4.7c0,2.6-4.3,2.8-4.1,1.6c0.2-1.2-0.6-5.3-0.6-5.3l-2.4,1.4
			c0,0-6.5-0.4-8.7-0.6c-2.2-0.2-1.4-3-1.4-3l4.3-0.4l0.6-1c0,0-1.2-1.2-2.4-1.6c-1.2-0.4-6.3-1.4-6.3-1.4l-1.6-2.2c0,0-2.4,0-3.3,0
			c-1,0-2.6,2-3.3,2s-0.8-2.2-0.8-2.2l0.4-1.8c0,0,0,0-2,1c-2,1-2.8,0.2-2.8,0.2l0.8-2l0.2-2.2c0,0-1.2-1.4-1.2-0.4c0,1-2,3.2-3.7,3
			c-1.8-0.2-3,1.6-5.5,1c-2.6-0.6-7.5,1.2-10.2,3.5c-2.8,2.4-4.5,3.2-3.9,0.4c0.6-2.8-7.7-2.4-9.1-3c-1.4-0.6-4.9-1-8.3-1.4
			c-3.3-0.4-4.1-3.2-4.1-3.2l-1.4-4.9C104.9,37.8,89,49.3,74.7,62.5c1.9,3.5,3.8,6.8,4.4,7.2c1.4,1,2.8,0,2.8,0s-5.5,3.7-14.4,11.6
			c-8.9,7.8-5.9,8.7-5.9,11.7c0,3,1.8,1.8,1.8,1.8s-6.9,7.1-8.9,9.1c-2,2-5.5,4.7-5.5,4.7l-3.5,4.3l1.6,0.6l21.4-18
			c0,0,1.3-0.3,1.5-1c0.1-0.7,1.3-3.2,1.8-3.4c0.4-0.1,2.4-3.2,2.4-3.2s1.3-0.6,3-2.1c1.6-1.5,3.3-3.7,4.6-3.8
			c1.3-0.1,0,1.9-2.4,3.8c-2.4,1.9-5.2,6.1-5.2,6.1s7.8-4.1,10.5-5.9c2.7-1.8,1.8-4.4,2.8-4.6c1-0.1,3.4,2.1,4.1,4.3
			c0.7,2.2,1.6-0.4,5.6,0c4,0.4,1.3,3.5,2.8,5.6c1.5,2.1,1.5,2.7,5.3,1.8c3.8-0.9-1.5,8.3-1.5,8.3l-0.3,3c0,0,1.5,2.1,1.5,2.4
			c0,0.3-1.8,5.6-1.8,5.6h3c0,0-1.2,1.5-2.7,2.4c-1.5,0.9,0.3,3.2,1.8,4.4c1.5,1.2,0,0-2.1,4.7c-2.1,4.7,0,3.2,2.4,6.5
			c2.4,3.2,3.8,4.7,5.6,6.8c1.8,2.1,0,6.8-1.8,7.1c-1.8,0.3-5.6-2.7-5.6-2.7c0.3,44.3-2.7,14.8-4.1,18.6c-1.5,3.8-3.5,5.9-3.5,8.3
			c0,2.4,0,5.9-2.4,9.2c-2.4,3.2-0.3,10.6,0,11.5c0.3,0.9,2.2,4.7,2.2,4.7s0,8.2,0,12.1c0,3.9,7.1,5.9,9.5,9.3
			c2.4,3.4,1.8,9.9,2,10.9c0.2,1.1,1.7,3.7,3.1,5c1.4,1.3,1.5,3.5,2.6,5.4c1.1,2-1.7,1.3-2,3.8c-0.3,2.6,2.5,2.7,3.9,3.3
			c1.5,0.6,3,1.5,2.2,4.2c-0.8,2.8-0.4,1.8,1.1,3.3c1.5,1.6,0.8,0.6,1.6,3.5c0.8,3,2.8,1.7,2.8,1.7s0,1.3,0,1.8c0,0.5,1.8,1,1.8,1
			l1.2-1.8c0,0-0.9-0.4-0.9-0.7c0-0.3-0.2-1.8-0.2-1.8l-2.7-1.1c0,0-0.4-1.5-0.4-2.1c0-0.6,0-2.2,0-2.6c0-0.4-1-0.7-1-0.7
			s-0.1-2.7-0.1-4.2c0-1.6-2.6-3.1-2.7-3.7c-0.1-0.7-0.3-3-1.3-4.4c-1-1.5-3.3-4.6-3.3-8c0.1-3.3-0.8-5.5,0.5-5.5
			c1.3,0,3.5,3.3,4,3.8c0.6,0.6,0.1,4.5,2.6,8.2c2.5,3.6,8.8,11.1,8.2,11.7c-0.6,0.6-2.2,0.4-1.3,2.6c0.9,2.2,3,2.7,4.7,3.2
			c1.6,0.4,4.3,9.5,6.1,12.4c1.8,3-0.4,3-0.9,4.9c-0.4,1.9,0.1,2.9,3.1,4.3c3,1.3,2.4,4.6,5.8,5.6c3.4,1,10,5.4,11.8,5.8
			c1.8,0.4,1.6,2,3.9,2.2c2.4,0.2,2.8,1,3.9,1.8c1.2,0.8,5.3-0.8,6.1-1.4c0.8-0.6,1.6-0.4,3.7,0c2.2,0.4,8.5,7.1,10.4,9.1
			c2,2,3.5-0.8,5.1,0c1.6,0.8,4.5,2.6,5.7,2.4c1.2-0.2,1.2-1.2,2-1.2c0.8,0,0.2,1.6,3.2,5.3c3,3.7,2.4,4.5,2.4,5.1
			c0,0.6,1.4,3.5,3.3,3.1c2-0.4,3.9,1.7,3.9,1.7v3.3c0,0,6.7,0.4,8.1,0.8c1.4,0.4,1.6,3.3,2.2,3.7c0.6,0.4,3-2.4,2.6-3.9
			c-0.4-1.6,2.6-2.4,3.7-3.5c1.2-1.2,2.8,1.4,3.7,2.6c1,1.2,3.2,4.1,3.2,6.5c0,2.4-0.2,5.9-0.2,9.7c0,3.7-3,5.5-5.1,8.1
			c-2.2,2.6-4.1,3.7-5.1,4.9c-1,1.2-1.8,4.9-1.4,7.1c0.4,2.2,3.2,0.2,3.2,2.8c0,2.6-2.6,1.2-5.5,3.5c-3,2.4,0.4,2.6,1.4,4.5
			c1,2-1.4,0.4-1.4,2.8c0,2.4,3.5,2,6.9,3c3.3,1,6.9,9.7,8.9,14.2c2,4.5,3.9,8.5,5.9,9.3c2,0.8,2.2,2.6,6.3,3.5
			c4.1,1,7.4,4.2,9.7,4.2c2.3,0,2.3,4,1.5,5.6c-0.7,1.6-0.1,2.1,0.4,8c0.6,5.9-1.3,19.2-2,20.7c-0.6,1.5-0.5,1.2,0.6,2.3
			c1.1,1.1-1.8,5.8-1.9,7.3c-0.1,1.5-2.9,2.4-3.4,3.8c-0.6,1.4,1.4,1.4,1.7,2.7c0.4,1.3-0.8,4.4,0.4,5.6c1.2,1.2,2.3,0.8,2.6,2.7
			c0.3,1.9-1.1,3.6-3.1,3.6c-2,0-2,2.1-1.1,1.4c0.9-0.7,2.1,0,2.1,0l1.6,2.8c4.8-0.5,9.6-1.2,14.3-1.9c1-1.2,1.9-2.1,2.6-2.2
			c2.4-0.4,1.2-2.8-0.2-7.7c-1.4-4.9,3.3-0.8,6.3-2c3-1.2,2-5.1,6.1-5.7c4.1-0.6,8.7-4.3,10.4-7.1c1.8-2.8-0.8-4.1,5.7-3.3
			c6.5,0.8,12.4-7.5,17.5-13.6c5.1-6.1,0.6-8.1,9.7-13.8c9.1-5.7,23.7-21.2,24.6-26.1c0.9-4.9-1.6-5,3.5-8.4
			c5.2-3.4,11.7-12.9,12.3-15.5C371.3,356.3,369.9,352.3,368.4,352.3z"/>
		<path class="st1" d="M318.5,28.1c-7.5,0-9.1,7.5-2.4,8.7c6.7,1.2,20.5,1.2,22.9,11c2.4,9.8-7.1,12.6,0,17.3
			c7.1,4.7-1.6,9.9-1.6,16.5c0,6.7,3.2,12.2,7.9,15.8c4.7,3.5,9.5,8.3,9.9,11c0.4,2.8,5.1,2,5.1,2s-0.4-1.6,0-3.9
			c0.4-2.4,4.3-5.1,4.3-11.8c0-6.7,3.5-6.3,6.3-5.9c2.8,0.4,8.3-0.4,9.9,0c1.6,0.4,11,0.4,11.8-4.3c0.8-4.7-6.3-11.8-6.3-11.8
			s4-6.6,3.9-9.6c0-0.6-0.4-2-1.1-3.9c-19-16.9-40.8-30.8-64.6-40.8C324.5,22,323.7,28.1,318.5,28.1z"/>
		<path class="st1" d="M458.4,220.6c-13.6-11.2-22.5-11.2-23.6-8.3c-1.2,2.9,9.5,13.6,0,26.6c-9.5,13-16.5,18.3-13,29
			c3.5,10.6-14.9,20.1-0.9,29.6c13.9,9.5,11,9.5,21,8.9c9.9-0.6,8.6,15,7.9,17.2c11.5-27.6,17.8-57.9,17.8-89.7c0-1,0-1.9,0-2.9
			C465.8,228.1,463.3,224.7,458.4,220.6z"/>
	</g>
	<g id="Loading_1_">
		<path class="st2" d="M301.1,405.7c0,0-0.6-1.9-1.5-5.2c-0.5-1.7-1.1-3.7-1.8-6c-0.7-2.3-1.6-4.9-2.6-7.8
			c-3.9-11.5-9.8-26.8-17.8-42c-2-3.8-4-7.7-6.3-11.3c-1.1-1.9-2.2-3.7-3.3-5.6c-1.2-1.8-2.3-3.6-3.5-5.4c-2.3-3.6-4.7-6.9-7-10.1
			c-2.3-3.2-4.7-6.2-6.9-8.9c-2.2-2.8-4.4-5.2-6.3-7.4c-2-2.2-3.6-4.1-5.2-5.7c-3-3.1-4.7-4.8-4.7-4.8s0.6,1.1,1.5,3
			c1,1.9,2.3,4.6,3.8,7.8c1.5,3.3,3.1,7.1,4.8,11.1c1.6,4.1,3.1,8.4,4.6,12.7c1.4,4.4,2.6,8.7,3.7,12.7c1,4.1,1.9,7.8,2.6,11
			c0.7,3.2,1.2,5.9,1.5,7.7c0.3,1.9,0.5,2.9,0.5,2.9s-1-0.6-2.9-1.7c-1.8-1.1-4.7-2.6-8.2-4.6c-7.2-3.8-17.7-8.9-30.9-13.6
			c-13.2-4.7-29.2-8.6-46.6-9.9c-17.4-1.4-36.2,0.3-53.9,5c-8.9,2.4-17.5,5.4-25.7,9c-8.2,3.6-16,7.7-23.2,12.1
			c-14.4,8.8-26.7,18.7-36.5,27.9c-9.8,9.1-17.2,17.5-22.1,23.5c-4.9,6-7.4,9.7-7.4,9.7s2.8-3.5,8.2-9c5.4-5.5,13.4-13.2,23.8-21.3
			c10.3-8.2,23.1-16.8,37.7-24.1c7.3-3.6,15-6.9,23-9.7c8-2.7,16.3-4.9,24.7-6.4c16.8-3,33.9-3,49.4-0.4c15.5,2.5,29.5,7.3,41,12.5
			c11.5,5.2,20.5,10.6,26.7,14.6c3.1,2.1,5.5,3.6,7.1,4.8c1.6,1.2,2.5,1.8,2.5,1.8s-1,0.3-2.7,0.8c-1.7,0.5-4.1,1.3-7,2.4
			c-2.9,1-6.2,2.3-9.7,3.7c-3.5,1.5-7.1,3.1-10.6,4.8c-3.5,1.8-7,3.6-10.1,5.4c-3.1,1.9-5.9,3.6-8.3,5.2c-2.3,1.6-4.2,3-5.5,3.9
			c-1.3,1-2,1.5-2,1.5s1.5-0.5,4-1.3c1.3-0.4,2.9-0.8,4.8-1.3c1.9-0.5,4-1,6.4-1.4c9.5-1.9,23.2-3.1,37.7-2.4
			c14.5,0.6,29.6,2.9,40.9,5.3c2.8,0.6,5.5,1.1,7.8,1.7c2.3,0.6,4.3,1.1,6,1.5C299.2,405.2,301.1,405.7,301.1,405.7z"/>
		<path class="st3" d="M0,460.4c0,0,0.6,1.9,1.5,5.2c0.5,1.7,1.1,3.7,1.8,6c0.7,2.3,1.6,4.9,2.6,7.8c3.9,11.5,9.8,26.8,17.8,42.1
			c2,3.8,4,7.6,6.3,11.3c1.1,1.9,2.2,3.7,3.3,5.6c1.2,1.8,2.3,3.6,3.5,5.4c2.3,3.6,4.7,6.9,7,10.1c2.3,3.2,4.7,6.2,6.9,8.9
			c2.2,2.8,4.3,5.2,6.3,7.4c2,2.2,3.6,4.1,5.2,5.7c3,3.1,4.7,4.8,4.7,4.8s-0.6-1.1-1.5-3c-1-1.9-2.3-4.6-3.8-7.8
			c-1.5-3.3-3.1-7.1-4.8-11.1c-1.6-4.1-3.1-8.4-4.6-12.7c-1.4-4.4-2.6-8.7-3.7-12.7c-1-4.1-1.9-7.8-2.6-11c-0.7-3.2-1.2-5.9-1.5-7.7
			c-0.3-1.9-0.5-2.9-0.5-2.9s1,0.6,2.9,1.7c1.8,1.1,4.7,2.6,8.2,4.6c7.2,3.8,17.7,8.9,30.9,13.6c13.2,4.7,29.2,8.6,46.6,9.9
			c17.4,1.4,36.2-0.3,53.9-5c8.9-2.3,17.5-5.4,25.7-9c8.2-3.6,16-7.7,23.2-12.1c14.4-8.8,26.7-18.7,36.5-27.9
			c9.8-9.1,17.2-17.5,22.1-23.5c4.9-6,7.4-9.7,7.4-9.7s-2.8,3.5-8.2,9c-5.4,5.5-13.4,13.2-23.8,21.3c-10.3,8.2-23.1,16.8-37.7,24.1
			c-7.3,3.6-15,6.9-23,9.7c-8,2.7-16.3,4.9-24.7,6.4c-16.8,3-33.9,3-49.4,0.4c-15.6-2.5-29.5-7.3-41-12.5
			c-11.5-5.2-20.5-10.6-26.7-14.6c-3.1-2.1-5.5-3.6-7.1-4.8c-1.6-1.2-2.5-1.8-2.5-1.8s1-0.3,2.7-0.8c1.7-0.6,4.1-1.3,7-2.4
			c2.9-1,6.2-2.3,9.7-3.7c3.5-1.5,7.1-3.1,10.6-4.8c3.5-1.8,7-3.6,10.1-5.4c3.1-1.9,5.9-3.6,8.3-5.2c2.3-1.6,4.2-3,5.5-3.9
			c1.3-1,2-1.5,2-1.5s-1.5,0.5-4,1.3c-1.3,0.4-2.9,0.8-4.8,1.3c-1.9,0.5-4,1-6.4,1.4c-9.5,1.9-23.2,3.1-37.7,2.4
			c-14.5-0.6-29.6-2.9-40.9-5.3c-2.8-0.6-5.5-1.1-7.8-1.7c-2.3-0.6-4.3-1.1-6-1.5C1.9,460.9,0,460.4,0,460.4z"/>
		<path class="st4" d="M200.7,532c-7.7,0.4-16.9,1.3-27.9,2.7c-76.1,9.7-146.3-50.4-170.1-73.6c-1.7-0.4-2.6-0.7-2.6-0.7
			s0.6,1.9,1.5,5.2c0.5,1.7,1.1,3.7,1.8,6c0.7,2.3,1.6,4.9,2.6,7.8c3.9,11.5,9.8,26.8,17.8,42.1c2,3.8,4,7.6,6.3,11.3
			c1.1,1.9,2.2,3.7,3.3,5.6c1.2,1.8,2.3,3.6,3.5,5.4c2.3,3.6,4.7,6.9,7,10.1c2.3,3.2,4.7,6.2,6.9,8.9c2.2,2.8,4.3,5.2,6.3,7.4
			c2,2.2,3.6,4.1,5.2,5.7c3,3.1,4.7,4.8,4.7,4.8s-0.6-1.1-1.5-3c-1-1.9-2.3-4.6-3.8-7.8c-1.5-3.3-3.1-7.1-4.8-11.1
			c-1.6-4.1-3.1-8.4-4.6-12.7c-1.4-4.4-2.6-8.7-3.7-12.7c-1-4.1-1.9-7.8-2.6-11c-0.7-3.2-1.2-5.9-1.5-7.7c-0.3-1.9-0.5-2.9-0.5-2.9
			s1,0.6,2.9,1.7c1.8,1.1,4.7,2.6,8.2,4.6c7.2,3.8,17.7,8.9,30.9,13.6c13.2,4.7,29.2,8.6,46.6,9.9c17.4,1.4,36.2-0.3,53.9-5
			C191.2,535.2,196,533.7,200.7,532z"/>
	</g>
</g>
</svg>
