<?xml version="1.0" encoding="utf-8"?>
<!-- Generator: Adobe Illustrator 21.1.0, SVG Export Plug-In . SVG Version: 6.00 Build 0)  -->
<svg version="1.1" id="Web_and_Development" xmlns="http://www.w3.org/2000/svg" xmlns:xlink="http://www.w3.org/1999/xlink"
	 x="0px" y="0px" viewBox="0 0 820 716.6" style="enable-background:new 0 0 820 716.6;" xml:space="preserve">
<style type="text/css">
	.st0{fill:#FFFFFF;}
	.st1{fill:#2E586C;}
	.st2{fill:#FF6351;}
	.st3{fill:#00C5A1;}
	.st4{fill:#FFD559;}
	.st5{fill:#EAE8E8;}
	.st6{fill:#0898AF;}
	.st7{opacity:0.3;}
	.st8{opacity:0.7;}
	.st9{fill:#FDFFA2;}
	.st10{fill:#CCCCCC;}
	.st11{fill:#383838;}
	.st12{fill:#09C6A2;}
</style>
<g id="Web_5_">
	<path class="st0" d="M820,680.3c0,20-14.1,36.3-31.4,36.3H31.4C14.1,716.6,0,700.3,0,680.3v-644C0,16.2,14.1,0,31.4,0h757.1
		C805.9,0,820,16.2,820,36.3V680.3z"/>
	<path class="st1" d="M788.5,0H31.4C14.1,0,0,16.2,0,36.3v140.6h820V36.3C820,16.2,805.9,0,788.5,0z"/>
	<ellipse class="st2" cx="674.1" cy="32.3" rx="15.7" ry="18.1"/>
	<ellipse class="st3" cx="726.1" cy="32.3" rx="15.7" ry="18.1"/>
	<ellipse class="st4" cx="780.3" cy="32.3" rx="15.7" ry="18.1"/>
	<path class="st0" d="M615.6,60.3c0,15.5-10.9,28.1-24.3,28.1H112.1c-13.4,0-24.3-12.6-24.3-28.1l0,0c0-15.5,10.9-28.1,24.3-28.1
		h479.2C604.7,32.3,615.6,44.8,615.6,60.3L615.6,60.3z"/>
</g>
<g id="Search_3_">
	<path class="st5" d="M528.8,245.6c0,9.9-8,17.9-17.9,17.9H38.7c-9.9,0-17.9-8-17.9-17.9v-9.3c0-9.9,8-17.9,17.9-17.9h472.2
		c9.9,0,17.9,8,17.9,17.9V245.6z"/>
	<path class="st6" d="M510.9,218.4h-87.2v45.2h87.2c9.9,0,17.9-8,17.9-17.9v-9.3C528.8,226.4,520.8,218.4,510.9,218.4z"/>
	<rect x="372.3" y="218.4" class="st7" width="51.4" height="45.2"/>
	<polygon class="st8" points="398,255.6 389.5,241 381.1,226.4 398,226.4 414.8,226.4 406.4,241 	"/>
	<g>
		<path class="st9" d="M451,253c0-0.7,0.5-1.2,1.2-1.2c0.7,0,1.1,0.5,1.1,1.2c0,0.7-0.4,1.2-1.2,1.2C451.5,254.2,451,253.7,451,253z
			"/>
		<path class="st9" d="M462,253.6c-0.4,0.2-1.4,0.5-2.7,0.5c-2.8,0-4.6-1.9-4.6-4.7c0-2.9,2-4.9,5-4.9c1,0,1.9,0.2,2.3,0.5l-0.4,1.3
			c-0.4-0.2-1-0.4-2-0.4c-2.1,0-3.3,1.6-3.3,3.5c0,2.1,1.4,3.5,3.2,3.5c1,0,1.6-0.2,2.1-0.5L462,253.6z"/>
		<path class="st9" d="M472.3,249.3c0,3.4-2.4,4.9-4.6,4.9c-2.5,0-4.5-1.8-4.5-4.8c0-3.1,2-4.9,4.6-4.9
			C470.5,244.5,472.3,246.4,472.3,249.3z M464.9,249.4c0,2,1.2,3.6,2.8,3.6c1.6,0,2.8-1.5,2.8-3.6c0-1.6-0.8-3.6-2.8-3.6
			C465.8,245.8,464.9,247.6,464.9,249.4z"/>
		<path class="st9" d="M474.4,247.2c0-1,0-1.8-0.1-2.5h1.5l0.1,1.5h0.1c0.5-0.9,1.4-1.7,2.9-1.7c1.3,0,2.2,0.8,2.6,1.9h0
			c0.3-0.5,0.7-0.9,1-1.2c0.6-0.4,1.2-0.7,2.1-0.7c1.2,0,3.1,0.8,3.1,4v5.5H486v-5.3c0-1.8-0.7-2.9-2-2.9c-1,0-1.7,0.7-2,1.5
			c-0.1,0.2-0.1,0.5-0.1,0.8v5.7h-1.7v-5.6c0-1.5-0.7-2.6-1.9-2.6c-1.1,0-1.8,0.8-2.1,1.7c-0.1,0.2-0.1,0.5-0.1,0.8v5.6h-1.7V247.2z
			"/>
	</g>
</g>
<g id="CheckBox">
	<g id="Sheet">
		<path class="st10" d="M39.9,263.5v386.6c0,36.7,29.7,66.4,66.4,66.4c36.7,0,66.4-29.7,66.4-66.4h250.1V263.5H39.9z"/>
		<path class="st11" d="M485.1,648.3c0,38.3-31,68.3-69.3,68.3H104.4c38.3,0,69.3-31,69.3-69.3c0-2.2-0.1-4.4-0.3-6.6h242.5h69.3
			C485.5,643.6,485.1,645.4,485.1,648.3z"/>
	</g>
	<g id="Boxs">
		<g>
			<rect x="53.8" y="289.7" class="st5" width="38.4" height="38.4"/>
		</g>
		<g>
			<rect x="55.1" y="386.5" class="st5" width="38.4" height="38.4"/>
		</g>
		<g>
			<rect x="56.5" y="493.3" class="st5" width="38.4" height="38.4"/>
		</g>
		<g>
			<rect x="57.9" y="584.9" class="st5" width="38.4" height="38.4"/>
		</g>
	</g>
	<g id="Domain">
		<g class="st8">
			<path d="M121.9,316.8c0-1.4,1-2.4,2.3-2.4c1.3,0,2.3,1,2.3,2.4c0,1.4-0.9,2.4-2.3,2.4C122.8,319.2,121.9,318.2,121.9,316.8z"/>
			<path d="M148.8,317.9c-1.2,0.6-3.7,1.2-6.8,1.2c-7.3,0-12.8-4.6-12.8-13.1c0-8.1,5.5-13.6,13.5-13.6c3.2,0,5.3,0.7,6.1,1.2
				l-0.8,2.7c-1.3-0.6-3.1-1.1-5.2-1.1c-6.1,0-10.1,3.9-10.1,10.7c0,6.3,3.6,10.4,9.9,10.4c2,0,4.1-0.4,5.5-1.1L148.8,317.9z"/>
			<path d="M174.3,305.6c0,8.9-5.4,13.6-12,13.6c-6.8,0-11.6-5.3-11.6-13.1c0-8.2,5.1-13.6,12-13.6
				C169.8,292.5,174.3,297.9,174.3,305.6z M154.3,306c0,5.5,3,10.5,8.3,10.5c5.3,0,8.3-4.9,8.3-10.7c0-5.1-2.7-10.5-8.3-10.5
				C157,295.2,154.3,300.3,154.3,306z"/>
			<path d="M200.5,307.4c-0.2-3.6-0.4-7.9-0.4-11.2H200c-0.9,3-2,6.3-3.3,9.8l-4.6,12.6h-2.5l-4.2-12.3c-1.2-3.6-2.3-7-3-10.1h-0.1
				c-0.1,3.2-0.3,7.6-0.5,11.4l-0.7,11.1H178l1.8-25.9h4.3l4.4,12.5c1.1,3.2,2,6,2.6,8.7h0.1c0.7-2.6,1.6-5.4,2.7-8.7l4.6-12.5h4.3
				l1.6,25.9h-3.3L200.5,307.4z"/>
		</g>
		<g class="st8">
			<path d="M125.9,413.6c0-1.4,1-2.4,2.3-2.4c1.3,0,2.3,1,2.3,2.4c0,1.4-0.9,2.4-2.3,2.4C126.8,416,125.9,415,125.9,413.6z"/>
			<path d="M152.8,414.8c-1.2,0.6-3.7,1.2-6.8,1.2c-7.3,0-12.8-4.6-12.8-13.1c0-8.1,5.5-13.6,13.5-13.6c3.2,0,5.3,0.7,6.1,1.2
				l-0.8,2.7c-1.3-0.6-3.1-1.1-5.2-1.1c-6.1,0-10.1,3.9-10.1,10.7c0,6.3,3.6,10.4,9.9,10.4c2,0,4.1-0.4,5.5-1.1L152.8,414.8z"/>
			<path d="M178.3,402.4c0,8.9-5.4,13.6-12,13.6c-6.8,0-11.6-5.3-11.6-13.1c0-8.2,5.1-13.6,12-13.6
				C173.8,389.3,178.3,394.7,178.3,402.4z M158.3,402.8c0,5.5,3,10.5,8.3,10.5c5.3,0,8.3-4.9,8.3-10.8c0-5.1-2.7-10.5-8.3-10.5
				C161,392,158.3,397.1,158.3,402.8z"/>
			<path d="M180.4,413.6c0-1.4,1-2.4,2.3-2.4c1.3,0,2.3,1,2.3,2.4c0,1.4-0.9,2.4-2.3,2.4C181.4,416,180.4,415,180.4,413.6z"/>
			<path d="M192.7,389.7v25.9h-3.3v-25.9H192.7z"/>
			<path d="M198.5,390.1c2-0.3,4.5-0.5,7.1-0.5c4.8,0,8.2,1.1,10.5,3.2c2.3,2.1,3.6,5.1,3.6,9.3c0,4.2-1.3,7.7-3.7,10.1
				c-2.4,2.4-6.4,3.7-11.4,3.7c-2.4,0-4.4-0.1-6.1-0.3V390.1z M201.8,413c0.8,0.1,2.1,0.2,3.4,0.2c7.1,0,11-4,11-11
				c0-6.1-3.4-10-10.5-10c-1.7,0-3,0.2-3.9,0.4V413z"/>
		</g>
		<g class="st8">
			<path d="M135.5,520.4c0-1.4,1-2.4,2.3-2.4c1.3,0,2.3,1,2.3,2.4c0,1.4-0.9,2.4-2.3,2.4C136.4,522.8,135.5,521.8,135.5,520.4z"/>
			<path d="M144.4,522.4v-25.9h3.6l8.3,13.1c1.9,3,3.4,5.8,4.6,8.4l0.1,0c-0.3-3.5-0.4-6.6-0.4-10.6v-10.8h3.2v25.9h-3.4l-8.2-13.1
				c-1.8-2.9-3.5-5.8-4.8-8.6l-0.1,0c0.2,3.3,0.3,6.4,0.3,10.7v11.1H144.4z"/>
			<path d="M183,510.3H173v9.3h11.2v2.8h-14.6v-25.9h14v2.8H173v8.2H183V510.3z"/>
			<path d="M194,499.4h-7.9v-2.8h19.2v2.8h-7.9v23H194V499.4z"/>
		</g>
		<g class="st8">
			<path d="M133.1,612c0-1.4,1-2.4,2.3-2.4c1.3,0,2.3,1,2.3,2.4c0,1.4-0.9,2.4-2.3,2.4C134,614.4,133.1,613.4,133.1,612z"/>
			<path d="M146.1,605.8l-2.7,8.1H140l8.8-25.9h4l8.8,25.9h-3.6l-2.8-8.1H146.1z M154.6,603.2l-2.5-7.5c-0.6-1.7-1-3.2-1.3-4.7h-0.1
				c-0.4,1.5-0.8,3.1-1.3,4.7l-2.5,7.5H154.6z"/>
			<path d="M183,613.1c-1.2,0.6-3.7,1.2-6.8,1.2c-7.3,0-12.8-4.6-12.8-13.1c0-8.1,5.5-13.6,13.5-13.6c3.2,0,5.3,0.7,6.1,1.2
				l-0.8,2.7c-1.3-0.6-3.1-1.1-5.2-1.1c-6.1,0-10.1,3.9-10.1,10.7c0,6.3,3.6,10.4,9.9,10.4c2,0,4.1-0.4,5.5-1.1L183,613.1z"/>
			<path d="M186.2,612c0-1.4,1-2.4,2.3-2.4c1.3,0,2.3,1,2.3,2.4c0,1.4-0.9,2.4-2.3,2.4C187.1,614.4,186.2,613.4,186.2,612z"/>
			<path d="M198.4,588.1V614h-3.3v-25.9H198.4z"/>
			<path d="M204.3,588.4c2-0.3,4.5-0.5,7.1-0.5c4.8,0,8.2,1.1,10.5,3.2c2.3,2.1,3.6,5.1,3.6,9.3c0,4.2-1.3,7.7-3.7,10.1
				c-2.4,2.4-6.4,3.7-11.4,3.7c-2.4,0-4.4-0.1-6.1-0.3V588.4z M207.6,611.3c0.8,0.2,2.1,0.2,3.4,0.2c7.1,0,11-4,11-11
				c0-6.1-3.4-10-10.5-10c-1.7,0-3,0.2-3.9,0.3V611.3z"/>
		</g>
	</g>
	<g id="Ceck">
		<polygon class="st12" points="77.8,324.2 62.3,308.7 67.9,303 77.8,312.9 103.4,287.3 109.1,292.9 		"/>
	</g>
</g>
</svg>
