<?xml version="1.0" encoding="utf-8"?>
<!-- Generator: Adobe Illustrator 21.1.0, SVG Export Plug-In . SVG Version: 6.00 Build 0)  -->
<svg version="1.1" id="Layer_1" xmlns="http://www.w3.org/2000/svg" xmlns:xlink="http://www.w3.org/1999/xlink" x="0px" y="0px"
	 viewBox="0 0 1143.5 323" style="enable-background:new 0 0 1143.5 323;" xml:space="preserve">
<style type="text/css">
	.st0{fill:#E1E1E1;}
	.st1{fill:#736859;}
	.st2{fill:#343434;}
	.st3{fill:#FFFFFF;}
	.st4{fill-rule:evenodd;clip-rule:evenodd;fill:#F3F0EF;}
	.st5{fill-rule:evenodd;clip-rule:evenodd;fill:#CBC9C7;}
	.st6{fill:#607D8B;}
	.st7{fill:#487198;}
	.st8{fill:#E3614E;}
	.st9{fill:#F8DB56;}
	.st10{fill-rule:evenodd;clip-rule:evenodd;fill:#CAC9CA;}
	.st11{fill:#FFD559;}
	.st12{fill:#FF7056;}
	.st13{fill:#00C5A1;}
	.st14{fill:#67A1C1;}
	.st15{fill:#EE6837;}
	.st16{fill:#F3CB2E;}
	.st17{fill:#1A3A45;}
	.st18{fill:#66B5C9;}
	.st19{fill:#F16839;}
	.st20{fill:#FAC763;}
	.st21{fill:#1C9E8C;}
	.st22{fill:#EE6835;}
	.st23{fill:#CBCACA;}
	.st24{fill:#D65831;}
	.st25{fill:#2E596C;}
	.st26{fill:#D6E0E9;}
	.st27{fill:#214751;}
	.st28{fill:#ED6834;}
	.st29{fill-rule:evenodd;clip-rule:evenodd;fill:#FFFFFF;}
	.st30{fill:#161D21;}
	.st31{fill:#B0B0B0;}
	.st32{fill:#508CB3;}
	.st33{fill:#E4E3E0;}
	.st34{fill:#EEEEEE;}
	.st35{fill:#FF6351;}
	.st36{fill:#C33A32;}
	.st37{fill:#FFC54F;}
	.st38{fill:#E2B623;}
	.st39{fill:#EBEBD7;}
	.st40{fill:#A2B53B;}
	.st41{fill:#C1D447;}
	.st42{fill:#00B66B;}
	.st43{fill:#EABE1D;}
	.st44{fill:#F4CC2D;}
	.st45{fill:#21464F;}
	.st46{fill:#5A8790;}
</style>
<g>
	<g>
		<g>
			<path class="st0" d="M937.9,201.6c0,0,9.2-9.5,7.5-22.7c0,0,15,4.6,26.4,0.7L937.9,201.6z"/>
		</g>
		<g>
			<g>
				<circle class="st1" cx="847.4" cy="104.7" r="3.4"/>
			</g>
			<path class="st2" d="M847,104.2c0,1-0.6,1.8-1.4,1.8h-3.1v-0.9h3.1c0.2,0,0.5-0.4,0.5-0.9c0-0.5-0.3-0.9-0.5-0.9h-3.1v-0.9h3.1
				C846.4,102.4,847,103.2,847,104.2z M842.5,106h-3.1c-0.8,0-1.4-0.8-1.4-1.8c0-1,0.6-1.8,1.4-1.8h3.1v0.9h-3.1
				c-0.2,0-0.5,0.4-0.5,0.9l0,0c0,0.5,0.2,0.9,0.5,0.9h3.1V106z"/>
		</g>
		<g>
			<g>
				<circle class="st1" cx="847.4" cy="117.4" r="3.4"/>
			</g>
			<path class="st2" d="M847,116.9c0,1-0.6,1.8-1.4,1.8h-3.1v-0.9h3.1c0.2,0,0.5-0.4,0.5-0.9c0-0.5-0.3-0.9-0.5-0.9h-3.1v-0.9h3.1
				C846.4,115.1,847,115.9,847,116.9z M842.5,118.7h-3.1c-0.8,0-1.4-0.8-1.4-1.8c0-1,0.6-1.8,1.4-1.8h3.1v0.9h-3.1
				c-0.2,0-0.5,0.4-0.5,0.9l0,0c0,0.5,0.2,0.9,0.5,0.9h3.1V118.7z"/>
		</g>
		<g>
			<g>
				<ellipse class="st1" cx="847.4" cy="130.1" rx="3.4" ry="3.4"/>
			</g>
			<path class="st2" d="M847,129.6c0,1-0.6,1.8-1.4,1.8h-3.1v-0.9h3.1c0.2,0,0.5-0.4,0.5-0.9c0-0.5-0.3-0.9-0.5-0.9h-3.1v-0.9h3.1
				C846.4,127.8,847,128.6,847,129.6z M842.5,131.4h-3.1c-0.8,0-1.4-0.8-1.4-1.8c0-1,0.6-1.8,1.4-1.8h3.1v0.9h-3.1
				c-0.2,0-0.5,0.4-0.5,0.9l0,0c0,0.5,0.2,0.9,0.5,0.9h3.1V131.4z"/>
		</g>
		<g>
			<g>
				<ellipse class="st1" cx="847.4" cy="142.9" rx="3.4" ry="3.4"/>
			</g>
			<path class="st2" d="M847,142.4c0,1-0.6,1.8-1.4,1.8h-3.1v-0.9h3.1c0.2,0,0.5-0.4,0.5-0.9c0-0.5-0.3-0.9-0.5-0.9h-3.1v-0.9h3.1
				C846.4,140.6,847,141.3,847,142.4z M842.5,144.1h-3.1c-0.8,0-1.4-0.8-1.4-1.8c0-1,0.6-1.8,1.4-1.8h3.1v0.9h-3.1
				c-0.2,0-0.5,0.4-0.5,0.9l0,0c0,0.5,0.2,0.9,0.5,0.9h3.1V144.1z"/>
		</g>
		<g>
			<g>
				<ellipse class="st1" cx="847.4" cy="155.6" rx="3.4" ry="3.4"/>
			</g>
			<path class="st2" d="M847,155.1c0,1-0.6,1.8-1.4,1.8h-3.1v-0.9h3.1c0.2,0,0.5-0.4,0.5-0.9c0-0.5-0.3-0.9-0.5-0.9h-3.1v-0.9h3.1
				C846.4,153.3,847,154.1,847,155.1z M842.5,156.9h-3.1c-0.8,0-1.4-0.8-1.4-1.8c0-1,0.6-1.8,1.4-1.8h3.1v0.9h-3.1
				c-0.2,0-0.5,0.4-0.5,0.9l0,0c0,0.5,0.2,0.9,0.5,0.9h3.1V156.9z"/>
		</g>
		<g>
			<g>
				<ellipse class="st1" cx="847.4" cy="168.3" rx="3.4" ry="3.4"/>
			</g>
			<path class="st2" d="M847,167.8c0,1-0.6,1.8-1.4,1.8h-3.1v-0.9h3.1c0.2,0,0.5-0.4,0.5-0.9c0-0.5-0.3-0.9-0.5-0.9h-3.1V166h3.1
				C846.4,166,847,166.8,847,167.8z M842.5,169.6h-3.1c-0.8,0-1.4-0.8-1.4-1.8c0-1,0.6-1.8,1.4-1.8h3.1v0.9h-3.1
				c-0.2,0-0.5,0.4-0.5,0.9l0,0c0,0.5,0.2,0.9,0.5,0.9h3.1V169.6z"/>
		</g>
		<g>
			<g>
				<ellipse class="st1" cx="847.4" cy="181" rx="3.4" ry="3.4"/>
			</g>
			<path class="st2" d="M847,180.5c0,1-0.6,1.8-1.4,1.8h-3.1v-0.9h3.1c0.2,0,0.5-0.4,0.5-0.9c0-0.5-0.3-0.9-0.5-0.9h-3.1v-0.9h3.1
				C846.4,178.7,847,179.5,847,180.5z M842.5,182.3h-3.1c-0.8,0-1.4-0.8-1.4-1.8c0-1,0.6-1.8,1.4-1.8h3.1v0.9h-3.1
				c-0.2,0-0.5,0.4-0.5,0.9l0,0c0,0.5,0.2,0.9,0.5,0.9h3.1V182.3z"/>
		</g>
		<g>
			<g>
				<ellipse class="st1" cx="847.4" cy="193.7" rx="3.4" ry="3.4"/>
			</g>
			<path class="st2" d="M847,193.2c0,1-0.6,1.8-1.4,1.8h-3.1v-0.9h3.1c0.2,0,0.5-0.4,0.5-0.9c0-0.5-0.3-0.9-0.5-0.9h-3.1v-0.9h3.1
				C846.4,191.4,847,192.2,847,193.2z M842.5,195h-3.1c-0.8,0-1.4-0.8-1.4-1.8c0-1,0.6-1.8,1.4-1.8h3.1v0.9h-3.1
				c-0.2,0-0.5,0.4-0.5,0.9l0,0c0,0.5,0.2,0.9,0.5,0.9h3.1V195z"/>
		</g>
	</g>
	<g>
		<path class="st3" d="M757.9,108.4v4.9h-2.7v-4.9c0-1.4-0.2-2.8-0.5-4.1l-0.3-1.3l2.6-0.6l0.3,1.3
			C757.7,105.2,757.9,106.8,757.9,108.4z M757.9,118.7v10.7h-2.7v-10.7H757.9z M757.9,134.8v10.7h-2.7v-10.7H757.9z M757.9,150.9
			v10.7h-2.7v-10.7H757.9z M757.9,167v10.7h-2.7V167H757.9z M756.9,183.5l-0.5,1.2c-1.1,2.7-2.6,5.1-4.7,7.1l-0.9,1l-1.9-1.9l0.9-1
			c1.8-1.8,3.2-3.9,4.1-6.2l0.5-1.2L756.9,183.5z M754.6,97l-2.2,1.6l-0.8-1.1c-1.5-2.1-3.3-3.8-5.5-5.1l-1.1-0.7l1.4-2.3l1.1,0.7
			c2.5,1.5,4.6,3.5,6.2,5.8L754.6,97z M745.9,196.1l-1.2,0.5c-2.6,1.1-5.4,1.6-8.2,1.6h-1.5v-2.7h1.5c2.5,0,4.9-0.5,7.2-1.4l1.2-0.5
			L745.9,196.1z M740.9,87.3l-0.4,2.7l-1.3-0.2c-0.9-0.1-1.8-0.2-2.8-0.2H730v-2.7h6.4c1.1,0,2.1,0.1,3.2,0.2L740.9,87.3z
			 M729.6,195.6v2.7h-10.7v-2.7H729.6z M724.6,86.9v2.7h-10.7v-2.7H724.6z M713.4,195.6v2.7h-10.7v-2.7H713.4z M708.5,86.9v2.7
			h-10.7v-2.7H708.5z M697.3,195.6v2.7h-10.7v-2.7H697.3z M692.4,86.9v2.7h-10.7v-2.7H692.4z M681.2,195.6v2.7h-10.7v-2.7H681.2z
			 M676.3,86.9v2.7h-10.7v-2.7H676.3z M665.1,195.6v2.7h-10.7v-2.7H665.1z M660.2,86.9v2.7h-10.7v-2.7H660.2z M649,195.6v2.7h-10.7
			v-2.7H649z M644.1,86.9v2.7h-10.7v-2.7H644.1z M632.9,195.6v2.7h-7.2c-0.7,0-1.4,0-2,0.1l-1.3,0.1l-0.3-2.7l1.3-0.1
			c0.8-0.1,1.5-0.1,2.3-0.1H632.9z M628,86.9v2.7h-10.7v-2.7H628z M617.7,200l-1.2,0.7c-2.2,1.2-4.1,2.9-5.7,4.9l-0.8,1.1l-2.1-1.7
			l0.8-1.1c1.8-2.3,4-4.1,6.5-5.6l1.2-0.7L617.7,200z M611.9,86.9v2.7h-10.7v-2.7H611.9z M607.9,210.9l-0.3,1.3
			c-0.4,1.6-0.6,3.2-0.6,4.9v4.1h-2.7v-4.1c0-1.9,0.2-3.8,0.7-5.6l0.4-1.3L607.9,210.9z M606.9,226.6v10.7h-2.7v-10.7H606.9z
			 M606.9,242.7v10.7h-2.7v-10.7H606.9z M606.9,258.8v10.7h-2.7v-10.7H606.9z M606.9,274.9v2.6c0,2.4-0.4,4.8-1.2,7.1l-0.5,1.3
			l-2.5-0.9l0.4-1.3c0.7-2,1.1-4.1,1.1-6.2v-2.6H606.9z M602.2,290.9l-0.9,1c-1.9,2.1-4.3,3.8-6.9,5.1l-1.2,0.6l-1.1-2.4l1.2-0.6
			c2.3-1.1,4.3-2.6,6-4.4l0.9-1L602.2,290.9z M595.8,86.9v2.7h-10.7v-2.7H595.8z M587.5,298.9l-1.3,0c-0.2,0-0.5,0-0.7,0h-8.7v-2.7
			h8.7c0.2,0,0.4,0,0.6,0l1.3,0L587.5,298.9z M579.7,86.9v2.7H569v-2.7H579.7z M571.3,296.2v2.7h-10.7v-2.7H571.3z M563.6,86.9v2.7
			h-10.7v-2.7H563.6z M555.2,296.2v2.7h-10.7v-2.7H555.2z M547.5,86.9v2.7h-10.7v-2.7H547.5z M539.1,296.2v2.7h-10.7v-2.7H539.1z
			 M531.4,86.9v2.7h-10.7v-2.7H531.4z M523,296.2v2.7h-10.7v-2.7H523z M515.3,86.9v2.7h-10.7v-2.7H515.3z M506.9,296.2v2.7h-10.7
			v-2.7H506.9z M499.2,86.9v2.7h-10.7v-2.7H499.2z M490.8,296.2v2.7h-10.7v-2.7H490.8z M483.1,86.9v2.7h-10.7v-2.7H483.1z
			 M474.7,296.2v2.7h-6c-1.2,0-2.4-0.1-3.6-0.3l-1.3-0.2l0.4-2.6l1.3,0.2c1,0.2,2.1,0.3,3.1,0.3H474.7z M467,86.9v2.7h-10.7v-2.7
			H467z M459.7,294l-1.4,2.3l-1.1-0.7c-2.4-1.6-4.5-3.5-6.1-5.9l-0.8-1.1l2.2-1.5l0.8,1.1c1.4,2.1,3.2,3.8,5.4,5.2L459.7,294z
			 M451.4,86.2l-0.9,2.5l-1.3-0.5c-2.7-1-5.1-2.5-7.2-4.5l-1-0.9l1.8-2l1,0.9c1.9,1.7,4,3.1,6.3,3.9L451.4,86.2z M450.6,282.5
			l-2.6,0.5l-0.3-1.3c-0.3-1.4-0.4-2.9-0.4-4.3v-5.3h2.7v5.3c0,1.3,0.1,2.5,0.4,3.8L450.6,282.5z M449.9,239.9v10.7h-2.7v-10.7
			H449.9z M449.9,256v10.7h-2.7V256H449.9z M440,76.9l-2.5,1.1l-0.5-1.2c-1.2-2.6-1.8-5.4-1.9-8.3l0-1.3l2.7,0l0,1.3
			c0,2.5,0.6,5,1.6,7.3L440,76.9z M437.8,61.8h-2.7"/>
		<g>
			<path class="st3" d="M448.6,233.2c-1.4,3.8-3.8,8.5-6.4,11.5l6.4-2.3l6.4,2.3C452.4,241.7,450,237,448.6,233.2z"/>
		</g>
	</g>
	<g>
		<path class="st4" d="M258.7,311.8c0,6.7-5.5,12.2-12.2,12.2H12.2C5.5,324,0,318.5,0,311.8v-73.1c0-6.7,5.5-12.2,12.2-12.2h234.3
			c6.7,0,12.2,5.5,12.2,12.2V311.8z"/>
		<g>
			<path class="st5" d="M238.7,239.1h7.6c1.2,0,2.1,1,2.1,2.1v8.4c0,1.2-1,2.1-2.1,2.1h-7.6c-1.2,0-2.1-0.9-2.1-2.1v-8.4
				C236.6,240.1,237.5,239.1,238.7,239.1z"/>
			<path class="st5" d="M208.8,239.1h21c1.2,0,2.3,1,2.3,2.3v8.1c0,1.2-1,2.3-2.3,2.3h-21c-1.2,0-2.3-1-2.3-2.3v-8.1
				C206.6,240.1,207.6,239.1,208.8,239.1z"/>
			<path class="st5" d="M218.5,254h11.4c1.2,0,2.3,1,2.3,2.3v8.1c0,1.2-1,2.3-2.3,2.3h-11.4c-1.3,0-2.3-1-2.3-2.3v-8.1
				C216.2,255,217.2,254,218.5,254z"/>
			<path class="st5" d="M248.4,286.3V309c0,1.2-1,2.3-2.3,2.3H238c-1.2,0-2.3-1-2.3-2.3v-22.7c0-1.2,1-2.3,2.3-2.3h8.1
				C247.4,284.1,248.4,285.1,248.4,286.3z"/>
			<path class="st5" d="M248.4,257.4V280c0,1.3-1,2.3-2.3,2.3H238c-1.2,0-2.3-1-2.3-2.3v-22.7c0-1.2,1-2.3,2.3-2.3h8.1
				C247.4,255.1,248.4,256.1,248.4,257.4z"/>
			<path class="st5" d="M231.9,283.7h-14.7c-1,0-1.8,1-1.8,2.1v8.4c0,1.2,0.8,2.1,1.8,2.1h14.7c1,0,1.8-1,1.8-2.1v-8.4
				C233.7,284.7,232.9,283.7,231.9,283.7z"/>
			<path class="st5" d="M202.7,283.7h7.6c1.2,0,2.1,1,2.1,2.1v8.4c0,1.2-1,2.1-2.1,2.1h-7.6c-1.2,0-2.1-1-2.1-2.1v-8.4
				C200.6,284.7,201.5,283.7,202.7,283.7z"/>
			<path class="st5" d="M193.9,239.1h7.5c1.1,0,2.1,0.9,2.1,2.1v8.5c0,1.1-0.9,2.1-2.1,2.1h-7.5c-1.1,0-2.1-0.9-2.1-2.1v-8.5
				C191.8,240.1,192.7,239.1,193.9,239.1z"/>
			<path class="st5" d="M178.8,239.1h7.5c1.1,0,2.1,0.9,2.1,2.1v8.5c0,1.1-0.9,2.1-2.1,2.1h-7.5c-1.1,0-2.1-0.9-2.1-2.1v-8.5
				C176.7,240.1,177.6,239.1,178.8,239.1z"/>
			<path class="st5" d="M163.7,239.1h7.5c1.1,0,2.1,0.9,2.1,2.1v8.5c0,1.1-0.9,2.1-2.1,2.1h-7.5c-1.1,0-2.1-0.9-2.1-2.1v-8.5
				C161.6,240.1,162.6,239.1,163.7,239.1z"/>
			<path class="st5" d="M148.6,239.1h7.5c1.1,0,2.1,0.9,2.1,2.1v8.5c0,1.1-0.9,2.1-2.1,2.1h-7.5c-1.1,0-2.1-0.9-2.1-2.1v-8.5
				C146.5,240.1,147.5,239.1,148.6,239.1z"/>
			<path class="st5" d="M133.5,239.1h7.5c1.1,0,2.1,0.9,2.1,2.1v8.5c0,1.1-0.9,2.1-2.1,2.1h-7.5c-1.1,0-2.1-0.9-2.1-2.1v-8.5
				C131.5,240.1,132.4,239.1,133.5,239.1z"/>
			<path class="st5" d="M118.4,239.1h7.5c1.1,0,2.1,0.9,2.1,2.1v8.5c0,1.1-0.9,2.1-2.1,2.1h-7.5c-1.1,0-2.1-0.9-2.1-2.1v-8.5
				C116.4,240.1,117.3,239.1,118.4,239.1z"/>
			<path class="st5" d="M103.4,239.1h7.5c1.1,0,2.1,0.9,2.1,2.1v8.5c0,1.1-0.9,2.1-2.1,2.1h-7.5c-1.1,0-2.1-0.9-2.1-2.1v-8.5
				C101.3,240.1,102.2,239.1,103.4,239.1z"/>
			<path class="st5" d="M88.3,239.1h7.5c1.1,0,2.1,0.9,2.1,2.1v8.5c0,1.1-0.9,2.1-2.1,2.1h-7.5c-1.1,0-2.1-0.9-2.1-2.1v-8.5
				C86.2,240.1,87.1,239.1,88.3,239.1z"/>
			<path class="st5" d="M73.2,239.1h7.5c1.1,0,2.1,0.9,2.1,2.1v8.5c0,1.1-0.9,2.1-2.1,2.1h-7.5c-1.1,0-2.1-0.9-2.1-2.1v-8.5
				C71.1,240.1,72.1,239.1,73.2,239.1z"/>
			<path class="st5" d="M58.1,239.1h7.5c1.1,0,2.1,0.9,2.1,2.1v8.5c0,1.1-0.9,2.1-2.1,2.1h-7.5c-1.1,0-2.1-0.9-2.1-2.1v-8.5
				C56,240.1,57,239.1,58.1,239.1z"/>
			<path class="st5" d="M43,239.1h7.5c1.1,0,2.1,0.9,2.1,2.1v8.5c0,1.1-0.9,2.1-2.1,2.1H43c-1.1,0-2.1-0.9-2.1-2.1v-8.5
				C41,240.1,41.9,239.1,43,239.1z"/>
			<path class="st5" d="M28,239.1h7.5c1.1,0,2.1,0.9,2.1,2.1v8.5c0,1.1-0.9,2.1-2.1,2.1H28c-1.1,0-2.1-0.9-2.1-2.1v-8.5
				C25.9,240.1,26.8,239.1,28,239.1z"/>
			<path class="st5" d="M12.4,239.1H20c1.2,0,2.1,1,2.1,2.1v8.4c0,1.2-1,2.1-2.1,2.1h-7.6c-1.2,0-2.1-0.9-2.1-2.1v-8.4
				C10.3,240.1,11.2,239.1,12.4,239.1z"/>
			<path class="st5" d="M12.5,254h15.7c1.2,0,2.3,1,2.3,2.3v8.1c0,1.2-1,2.3-2.3,2.3H12.5c-1.2,0-2.3-1-2.3-2.3v-8.1
				C10.3,255,11.3,254,12.5,254z"/>
			<path class="st5" d="M12.5,268.9h18.6c1.2,0,2.3,1,2.3,2.3v8.1c0,1.2-1,2.3-2.3,2.3H12.5c-1.2,0-2.3-1-2.3-2.3v-8.1
				C10.3,269.9,11.3,268.9,12.5,268.9z"/>
			<path class="st5" d="M12.5,283.7h26.7c1.2,0,2.3,1,2.3,2.3v8.1c0,1.2-1,2.3-2.3,2.3H12.5c-1.2,0-2.3-1-2.3-2.3V286
				C10.3,284.7,11.3,283.7,12.5,283.7z"/>
			<path class="st5" d="M34.6,254h8c1.2,0,2.2,1,2.2,2.2v8.2c0,1.2-1,2.2-2.2,2.2h-8c-1.2,0-2.2-1-2.2-2.2v-8.2
				C32.3,255,33.3,254,34.6,254z"/>
			<path class="st5" d="M49.9,254h8c1.2,0,2.2,1,2.2,2.2v8.2c0,1.2-1,2.2-2.2,2.2h-8c-1.2,0-2.2-1-2.2-2.2v-8.2
				C47.7,255,48.7,254,49.9,254z"/>
			<path class="st5" d="M65.3,254h8c1.2,0,2.2,1,2.2,2.2v8.2c0,1.2-1,2.2-2.2,2.2h-8c-1.2,0-2.2-1-2.2-2.2v-8.2
				C63.1,255,64.1,254,65.3,254z"/>
			<path class="st5" d="M80.7,254h8c1.2,0,2.2,1,2.2,2.2v8.2c0,1.2-1,2.2-2.2,2.2h-8c-1.2,0-2.2-1-2.2-2.2v-8.2
				C78.4,255,79.4,254,80.7,254z"/>
			<path class="st5" d="M96,254h8c1.2,0,2.2,1,2.2,2.2v8.2c0,1.2-1,2.2-2.2,2.2h-8c-1.2,0-2.2-1-2.2-2.2v-8.2
				C93.8,255,94.8,254,96,254z"/>
			<path class="st5" d="M111.4,254h8c1.2,0,2.2,1,2.2,2.2v8.2c0,1.2-1,2.2-2.2,2.2h-8c-1.2,0-2.2-1-2.2-2.2v-8.2
				C109.2,255,110.2,254,111.4,254z"/>
			<path class="st5" d="M126.8,254h8c1.2,0,2.2,1,2.2,2.2v8.2c0,1.2-1,2.2-2.2,2.2h-8c-1.2,0-2.2-1-2.2-2.2v-8.2
				C124.5,255,125.5,254,126.8,254z"/>
			<path class="st5" d="M142.1,254h8c1.2,0,2.2,1,2.2,2.2v8.2c0,1.2-1,2.2-2.2,2.2h-8c-1.2,0-2.2-1-2.2-2.2v-8.2
				C139.9,255,140.9,254,142.1,254z"/>
			<path class="st5" d="M157.5,254h8c1.2,0,2.2,1,2.2,2.2v8.2c0,1.2-1,2.2-2.2,2.2h-8c-1.2,0-2.2-1-2.2-2.2v-8.2
				C155.3,255,156.3,254,157.5,254z"/>
			<path class="st5" d="M172.8,254h8c1.2,0,2.2,1,2.2,2.2v8.2c0,1.2-1,2.2-2.2,2.2h-8c-1.2,0-2.2-1-2.2-2.2v-8.2
				C170.6,255,171.6,254,172.8,254z"/>
			<path class="st5" d="M188.2,254h8c1.2,0,2.2,1,2.2,2.2v8.2c0,1.2-1,2.2-2.2,2.2h-8c-1.2,0-2.2-1-2.2-2.2v-8.2
				C186,255,187,254,188.2,254z"/>
			<path class="st5" d="M203.6,254h8c1.2,0,2.2,1,2.2,2.2v8.2c0,1.2-1,2.2-2.2,2.2h-8c-1.2,0-2.2-1-2.2-2.2v-8.2
				C201.4,255,202.3,254,203.6,254z"/>
			<path class="st5" d="M38.8,268.9h8c1.2,0,2.2,1,2.2,2.2v8.2c0,1.2-1,2.2-2.2,2.2h-8c-1.2,0-2.2-1-2.2-2.2v-8.2
				C36.6,269.9,37.6,268.9,38.8,268.9z"/>
			<path class="st5" d="M54.2,268.9h8c1.2,0,2.2,1,2.2,2.2v8.2c0,1.2-1,2.2-2.2,2.2h-8c-1.2,0-2.2-1-2.2-2.2v-8.2
				C52,269.9,53,268.9,54.2,268.9z"/>
			<path class="st5" d="M69.6,268.9h8c1.2,0,2.2,1,2.2,2.2v8.2c0,1.2-1,2.2-2.2,2.2h-8c-1.2,0-2.2-1-2.2-2.2v-8.2
				C67.3,269.9,68.3,268.9,69.6,268.9z"/>
			<path class="st5" d="M12.5,298.6h18.6c1.2,0,2.3,1,2.3,2.3v8.1c0,1.2-1,2.3-2.3,2.3H12.5c-1.2,0-2.3-1-2.3-2.3v-8.1
				C10.3,299.6,11.3,298.6,12.5,298.6z"/>
			<path class="st5" d="M38.8,298.6h8c1.2,0,2.2,1,2.2,2.2v8.2c0,1.2-1,2.2-2.2,2.2h-8c-1.2,0-2.2-1-2.2-2.2v-8.2
				C36.6,299.6,37.6,298.6,38.8,298.6z"/>
			<path class="st5" d="M55.8,298.6h8c1.2,0,2.2,1,2.2,2.2v8.2c0,1.2-1,2.2-2.2,2.2h-8c-1.2,0-2.2-1-2.2-2.2v-8.2
				C53.5,299.6,54.5,298.6,55.8,298.6z"/>
			<path class="st5" d="M71.1,298.6h8c1.2,0,2.2,1,2.2,2.2v8.2c0,1.2-1,2.2-2.2,2.2h-8c-1.2,0-2.2-1-2.2-2.2v-8.2
				C68.9,299.6,69.9,298.6,71.1,298.6z"/>
			<path class="st5" d="M84.9,268.9h8c1.2,0,2.2,1,2.2,2.2v8.2c0,1.2-1,2.2-2.2,2.2h-8c-1.2,0-2.2-1-2.2-2.2v-8.2
				C82.7,269.9,83.7,268.9,84.9,268.9z"/>
			<path class="st5" d="M100.3,268.9h8c1.2,0,2.2,1,2.2,2.2v8.2c0,1.2-1,2.2-2.2,2.2h-8c-1.2,0-2.2-1-2.2-2.2v-8.2
				C98.1,269.9,99.1,268.9,100.3,268.9z"/>
			<path class="st5" d="M115.7,268.9h8c1.2,0,2.2,1,2.2,2.2v8.2c0,1.2-1,2.2-2.2,2.2h-8c-1.2,0-2.2-1-2.2-2.2v-8.2
				C113.4,269.9,114.4,268.9,115.7,268.9z"/>
			<path class="st5" d="M131,268.9h8c1.2,0,2.2,1,2.2,2.2v8.2c0,1.2-1,2.2-2.2,2.2h-8c-1.2,0-2.2-1-2.2-2.2v-8.2
				C128.8,269.9,129.8,268.9,131,268.9z"/>
			<path class="st5" d="M146.4,268.9h8c1.2,0,2.2,1,2.2,2.2v8.2c0,1.2-1,2.2-2.2,2.2h-8c-1.2,0-2.2-1-2.2-2.2v-8.2
				C144.2,269.9,145.2,268.9,146.4,268.9z"/>
			<path class="st5" d="M161.8,268.9h8c1.2,0,2.2,1,2.2,2.2v8.2c0,1.2-1,2.2-2.2,2.2h-8c-1.2,0-2.2-1-2.2-2.2v-8.2
				C159.5,269.9,160.5,268.9,161.8,268.9z"/>
			<path class="st5" d="M177.1,268.9h8c1.2,0,2.2,1,2.2,2.2v8.2c0,1.2-1,2.2-2.2,2.2h-8c-1.2,0-2.2-1-2.2-2.2v-8.2
				C174.9,269.9,175.9,268.9,177.1,268.9z"/>
			<path class="st5" d="M192.5,268.9h8c1.2,0,2.2,1,2.2,2.2v8.2c0,1.2-1,2.2-2.2,2.2h-8c-1.2,0-2.2-1-2.2-2.2v-8.2
				C190.3,269.9,191.3,268.9,192.5,268.9z"/>
			<path class="st5" d="M207.9,268.9h8c1.2,0,2.2,1,2.2,2.2v8.2c0,1.2-1,2.2-2.2,2.2h-8c-1.2,0-2.2-1-2.2-2.2v-8.2
				C205.7,269.9,206.7,268.9,207.9,268.9z"/>
			<path class="st5" d="M223.4,268.9h8c1.2,0,2.2,1,2.2,2.2v8.2c0,1.2-1,2.2-2.2,2.2h-8c-1.2,0-2.2-1-2.2-2.2v-8.2
				C221.1,269.9,222.1,268.9,223.4,268.9z"/>
			<path class="st5" d="M38.3,283.7h8c1.2,0,2.2,1,2.2,2.2v8.2c0,1.2-1,2.2-2.2,2.2h-8c-1.2,0-2.2-1-2.2-2.2v-8.2
				C36.1,284.7,37.1,283.7,38.3,283.7z"/>
			<path class="st5" d="M54.7,283.7h8c1.2,0,2.2,1,2.2,2.2v8.2c0,1.2-1,2.2-2.2,2.2h-8c-1.2,0-2.2-1-2.2-2.2v-8.2
				C52.5,284.7,53.5,283.7,54.7,283.7z"/>
			<path class="st5" d="M71.1,283.7h8c1.2,0,2.2,1,2.2,2.2v8.2c0,1.2-1,2.2-2.2,2.2h-8c-1.2,0-2.2-1-2.2-2.2v-8.2
				C68.9,284.7,69.9,283.7,71.1,283.7z"/>
			<path class="st5" d="M87.6,283.7h8c1.2,0,2.2,1,2.2,2.2v8.2c0,1.2-1,2.2-2.2,2.2h-8c-1.2,0-2.2-1-2.2-2.2v-8.2
				C85.3,284.7,86.3,283.7,87.6,283.7z"/>
			<path class="st5" d="M104,283.7h8c1.2,0,2.2,1,2.2,2.2v8.2c0,1.2-1,2.2-2.2,2.2h-8c-1.2,0-2.2-1-2.2-2.2v-8.2
				C101.8,284.7,102.8,283.7,104,283.7z"/>
			<path class="st5" d="M120.4,283.7h8c1.2,0,2.2,1,2.2,2.2v8.2c0,1.2-1,2.2-2.2,2.2h-8c-1.2,0-2.2-1-2.2-2.2v-8.2
				C118.2,284.7,119.2,283.7,120.4,283.7z"/>
			<path class="st5" d="M136.8,283.7h8c1.2,0,2.2,1,2.2,2.2v8.2c0,1.2-1,2.2-2.2,2.2h-8c-1.2,0-2.2-1-2.2-2.2v-8.2
				C134.6,284.7,135.6,283.7,136.8,283.7z"/>
			<path class="st5" d="M153.2,283.7h8c1.2,0,2.2,1,2.2,2.2v8.2c0,1.2-1,2.2-2.2,2.2h-8c-1.2,0-2.2-1-2.2-2.2v-8.2
				C151,284.7,152,283.7,153.2,283.7z"/>
			<path class="st5" d="M169.7,283.7h8c1.2,0,2.2,1,2.2,2.2v8.2c0,1.2-1,2.2-2.2,2.2h-8c-1.2,0-2.2-1-2.2-2.2v-8.2
				C167.5,284.7,168.4,283.7,169.7,283.7z"/>
			<path class="st5" d="M186.1,283.7h8c1.2,0,2.2,1,2.2,2.2v8.2c0,1.2-1,2.2-2.2,2.2h-8c-1.2,0-2.2-1-2.2-2.2v-8.2
				C183.9,284.7,184.9,283.7,186.1,283.7z"/>
			<path class="st5" d="M189.8,298.6h8c1.2,0,2.2,1,2.2,2.2v8.2c0,1.2-1,2.2-2.2,2.2h-8c-1.2,0-2.2-1-2.2-2.2v-8.2
				C187.6,299.6,188.6,298.6,189.8,298.6z"/>
			<path class="st5" d="M182.2,298.6H175h-0.8h-16.8h-9.1h-12.6h-5H114h-5H87.3c-1.2,0-2.3,1-2.3,2.3v8.1c0,1.2,1,2.3,2.3,2.3H109h5
				h16.6h5h12.6h9.1h16.8h0.8h7.2c1.2,0,2.2-1,2.2-2.2v-8.2C184.4,299.6,183.4,298.6,182.2,298.6z"/>
			<path class="st5" d="M231.1,298.6h-6.1h-1.5h-11.2h-3h-4.6c-1.2,0-2.1,1-2.1,2.1v8.4c0,1.2,1,2.1,2.1,2.1h4.6h3h11.2h1.5h6.1
				c1.2,0,2.1-0.9,2.1-2.1v-8.4C233.3,299.6,232.3,298.6,231.1,298.6z"/>
		</g>
	</g>
	<g>
		<g>
			<rect x="913.6" y="146.1" class="st3" width="229.9" height="177.9"/>
			<g>
				<rect x="918.7" y="160.1" class="st6" width="219.7" height="20.9"/>
				<rect x="966.8" y="167.6" class="st3" width="105.3" height="5.8"/>
				<rect x="1075.7" y="167.6" class="st3" width="51" height="5.8"/>
				<g>
					<path class="st7" d="M931.8,170.5c0,1.9-1.5,3.4-3.4,3.4c-1.9,0-3.4-1.5-3.4-3.4c0-1.9,1.5-3.4,3.4-3.4
						C930.3,167.2,931.8,168.7,931.8,170.5z"/>
					<circle class="st8" cx="937.6" cy="170.5" r="3.4"/>
					<ellipse class="st9" cx="946.8" cy="170.5" rx="3.4" ry="3.4"/>
				</g>
			</g>
		</g>
		<g>
			<g>
				<g>
					<rect x="921.7" y="206.8" class="st10" width="58.2" height="2.6"/>
					<rect x="921.7" y="211.4" class="st10" width="58.2" height="2.6"/>
					<rect x="921.7" y="215.9" class="st10" width="58.2" height="2.6"/>
					<rect x="921.7" y="220.5" class="st10" width="58.2" height="2.6"/>
					<rect x="921.7" y="225" class="st10" width="58.2" height="2.6"/>
					<rect x="921.7" y="229.6" class="st10" width="58.2" height="2.6"/>
					<rect x="921.7" y="234.1" class="st10" width="58.2" height="2.6"/>
					<rect x="921.7" y="238.6" class="st10" width="58.2" height="2.6"/>
					<rect x="921.7" y="243.2" class="st10" width="29.1" height="2.6"/>
				</g>
				<g>
					<rect x="921.7" y="259.1" class="st10" width="58.2" height="2.6"/>
					<rect x="921.7" y="263.6" class="st10" width="58.2" height="2.6"/>
					<rect x="921.7" y="268.2" class="st10" width="58.2" height="2.6"/>
					<rect x="921.7" y="272.7" class="st10" width="58.2" height="2.6"/>
					<rect x="921.7" y="277.2" class="st10" width="58.2" height="2.6"/>
					<rect x="921.7" y="281.8" class="st10" width="58.2" height="2.6"/>
					<rect x="921.7" y="286.3" class="st10" width="58.2" height="2.6"/>
					<rect x="921.7" y="290.9" class="st10" width="58.2" height="2.6"/>
					<rect x="921.7" y="295.4" class="st10" width="29.1" height="2.6"/>
				</g>
			</g>
			<g>
				<g>
					<g>
						<g>
							<rect x="997.3" y="199.7" class="st11" width="7.5" height="64.9"/>
							<rect x="1012.3" y="231" class="st12" width="7.5" height="33.7"/>
							<rect x="1004.8" y="218.1" class="st13" width="7.5" height="46.6"/>
						</g>
						<rect x="989.5" y="271.7" class="st10" width="38.2" height="2"/>
					</g>
					<g>
						<g>
							<rect x="1042.7" y="218.7" class="st11" width="11.3" height="46"/>
							<rect x="1064.5" y="231" class="st12" width="11.3" height="33.7"/>
							<rect x="1053.6" y="208.9" class="st13" width="11.3" height="55.8"/>
						</g>
						<rect x="1040.2" y="271.7" class="st10" width="38.2" height="2"/>
					</g>
					<g>
						<g>
							<rect x="1084.6" y="218.7" class="st11" width="17" height="46"/>
							<rect x="1118.4" y="194.3" class="st12" width="17" height="70.4"/>
							<rect x="1101.5" y="208.9" class="st13" width="17" height="55.8"/>
						</g>
						<rect x="1090.9" y="271.7" class="st10" width="38.2" height="2"/>
					</g>
				</g>
				<g>
					<rect x="1019.8" y="280.7" class="st10" width="85.1" height="2.6"/>
					<rect x="1019.8" y="285.2" class="st10" width="85.1" height="2.6"/>
					<rect x="1019.8" y="289.8" class="st10" width="85.1" height="2.6"/>
					<rect x="1019.8" y="294.3" class="st10" width="85.1" height="2.6"/>
					<rect x="1019.8" y="298.8" class="st10" width="85.1" height="2.6"/>
					<rect x="1019.8" y="303.4" class="st10" width="85.1" height="2.6"/>
					<rect x="1019.8" y="307.9" class="st10" width="85.1" height="2.6"/>
				</g>
			</g>
		</g>
	</g>
	<g>
		<circle class="st14" cx="509" cy="65.4" r="65.2"/>
		<g>
			<path class="st3" d="M567.4,96.7L567.4,96.7L567.4,96.7C567.4,96.6,567.4,96.6,567.4,96.7L567.4,96.7
				C567.4,96.6,567.4,96.6,567.4,96.7L567.4,96.7C567.4,96.6,567.4,96.7,567.4,96.7z"/>
			<path class="st3" d="M574.6,74C574.6,74,574.6,74,574.6,74L574.6,74c0,0.2-0.1,0.5-0.1,0.7C574.6,74.5,574.6,74.3,574.6,74z"/>
			<path class="st3" d="M529.5,58.6c0.5,0.2,2.5,0.1,2.5-0.2c0-0.1,0-0.2,0-0.2c0-0.1-0.1-0.2-0.2-0.3c-0.1,0-0.1,0-0.7-0.3
				c-0.1,0-0.1-0.1-0.1-0.1c0,0,0,0,0-0.1c0-0.1,0-0.1-0.1-0.1c-0.1,0-0.1,0-0.2,0c-0.3,0.1-0.6,0.4-1,0.8c-0.3,0.3-0.3,0.4-0.3,0.5
				C529.3,58.6,529.4,58.6,529.5,58.6z"/>
			<path class="st3" d="M562.2,104.8C562.1,104.8,562.1,104.8,562.2,104.8C562.1,104.8,562.1,104.8,562.2,104.8L562.2,104.8z"/>
			<path class="st3" d="M461.2,20.8c-0.6,0.8-1,1.4-0.5,1.4c0.1,0,0.3-0.1,0.3-0.1c0,0.4-0.3,0.7-0.3,1.1c0.4,0.2,0.6-0.3,0.9-0.2
				c0.3,0.9,0.1,1.1-1.5,2.7c-0.2,0.2-0.4,0.5-0.6,0.7c0,0-0.1,0-0.2,0c-0.1,0-0.3,0-0.8,0.6c0,0-1,1.2-0.8,1.5
				c0.4-0.1,0.3-0.8,0.8-0.7c0.4,0.1,0,0.6,0,1c0,0,0.5,1.4,1.3,1c1.9-1.1,1.9-1.5,1.9-2c0-1,0-1.2,0.2-1.5c0.1-0.2,0.3-0.2,0.5-0.3
				c0.6-0.2,0.6-0.2,2-1.5c0.7-0.7-1-1.1-0.6-2c0.4-0.9,1.5-1.3,1.6-2.3c0-0.2-0.1-0.4-0.3-0.5c1.5-1.1,1.7-1.2,3.1-2.9
				c-0.1,0-0.2,0.1-0.3,0.2c0.6-1.1,1.7-1.8,2.4-2.8c0,0,0-0.1,0-0.1c-1.3,0.7-4.4,4.2-5.2,5.6c-0.7-0.8,1.6-2.1,0.6-2.1
				c-0.6,0-0.9,0.3-2.6,2c1.7-1.8,1.7-1.8,1.8-1.9C464.2,17.8,463.1,18.9,461.2,20.8z"/>
			<path class="st3" d="M466.5,16.3c1.8-0.6,1.8-0.6,2.9-1.7c-0.2,0-0.4,0.2-0.7,0.1c-0.2,0.1-0.5,0.2-0.7,0.3c0,0,0-0.1-0.1-0.1
				c1.1-1,2.6-1.2,3.8-2.1c0,0,2-1.3,3.9-2.5c0.2-0.2,0.2-0.2,1.4-0.9c2.2-1.4,4.7-2.1,7-3.4c-0.2,0-0.2,0-1.1,0.3c0,0,0,0,0,0
				c0,0,0,0,4-1.6c0.3-0.1,0.5-0.3,0.6-0.3c-0.1,0-0.1,0-0.3,0.1c0.2-0.1,0.2-0.1,0.8-0.4c-0.2,0.1-0.2,0.1-1.4,0.5
				c0.4-0.2,0.9-0.3,1.3-0.5c-0.2,0-0.5,0.1-0.6,0.1c-0.2,0.1-0.2,0.1-1.5,0.6c0.2-0.1,0.2-0.1,0.7-0.3c0,0-1.2,0.3-4,1.6
				c0.3-0.1,0.6-0.3,0.9-0.4l-1.2,0.5l0,0c-0.7,0.3-1.4,0.6-2.1,1l0,0c-0.7,0.4-0.7,0.4-1.3,0.6l0,0c-0.3,0.2-0.6,0.3-0.9,0.5
				c0.2-0.1,0.4-0.2,0.6-0.2c-0.5,0.3-1,0.4-1.4,0.7c0,0,0,0,0.1-0.1c-1.6,0.9-3.4,2-4.8,2.9l-0.2,0.1c-0.3,0.2-0.3,0.2-0.4,0.3
				c0.4-0.2,0.4-0.2,0.7-0.3c-1.2,0.7-2.2,1.6-3.4,2.3c0.1-0.1,0.1-0.1,0.4-0.4c-0.4,0.3-0.9,0.7-1.2,0.9l0,0
				c-0.8,0.7-1.6,1.4-2.4,2.1c0.3-0.2,0.6-0.5,1-0.6C466.5,16.2,466.5,16.3,466.5,16.3z"/>
			<path class="st3" d="M498.1,36.1c0,0.3,1.6,2.7,1.6,2.7c0.7,0.7,0.7,0.7,1.3,0.7c0.1,0,0.1,0,0.1,0s0,0,0,0c0,0,0,0,0,0
				c0,0,0,0,0,0c0,0,0,0,0,0c0,0,0,0,0,0c0,0,0,0,0,0c0,0,0,0,0,0c0.8-0.1,0.8,0,0.9,0.4c-0.3,0.6-1.2,0.3-1.5,0.9
				c-0.4,0.8-0.4,2.2,0,2c0.6-0.1,0.6-0.1,0.6-0.1c0,0.3,0,0.4-0.7,1c-1.1,0.9-0.6,1.1-0.3,1.1l1.4-0.3c0.2-0.1,0.4-0.2,0.6-0.4
				c0.2-0.2,0.3-0.2,0.3-0.2c0.7-0.1,1.4-0.1,2-0.4l1.1-0.5l1.2-1.2c0.2-0.3-0.1-0.6-0.1-0.9c0-0.5-0.7-0.2-0.9-0.6
				c-0.1-0.4-0.7-0.1-0.8-0.5c-0.2-0.5-0.8-0.7-0.9-1.3c0-0.2-0.4-0.7-0.4-0.7c0,0,0,0-0.1,0c-0.2-0.2-0.5-0.3-0.7-0.5
				c-0.2-0.2-0.4-0.4-0.6-0.7c-0.2-0.2-0.1-0.3,0.2-0.6c0.2-0.2,1.6-1.6-0.4-1.3c-0.8,0.1-0.8,0.1-1,0c0-0.5,0.7-0.4,0.8-0.8
				c0.1-0.3-0.1-0.6,0.1-0.8c0.1-0.1,0.2-0.1,0.2-0.1c0,0,1.4-0.1,0.8-0.8c-0.2,0-0.4,0-0.6,0l-0.1,0.1l-0.3,0.3
				c-0.4,0-0.4,0-1.2,0.3c-0.1,0.3,0.1,0.5,0.1,0.7c-0.4,0-0.8,0.1-1.2,0.1c-0.3,0.7-0.3,0.7-0.4,0.7c-0.3,0.1-0.5-0.2-0.8-0.2
				c-0.2,0-0.4,0.1-0.7,0.1c-2.6-0.1-1.5,1.3-0.9,2L498.1,36.1z"/>
			<path class="st3" d="M462.1,19.7c0.7-0.7,1.4-1.3,1.9-1.9C463.5,18.4,463.5,18.4,462.1,19.7z"/>
			<path class="st3" d="M454.7,28.4L454.7,28.4c0.8-1.1,1.9-2.5,2.7-3.6c0,0,0,0,0,0c0,0,0,0,0,0c-0.5,0.6-0.6,0.7-0.6,0.7
				c0,0,0,0,0,0s0,0,0,0c0,0,0.1-0.1,0.1-0.1c-0.1,0.2-0.5,0.6-0.5,0.7C455.5,27.3,455.5,27.3,454.7,28.4L454.7,28.4L454.7,28.4z"/>
			<path class="st3" d="M495.8,43.1c0.1,0.3,0.4,0.4,0.4,0.4c0.2,0,1.1-0.1,1.1-0.1c0,0,0,0,0.9-1c0.4-0.2,0.7-0.3,1.1-0.5
				c0.1-0.1,0.2-0.2,0.3-0.3c0-0.1,0-0.3,0-0.5l0.2-0.4l-0.1-0.7l-0.4-0.5l-0.4-0.5l-0.2-1c-0.4-0.2-1.1-0.1-1.1-0.1
				c-0.2,0.1-0.4,0.4-0.6,0.6l-0.3,0.4c-0.1,0.1-0.2,0.2-0.5,0.2c-0.2,0-0.5,0.1-0.5,0.2c-0.1,0.1-0.1,0.2,0,0.6
				c0.1,0.2,0.1,0.2,0.1,0.7c0,0.1,0,0.3,0,0.4l-0.3,0.1l-0.3,1l0.1,0.5L495.8,43.1z"/>
			<path class="st3" d="M493.2,125.6c-0.6-0.3-1-0.7-1.5-1.1c-1-0.7-2.6-0.4-2.9-2c-0.5-0.3-0.9-0.6-1.4-0.9c0-0.1,0.1-0.2,0.1-0.2
				c-0.4-0.5-1-0.6-1.4-0.9c-0.1,0-0.1-0.1-0.2-0.1c0-0.1,0.1-0.1,0.1-0.2c0.1,0,0.2,0,0.3,0.1c0-0.1,0-0.1-0.9-1
				c0-0.1,0.1-0.1,0.1-0.2c0.1,0,0.3,0,0.5,0c0-0.1-0.1-0.3-0.2-0.4c0.1,0,0.3-0.1,0.4-0.1c0,0-0.8-1.1-1.2-1.6
				c0-0.1-0.1-0.1-0.1-0.2c0.1-0.1,0.3-0.3,0.4-0.3c-0.2-0.4-0.2-0.4,0-0.8c-1.1-1.4-1.1-1.4-0.5-1.7c0,0,0-0.1,0.1-0.1
				c0.3-2-2.4-3.2-1.5-5.3c0.7-0.3,1.4-0.5,1.6-1.6c0-0.3,0.3-0.6,0.3-1c0,0-0.2-1.7-0.2-1.8c-0.3-0.8-0.9-1.4-1.2-2.1
				c-0.2-0.5-0.2-0.5,0-0.9c0.3-0.4,0.9-2,0.8-2.8c-0.1-0.6-1.3-2.4-1.8-2.7c-0.8-0.4-1.4-0.9-2.3-1.2c-0.1,0-0.2,0-0.2-0.1
				c-0.9-0.1-1.6,0.4-2.5,0.3c-1-0.2-1.7-1-2.7-1.2c-0.1,0-0.3,0-0.4,0c-2.1,0-2.1,0-2.9-1.4c-0.2-0.4-0.2-0.4-0.4-0.7
				c-0.4-0.7-1-1.1-1.5-1.6c-1.2,0-2.3,0.5-3.5,0l-5.1-3.3c-2,1.6-2,1.6-3.6,0.7c-0.6,0.2-0.6,0.4-0.7,1c-0.5,0.3-1.1,0.5-1.6,2.2
				c0-0.1-0.1-0.2-0.1-0.3c-0.1,0-0.2,0-0.3,0c0,0.1-0.1,0.2-0.1,0.3c0,0.2,0,0.2,0,0.2c-1.2-0.3-1.2-0.3-2.8-4.9
				c-0.6-0.1-0.8-0.1-1.3,0.7c-1-0.7-1-2.1-1-2.9c-0.6-2.2-0.6-2.2-1-2.9c-0.1,0.3-0.1,0.3-0.1,1.6c-0.1,0-0.2,0-0.3,0.1
				c-0.1-0.1-0.2-0.1-0.3-0.2c-0.2,1.1,0.5,2,0.5,3c-2.4,0.4-3.3-7.9-3.3-8c0.1,0,0.2,0.1,0.3,0.1c0.2-1,0.2-1,0.3-1.3
				c0.1,0,0.2-0.1,0.3-0.1c0.4,0.5,0.4,0.5,0.8,0.4c0-1.4,0.1-1.5,0.4-1.7c0.5,0.3,1.9,1.5,1.9,1.7c0,0.3,0.4,1.4,1.1,2.2
				c0.4-0.1,0.4-0.1-0.8-4.6c-0.4-1.5,0.5-2.8,0.7-4.2c0.2-1.6,0.6-3.1,0.8-4.7c0.1-0.6,0.1-0.6,1.9-3.9c0.1,0,0.2,0.1,0.3,0.1
				c0.1-3,0.1-3.3,2.4-4.9c0.1,0.8-0.6,1.2-0.8,1.9c0.1,0.1,0.2,0.2,0.2,0.3c0.3,0,3.4-3,3.5-3c0.5-0.7-0.1-1.7-0.1-1.7l-0.2,0.2
				c-0.1,0.2-0.2,0.5-0.3,0.7c-0.7-0.1-0.7-0.1-1.1-0.7c-0.1,0-0.3,0-0.4-0.1c-0.2,0.2-0.4,0.5-0.6,0.7c0.1-0.7,0.4-1.3,0.6-2
				c-0.2-0.4-0.2-0.4-0.2-0.9c-0.9,0.1-0.9,0.1-3.1,3c-0.8-2.2,2-2.7,2.4-4.4c0.6,0.3,1,1,1.5,1.4c0.1,0,0.3-0.1,0.4-0.1
				c0-0.3-0.2-0.7-0.3-1c0.1-0.1,0.1-0.1,0.1-0.1c0.5-0.2,0.5-0.2,2.9-2.5c0,0.1,0.1,0.2,0.1,0.3c0.1,0,0.2,0.1,0.3,0.1
				c-0.4,1.3-1.5,2.1-1.8,3.4c0,0.1,0,0.1,0.7,1.1c0.4-0.1,0.7-0.6,1.1-0.5c0.3,0.6,0.4,0.7,0.3,1.4c0.1,0,0.2,0,0.3-0.1
				c0.4-0.8,0.4-0.8,0.5-0.9c0.3,0,0.3,0,0.8,0.4c0.2,0.1,0.2,0.1,0.2,0.1h0c1.9-1.7,0.4-3.3-1.2-3.4c-0.1-0.2-0.1-0.2,0.6-4.8
				c-0.1-0.1-0.4-0.2-0.6-0.2c-0.1-0.1-0.2-0.2-0.2-0.3c0.1-0.3,0.2-0.6,0.2-0.9c-1.9-0.8-1.9-0.8-2.2-1.5c-0.5-1.3,0.2-2.8-0.2-4.1
				c0-0.1,0-0.2,0.2-0.8c0.2-0.8,0.2-1,0-1c-0.1,0.1-0.3,0.3-0.4,0.4c0,0-0.1,0.1-0.1,0.3c-0.1,0.2-0.1,0.5-0.2,0.7
				c-0.1,0.3-0.1,0.3-0.2,0.3c-0.1,0-0.1,0.1-0.2,0.3c-0.7,1.5-0.7,1.5-1.2,1.8c-0.3-0.1-0.5-0.4-0.8-0.5c0-0.4,0.1-0.7,0.2-0.8
				c0,0,0,0,0,0c0.1-0.3,0.1-0.5,0.2-0.8c0.1-0.3,0.3-0.5,0.4-0.8c0.1-0.1,0.1-0.3,0.1-0.4c0,0-0.1-0.1-0.1-0.1
				c-0.2-0.1-0.4-0.1-0.6-0.2c-0.1-0.1,0-0.2,0-0.3c0,0-0.1-0.9-0.2-1.2c0,0,0-0.1-0.1-0.1c-0.1-0.2-0.1-0.3-0.2-0.2c0,0,0,0,0,0
				c-0.1,0-0.1,0.1-0.1,0.2c-0.3,0.6-0.6,1.3-0.8,1c-0.1-0.2,0-0.5-0.3-0.5c-0.1,0-0.4,0.2-0.6,0.4c0,0-0.1,0.1-0.1,0.2
				c0,0.1-0.1,0.2-0.1,0.3c0,0.3,0,0.3-0.5,1.3c-0.1,0.3-0.2,0.4-0.4,0.5c-0.1,0.1-0.1,0.1-0.2,0.3c0,0,0,0.3,0.1,0.3
				c0,0,0.1,0,0.1,0l0,0c0,0,0,0,0,0l0,0h0h0c0.1,0,0.1,0,0.1,0c0.1,0.4-0.4,0.9-0.8,1.4c-0.3,0.5-0.2,1-0.4,1.5
				c0.4,0.6,0.2,1.8,0.2,1.8c-0.3,1.2-1.5,2-1.9,3.2c-0.4,1.3,0,2.8-0.5,4.1c-0.1,0.2-0.3,0.3-0.4,0.4c-1-0.5,0-3.8,0-3.8
				c0.1-0.2,0.2-0.5,0.2-0.8c-0.1,0-0.2-0.1-0.3-0.1c-0.7,0.1-0.7,0.1-1.1,0c-0.1-1.3-0.1-1.3-0.4-1.6c-0.1,0-0.2,0.1-0.3,0.1
				c0-0.7,0.3-1.3,0.5-2c-0.1,0.1-0.3,0.2-0.4,0.2l0-0.1c0.1-0.3,0.2-0.5,0.3-0.9c1.3-3.4,4.9-8.7,5.7-9.6c-0.1,1.3-1.2,2.1-1.7,3.1
				c0.1,0,0.2,0,0.3,0c0,0.2,0,0.2-0.1,0.5c0.9-0.3,0.8-1.4,1.4-1.9c0.1,0.2,0,0.4,0.1,0.6c0.1,0,0.4,0.1,0.6-0.3
				c0.5-0.8-0.5-3.3,0.6-2.7c0.5-0.5,0.5-1.3,1.1-1.7c0,0,0.1,0,0.1,0l3.1-4.5c0,0,0.1-0.1,0.1-0.1c0,0,0.1-0.4-0.2-0.6
				c-0.1,0.1-0.4,0.2-0.8,0.8c0,0-0.1,0.1-0.1,0.1c-0.2,0.4-2.5,3.5-2.6,3.6c0-0.1-0.1-0.3,0.7-1.4c0.2-0.2,1.1-1.6,1.2-1.8
				c0,0,0,0,0,0h0v0c0,0,0-0.1,0-0.1c-0.1,0-0.1,0-1.7,2c0.2-0.4,0.2-0.4,2.6-3.8c-0.1,0-0.1,0.1-0.2,0.2c0.4-0.6,1-1.2,1.5-1.8
				c0.1-0.1,0.2-0.2,0.2-0.4c-0.9,0.9-1.5,1.6-2,2.1c-0.4,0.5-0.7,0.8-0.9,1.1c-0.7,0.9-1.4,1.8-2,2.7c0,0,0-0.1,0-0.1
				c-0.1,0.1-0.4,0.4-1.3,1.7c0,0,0-0.1,0-0.1c-0.1,0.1-0.1,0.1-1.4,2c-3.3,5.7-3.4,5.9-4.7,9l-1,2.5c-0.7,2.2-1.6,5-2.2,7.2
				c-1.4,6.6-1.4,6.8-1.7,10.3c-0.3,6.9-0.3,7.1,0.1,10.7c0.3,2.4,0.7,5.6,1.2,8l0,0c0.1,0.3,0.1,0.3,1.1,3.4
				c0.2,0.7,0.5,1.5,0.8,2.5c0.1,0.2,0.1,0.2,0.1,0.2c0.2,0.4,0.2,0.4,0.6,1.1c0.1,0,0.1,0,0.1,0c0.4,0.6,0.4,0.6,0.8,1
				c0.1,0,0.1,0,0.2,0c0.2,0.1,0.4,0.1,0.6,0c0.1,0.1,0.1,0.1,0.2,0.2c0.2,0,0.5,0,0.6,0c0.1,0,0.2-0.1,0.3-0.1
				c0.2,0.2,0.2,0.2,1.3,2c0.2-0.4,0.2-0.4,0-1.1c1.1,0.6,1.5,1.9,2.4,2.7c0-0.1,0.1-0.2,0.1-0.3c0.1,0,0.1,0,0.7,0.7
				c0.1,0,0.1,0,0.1,0h0c0.3,0.2,0.6,0.6,0.9,0.8c0-0.1,0-0.2,0-0.3c0.2,0,0.4-0.1,0.6-0.2c0-0.4,0-0.4-0.2-1c0,0,0,0,0,0
				c0-0.1,0-0.2,0-0.3c2.1,2.7,2.1,2.9,2.1,3.7c0.1,0,0,0.2,0.1,0.2c0.4,0.9,0.4,0.9,0.6,1.5c-0.3,0.6-0.4,0.7-0.2,1.3l2.1,3.5
				c1.3,1.3,3.1,2.1,4.4,3.4c0.8,0.9,2.1,2.2,4.6,3c0.6,0.2,0.8,0.3,1.4,0.8c0.3,0.3,0.3,0.3,3.5,4.3c0.7,0.9,3.5,3.6,3.5,3.6
				c4.2,3.9,4.2,3.9,9.9,7.5c9.6,5,11.6,3.8,11.6,3.8c0-0.1-0.1-0.1-0.1-0.2C493.7,125.9,493.7,125.9,493.2,125.6z"/>
			<path class="st3" d="M476.8,8.8c0.2-0.1,0.5-0.3,0.7-0.4C476.9,8.7,476.8,8.8,476.8,8.8z"/>
			<path class="st3" d="M487.7,4.8c-0.8,0.3-0.8,0.3-1.2,0.5c0,0,0,0,0.2-0.1c0.2-0.1,0.3-0.1,0.3-0.1c0,0-0.1,0.1-0.3,0.2
				c0,0,0,0,0,0c-0.3,0.2-0.3,0.2-0.4,0.3c-0.2,0.1-0.3,0.1-0.4,0.2c0.1-0.1,0.2-0.1,0.3-0.2c0,0,0,0,0,0c0,0,0,0,0,0
				c0,0-0.1,0-0.2,0.1C486,5.9,486,6,485.9,6c-0.1,0.1-0.2,0.2-0.3,0.2c0,0-0.1,0.1-0.1,0.1c0,0,0,0,0,0c0,0-0.1,0-0.1,0.1
				c0.1-0.1,0.2-0.2,0.3-0.3c0,0,0,0,0,0h0c0,0-0.1,0-0.1,0c0,0,0,0,0.7-0.5c0,0-0.1,0-0.2,0c-0.1,0-0.1,0-1.6,1
				c0-0.1,0-0.1,0.4-0.4c0,0-0.1-0.1-0.1-0.1c-2,0.7-2.7,1.2-3,1.4c-1.5,0.9-3.2,1.3-4.5,2.5c0.1,0,0.2,0,0.3,0
				c-0.1,0.1-0.3,0.2-0.5,0.3c0.1,0,0.2-0.1,0.3-0.1c-1.4,1.3-3.3,2-4.8,3.2c0,0,0,0.1,0.1,0.1c0,0-0.1,0.1-0.1,0.1
				c0,0,0.1,0,0.1,0.1c0.1,0,0.2-0.1,0.3-0.1c-0.3,0.4-0.5,0.4-0.8,0.3c-0.8,0.4-1.4,1.9-1.4,1.9c0.1,0.1,0.1,0.1,0.4,0
				c0,0,0,0,0.1,0c0,0,0,0,0,0c0,0,0,0,0,0c0,0,0,0,0,0c0,0,0,0,0,0c0,0,0,0,0,0c0,0,0,0,0,0c0,0,0,0,0,0h0c0.2-0.1,0.4-0.2,0.6-0.3
				c0,0,0.1,0,0.1,0.1c0.1,0,0.2-0.1,0.3-0.1c-0.1,0.2-0.3,0.3-0.4,0.5c0.2-0.1,0.4-0.3,0.5-0.4c0.1,0,0.2,0.1,0.3,0.1
				c0,0.2-0.5,1.2-1.6,2.7c-0.3,0.4-0.6,1.1-1.1,2.3c0.4,0,0.4,0,0.4,0c0,0.1,0,0.3-0.3,0.4c0,0-1.4,0.9-1.1,1.7c0,0,0.1,0,0.1,0
				c0.3-0.4,0.4-0.4,0.8-0.4l0.1,0.1c-2.1,2.2-2.1,2.2-2.4,3.1c-1,3.3-1,5-0.1,5.1c0.1,0,0.2-0.1,0.2-0.1c0.2,0.2,0.1,0.5,0.3,0.6
				c0.7,0,0.6,0.8,1,1.2c0.2-0.2,0.2-0.3,0.4-1c0-0.1,0-0.2,0.1-0.3c0.1-0.4,0.7-0.4,0.8-0.8c0.1-0.4-0.3-0.7-0.1-1.1l1.6-2.6
				c0.6-0.9,0.6-0.9,0.7-0.9c0.9-0.7,2.2-0.7,2.9-1.7c0.5-0.8,0.5-0.8,3-2c0.4-0.1,0.4-0.1,1.1-0.7c0.5-0.4,0.5-0.4,0.7-0.5l0.3-0.2
				c0.3-0.1,0.3-0.1,0.3-0.3c-0.2-0.1-0.4-0.2-0.5-0.4c0-0.1,0-0.1,0-0.2c0.1-0.1,0.2-0.2,0.3-0.2c0,0,0.1,0.1,0.2,0.1
				c0.8,0.6,1.1-0.3,1.4-1.1c-0.1-0.1-0.2-0.1-0.3-0.1c0-0.2,0-0.2,0.8-1.1c-0.1-0.1-0.2-0.3-0.2-0.5c1.9-0.8,2.4-1.5,2.4-1.9
				c-0.1-0.1-0.2-0.2-0.3-0.2c0.3-0.2,0.7-0.1,1.1-0.3c0,0,0.2-0.2-0.1-0.5c-0.4,0.1-0.4-0.1-0.4-0.3c0.3-0.2,0.3-0.2,1.4-1.2
				c-0.1,0-0.1,0-0.2,0c0.1-0.2,0.2-0.3,0.4-0.5c-0.1,0-0.3-0.1-0.5-0.1c0,0-0.1-0.1-0.1-0.1l2.2-2.3c-0.1,0-0.2,0-0.3,0.1
				c0.2-0.6,0.9-0.7,1.1-1.2c0,0-0.1-0.1-0.1-0.1c0.9-0.9,2.3-1.2,3.3-2.1c0.1-0.1,0.1-0.2,0.2-0.3c-0.2-0.2-0.3-0.5-1.9,0.5
				c0-0.1,0-0.2,0-0.3c-0.1,0.1-0.3,0.2-0.4,0.3c0,0,0,0,0,0s0,0,0,0c-0.7,0.4-1.2,0.9-1.9,1.3c0-0.2,0-0.3,1.4-1.1
				c0.4-0.3,0.6-0.4,0.9-0.7c0,0-0.1-0.1-0.1-0.1c-0.3,0.2-0.6,0.4-1,0.6c0,0-0.1,0-0.1,0.1c0-0.1,0.2-0.2,0.3-0.3
				c-0.2,0-0.3,0-0.4,0.1c-0.1,0-0.2,0-0.3,0c-0.1,0-0.3,0-1.4,0.5c0.3-0.4,1.9-0.8,2.1-0.8c0.1,0,0.1,0,0.1,0c0,0,0,0,0,0
				c0,0,0,0,0,0c0,0,0,0,0,0s0,0,0,0c0,0,0,0,0,0h0h0c0.1,0,0.5-0.1,1.4-0.6l0.2-0.1l0.1-0.1c0-0.1,0.1-0.2,0.1-0.3
				c0.1-0.1,0.3-0.2,0.5-0.3c0,0-0.1,0-0.1,0c0.2-0.1,0.4-0.1,0.6-0.2c-0.1-0.1-0.1-0.1-0.4,0c0.3-0.2,0.6-0.3,0.9-0.4c0,0,0,0,0,0
				c-0.4,0.1-0.8,0.2-1.2,0.3c0,0-0.1-0.1-0.1-0.1c-0.4,0.1-1.1,0.4-1.1,0.4c-0.1,0-0.1,0-0.1,0c0,0,0.1-0.1,0.1-0.1c0,0,0,0,0,0h0
				c-0.3,0.1-0.6,0.3-0.9,0.4c0.1-0.1,0.1-0.1,0.5-0.3c-0.2,0.1-0.4,0.1-0.6,0.2c-0.6,0.3-1.2,0.5-1.7,0.8c0.5-0.3,1.1-0.6,1.6-0.8
				l-0.1,0c-0.2,0.1-1.1,0.5-1.3,0.6C487.8,4.8,487.8,4.8,487.7,4.8z"/>
			<path class="st3" d="M458.9,23.2c1.1-1.1,2.1-2.3,3.2-3.4c-0.2,0.2-0.3,0.3-0.5,0.4c-0.6,0.6-1.1,1.1-1.6,1.6l-1.3,1.5l-0.2,0.2
				c-0.3,0.4-0.4,0.5-0.7,0.9c0.1-0.1,0.1-0.1,0.2-0.2C458.3,23.9,458.6,23.5,458.9,23.2z"/>
			<polygon class="st3" points="462.1,19.7 462.1,19.8 462.1,19.8 			"/>
			<path class="st3" d="M491.9,3.5C491.9,3.5,491.9,3.5,491.9,3.5L491.9,3.5c0.3,0,0.3,0,0.6-0.1c0.2-0.1,0.2-0.1,0.3-0.1
				c0,0,0,0,0.1,0l0.3-0.1c0,0,0,0,0,0c0,0,0,0,0,0c0,0-0.1,0-0.2,0c-0.2,0-0.3,0.1-0.4,0.2c0,0,0.1-0.1,0.1-0.1c0,0,0,0-0.2,0.1
				c0,0,0.1,0,0.1-0.1l0,0l0,0l-0.2,0.1l-0.1,0c-0.1,0-0.1,0-0.1,0c0,0,0,0,0,0c0,0,0,0,0,0c0,0-0.1,0-0.1,0
				C491.9,3.5,491.9,3.5,491.9,3.5C491.9,3.5,491.9,3.5,491.9,3.5L491.9,3.5z"/>
			<path class="st3" d="M507,4.1c0.1,0.3,0.2,0.4,0.3,0.5c0.1,0,0.1,0.1,0.5,0.1c0.2,0,0.3,0.1,0.4,0.2c0.1,0,0.2,0.1,0.5,0
				c0.1,0,0.2,0,0.3,0c-0.1-0.1-0.2-0.2-0.3-0.4l0-0.5c0-0.1,0-0.1,0-0.2c0,0,0,0,0,0c0,0,0,0,0,0c0,0,0,0,0,0c0,0,0,0,0,0
				c-0.2,0-0.2,0.1-0.3,0.1C508.4,4,508.4,4,508.3,4c-0.3,0-0.5-0.3-0.7-0.3c0,0,0,0,0,0.1c0,0.2-0.1,0.2-0.2,0.3
				c-0.1-0.1-0.2-0.1-0.3-0.2c-0.1,0-0.1,0-0.2,0C507,4.1,507,4.1,507,4.1C507,4.2,507,4.1,507,4.1z"/>
			<path class="st3" d="M505.7,5.4c0.4,0,0.6,0.2,0.7,0.4c0,0,0,0.2-0.5,0.5c0,0,0,0,0,0.1c0,0,0,0,0.1,0c0,0,0,0,0,0l0,0.1
				c0.4,0,0.5,0,0.8-0.1c-0.3,0.3-0.3,0.5-0.2,0.8c0.2,0,0.3,0,0.5,0c0,0.1-0.1,0.3-0.6,0.2c0.2,0.6,0.5,0.8,0.7,0.9
				c0.5-0.1,0.6-0.4,0.6-1.2c0-0.6,0-0.7,0.3-0.9c0.1,0.1,0.5,0.5,0.6,0.9c0.1,0.2,0.1,0.2,0.2,0.2c0,0,0.1,0,0.2,0
				c0.1,0,0.3-0.1,0.3-0.3c0-0.1,0-0.3-0.1-0.4c-0.1-0.3-0.2-0.5-0.3-0.7c-0.2-0.2-0.5-0.3-1-0.5c0,0-0.1,0-0.1,0
				c-0.3-0.2-0.3-0.6-0.6-0.8c-0.2-0.2-0.4-0.2-0.5-0.2c-0.2,0-0.2-0.1-0.3-0.2c0,0-0.1,0-0.1,0c-0.1,0-0.1,0-0.6,0.2
				c0,0.1,0,0.2,0.1,0.3c-0.1,0-0.1-0.1-0.2-0.1c-0.1,0.2-0.2,0.4-0.4,0.5c-0.1,0.1-0.2,0.1-0.3,0.1C505,5.5,505,5.5,505.7,5.4z"/>
			<path class="st3" d="M503.1,31.8c-0.2,0-0.2,0.1-0.3,0.1c0.2,0,0.4,0,0.6-0.1C503.3,31.8,503.2,31.8,503.1,31.8z"/>
			<path class="st3" d="M488.2,28.5l1.5-0.2c0.2-0.1,0.4-0.1,1.3-0.7c0.1,0,0.1-0.1,0.1-0.3c0.1-0.3,0.1-0.3,0.6-0.6
				c0.2-0.1,0.4-0.2,0.7-0.1c0.1,0,0.1,0.1,0.2,0c0.1-0.1,0.1-0.1,0.3-0.4L493,26l0.4-1c-0.4-0.8-0.5-0.8-1.3-1.4
				c-0.1,0-0.1,0-0.4,0.4c-0.1,0.1-0.1,0.1-0.5,0.2c-0.3,0.1-0.6,0.3-0.9,0.4c-0.2,0-0.4-0.2-0.6-0.2c-0.4,0-0.7,0.3-1.1,0.3
				c-0.1,0-0.1,0-0.6-0.2c-0.4-0.2-0.4-0.2-0.4-0.2c-0.1-0.2-0.2-0.3-0.3-0.3c0,0,0,0,0,0c-0.2,0.1-0.3,0.1-0.6,0.6
				c-0.1,0.1-0.1,0.1-0.7,0.6c-0.4,0.5-0.3,0.8,0.4,0.7c0.3,0,0.3,0.2,0.3,0.2c0.1,0,0.3,0,0.3,0.1c-0.1,0.1-0.1,0.1-0.4,0.2
				c-1.7,0.5-0.8,0.7-0.7,0.7c0.3-0.1,0.5-0.3,0.8-0.2l0.1,0.7c-0.1,0.3-0.3,0.6-0.4,0.9c0.1,0.1,0.1,0.1,1.4-0.5
				c0.3-0.1,0.3,0,0.3,0.2C488,28.3,488,28.5,488.2,28.5z"/>
			<path class="st3" d="M449.7,79.7c-0.1,0.2-0.4,0.7,0.2,2c0.1,0.2,0.2,0.5,0.8,0.3c0.4-0.1,0.7-0.4,1.1-0.5c0.3-0.1,0.7-0.1,1-0.3
				c0,0,0.1,0,0.1,0c0.1,0,0.2-0.1,0.2-0.3C453.1,80.2,451.2,78.7,449.7,79.7z"/>
			<path class="st3" d="M454.2,83.3c0,0.1-0.1,0.5,0.7,0.5c0.4,0,1-0.1,1.2-0.2c0,0,0.1-0.1,0.1-0.1c0.2-0.2,0.1-0.5,0.3-0.6
				c0.1-0.1,0.3-0.2,0.4-0.3c0.2-0.1,0.5-0.3,0.5-0.4c0.1-0.1-0.1-0.3-0.3-0.4c0,0-0.1,0-0.1-0.1c0,0-0.1,0-0.1-0.1
				c-0.1,0-0.3,0-0.4-0.1c-0.3-0.1-0.5-0.4-0.8-0.3c0,0-0.1,0-0.1,0c0,0,0,0.1-0.1,0.1c-0.1,0.1-0.2,0.3-0.3,0.5
				c-0.2,0.2-0.4,0.3-0.6,0.5c0,0-0.1,0.1-0.1,0.1c0,0,0,0.1,0,0.1c0,0.1,0,0.2,0,0.3C454.4,83.1,454.3,83.2,454.2,83.3z"/>
			<path class="st3" d="M548.6,79.4c-0.2,0-0.2,0-0.9,0.4c-1.5-1-1.5-1-3.4-3.9c0.1-0.3,0.1-0.6,0-0.9c-2.1-0.9-1.3-3.4-2.7-4.7
				c-0.6-0.8-0.5-1.9-1-2.8c0,0-2.3-4.5-2.7-5.1c-0.3-0.4-0.9-0.4-1.2-0.4c-0.2,0-0.2,0-0.2,0c0,0,0,0,0,0s0,0,0,0h0c0,0,0,0,0,0
				c0,0,0,0,0,0c0,0,0,0,0,0c0,0,0,0,0,0c-0.2,0.1-0.4,0.2-0.5,0.4c-1.3,0.1-1.3,0.1-7.3-1.6c-0.1,0.1-0.3,0.3-0.4,0.4
				c-0.3-0.1-0.3-0.1-1.2,0.5c-0.1,0.7,0.3,1.5-0.3,2.1c-1.7-0.7-1.7-0.7-1.7-0.7l-0.2,0c-2.7-1.1-2.7-1.1-3.7-1.3
				c-0.2,0-0.2,0-0.2,0c0,0,0,0,0,0c0,0,0,0,0,0c0,0,0,0,0,0c0,0,0,0,0,0c0,0,0,0,0,0c0,0,0,0,0,0c0,0,0,0,0,0
				c-0.1-0.1-0.3-0.1-0.5-0.2c-0.7-1.4-0.7-1.4-2-2.2c-1-0.6,0.1-1.8-0.7-2.4c-0.2-0.2-0.2-0.2-3.2,0c-1.9,0.5-4,0-5.7,1.1
				c-0.3,0.2-0.6,0.4-0.8,0.6c-1.6,1.7-1.8,1.6-3,0.7c-1.1-0.7-1.1-0.7-3,0.7c-0.2,0.1-0.2,0.5-0.2,0.7L494,72.5
				c-0.5,0.6-0.6,0.8-0.6,1.8c0,1.1,0.9,2,1,3c0.2,1.4-1,2.7-0.1,4.1c0.3,0.5,0.3,0.5,8.7,5.7c0.5,0.2,1,0.2,1.5-0.1c0,0,0,0,0,0
				c0,0,2.3-1.2,3.6-0.4c0.3-0.1,0.6-0.2,0.9-0.4c1.4-0.6,2.6-1.5,4.2-1.6c0.2,0,0.2,0,1.9,1.4c0.1,0,0.2,0,0.3,0
				c-0.1,0-0.2,0.1-0.2,0.1c0.9,0.4,2.1-0.3,2.8,0.7c0.3,0.4,0.5,1,0.4,1.2c-0.1,0.5-0.7,0.8-0.8,1.3c0.1,0.8,0.3,1.1,1.3,1.6
				c1.2,0.5,2.5,3.3,2.4,4.2c-0.1,0.8,1.3,1.6,0.4,2.3c-1.4,1-1.6,3.7-1.6,3.8c0.1,0.5,0.8,0.4,1,0.9c0,0.1,0.1,0.3,0.1,0.4
				c0,0,0,0.1,0,0.2c0,0.1,0.1,0.3,0.1,0.5c0.1,0.6,0.8,1,0.5,1.7c-0.1,0.2-0.2,0.6-0.1,0.8l1.2,2.6c0,0.2-0.1,0.4-0.1,0.6
				c0.1,0,0.1,0.1,0.2,0.1c-0.1,0.3-0.1,0.3,0.6,1.5c-0.4,1.2-0.4,1.2,0.2,1.4c0.1,0.2,0.1,0.5,0.2,0.7c0.1,0,0.2,0,0.3,0
				c0.6-0.1,1-0.7,1.6-0.8c0.4-0.1,0.7,0.4,1.1,0.3c0.1,0,1.3-0.5,1.4-0.6c1.9-1,2.2-1.5,3.4-3.1c1.3-1.8,1.3-1.8,1.3-1.8
				c0.2-0.8,1-0.7,1.5-1.1c1.5-1.1,1.1-3.4,2.9-4.3c0.3-0.8,1.3-0.5,1.7-1.1h0c0.4-0.3,0.8-0.6,0.8-0.6c0-0.1,0.1-0.1,0.1-0.2
				c0.4-0.7,0.2-1.5,0.6-2.1c0.3-0.6,1.1-0.8,1.4-1.5c-1.3-1.1-2.1-1.7-0.4-4.5c0.5-0.9,1.3-1.3,1.5-1.4c0.6-0.3,1-0.9,1.5-1.4
				c0.6-0.6,0.8-1.6,1.8-1.8c0.4-0.1,1.3-1,1.8-1.6c0.1,0,0.1,0,0.2,0c0-0.1,0-0.2,0.1-0.3c0.1-0.1,0.2-0.2,0.2-0.2c0,0-0.1,0-0.1,0
				c0.7-2,2.8-3,3.5-5c0-0.1,0-0.2,0-0.3C551.8,78.6,551.8,78.6,548.6,79.4z"/>
			<path class="st3" d="M562.2,104.7L562.2,104.7C562.2,104.7,562.2,104.7,562.2,104.7C562.2,104.7,562.2,104.7,562.2,104.7z"/>
			<path class="st3" d="M562,104.8c-0.2,0.2-0.3,0.4-0.5,0.6c0,0,0,0,0.1-0.1c0,0-0.1,0.1-0.1,0.1c-0.7,0.7-1.3,1.4-1.9,2.2
				c-0.9,1.1-1.9,2.2-2.8,3.3c-0.1,0.2-0.3,0.3-0.4,0.5c-0.1,0.1-0.2,0.2-0.3,0.3c0,0,0,0-0.1,0.1c-0.5,0.5-1,0.9-1.5,1.4
				c-0.5,0.5-1,0.9-1.5,1.5c0,0,0,0,0,0c0,0,0.4-0.3,0.9-0.7c-0.1,0.1-0.2,0.2-0.5,0.5c0,0,0.1-0.1,0.2-0.1c0,0,0.1-0.1,0.2-0.2
				c0,0,0,0,0,0c0,0,0,0,0,0c0.5-0.5,1.1-1.1,1.7-1.7c0.8-0.8,1.6-1.5,2.2-2.2c0,0,0,0,0,0c0,0,0.1-0.1,0.1-0.1
				c0.6-0.7,1.3-1.5,2-2.4c0,0,0.1-0.1,0.1-0.2c0,0,0.1-0.1,0.1-0.1c0.7-0.9,1.4-1.7,2-2.5C562.1,104.8,562.1,104.8,562,104.8
				c0.1,0,0.2-0.1,0.2-0.1c-0.2,0.3-0.4,0.5-0.7,0.7C561.7,105.2,561.9,105,562,104.8z M553.8,113.9
				C553.8,113.9,553.8,113.9,553.8,113.9C553.8,113.9,553.8,113.9,553.8,113.9z"/>
			<path class="st3" d="M529.9,4c0.4,0.1,0.9,0.3,1.3,0.4L529.9,4z"/>
			<path class="st3" d="M570.3,87.7c0,0,0,0.1,0,0.2c0,0.3,0.1,0.2,0.2,0.2c0,0,0.2-0.6,0.2-0.6c-0.1-0.1-0.2-0.2-0.3-0.2
				C570.3,87.6,570.3,87.6,570.3,87.7z"/>
			<polygon class="st3" points="538.9,7.6 538.9,7.6 538.9,7.6 			"/>
			<path class="st3" d="M538.9,7.6C538.9,7.6,538.9,7.6,538.9,7.6C538.9,7.6,538.9,7.6,538.9,7.6L538.9,7.6L538.9,7.6z"/>
			<path class="st3" d="M538.9,7.6l0.3,0.2c0.3,0.2,0.7,0.4,1.1,0.6C539.8,8.1,539.8,8.1,538.9,7.6z"/>
			<path class="st3" d="M566.6,98l-0.2,0.4C566.5,98.3,566.6,98.1,566.6,98z"/>
			<path class="st3" d="M568.8,93c0,0,0,0,0.5-1.3c0,0,0,0,0-0.1c0,0,0,0-0.1,0c-0.1-0.8,0.5-1.2,0.6-1.9c-0.1,0-0.1,0-0.2,0.1
				c0-0.2,0.1-0.3,0.1-0.5c0,0-0.1,0.1-0.1,0.1c0-0.3,0.1-0.6,0.1-0.8c0,0-0.1,0-0.1,0c0.1-0.5,0.2-1.1,0.3-1.6
				c0-0.2,0.1-0.8,0.1-0.8c0-0.2-0.1-0.3-0.1-0.5c0-0.5,0.2-1,0.3-1.6c0-0.2,0-0.2,0-0.2c0,0,0,0-0.1,0c-0.2,0.1-0.4,0.6-0.4,0.6
				c-0.2,0.4-0.1,0.9-0.3,1.2c-0.2,0.5-0.2,0.5-0.3,0.8c0,0.1,0,0.1-0.1,0.2c-0.3,1-0.2,2-0.4,2.9c-0.1,0.5-0.4,0.9-0.5,1.4
				c0,0.3,0,0.5-0.1,0.8c-0.2,0.6-0.6,1.2-0.8,1.8c0,0,0.1-0.1,0.1-0.1c0,0,0,0,0,0.1c0.3-0.4,0.4-0.9,0.7-1.2c0,0-0.3,1.8-0.3,1.8
				c0,0-0.7,2.6-0.7,2.7c0,0,0,0,0.2-0.3c0,0.2-0.1,0.3-0.1,0.4c-0.1,0.3-0.2,0.6-0.5,1.1l0.5-0.8c0.2-0.5,0.5-1,0.8-1.6
				c0,0-0.1,0.1-0.1,0.1c0.1-0.3,0.3-0.7,0.4-1c0-0.1,0.1-0.2,0.1-0.3c-0.1,0.1-0.1,0.1-0.2,0.2c-0.1-0.2,0.3-1.2,0.4-1.3
				C568.5,93.1,568.7,93.1,568.8,93z"/>
			<path class="st3" d="M567.1,97.2C567.1,97.2,567.1,97.2,567.1,97.2c0.1-0.2,0.2-0.4,0.3-0.6l0,0c0,0,0,0,0,0L567.1,97.2
				C567.1,97.2,567.1,97.2,567.1,97.2C567.1,97.2,567.1,97.2,567.1,97.2z"/>
			<path class="st3" d="M529.8,3.9L529.8,3.9L529.8,3.9C529.9,3.9,529.9,3.9,529.8,3.9z"/>
			<path class="st3" d="M536.6,16.5c0,0,0.6,0.2,0.7,0c0-0.1-0.1-0.2-0.1-0.3c-0.2-0.3-0.9-0.8-1.1-0.8c-0.1,0-0.1,0.1-0.1,0.2
				c0,0,0-0.1-0.1-0.1C536.2,16.1,536.6,16.5,536.6,16.5z"/>
			<path class="st3" d="M531.7,6.5l0,0.5c-0.8,0.1-0.8,0.1-0.9,0.2c0.1,0.5,0.5,0.8,0.7,1.2c-0.1,0.1-0.2,0.2-0.3,0.2
				c0.2,0.4,0.8,0.3,0.9,0.8c0.1,0.2,0.3,0.8,0.3,0.8c0.1,0.1,0.2,0.2,0.5,0.4c0.5,0.4,0.5,0.4,0.8,1c-0.1,0.1-0.3,0.1-0.4,0.1
				c0,0,0,0,0,0c0.2,0.4,0.7,0.4,1,0.7c0,0,0,0,0,0.1c0,0-0.1,0-0.2,0c-0.2,0.8,0.3,1,0.6,1.2c0,0,0.7,0.4,0.8,0.4
				c0.4,0.2,0.8,0.2,1.1,0.4c0.5,0.2,0.9,0.6,1.4,0.7c0,0,0.8,0.2,1.2,0.1c0,0,0,0,0-0.1c-0.1-0.1-0.1-0.1-0.5-0.4
				c-2-1.4-3.1-2.7-3.2-2.8c-0.1-0.1-0.1-0.1-0.1-0.2c-0.2-0.4-0.2-0.5-0.1-0.7c0,0,0,0,0-0.1c-0.2-0.4-0.7-0.6-0.9-1
				c0,0,0-0.1,0-0.2c0-0.3,0-0.3-0.5-1.1c0.3-0.1,0.5,0.1,0.8,0l-1.1-1c-0.1-0.1-0.1-0.1-0.1-0.1c0.2,0,0.4,0.1,0.6,0
				c-0.1-0.1-0.2-0.1-0.3-0.3c0-0.1,0.1-0.1,0.1-0.2c-0.1-0.2-0.3-0.3-0.5-0.5c-0.1-0.2-1.3-0.8-1.7-0.8c-0.1,0.1-0.3,0-0.4,0
				C531.3,6.2,531.5,6.3,531.7,6.5z"/>
			<path class="st3" d="M566.2,82.7C566.2,82.7,566.2,82.7,566.2,82.7c0.1-0.4,0.2-0.7,0.3-1c0.2-0.7,0.1-0.9,0-0.8
				c-0.3,0.1-0.7,0.7-0.8,1c0,0.1,0,0.1,0,0.1c-0.1,0.2-0.1,0.4-0.3,1.6c0,0.1,0,0.2,0.1,0.3C565.7,84,566,83.4,566.2,82.7
				C566.2,82.7,566.2,82.7,566.2,82.7z"/>
			<path class="st3" d="M571.2,88.1c-0.2,0.4-0.2,0.4-0.2,0.5c0,0,0,0-0.1,0.1c-0.1,0.2-0.2,0.4-0.2,0.6c-0.1,0.2-0.2,0.3-0.3,0.5
				c-0.1,0.2-0.3,0.3-0.3,0.5c-0.3,0.8-0.6,1.7-0.9,2.5c-0.2,0.5-0.3,1-0.5,1.5c0.1-0.1,0.1-0.1,0.1-0.2c0,0.1,0,0.1,0,0.1l1.1-2.2
				c0.4-1,1-2.3,1.4-3.4l0.7-2c-0.1,0.4-0.3,0.8-0.4,1.1C571.2,88,571.2,88.1,571.2,88.1z"/>
			<path class="st3" d="M574.2,76.4L574.2,76.4c0.2-0.5,0.3-1.1,0.3-1.6C574.4,75.3,574.3,75.9,574.2,76.4L574.2,76.4z"/>
			<path class="st3" d="M571.8,86.6C571.8,86.6,571.8,86.6,571.8,86.6L571.8,86.6c0.3-0.8,0.6-1.7,0.6-1.7l0-0.1l0,0l0,0L571.8,86.6
				z"/>
			<path class="st3" d="M575,60.2c-0.9-7.1-0.9-7.1-1.8-10.5c-2-6.6-2-6.6-3.4-9.8c-1-2-2.3-4.7-3.5-6.7l-1.4-2.3
				c-3.9-5.5-3.9-5.5-6.2-8.1c-4.6-4.7-4.7-4.8-7.4-7c-0.5-0.4-1-0.8-1.5-1.1c-3.8-2.9-4.2-3.1-7-4.8l-3.6-2
				c-0.9-0.5-1.6-0.8-2.9-1.4c0.8,0.4,1.1,0.5,1.3,0.6c0.8,0.4,1.6,0.8,2.4,1.3c-0.6-0.3-0.6-0.3-0.6-0.3c-0.2-0.1-0.3-0.2-0.5-0.2
				c0,0,0,0,0,0c0,0,0,0,0,0c-0.2-0.1-0.3-0.1-0.5-0.2c0.3,0.2,0.3,0.2,1.5,0.9c0.3,0.2,0.3,0.2,2.2,1.4c1.1,0.7,1.1,0.7,1.2,1
				c-0.1,0-0.2,0-0.3,0c0,0,0,0.1,0,0.1c1.1,1.1,2.8,1.5,3.8,2.8c-0.4,0-2-1.1-2.1-1.2c-0.4-0.3-0.4-0.3-0.6-0.3c0,0,0,0.1-0.1,0.2
				c0,0,0,0,1,0.9c-1-0.5-1.5-1.7-2.8-1.9c0.6,0.6,1.6,0.9,2,1.7c0,0,0,0.1,0,0.1c0.2,0.2,0.4,0.5,0.6,0.7l0.8,0.5
				c2.1,2.3,2.5,2.7,2.9,2.6c0,0,0.1,0.1,0.1,0.1c0,0,0-0.1,0-0.1c0,0,0.6,0.1,0.8,0.6c-0.2,0-0.2,0-0.5-0.1c-0.1,0-0.1,0-0.1,0
				l0,0.2c0.5,0.6,1.3,0.9,1.7,1.6c-0.1,0-0.2,0-0.3,0c0.1,0.1,0.2,0.3,0.4,0.4c0.2,0.2,0.4,0.4,0.5,0.6c0,0-0.1,0.1-0.1,0.1
				c0,0.2,0,0.2,0.1,0.5c-0.1,0-0.3,0-0.4,0c-0.2,0-0.3-0.1-0.5,0c0,0-0.1,0-0.1-0.1c1.7,2.2,2.9,3,4.2,4.9c-1.3-1.9-2.5-2.7-4.3-5
				c-0.2,0-0.7-0.3-0.5-0.6c0.3,0,0.6,0.4,0.9,0.1c0-0.2-0.2-0.5-0.3-0.7c-0.1-0.3-0.2-0.9-1.9-2.3l-0.7-0.6
				c-0.5-0.3-0.8-0.9-1.2-1.2c-0.6-0.4-1.1-1-1.6-1.5c-0.4-0.3-0.6-0.8-1-1.1l-0.8-0.7c-0.9-0.5-1.6-1.3-2.6-1.5c0,0-0.1,0-0.1,0
				c0,0,0,0.1,0,0.1l0,0c1.5,1.6,1.5,1.6,1.9,1.9c0,0.1,0,0.2,0,0.2c0.3,0.3,0.4,0.3,0.6,0.6c-0.1,0-0.1,0.1-0.2,0.1
				c0,0,1.7,2.7,4,3.4c0.3,0.1,0.8,0.2,0.7,0.9c0,0,0,0,0,0c0,0,0,0,0,0c-0.3-0.2-0.6-0.4-0.9-0.6c0,0,0,0,0,0h0c0,0,0,0,0,0
				c0,0,0,0,0,0h0h0c0,0,0,0,0,0c-0.2-0.1-0.2-0.1-1-0.5c-0.2,0-0.2,0-0.2,0c-1.7-0.6-3.2-1.5-4.9-2.2c0,0,0,0,0,0h0c0,0,0,0,0,0
				c0.8,1.1,2.1,1.5,3.1,2.4c-0.2,0-0.2,0-1.7-0.9c0.1,0.2,0.2,0.4,0.4,0.6c0,0.1-0.1,0.2-0.1,0.2c-0.1,0-0.1,0-0.1,0
				c-0.2-0.1-0.2-0.1-0.9-0.6c-0.1,0.4-0.1,0.8-0.1,1.2c-0.1,0.1-0.1,0.1-0.1,0.1c-0.5-0.3-0.8-1-1.6-0.9c-0.5,0.8-0.5,0.8-0.6,0.8
				c-0.1,0.3-0.3,0.5-0.4,0.7c0.2,0.4,0.2,0.4,0,0.7c0.2,0.3,0.2,0.3,0.6,0.9c-1.7-0.1-1.8-0.8-1.9-1.2c0.2,0,0.5-0.1,0.6-0.1
				c0-0.1,0-0.2,0-0.2c-1.4-1.3-1.8-1.2-2.5-1.1c0.1,0.1,0.1,0.3,0.2,0.4c0,0.1,0,0.2,0,0.3c0.1,0.1,0.1,0.1,0.2,0.2
				c-0.1,0.4-0.1,0.4,0.8,1.3c0.5,0.4,0.5,0.4,0.6,0.7c-1.6,0.8-1.6,0.8-1.6,0.9c-0.3,0.8,0.6,1.1,0.7,1.8c-0.4,0.1-0.4,0.1-1.4-0.4
				l-0.7-0.3c-0.4-0.1-0.4-0.1-0.8-0.2c-0.2,0-0.2,0-0.2,0c-0.1,0.4,0.1,0.7,0.1,1.1c-0.3-0.1-0.3-0.1-1.1-0.8
				c-0.6-0.3-0.5-0.5-0.3-0.9c-0.1-0.2-0.1-0.2-2.2-1.5c0.1-0.1,0.1-0.1,0.2-0.2c0.8,0.2,1.4,1.1,2.4,0.7c1.6,0.7,1.6,0.7,2.2,0.7
				c0.2-0.2,0.3-0.4,0.4-0.7c0.3-0.6,0.3-0.6,0-1.4c-0.4-0.7-0.4-0.7-3.5-2c-1.1-0.5-3.9-1.5-3.9-1.5c-0.7-0.2-1.2,0.4-1.9,0.3
				c-0.1-0.3-0.1-0.3,0.1-0.7c0.2,0,0.4-0.1,0.6-0.1c0-0.1,0-0.2,0.1-0.3c-0.4-0.2-3-1-3.4-0.9c-0.1,0-0.1,0-0.1,0s0,0,0,0
				c0,0,0,0,0,0h0c-1.4-0.3-1.4-0.3-2.7,0.8c-0.2,0.1-0.2,0.1-0.2,0.1c0,0,0,0,0,0h0c0,0,0,0,0,0c-0.5,0.2-1.9,1-1.9,1c0,0,0,0,0,0
				l0,0h0c0,0,0,0,0,0h0c-0.8,0.4-1.4,1.2-2.3,1.4v0c0,0,0,0,0,0h0c-0.1,0.4,0.1,0.7,0,1.1c0,0,0,0,0,0h0h0h0c-1,0.1-1,0.1-1.1,0.6
				c-0.1,0.1-0.1,0.3-0.1,0.5c0.1,0,0.2,0,0.2,0.1c0.2,0,0.3,0,0.4,0c0.6,0,0.7-0.8,1.4-0.7c0.1,0.3,0.1,0.3,0.3,0.7
				c-0.4,0.4-0.9,0.4-1.4,0.7c-0.5,1.9-1.3,2.4-1.6,2.6c0,0.6,0.4,1.1,0.1,1.7c-1.8,0.3-2.8,1.6-2.7,2.1c-0.3,0.4-0.8,0.2-1.2,0.4
				c-0.1,0.6-0.3,1.1-0.2,1.7l0.6,2.5c0.1,0.1,0.2,0.2,0.3,0.6c0.1,0.2,1.2,1.2,1.2,1.2c0.2,0.1,1.2,0.4,1.7,0
				c0.1-0.1,0.1-0.1,0.2-0.2c0.5-1.2,1-1.3,1.6-1.5c0.7-0.1,0.7,0.7,1.1,1.1c-0.1,0.2-0.1,0.2-0.1,0.3c0,0,0.1,0.1,0.4,0.6
				c0.1,0.2,0.1,0.4,0.2,0.5c0.9,0.9,0.9,0.9,1,1.3c0.1,0.4,0.1,0.4,1.3,0.8c0,0,0,0,0,0c0.1-0.1,0.2-0.4,0.2-0.5
				c0-0.3,0-0.3,0.7-0.5c1.3-0.3,1.4-0.4,1.5-0.5c0,0,0.2-0.7,0-1.3c0-0.2,0-0.3-0.1-0.5c-0.2-0.2-0.5-0.3-0.6-0.6
				c-0.1-0.6,0.1-0.5,0.5-0.5c0.4,0,0.4,0,0.5-0.2c0.1-0.3,0.3-0.6,0.5-0.9c-2.7,0.1-5.5,0.3-8.4,0.5c2.9-0.2,5.7-0.4,8.4-0.5
				c0.4-0.5,0.4-0.5,0.4-0.7c-0.6-0.5-0.6-0.5-2-0.9c0-0.2-0.1-0.4-0.1-0.5c-0.1-0.2-0.3-0.5-0.4-0.7c0.1-0.2,0.4-0.4,0.5-0.6
				c0-0.1-0.1-0.2-0.2-0.2c0.1-0.1,0.2-0.1,0.3-0.2l0.1-0.4l0.1-0.3c0-0.1,0-0.2,0.1-0.2c0.1,0,0.2,0,0.2,0c0.3-0.4,0.3-0.4,0.5-0.5
				c0-0.6,0.1-0.6,0.5-0.8c0.3-0.8,0.3-0.8,0.1-1.9c1.3-1.1,2.6-0.7,2.4,0.4c-0.2,1.1-1.4,1.5-1.9,2.5c0,0,0.7,2.4,0.8,3.3
				c0.1,0,0.3,0.1,0.5,0.1c0.1,0.1,0.3,0.4,1,0.6c0.1,0,0.1,0,0.1,0c0,0,0,0,0,0c0,0,0,0,0,0c0,0,0,0,0,0c0,0,0,0,0,0c0,0,0,0,0,0
				c0,0,0,0,0,0c0,0,0,0,0,0c0.4,0,0.9,0.3,1.3,0.4c1.3,0.2,3.2-1.8,3.9-0.1c-0.3,0.3-0.7,0.5-1,0.6c-0.7,0-1.3,0.1-2,0.1
				c-0.5,0-1,0-1.5,0.1c-0.3,0.2-0.7,0.3-1,0.4c-0.1,1.6,2.6,0.8,2.4,2.4c-1.3-0.7-1.3-0.7-1.7-0.9c-0.1,0.5-0.1,0.5-1.1,0.8
				c0.1,0.2,0.1,0.5,0.1,0.8l0.2,0.4c0.1,0.5,0.1,1,0.2,1.4c0,0,0,0-0.9,0.3c0,0.1,0,0.3-0.1,0.4c-0.1,0-0.3,0.1-0.4,0.2
				c-0.4-0.2-0.8-0.5-1.3-0.6c-0.6,0.5-1.4,0.7-2.1,1.3c-1.7-0.2-2.6-2.1-4.5-1.9c-0.1,0-0.2,0-0.2,0c-1.7-0.4-1.7-0.4-1.9,0.2
				c0.1,0.1,0.2,0.2,0.3,0.3c-0.1,0.2-0.3,0.5-0.5,0.7l0.1,0.1l0.1,0.1c0.1,0.2,0.2,0.4,0.2,0.7c-0.5,0.3-0.5,0.3-1.6,0
				c-0.7,0-0.9,0-1.7,0.5c0,0.2,0,0.2,0.2,1.7c-0.5,0.6-0.7,1.4-1.3,1.9c-0.1,0-0.1,0-0.2,0c-0.3,0-0.5,0-0.7,0.1
				c-0.1,0.2-0.3,0.4-0.4,0.5c0.2,0.1,0.4,0.3,0.6,0.4c-1.1,0.8-1.1,0.8-1.6,1c0,0.1-0.1,0.2-0.1,0.3c-0.1,0-0.2,0.1-0.3,0.1
				c-0.2-0.2-0.6-0.4-0.8-0.6c-0.9-0.2-0.9,0.3-0.9,1.1c-1,0-1,0-1.2,0.5c-0.9-0.2-0.9-0.2-1.2,0.1c0,0.2,0,0.2,0.8,1.3
				c0.2,0,0.5,0,0.7-0.1c1.9,1.3,1.9,1.3,2.4,3.7c-0.4,0.3-0.5,0.8-0.9,1.1c-0.1,0-0.2,0-0.4-0.1c0-0.1-4.5-1.4-5.9,0.7
				c0.6,1.9,0.2,3.9,0.5,5.8c0.1,0.2,0.3,0.5,0.5,0.5c0.7,0.3,1-0.7,1.7-0.5c0.6,0.2,0.7,0.8,1.1,1.2c0.2,0.1,0.2,0.1,0.2,0.1
				c0,0,0,0,0,0c0,0,0,0,0,0c0,0,0,0,0,0c0,0,0,0,0,0c0,0,0,0,0,0c0,0,0,0,0,0c0,0,0,0,0,0c0.6-0.1,1.1-0.5,1.7-0.7
				c0.1,0,0.1,0,0.1,0c0,0,0,0,0,0h0c0,0,0,0,0,0c0,0,0,0,0,0c0,0,0,0,0,0c0,0,0,0,0,0c0,0,0,0,0,0c2-0.1,2.9-1.9,2.9-1.9
				c-0.2-2.1-0.2-2.1,0.1-2.5c0.1,0,0.2,0,0.3,0c0.1,0.2,0.1,0.2,0.1,0.2h0c0,0,0,0,0,0c0,0,0,0,0,0c0,0,0,0,0,0c0,0,0,0,0,0
				c0,0,0,0,0,0c0,0,0,0,0,0c0.2-0.1,0.3-0.1,0.6-0.3c0.1-0.1,0.2-0.2,0.3-0.3c0.7-0.6,1.4-1.2,1.4-1.2l0.1-0.2c0.1-0.5,0-1,0.1-1.4
				c3,0.3,3,0.3,3.4-0.1c0.2-0.2,0.2-0.2,0.2-0.2h0c0,0,0,0,0,0c0,0,0,0,0,0c0,0,0,0,0,0h0c0,0,0,0,0,0c0,0,0,0,0,0
				c0.1-0.1,0.2-0.2,0.2-0.2c0-0.1,0-0.2,0-0.3c0.1-0.1,0.2-0.1,0.3-0.2c0,0,0,0,0,0c0-0.1,0.1-0.2,0.1-0.3c0.1,0,0.3-0.1,0.5-0.2
				c1.6,1.1,1.6,1.1,1.6,1.2c0.4,0.2,0.4,0.2,0.6,0.8c0.2,0.1,0.5,0.1,0.6,0c0.2,0.2,0.5,0.4,0.6,0.6l0.6,0.4l0.4,0.2l0.4,0.1
				l0.3,0.2l0.4,0.1c1.5,0.5,1.5,0.5,2,1.5c-0.2,0.2-0.5,0.4-0.8,0.6c-0.9,0.2-1.9,0.1-2.9,0.5c0,0.1,0,0.2,0,0.3
				c1.4,0.7,1.4,0.7,1.7,0.6c0.6,0.6,1.1,0.5,1.4,0.5c0.1-0.1,0.2-0.4,0.3-0.5c0-0.1,0-0.3,0-0.4c1.5-1.5,1.5-1.5,1.3-2.4l-0.2-0.3
				l0-0.1l0.1-0.1c0.6,0.2,1,0.6,1.7,0.5l0-0.2l-0.1-0.2l-0.2-0.3l0-0.2l0-0.3l-0.1-0.2l-0.2-0.1l-0.3,0.1c-0.7-0.4-1.7-0.8-1.7-0.8
				l-0.9-0.2c-0.2-0.1-0.4-0.2-0.6-0.3c-0.1-0.4-0.1-0.6-1.2-1.4c0-0.1,0-0.3,0-0.4c-0.8,0-0.8,0-1-0.2c0-0.4,0-0.4,0.3-1
				c0.2,0,0.5,0,0.6,0.1c0.2,0,0.2,0,0.2,0c0.9,1,2.3,1.4,3.2,2.3c1.2,0.3,1.2,0.3,2.4,2.2c0.1,0.3,0.1,0.5,0.1,0.6
				c0.3,0.5,0.3,0.5,0.7,0.7c0.1-0.1,0.2-0.1,0.3-0.2c0.7,0.7,0.8,1.7,1.4,2.6c0.6-0.2,1.1-0.6,1.7-0.7c0-0.1,0.1-0.2,0.1-0.3
				c1-0.5,1-0.5,1.1-0.6c-0.2-0.2-0.4-0.4-0.6-0.5c0-0.1,0-0.2,0-0.3c-0.2-0.2-0.5-0.4-0.8-0.6c0.1-0.1,0.2-0.1,0.3-0.2
				c0.2,0.1,0.5,0.2,0.7,0.3c0.8-0.8,2.4-2.2,2.5-0.2c0,0.2,0,0.5,0.1,0.6c-0.6,0.1-0.8,0.1-1.2,1c0.9,1.2,2.4,1.2,3.6,2
				c0.5-0.2,0.7-0.6,1.2-0.8c0.9,0.4,0.9,0.5,1,0.9c-0.2,0.2-0.4,0.4-0.5,0.6c0,0.1,0,0.2,0,0.3c1.1,0.6,1.2,0.3,1.6-0.5
				c-0.2-0.3-0.5-0.4-0.6-0.7c1-1.4,1.5-0.9,1.9-0.6c-0.3,4.9-1.1,5.1-2.4,5.4c0,0.1-0.1,0.2-0.1,0.3c0,0,3.5,4.5,4.1,5.5
				c0,0.1-0.2,0.3-0.1,0.4c0.5,1.1,1.6,2,1.7,3.3c0.1,0.1,0.1,0.1,0.9,0.8c-0.1,1.2-0.1,1.4,0.8,1.6c0.1,0.2,0.2,0.5,0.3,0.7
				c0.1,0.1,0.2,0.2,0.2,0.3c0.1,0.2,0.1,0.5,0,0.7c-0.5,1.3,0.7,1.6,2.2,2c0,0,0,0,0,0c0.8-0.2,1.5-0.7,2.3-1c0,0,0,0,0,0
				c0,0,0,0,0,0c0,0,0,0,0,0c0,0,0,0,0,0c0,0,0,0,0,0c0.2-0.1,0.4-0.2,0.6-0.3c0.1,0,0.1,0,0.1,0c0,0,0,0,0,0h0h0h0c0,0,0,0,0,0
				c2.4-0.5,5.7-8,5.7-8.1c-0.5-0.1-0.5-0.1-1.6-1.1c-0.2,0.1-0.4,0.3-0.5,0.5c-0.4,0-0.4,0-0.9,0.4c-0.8-0.1-0.8-0.1-1.7-1.8
				c-1.1-0.3-2.1-2.9-2.1-2.9c0.4-0.1,0.7-0.1,1.1-0.2c0.3,0.3,0.4,0.7,0.6,1c0.2,0.3,0.4,0.7,0.6,0.9l0.3,0.2l0.4,0.3
				c0,0,5,2.4,5.1,2.4l3.5,0.6c0.8,0.5,0.5,1.5,1.2,2.1c0,0.2,0,0.5-0.1,0.7c0-0.1,0.1,0.2,0.1,0.2c0.2,0.2,0.3,0.6,0.6,0.8
				c0.3-0.1,0.3-0.1,0.7-0.6c0.4,0.8,0.3,4.8,0.3,5c-0.2,0.9-0.1,1.8-0.2,2.8c0.2,0.9-0.3,2,0.5,2.8c0.8-0.4,0.8-0.5,1-0.9
				c0.1-0.3,0.2-0.5,0.2-0.6l0.3-0.4c0-0.2,0.1-0.4,0.1-0.6l0.1-0.3c0.2-0.5,0.2-0.5,0.3-1.5c0.4-1.2,0.4-1.2,0.6-1.5l0.3-0.3
				c0.1-0.1,0.3-0.3,0.5-0.4c0-0.1,0-0.2,0-0.3c0.9-1.3,0.9-1.3,2-3.2c0.1,0,0.2,0,0.3-0.1c0.1,0.2,0.1,0.5,0.1,0.7
				c0.2-0.1,0.5-0.1,0.7-0.2c0.1,0.1,0.1,0.1,0,4.7c0.4-0.2,0.4-0.2,0.6-1.1c0.1,0.3,0.1,0.3-0.8,5.4c-0.7,2.6-0.7,2.6-1.1,5.7
				c0.1,0.3,0.2,0.4,0.3,0.5c0.5-1.5,0.5-1.5,0.8-2.4l-0.1-0.2c-0.1-1,0.2-2.1,1.1-5.2c0.3,0.7-0.1,2.7-0.2,2.8c0,0,0,0,0,0
				c-0.2,0.7-0.2,0.7-0.2,1c0.2-0.3,0.3-0.6,0.5-0.8c1-2,1-4.3,1.3-6.5c0-0.1,0-0.1,0-0.2c0.1-0.8,0.3-1.7,0.6-2.5
				c0,0.2,0,0.4,0,0.7c0-0.2,0.1-0.4,0.2-0.7l0-0.1C575.3,66.8,575.4,65.8,575,60.2z"/>
			<path class="st3" d="M536.3,6.4C536.3,6.4,536.3,6.4,536.3,6.4C536.3,6.4,536.2,6.4,536.3,6.4C536.2,6.4,536.2,6.4,536.3,6.4z"/>
			<path class="st3" d="M546.1,94.9c0,0-0.1,0-0.1,0.1c-0.1,0.1-0.2,0.2-0.4,0.4c-0.2,0.2-0.4,0.5-0.8,1c-1,1.4-1.5,2-1.7,2.2
				c-0.1,0.1-0.1,0.1-0.2,0.1c-0.2-0.1-0.1-0.4-0.4-0.4c0,0,0,0,0,0c0,0,0,0-0.1,0.1c0,0,0,0,0,0c-0.1,0.1-0.1,0.2-0.1,0.2
				c-0.3,0.2-0.7,0.1-0.9,0.4c0,0-0.1,0.1-0.1,0.1c0,0-0.6,0.9-0.7,2c0,0.2,0,0.6-0.1,0.8c-0.1,0.1-0.2,0.2-0.3,0.3
				c-0.2,0.1-0.3,0.2-0.5,0.3c-0.1,0.1-0.2,0.2-0.3,0.3l-1,3.1c0.1,0.1,0.4,0.5,1.6-0.4c0.4-0.3,0.8-0.7,1.4-1.3
				c0.5-0.6,1.3-2,2-3.3c0.1-0.1,0.1-0.1,0.8-1.2c0.1-0.1,0.2-0.1,0.3-0.2c0.2-0.1,0.3-0.2,0.3-0.2c0.1-0.1,0.2-0.2,0.3-0.6
				c0.1-0.4,0.2-0.6,0.2-0.7c0,0,0,0,0.1,0c0,0,0,0,0,0h0c0,0,0,0,0,0c0,0,0,0,0,0c0,0,0,0,0,0s0,0,0,0c0,0,0,0,0,0c0,0,0,0,0.1,0
				c0,0,0,0,0-0.1c0,0,0,0,0,0c0.3-0.6,0.5-1.3,0.9-1.8C546.7,95.8,546.3,94.9,546.1,94.9z"/>
		</g>
	</g>
	<g>
		<path class="st12" d="M506.4,0L506.4,0c-8.4,0-15.2,6.8-15.2,15.2c0,2.8,0.7,5.4,2,7.6l13.2,22.9l13.2-22.9c1.3-2.2,2-4.8,2-7.6
			C521.7,6.8,514.9,0,506.4,0z M506.4,19.1L506.4,19.1c-2.1,0-3.8-1.7-3.8-3.8c0-2.1,1.7-3.8,3.8-3.8l0,0c2.1,0,3.8,1.7,3.8,3.8
			C510.2,17.4,508.5,19.1,506.4,19.1z"/>
		<circle class="st3" cx="506.4" cy="14.9" r="4.6"/>
	</g>
	<g>
		<g>
			<g>
				<path class="st3" d="M487.5,300.5c0.1,3.4,2.5,6,5.4,5.9c2.9-0.1,5.1-2.9,5.1-6.2L487.5,300.5z"/>
			</g>
			
				<rect x="486.1" y="193.9" transform="matrix(0.9997 -2.572877e-02 2.572877e-02 0.9997 -6.1498 12.723)" class="st15" width="10.5" height="102.8"/>
			
				<rect x="490" y="193.9" transform="matrix(0.9997 -2.575758e-02 2.575758e-02 0.9997 -6.1565 12.7373)" class="st16" width="2.7" height="102.8"/>
			
				<rect x="487.4" y="294" transform="matrix(0.9997 -2.591331e-02 2.591331e-02 0.9997 -7.5357 12.8668)" class="st17" width="10.5" height="6.4"/>
			<polygon class="st3" points="487.5,179.7 484.8,194.1 495.3,193.8 491.8,179.6 			"/>
			<polygon class="st17" points="491.8,179.6 489.4,170 487.5,179.7 			"/>
		</g>
		<g>
			
				<rect x="467" y="132.5" transform="matrix(0.9982 -6.047504e-02 6.047504e-02 0.9982 -12.5236 29.0995)" class="st18" width="15" height="178"/>
			<g>
				<g>
					
						<rect x="472.6" y="135.7" transform="matrix(0.9985 -5.516327e-02 5.516327e-02 0.9985 -6.7898 26.3931)" class="st3" width="4.3" height="0.9"/>
					
						<rect x="472.7" y="138.4" transform="matrix(0.9981 -6.192806e-02 6.192806e-02 0.9981 -7.6872 29.6728)" class="st3" width="4.3" height="0.9"/>
					
						<rect x="472.9" y="141.1" transform="matrix(0.9987 -5.012693e-02 5.012693e-02 0.9987 -6.4963 23.988)" class="st3" width="4.3" height="0.9"/>
					
						<rect x="473" y="143.7" transform="matrix(0.9984 -5.639222e-02 5.639222e-02 0.9984 -7.3738 27.024)" class="st3" width="4.3" height="0.9"/>
					
						<rect x="473.2" y="146.4" transform="matrix(0.9981 -6.083419e-02 6.083419e-02 0.9981 -8.0518 29.1863)" class="st3" width="4.3" height="0.9"/>
					
						<rect x="473.5" y="151.7" transform="matrix(0.9984 -5.639222e-02 5.639222e-02 0.9984 -7.8232 27.0621)" class="st3" width="4.3" height="0.9"/>
					
						<rect x="473.6" y="154.4" transform="matrix(0.9981 -6.171525e-02 6.171525e-02 0.9981 -8.6472 29.656)" class="st3" width="4.3" height="0.9"/>
					
						<rect x="473.8" y="157" transform="matrix(0.9983 -5.768405e-02 5.768405e-02 0.9983 -8.291 27.714)" class="st3" width="4.3" height="0.9"/>
					
						<rect x="473.9" y="159.7" transform="matrix(0.9983 -5.849429e-02 5.849429e-02 0.9983 -8.5514 28.1203)" class="st3" width="4.3" height="0.9"/>
					<polygon class="st3" points="474.1,163.4 474,162.5 478.3,162.2 478.4,163.1 					"/>
					
						<rect x="469.5" y="149.1" transform="matrix(0.9984 -5.641430e-02 5.641430e-02 0.9984 -7.6852 26.9525)" class="st3" width="8.1" height="0.9"/>
					
						<rect x="474.4" y="167.7" transform="matrix(0.9987 -5.096769e-02 5.096769e-02 0.9987 -7.9487 24.5045)" class="st3" width="4.3" height="0.9"/>
					<polygon class="st3" points="474.5,171.3 474.5,170.4 478.8,170.2 478.8,171.1 					"/>
					
						<rect x="474.7" y="173" transform="matrix(0.9985 -5.546385e-02 5.546385e-02 0.9985 -8.885 26.712)" class="st3" width="4.3" height="0.9"/>
					
						<rect x="474.8" y="175.6" transform="matrix(0.9985 -5.417870e-02 5.417870e-02 0.9985 -8.8396 26.0993)" class="st3" width="4.3" height="0.9"/>
					
						<rect x="475" y="178.3" transform="matrix(0.9984 -5.651750e-02 5.651750e-02 0.9984 -9.3398 27.2501)" class="st3" width="4.3" height="0.9"/>
					<polygon class="st3" points="470.4,166.2 470.4,165.3 478.5,164.9 478.5,165.8 					"/>
					
						<rect x="468.6" y="133.2" transform="matrix(0.9984 -5.639222e-02 5.639222e-02 0.9984 -6.7841 26.8656)" class="st3" width="8.1" height="0.9"/>
					<polygon class="st3" points="475.3,184.6 475.2,183.7 479.5,183.5 479.6,184.4 					"/>
					
						<rect x="475.4" y="186.3" transform="matrix(0.9984 -5.637811e-02 5.637811e-02 0.9984 -9.7678 27.2205)" class="st3" width="4.3" height="0.9"/>
					<polygon class="st3" points="475.6,190 475.5,189.1 479.8,188.8 479.9,189.7 					"/>
					
						<rect x="475.7" y="191.6" transform="matrix(0.9985 -5.528556e-02 5.528556e-02 0.9985 -9.8866 26.712)" class="st3" width="4.3" height="0.9"/>
					
						<rect x="475.9" y="194.3" transform="matrix(0.9981 -6.194898e-02 6.194898e-02 0.9981 -11.1437 29.9857)" class="st3" width="4.3" height="0.9"/>
					
						<rect x="476.2" y="199.6" transform="matrix(0.9985 -5.440399e-02 5.440399e-02 0.9985 -10.1738 26.3178)" class="st3" width="4.3" height="0.9"/>
					
						<rect x="476.3" y="202.2" transform="matrix(0.9984 -5.639222e-02 5.639222e-02 0.9984 -10.6685 27.3036)" class="st3" width="4.3" height="0.9"/>
					<polygon class="st3" points="476.5,205.9 476.4,205 480.7,204.8 480.8,205.7 					"/>
					
						<rect x="476.6" y="207.6" transform="matrix(0.9986 -5.208350e-02 5.208350e-02 0.9986 -10.1838 25.2175)" class="st3" width="4.3" height="0.9"/>
					
						<rect x="476.8" y="210.2" transform="matrix(0.9984 -5.640033e-02 5.640033e-02 0.9984 -11.1191 27.3457)" class="st3" width="4.3" height="0.9"/>
					<polygon class="st3" points="472.2,198.2 472.2,197.3 480.3,196.8 480.3,197.7 					"/>
					
						<rect x="477.1" y="215.5" transform="matrix(0.9984 -5.639222e-02 5.639222e-02 0.9984 -11.4172 27.3672)" class="st3" width="4.3" height="0.9"/>
					
						<rect x="477.2" y="218.2" transform="matrix(0.9982 -6.070615e-02 6.070615e-02 0.9982 -12.389 29.503)" class="st3" width="4.3" height="0.9"/>
					<polygon class="st3" points="477.4,221.9 477.3,221 481.6,220.7 481.7,221.6 					"/>
					
						<rect x="477.5" y="223.5" transform="matrix(0.9984 -5.627532e-02 5.627532e-02 0.9984 -11.8434 27.3477)" class="st3" width="4.3" height="0.9"/>
					
						<rect x="477.7" y="226.2" transform="matrix(0.9984 -5.639222e-02 5.639222e-02 0.9984 -12.0163 27.418)" class="st3" width="4.3" height="0.9"/>
					
						<rect x="473.1" y="213" transform="matrix(0.9982 -5.960033e-02 5.960033e-02 0.9982 -11.8725 28.8175)" class="st3" width="8.1" height="0.9"/>
					<polygon class="st3" points="471.3,182.2 471.3,181.3 479.4,180.8 479.4,181.7 					"/>
				</g>
				<g>
					
						<rect x="478" y="231.2" transform="matrix(0.9987 -5.174063e-02 5.174063e-02 0.9987 -11.3419 25.1505)" class="st3" width="4.3" height="0.9"/>
					
						<rect x="478.1" y="233.8" transform="matrix(0.9981 -6.167513e-02 6.167513e-02 0.9981 -13.536 30.0649)" class="st3" width="4.3" height="0.9"/>
					
						<rect x="478.3" y="236.5" transform="matrix(0.9984 -5.645479e-02 5.645479e-02 0.9984 -12.611 27.4982)" class="st3" width="4.3" height="0.9"/>
					
						<rect x="478.4" y="239.2" transform="matrix(0.9985 -5.518354e-02 5.518354e-02 0.9985 -12.4906 26.8832)" class="st3" width="4.3" height="0.9"/>
					<polygon class="st3" points="478.6,242.8 478.5,241.9 482.8,241.7 482.8,242.6 					"/>
					<polygon class="st3" points="478.9,248.2 478.8,247.3 483.1,247 483.2,247.9 					"/>
					
						<rect x="479" y="249.8" transform="matrix(0.9984 -5.627372e-02 5.627372e-02 0.9984 -13.3203 27.4722)" class="st3" width="4.3" height="0.9"/>
					
						<rect x="479.2" y="252.5" transform="matrix(0.9982 -5.961454e-02 5.961454e-02 0.9982 -14.2212 29.1418)" class="st3" width="4.3" height="0.9"/>
					
						<rect x="479.3" y="255.1" transform="matrix(0.9984 -5.626749e-02 5.626749e-02 0.9984 -13.6178 27.4945)" class="st3" width="4.3" height="0.9"/>
					<polygon class="st3" points="479.5,258.8 479.4,257.9 483.7,257.7 483.8,258.6 					"/>
					
						<rect x="474.9" y="244.6" transform="matrix(0.9984 -5.651122e-02 5.651122e-02 0.9984 -13.0822 27.4566)" class="st3" width="8.1" height="0.9"/>
					
						<rect x="479.8" y="263.1" transform="matrix(0.9984 -5.627372e-02 5.627372e-02 0.9984 -14.0675 27.5356)" class="st3" width="4.3" height="0.9"/>
					<polygon class="st3" points="479.9,266.8 479.9,265.9 484.2,265.6 484.2,266.5 					"/>
					
						<rect x="480.1" y="268.4" transform="matrix(0.9985 -5.540840e-02 5.540840e-02 0.9985 -14.1571 27.1307)" class="st3" width="4.3" height="0.9"/>
					<polygon class="st3" points="480.2,272.1 480.2,271.2 484.5,271 484.5,271.9 					"/>
					
						<rect x="480.4" y="273.7" transform="matrix(0.9984 -5.639222e-02 5.639222e-02 0.9984 -14.6945 27.6453)" class="st3" width="4.3" height="0.9"/>
					
						<rect x="475.8" y="260.6" transform="matrix(0.9985 -5.539424e-02 5.539424e-02 0.9985 -13.7212 26.9808)" class="st3" width="8.1" height="0.9"/>
					
						<rect x="474" y="228.6" transform="matrix(0.9981 -6.090180e-02 6.090180e-02 0.9981 -13.0644 29.5381)" class="st3" width="8.1" height="0.9"/>
					<polygon class="st3" points="480.7,280.1 480.6,279.2 484.9,278.9 485,279.8 					"/>
					
						<rect x="480.8" y="281.7" transform="matrix(0.9983 -5.763713e-02 5.763713e-02 0.9983 -15.4608 28.3047)" class="st3" width="4.3" height="0.9"/>
					
						<rect x="481" y="284.4" transform="matrix(0.9984 -5.656824e-02 5.656824e-02 0.9984 -15.3388 27.784)" class="st3" width="4.3" height="0.9"/>
					
						<rect x="481.1" y="287" transform="matrix(0.9985 -5.540224e-02 5.540224e-02 0.9985 -15.1856 27.2145)" class="st3" width="4.3" height="0.9"/>
					
						<rect x="481.3" y="289.7" transform="matrix(0.9984 -5.657405e-02 5.657405e-02 0.9984 -15.6408 27.8125)" class="st3" width="4.3" height="0.9"/>
					
						<rect x="481.6" y="295" transform="matrix(0.9984 -5.626749e-02 5.626749e-02 0.9984 -15.8592 27.6845)" class="st3" width="4.3" height="0.9"/>
					
						<rect x="481.7" y="297.7" transform="matrix(0.9984 -5.626104e-02 5.626104e-02 0.9984 -16.0068 27.694)" class="st3" width="4.3" height="0.9"/>
					<polygon class="st3" points="481.9,301.4 481.8,300.5 486.1,300.2 486.2,301.1 					"/>
					
						<rect x="482" y="303" transform="matrix(0.9984 -5.738803e-02 5.738803e-02 0.9984 -16.6166 28.2845)" class="st3" width="4.3" height="0.9"/>
					
						<rect x="482.2" y="305.7" transform="matrix(0.9983 -5.781259e-02 5.781259e-02 0.9983 -16.887 28.5106)" class="st3" width="4.3" height="0.9"/>
					
						<rect x="477.6" y="292.5" transform="matrix(0.9984 -5.627372e-02 5.627372e-02 0.9984 -15.7204 27.5677)" class="st3" width="8.1" height="0.9"/>
					<polygon class="st3" points="478.5,309.6 478.5,308.7 486.6,308.2 486.6,309.1 					"/>
					
						<rect x="476.7" y="276.5" transform="matrix(0.9984 -5.670014e-02 5.670014e-02 0.9984 -14.9303 27.7034)" class="st3" width="8.1" height="0.9"/>
				</g>
			</g>
		</g>
		<g>
			<g>
				<path class="st19" d="M496.8,269.6c0,2.8,2,5.1,4.4,5.1c2.4,0,4.4-2.3,4.4-5.1H496.8z"/>
			</g>
			<rect x="496.8" y="179.7" class="st20" width="8.9" height="86.9"/>
			<rect x="500.1" y="179.7" class="st15" width="2.3" height="86.9"/>
			<rect x="496.8" y="264.2" class="st3" width="8.9" height="5.4"/>
			<polygon class="st3" points="499.5,167.5 496.8,179.7 505.7,179.7 503.1,167.5 			"/>
			<polygon class="st17" points="503.1,167.6 501.3,159.4 499.5,167.6 			"/>
		</g>
		<g>
			<g>
				<path class="st19" d="M511.5,281.2c0.1,2.8,2,5.1,4.5,5.1c2.4,0,4.4-2.3,4.4-5.2L511.5,281.2z"/>
			</g>
			
				<rect x="511.1" y="191.2" transform="matrix(0.9999 -1.009378e-02 1.009378e-02 0.9999 -2.3426 5.2153)" class="st21" width="8.9" height="86.9"/>
			
				<rect x="514.4" y="191.2" transform="matrix(0.9999 -1.005892e-02 1.005892e-02 0.9999 -2.3346 5.1972)" class="st15" width="2.3" height="86.9"/>
			
				<rect x="511.5" y="275.8" transform="matrix(1 -9.697582e-03 9.697582e-03 1 -2.6766 5.0165)" class="st3" width="8.9" height="5.4"/>
			<polygon class="st3" points="513.1,179.1 510.6,191.3 519.5,191.2 516.7,179.1 			"/>
			<polygon class="st17" points="516.7,179.2 514.9,171 513.1,179.2 			"/>
		</g>
		<rect x="460.9" y="239.5" class="st13" width="72" height="84.5"/>
	</g>
	<g>
		<path class="st22" d="M976.4,151.3h-90h-8h-3.2h-5.6V324h5.6h3.2h8h90c8,0,14.5-6.5,14.5-14.5V165.7
			C990.8,157.7,984.3,151.3,976.4,151.3z"/>
		<path class="st3" d="M983.6,148.1h-90h-8h-3.2h-5.6v172.7h5.6h3.2h8h90c8,0,14.5-6.5,14.5-14.5V162.5
			C998,154.5,991.6,148.1,983.6,148.1z"/>
		<path class="st23" d="M982.8,144h-90h-8h-3.2H876v172.7h5.6h3.2h8h90c8,0,14.5-6.5,14.5-14.5V158.5
			C997.2,150.5,990.8,144,982.8,144z"/>
		<path class="st3" d="M979.6,146.5h-90h-8h-3.2h-5.6v172.7h5.6h3.2h8h90c8,0,14.5-6.5,14.5-14.5V160.9
			C994,152.9,987.6,146.5,979.6,146.5z"/>
		<rect x="869.5" y="145.6" class="st24" width="16.9" height="172.7"/>
		<path class="st12" d="M976.4,145.6h-90v172.7h90c8,0,14.5-6.5,14.5-14.5V160.1C990.8,152.1,984.3,145.6,976.4,145.6z"/>
		<rect x="875.1" y="145.6" class="st22" width="3.2" height="172.7"/>
		
			<rect x="909.5" y="182.2" transform="matrix(0.9999 -1.637677e-02 1.637677e-02 0.9999 -2.9982 15.3431)" class="st25" width="51.6" height="17.1"/>
		<rect x="960.3" y="144" class="st18" width="8.8" height="179.9"/>
	</g>
	<g>
		<g>
			<path class="st14" d="M996.4,245.3h-78.7v75c0,0.9,0.4,1.9,1.1,2.6c0.7,0.7,1.6,1.1,2.6,1.1h71.4c0.9,0,1.9-0.4,2.6-1.1
				c0.7-0.7,1.1-1.6,1.1-2.6V245.3z"/>
			<path class="st3" d="M996.4,214c0-0.9-0.4-1.9-1.1-2.6c-0.7-0.7-1.6-1.1-2.6-1.1h-71.4c-0.9,0-1.9,0.4-2.6,1.1
				c-0.7,0.7-1.1,1.6-1.1,2.6v31.4h78.7V214z"/>
			<path class="st26" d="M926.5,239c-0.6,0-1.1-0.2-1.5-0.6c-0.4-0.4-0.6-0.9-0.6-1.5v-18.1c0-0.6,0.2-1.1,0.6-1.5
				c0.4-0.4,0.9-0.6,1.5-0.6h61.8c0.6,0,1.1,0.2,1.5,0.6c0.4,0.4,0.6,0.9,0.6,1.5v18.1c0,0.6-0.2,1.1-0.6,1.5
				c-0.4,0.4-0.9,0.6-1.5,0.6H926.5z"/>
			<path class="st25" d="M926.5,218.1c-0.2,0-0.3,0.1-0.5,0.2c-0.1,0.1-0.2,0.3-0.2,0.4v18.1c0,0.2,0.1,0.3,0.2,0.4
				c0.1,0.1,0.3,0.2,0.5,0.2h61.8c0.2,0,0.3-0.1,0.4-0.2c0.1-0.1,0.2-0.3,0.2-0.4v-18.1c0-0.2-0.1-0.3-0.2-0.4
				c-0.1-0.1-0.3-0.2-0.4-0.2H926.5z"/>
			<rect x="917.8" y="243.8" class="st27" width="78.7" height="1.5"/>
		</g>
		<g>
			<rect x="927.1" y="261.9" class="st3" width="9.1" height="7.4"/>
			<rect x="944" y="261.9" class="st3" width="9.1" height="7.4"/>
			<rect x="961" y="261.9" class="st27" width="9.1" height="7.4"/>
			<rect x="978" y="261.9" class="st28" width="9.1" height="7.4"/>
			<rect x="927.1" y="275.3" class="st3" width="9.1" height="7.4"/>
			<rect x="944" y="275.3" class="st3" width="9.1" height="7.4"/>
			<rect x="961" y="275.3" class="st3" width="9.1" height="7.4"/>
			<rect x="978" y="275.3" class="st3" width="9.1" height="7.4"/>
			<rect x="927.1" y="288.6" class="st3" width="9.1" height="7.4"/>
			<rect x="944" y="288.6" class="st3" width="9.1" height="7.4"/>
			<rect x="961" y="288.6" class="st3" width="9.1" height="7.4"/>
			<rect x="927.1" y="302" class="st3" width="9.1" height="7.4"/>
			<rect x="944" y="302" class="st3" width="9.1" height="7.4"/>
			<rect x="961" y="302" class="st3" width="9.1" height="7.4"/>
			<rect x="978" y="288.6" class="st3" width="9.1" height="20.8"/>
		</g>
	</g>
	<g>
		<g>
			<path class="st29" d="M540.9,90h332.6c9.4,0,17,7.7,17,17v181c0,9.4-7.7,17-17,17H540.9c-9.4,0-17-7.7-17-17V107
				C523.9,97.7,531.5,90,540.9,90z"/>
			<path class="st30" d="M873.5,90H540.9c-9.4,0-17,7.7-17,17v182.3c0,9.4,7.7,17,17,17h332.6c9.4,0,17-7.7,17-17V107
				C890.6,97.7,882.9,90,873.5,90z M874.7,289.4c0,0.6-0.6,1.2-1.2,1.2H540.9c-0.6,0-1.2-0.6-1.2-1.2V107c0-0.6,0.6-1.2,1.2-1.2
				h332.6c0.6,0,1.2,0.6,1.2,1.2V289.4z"/>
		</g>
		<g>
			<path class="st29" d="M488.7,304.6c-0.4,1.4-0.7,2.9-0.7,4.5c0,8.2,6.6,14.9,14.8,14.9h408.7c8.2,0,14.8-6.6,14.8-14.9
				c0-1.6-0.2-3.1-0.7-4.5H488.7z"/>
			<path class="st31" d="M760.7,314.3c0,1.1-0.9,2-2,2h-96.6c-1.1,0-2-0.9-2-2l0,0c0-1.1,0.9-2,2-2h96.6
				C759.8,312.3,760.7,313.2,760.7,314.3L760.7,314.3z"/>
		</g>
	</g>
	<g>
		<g>
			<path class="st12" d="M435.4,268.2H262.6c-9.4,0-17-7.6-17-17v-0.6c0-9.4,7.6-17,17-17h172.8v-7.3H262.6
				c-13.4,0-24.3,10.9-24.3,24.3v0.6c0,13.4,10.9,24.3,24.3,24.3h172.8V268.2z"/>
			<path class="st3" d="M435.4,230.8H262c-10.1,0-18.3,9-18.3,20.1c0,11.1,8.2,20.1,18.3,20.1h173.4V230.8z"/>
		</g>
		<g>
			<path class="st32" d="M435.4,316.7H262.6c-9.4,0-17-7.6-17-17V299c0-9.4,7.6-17,17-17h172.8v-7.3H262.6
				c-13.4,0-24.3,10.9-24.3,24.3v0.6c0,13.4,10.9,24.3,24.3,24.3h172.8V316.7z"/>
			<path class="st3" d="M435.4,279.2H262c-10.1,0-18.3,9-18.3,20.1c0,11.1,8.2,20.1,18.3,20.1h173.4V279.2z"/>
		</g>
		<g>
			<g>
				<g>
					<path class="st3" d="M345,214"/>
					<path class="st33" d="M344.9,214.2"/>
				</g>
			</g>
		</g>
	</g>
	<g>
		<g>
			<g>
				<rect x="590" y="8" class="st34" width="241.7" height="282.5"/>
			</g>
		</g>
		<g>
			<g>
				<rect x="630.4" y="28.9" class="st10" width="105.6" height="5.3"/>
				<g>
					<rect x="631.4" y="48" class="st10" width="177.5" height="5.3"/>
					<rect x="631.4" y="57.2" class="st10" width="177.5" height="5.3"/>
					<rect x="631.4" y="66.4" class="st10" width="177.5" height="5.3"/>
					<rect x="631.4" y="75.6" class="st10" width="177.5" height="5.3"/>
					<rect x="631.4" y="84.8" class="st10" width="177.5" height="5.3"/>
					<rect x="631.4" y="94" class="st10" width="177.5" height="5.3"/>
					<rect x="631.4" y="103.2" class="st10" width="177.5" height="5.3"/>
					<rect x="631.4" y="112.4" class="st10" width="177.5" height="5.3"/>
					<rect x="631.4" y="121.6" class="st10" width="88.7" height="5.3"/>
				</g>
			</g>
			<rect x="680.8" y="223.5" class="st10" width="78.8" height="5.3"/>
			<polygon class="st10" points="631.4,237.9 808.9,237.9 808.9,243.1 631.4,243.1 			"/>
			<rect x="631.4" y="247.1" class="st10" width="177.5" height="5.2"/>
			<rect x="631.4" y="256.3" class="st10" width="177.5" height="5.3"/>
			<g>
				<g>
					<path class="st13" d="M744,183.6l-0.3-0.1l-9.5-7.8c-0.2-0.1-0.2-0.4-0.1-0.6c0.1-0.2,0.4-0.2,0.6-0.1l9.5,7.8
						c0.2,0.1,0.2,0.4,0.1,0.6C744.2,183.6,744.1,183.6,744,183.6"/>
					<path class="st13" d="M744.3,182.8l9.5,14.3c-0.1,0-0.3,0-0.4,0.1c-0.2,0-0.3,0.1-0.5,0.1l-9.3-14
						C743.9,183.1,744.1,182.9,744.3,182.8z"/>
					<rect x="742.8" y="182" class="st13" width="2.4" height="2.4"/>
					<path class="st13" d="M648.7,203l-0.2,0l-9.5-3.9c-0.2-0.1-0.3-0.3-0.2-0.5c0.1-0.2,0.3-0.3,0.5-0.2l9.5,3.9
						c0.2,0.1,0.3,0.3,0.2,0.5C649,202.9,648.8,203,648.7,203"/>
					<path class="st13" d="M648.7,203l-0.2-0.1c-0.2-0.1-0.2-0.4-0.1-0.5l9.5-15.6c0.1-0.2,0.4-0.2,0.6-0.1c0.2,0.1,0.3,0.4,0.1,0.6
						l-9.5,15.6C648.9,203,648.8,203,648.7,203"/>
					<path class="st13" d="M667.7,193.3l-0.2-0.1l-9.5-5.8c-0.2-0.1-0.2-0.4-0.1-0.6c0.1-0.2,0.4-0.2,0.6-0.1l9.5,5.8
						c0.2,0.1,0.3,0.4,0.1,0.6C668,193.2,667.9,193.3,667.7,193.3"/>
					<path class="st13" d="M677.3,199.2l-0.2-0.1l-9.5-5.8c-0.2-0.1-0.3-0.4-0.1-0.6c0.1-0.2,0.4-0.2,0.6-0.1l9.5,5.8
						c0.2,0.1,0.3,0.4,0.1,0.6C677.5,199.1,677.4,199.2,677.3,199.2"/>
					<path class="st13" d="M686.8,203l-0.2,0l-9.5-3.9c-0.2-0.1-0.3-0.3-0.2-0.5c0.1-0.2,0.3-0.3,0.5-0.2l9.5,3.9
						c0.2,0.1,0.3,0.3,0.2,0.5C687.1,202.9,686.9,203,686.8,203"/>
					<path class="st13" d="M686.8,203l-0.2-0.1c-0.2-0.1-0.3-0.4-0.1-0.5l9.5-15.6c0.1-0.2,0.4-0.2,0.6-0.1c0.2,0.1,0.2,0.4,0.1,0.6
						l-9.5,15.6C687.1,203,686.9,203,686.8,203"/>
					<path class="st13" d="M705.9,191.4l-0.2,0l-9.5-3.9c-0.2-0.1-0.3-0.3-0.2-0.5c0.1-0.2,0.3-0.3,0.5-0.2l9.5,3.9
						c0.2,0.1,0.3,0.3,0.2,0.5C706.2,191.3,706,191.4,705.9,191.4"/>
					<path class="st13" d="M705.9,191.4l-0.2-0.1c-0.2-0.1-0.2-0.4-0.1-0.6l9.5-15.5c0.1-0.2,0.4-0.3,0.6-0.1
						c0.2,0.1,0.2,0.4,0.1,0.6l-9.5,15.5C706.1,191.3,706,191.4,705.9,191.4"/>
					<path class="st13" d="M715.4,175.8c-0.1,0-0.2-0.1-0.3-0.1c-0.1-0.2-0.1-0.4,0.1-0.6l9.5-7.8c0.2-0.1,0.4-0.1,0.6,0.1
						c0.1,0.2,0.1,0.4-0.1,0.6l-9.5,7.8L715.4,175.8"/>
					<path class="st13" d="M734.4,175.8l-0.3-0.1l-9.5-7.8c-0.2-0.1-0.2-0.4-0.1-0.6c0.1-0.2,0.4-0.2,0.6-0.1l9.5,7.8
						c0.2,0.1,0.2,0.4,0.1,0.6C734.7,175.8,734.6,175.8,734.4,175.8"/>
					<path class="st13" d="M763.3,177.3c0.1,0.1,0.1,0.3,0,0.4l-9,19.7c-0.1,0.2-0.3,0.3-0.5,0.2c-0.2-0.1-0.3-0.3-0.2-0.5l9-19.7
						c0.1-0.2,0.3-0.3,0.5-0.2L763.3,177.3"/>
					<path class="st13" d="M772.6,183.6l-0.2-0.1l-9.5-5.8c-0.2-0.1-0.2-0.4-0.1-0.6c0.1-0.2,0.4-0.2,0.6-0.1l9.5,5.8
						c0.2,0.1,0.3,0.4,0.1,0.6C772.8,183.5,772.7,183.6,772.6,183.6"/>
					<path class="st13" d="M772.6,183.6l-0.1,0c-0.2-0.1-0.3-0.3-0.3-0.5l9.5-33c0.1-0.2,0.3-0.3,0.5-0.3c0.2,0.1,0.3,0.3,0.3,0.5
						l-9.5,33C772.9,183.5,772.8,183.6,772.6,183.6"/>
					<path class="st13" d="M791.6,152.5L791.6,152.5l-9.6-2c-0.2,0-0.4-0.3-0.3-0.5c0-0.2,0.3-0.4,0.5-0.3l9.5,1.9
						c0.2,0,0.4,0.3,0.3,0.5C792,152.4,791.8,152.5,791.6,152.5"/>
					<path class="st13" d="M791.9,151.8l9.6,13.2c0.1,0.2,0.1,0.4-0.1,0.6c-0.2,0.1-0.4,0.1-0.6-0.1l-9.6-13.2
						C791.4,152.1,791.6,151.9,791.9,151.8z"/>
					<rect x="637.9" y="197.5" class="st13" width="2.4" height="2.4"/>
					<rect x="647.4" y="201.4" class="st13" width="2.4" height="2.4"/>
					<rect x="657" y="185.9" class="st13" width="2.4" height="2.4"/>
					<rect x="666.5" y="191.7" class="st13" width="2.4" height="2.4"/>
					<rect x="676" y="197.5" class="st13" width="2.4" height="2.4"/>
					<rect x="685.6" y="201.4" class="st13" width="2.4" height="2.4"/>
					<rect x="695.1" y="185.9" class="st13" width="2.4" height="2.4"/>
					<rect x="704.6" y="189.8" class="st13" width="2.4" height="2.4"/>
					<rect x="714.2" y="174.2" class="st13" width="2.4" height="2.4"/>
					<rect x="723.7" y="166.4" class="st13" width="2.4" height="2.4"/>
					<rect x="733.2" y="174.2" class="st13" width="2.4" height="2.4"/>
					<rect x="752.3" y="196.2" class="st13" width="2.4" height="2.4"/>
					<rect x="761.8" y="176.2" class="st13" width="2.4" height="2.4"/>
					<rect x="771.4" y="182" class="st13" width="2.4" height="2.4"/>
					<rect x="780.9" y="148.9" class="st13" width="2.4" height="2.4"/>
					<rect x="790.4" y="150.9" class="st13" width="2.4" height="2.4"/>
					<rect x="800" y="163.5" class="st13" width="2.4" height="2.4"/>
					<rect x="761.8" y="189.8" class="st13" width="2.4" height="2.4"/>
				</g>
				<g>
					<path class="st35" d="M643.7,203c-0.1,0-0.3-0.1-0.3-0.2c-0.1-0.2-0.1-0.4,0.1-0.6l9.5-5.8c0.2-0.1,0.4-0.1,0.6,0.1
						c0.1,0.2,0.1,0.4-0.1,0.6l-9.5,5.8L643.7,203"/>
					<path class="st35" d="M653.2,197.2c-0.1,0-0.3-0.1-0.3-0.2c-0.1-0.2-0.1-0.4,0.1-0.6l9.5-5.8c0.2-0.1,0.4-0.1,0.5,0.1
						c0.1,0.2,0.1,0.4-0.1,0.6l-9.5,5.8L653.2,197.2"/>
					<path class="st35" d="M670.8,178.6c0,0.1,0,0.2,0,0.3l-6.3,12.1c-0.1,0.2-0.3,0.3-0.5,0.2c-0.2-0.1-0.3-0.3-0.2-0.5l6.3-12.1
						c0.1-0.2,0.3-0.3,0.5-0.2C670.7,178.4,670.8,178.5,670.8,178.6"/>
					<path class="st35" d="M669.8,179.2l12.4,5.4c0.2,0.1,0.3,0.3,0.2,0.5c-0.1,0.2-0.3,0.3-0.5,0.2l-12.9-5.6
						C669.3,179.6,669.6,179.4,669.8,179.2z"/>
					<path class="st35" d="M691.4,193.3l-0.3-0.1l-9.5-7.8c-0.2-0.1-0.2-0.4-0.1-0.6c0.1-0.2,0.4-0.2,0.6-0.1l9.5,7.8
						c0.2,0.1,0.2,0.4,0.1,0.6C691.6,193.3,691.5,193.3,691.4,193.3"/>
					<path class="st35" d="M691.4,193.3l-0.2-0.1c-0.2-0.1-0.2-0.4-0.1-0.6l9.5-13.6c0.1-0.2,0.4-0.2,0.6-0.1
						c0.2,0.1,0.2,0.4,0.1,0.6l-9.5,13.6C691.6,193.3,691.5,193.3,691.4,193.3"/>
					<path class="st35" d="M700.9,179.7c-0.2,0-0.3-0.1-0.4-0.3c-0.1-0.2,0-0.4,0.2-0.5l9.5-3.9c0.2-0.1,0.4,0,0.5,0.2
						c0.1,0.2,0,0.4-0.2,0.5l-9.5,3.9L700.9,179.7"/>
					<path class="st35" d="M720,183.6l-0.3-0.1l-9.5-7.8c-0.2-0.1-0.2-0.4-0.1-0.6c0.1-0.2,0.4-0.2,0.6-0.1l9.5,7.8
						c0.2,0.1,0.2,0.4,0.1,0.6C720.2,183.6,720.1,183.6,720,183.6"/>
					<path class="st35" d="M720,183.6c-0.2,0-0.3-0.1-0.4-0.2c-0.1-0.2,0-0.4,0.2-0.5l9.5-3.9c0.2-0.1,0.4,0,0.5,0.2
						c0.1,0.2,0,0.4-0.2,0.5l-9.5,3.9L720,183.6"/>
					<path class="st35" d="M739,191.4c-0.1,0-0.2,0-0.3-0.1l-9.5-11.7c-0.1-0.2-0.1-0.4,0.1-0.6c0.2-0.1,0.4-0.1,0.6,0.1l9.5,11.7
						c0.1,0.2,0.1,0.4,0,0.6L739,191.4"/>
					<path class="st35" d="M739,191.4c-0.2,0-0.3-0.1-0.4-0.3c-0.1-0.2,0-0.4,0.2-0.5l9.5-3.9c0.2-0.1,0.4,0,0.5,0.2
						c0.1,0.2,0,0.4-0.2,0.5l-9.5,3.9L739,191.4"/>
					<path class="st35" d="M748.6,187.5l-0.2,0c-0.2-0.1-0.3-0.3-0.2-0.5l9.5-21.4c0.1-0.2,0.3-0.3,0.5-0.2c0.2,0.1,0.3,0.3,0.2,0.5
						l-9.5,21.4C748.9,187.4,748.7,187.5,748.6,187.5"/>
					<path class="st35" d="M767.6,191.4c-0.2,0-0.3-0.1-0.4-0.3l-9.5-25.3c-0.1-0.2,0-0.4,0.2-0.5c0.2-0.1,0.4,0,0.5,0.2l9.5,25.3
						c0.1,0.2,0,0.4-0.2,0.5L767.6,191.4"/>
					<path class="st35" d="M767.6,191.4l-0.1,0c-0.2-0.1-0.3-0.3-0.2-0.5l9.5-27.2c0.1-0.2,0.3-0.3,0.5-0.3c0.2,0.1,0.3,0.3,0.3,0.5
						l-9.5,27.2C768,191.3,767.8,191.4,767.6,191.4"/>
					<path class="st35" d="M777.2,164.4l0-0.3c0.1-0.2,0.3-0.3,0.5-0.2l13.7,6.3c0.2,0.1,0.3,0.3,0.2,0.5c-0.1,0.2-0.3,0.3-0.5,0.2
						l-13.7-6.3C777.3,164.6,777.2,164.5,777.2,164.4"/>
					<path class="st35" d="M801.2,179.7l-0.3-0.1l-9.5-7.8c-0.2-0.1-0.2-0.4-0.1-0.6c0.1-0.2,0.4-0.2,0.6-0.1l9.5,7.8
						c0.2,0.1,0.2,0.4,0.1,0.6C801.4,179.6,801.3,179.7,801.2,179.7"/>
					<rect x="642.5" y="201.4" class="st35" width="2.4" height="2.4"/>
					<rect x="652" y="195.6" class="st35" width="2.4" height="2.4"/>
					<rect x="661.6" y="189.8" class="st35" width="2.4" height="2.4"/>
					<rect x="668.9" y="178" class="st35" width="2.4" height="2.4"/>
					<rect x="680.6" y="183.9" class="st35" width="2.4" height="2.4"/>
					<rect x="690.2" y="191.7" class="st35" width="2.4" height="2.4"/>
					<rect x="699.7" y="178.1" class="st35" width="2.4" height="2.4"/>
					<rect x="709.2" y="174.2" class="st35" width="2.4" height="2.4"/>
					<rect x="718.8" y="182" class="st35" width="2.4" height="2.4"/>
					<rect x="728.3" y="178.1" class="st35" width="2.4" height="2.4"/>
					<rect x="737.8" y="189.8" class="st35" width="2.4" height="2.4"/>
					<rect x="747.4" y="185.9" class="st35" width="2.4" height="2.4"/>
					<rect x="756.9" y="164.5" class="st35" width="2.4" height="2.4"/>
					<rect x="776" y="162.6" class="st35" width="2.4" height="2.4"/>
					<rect x="790.7" y="169.9" class="st35" width="2.4" height="2.4"/>
					<rect x="800" y="178.1" class="st35" width="2.4" height="2.4"/>
				</g>
				<g>
					<path class="st11" d="M801.2,205c0.2,0,0.3-0.1,0.4-0.2c0.1-0.2,0-0.4-0.2-0.5l-9.5-3.9c-0.2-0.1-0.4,0-0.5,0.2
						c-0.1,0.2,0,0.4,0.2,0.5l9.5,3.9L801.2,205"/>
					<path class="st11" d="M791.6,201.1c0.2,0,0.4-0.1,0.4-0.3c0-0.2-0.1-0.4-0.3-0.5l-9.5-1.9c-0.2,0-0.4,0.1-0.5,0.3
						c-0.1,0.2,0.1,0.4,0.3,0.5L791.6,201.1L791.6,201.1"/>
					<path class="st11" d="M782.1,199.2c0.2,0,0.4-0.1,0.4-0.3c0-0.2-0.1-0.4-0.3-0.5l-9.5-1.9c-0.2,0-0.4,0.1-0.5,0.3
						c0,0.2,0.1,0.4,0.3,0.5L782.1,199.2L782.1,199.2"/>
					<path class="st11" d="M772.6,197.2c0.1,0,0.3-0.1,0.3-0.2c0.1-0.2,0.1-0.4-0.1-0.6l-9.5-5.8c-0.2-0.1-0.4-0.1-0.6,0.1
						c-0.1,0.2-0.1,0.4,0.1,0.6l9.5,5.8L772.6,197.2"/>
					<path class="st11" d="M763,191.4c0.1,0,0.3-0.1,0.3-0.2c0.1-0.2,0.1-0.4-0.1-0.6l-9.5-5.8c-0.2-0.1-0.4-0.1-0.6,0.1
						c-0.1,0.2-0.1,0.4,0.1,0.6l9.5,5.8L763,191.4"/>
					<path class="st11" d="M753.5,185.5l0.3-0.1c0.2-0.1,0.2-0.4,0.1-0.6l-9.5-11.7c-0.1-0.2-0.4-0.2-0.6-0.1
						c-0.2,0.1-0.2,0.4-0.1,0.6l9.5,11.7C753.3,185.5,753.4,185.5,753.5,185.5"/>
					<path class="st11" d="M734.4,179.7l0.2-0.1l9.5-5.8c0.2-0.1,0.2-0.4,0.1-0.6c-0.1-0.2-0.4-0.3-0.6-0.1l-9.5,5.8
						c-0.2,0.1-0.2,0.4-0.1,0.6C734.2,179.6,734.3,179.7,734.4,179.7"/>
					<path class="st11" d="M724.9,187.5l0.3-0.1l9.5-7.8c0.2-0.1,0.2-0.4,0.1-0.6c-0.1-0.2-0.4-0.2-0.6-0.1l-9.5,7.8
						c-0.2,0.1-0.2,0.4-0.1,0.6C724.7,187.4,724.8,187.5,724.9,187.5"/>
					<path class="st11" d="M715.4,191.4l0.2,0l9.5-3.9c0.2-0.1,0.3-0.3,0.2-0.5c-0.1-0.2-0.3-0.3-0.5-0.2l-9.5,3.9
						c-0.2,0.1-0.3,0.3-0.2,0.5C715.1,191.3,715.2,191.4,715.4,191.4"/>
					<path class="st11" d="M715.4,191.4c0.1,0,0.2,0,0.3-0.1c0.1-0.2,0.1-0.4-0.1-0.6l-9.5-7.8c-0.2-0.1-0.4-0.1-0.6,0.1
						c-0.1,0.2-0.1,0.4,0.1,0.6l9.5,7.8L715.4,191.4"/>
					<path class="st11" d="M705.8,183.6c0.1,0,0.3-0.1,0.3-0.2c0.1-0.2,0.1-0.4-0.1-0.6l-9.5-5.8c-0.2-0.1-0.4-0.1-0.6,0.1
						c-0.1,0.2-0.1,0.4,0.1,0.6l9.5,5.8L705.8,183.6"/>
					<path class="st11" d="M696.3,177.8c0.2,0,0.3-0.1,0.4-0.3c0.1-0.2,0-0.4-0.2-0.5l-9.5-3.9c-0.2-0.1-0.4,0-0.5,0.2
						c-0.1,0.2,0,0.4,0.2,0.5l9.5,3.9L696.3,177.8"/>
					<path class="st11" d="M686.8,173.9c0.1,0,0.2-0.1,0.3-0.2c0.1-0.2,0.1-0.4-0.1-0.6l-9.5-7.8c-0.2-0.1-0.4-0.1-0.6,0.1
						c-0.1,0.2-0.1,0.4,0.1,0.6l9.5,7.8L686.8,173.9"/>
					<path class="st11" d="M677.2,166.1l0.2-0.1c0.2-0.1,0.3-0.4,0.2-0.6l-9.5-17.5c-0.1-0.2-0.3-0.3-0.6-0.2
						c-0.2,0.1-0.3,0.3-0.2,0.5l9.5,17.5C677,166,677.1,166.1,677.2,166.1"/>
					<path class="st11" d="M658.2,158.3c0.1,0,0.2,0,0.3-0.1l9.5-9.7c0.2-0.2,0.2-0.4,0-0.6c-0.2-0.2-0.4-0.1-0.6,0l-9.5,9.7
						c-0.2,0.2-0.2,0.4,0,0.6C658,158.3,658.1,158.3,658.2,158.3"/>
					<path class="st11" d="M658.2,158.3l0.2-0.1c0.2-0.1,0.2-0.4,0.1-0.6l-9.5-13.6c-0.1-0.2-0.4-0.2-0.6-0.1
						c-0.2,0.1-0.2,0.4-0.1,0.6l9.5,13.6C657.9,158.3,658.1,158.3,658.2,158.3"/>
					<path class="st11" d="M648.6,144.7c0.1,0,0.3-0.1,0.3-0.2c0.1-0.2,0.1-0.4-0.1-0.6l-9.5-5.8c-0.2-0.1-0.4-0.1-0.6,0.1
						c-0.1,0.2-0.1,0.4,0.1,0.6l9.5,5.8L648.6,144.7"/>
					<g>
						<rect x="800" y="203.4" class="st11" width="2.4" height="2.4"/>
						<rect x="790.4" y="199.5" class="st11" width="2.4" height="2.4"/>
						<rect x="780.9" y="197.5" class="st11" width="2.4" height="2.4"/>
						<rect x="771.4" y="195.6" class="st11" width="2.4" height="2.4"/>
						<rect x="761.8" y="189.8" class="st11" width="2.4" height="2.4"/>
						<rect x="752.3" y="183.9" class="st11" width="2.4" height="2.4"/>
						<rect x="742.8" y="172.3" class="st11" width="2.4" height="2.4"/>
						<rect x="733.2" y="178.1" class="st11" width="2.4" height="2.4"/>
						<rect x="723.7" y="185.9" class="st11" width="2.4" height="2.4"/>
						<rect x="714.2" y="189.8" class="st11" width="2.4" height="2.4"/>
						<rect x="704.6" y="182" class="st11" width="2.4" height="2.4"/>
						<rect x="695.1" y="176.2" class="st11" width="2.4" height="2.4"/>
						<rect x="685.6" y="172.3" class="st11" width="2.4" height="2.4"/>
						<rect x="676" y="164.5" class="st11" width="2.4" height="2.4"/>
						<rect x="666.5" y="147" class="st11" width="2.4" height="2.4"/>
						<rect x="657" y="156.7" class="st11" width="2.4" height="2.4"/>
						<rect x="647.4" y="143.1" class="st11" width="2.4" height="2.4"/>
						<rect x="637.9" y="137.3" class="st11" width="2.4" height="2.4"/>
					</g>
				</g>
			</g>
		</g>
	</g>
	<path class="st12" d="M490.9,274c-1.9-2.8-5.6-4.2-11-4.2h-5.8H472h-72.8c0,17.6,6.8,33.2,18.6,43c3,2.5,4.9,6.3,4.9,10.5v0.6h29
		v-1.5c0.2-3.9,1.9-7.2,4.7-9.5c4-3.5,7.4-7.8,10.2-12.6h9.3c7.2,0,10.5-5.3,13.2-11.1l2.6-6.7C493,278.4,492,275.6,490.9,274z
		 M486.7,280.9l-2.5,6.5c-2.8,6.5-5.1,7.7-8.2,7.7h-6.9c2.6-6.1,4.2-12.8,4.8-20h6c3.5,0,6,0.7,6.8,1.9
		C487.2,277.9,487.2,279.3,486.7,280.9z"/>
	<polygon class="st36" points="367.4,246.7 367.4,268.8 375.5,260.3 383.9,269.2 384.1,269.2 384.1,246.7 	"/>
</g>
<g>
	<g>
		<g>
			<polygon class="st37" points="142.6,154.2 49.7,212.9 49.7,212.9 237,212.9 			"/>
		</g>
		<rect x="49.7" y="212.8" class="st38" width="187.4" height="109.4"/>
	</g>
	<g>
		<g>
			<g>
				<rect x="67.5" y="204.7" class="st39" width="163.1" height="82.3"/>
				<rect x="71.1" y="208" class="st40" width="154.6" height="75.8"/>
				<path class="st41" d="M220,222.2c-7.9,0-11.8-4.4-11.7-10.5H88.2c-0.1,5.9-3.9,10-11.5,10.1v47.5c0,0,0.1,0,0.1,0
					c8.1,0,12,4.6,11.7,10.9h120.1c-0.1-6.1,3.7-10.4,11.5-10.5L220,222.2C220.1,222.1,220.1,222.2,220,222.2z"/>
			</g>
			<g>
				<path class="st40" d="M112.7,244.8c0,2.6-2.1,4.7-4.7,4.8c-2.6,0-4.7-2.1-4.7-4.7c0-2.6,2.1-4.7,4.7-4.7
					C110.5,240.1,112.7,242.2,112.7,244.8z"/>
				<path class="st40" d="M194.8,244.4c0,2.6-2.1,4.7-4.7,4.7c-2.6,0-4.7-2.1-4.7-4.7c0-2.6,2.1-4.7,4.7-4.7
					C192.7,239.7,194.8,241.8,194.8,244.4z"/>
				<g>
					<path class="st40" d="M149,222.3c-13.5,0-24.4,10.6-24.4,23.6c0,13,10.9,23.6,24.4,23.6c13.5,0,24.4-10.6,24.4-23.6
						C173.4,232.9,162.5,222.3,149,222.3z M150.6,257.7v3h-2.5v-3c-4.2-0.2-7.3-1.7-9.4-3.6l2.1-2.2c1.6,1.6,4.1,2.9,7.3,3.2v-8.3
						c-4.2-1-8.5-2.1-8.5-6.3c0-3.5,3.6-6,8.5-6.3v-3.1h2.5v3.1c3.4,0.2,6.1,1.4,8.1,3.1l-2.1,2.1c-1.6-1.5-3.8-2.4-6.1-2.6v7.5
						c4.2,1,8.7,2.3,8.7,6.8C159.3,254.1,157,257.3,150.6,257.7z"/>
					<path class="st40" d="M150.6,247.4v7.8c3.9-0.3,5.2-2.3,5.2-3.9C155.8,249,153.5,248.1,150.6,247.4z"/>
					<path class="st40" d="M143.1,240.3c0,1.9,2.2,2.7,5,3.4v-7C145.2,236.9,143.1,238.4,143.1,240.3z"/>
				</g>
			</g>
		</g>
		<g>
			<g>
				<rect x="64.6" y="203" class="st39" width="163.1" height="82.3"/>
				<rect x="68.3" y="206.3" class="st40" width="154.6" height="75.8"/>
				<path class="st41" d="M217.2,220.4c-7.9,0-11.8-4.4-11.7-10.5H85.4c-0.1,5.9-3.9,10-11.5,10.1v47.5c0,0,0.1,0,0.1,0
					c8.1,0,12,4.6,11.7,10.9h120.1c-0.1-6.1,3.7-10.4,11.5-10.5L217.2,220.4C217.3,220.4,217.2,220.4,217.2,220.4z"/>
			</g>
			<g>
				<path class="st40" d="M109.9,243.1c0,2.6-2.1,4.7-4.7,4.8c-2.6,0-4.7-2.1-4.7-4.7c0-2.6,2.1-4.7,4.7-4.7
					C107.7,238.4,109.8,240.5,109.9,243.1z"/>
				<path class="st40" d="M192,242.7c0,2.6-2.1,4.7-4.7,4.7c-2.6,0-4.7-2.1-4.7-4.7c0-2.6,2.1-4.7,4.7-4.7
					C189.8,238,191.9,240.1,192,242.7z"/>
				<g>
					<path class="st40" d="M146.2,220.6c-13.5,0-24.4,10.6-24.4,23.6c0,13,10.9,23.6,24.4,23.6c13.5,0,24.4-10.6,24.4-23.6
						C170.6,231.1,159.7,220.6,146.2,220.6z M147.8,256v3h-2.5v-3c-4.2-0.2-7.3-1.7-9.4-3.6l2.1-2.2c1.6,1.5,4.1,2.9,7.3,3.2v-8.3
						c-4.2-1-8.5-2.1-8.5-6.3c0-3.5,3.6-6,8.5-6.3v-3.1h2.5v3.1c3.4,0.2,6.1,1.4,8.1,3.1l-2.1,2.1c-1.6-1.5-3.8-2.4-6.1-2.6v7.5
						c4.2,1,8.7,2.3,8.7,6.7C156.5,252.4,154.1,255.6,147.8,256z"/>
					<path class="st40" d="M147.8,245.7v7.8c3.9-0.4,5.2-2.3,5.2-3.9C153,247.3,150.6,246.4,147.8,245.7z"/>
					<path class="st40" d="M140.3,238.6c0,1.9,2.2,2.7,5,3.4v-7C142.3,235.2,140.3,236.7,140.3,238.6z"/>
				</g>
			</g>
		</g>
		<g>
			<g>
				<rect x="61.8" y="200.3" class="st39" width="163.1" height="82.3"/>
				<rect x="65.5" y="203.6" class="st40" width="154.6" height="75.8"/>
				<path class="st41" d="M214.4,217.7c-7.9,0-11.8-4.4-11.7-10.5H82.6c-0.1,5.9-3.9,10-11.5,10.1v47.5c0,0,0.1,0,0.1,0
					c8.1,0,12,4.6,11.7,10.9H203c-0.1-6.1,3.7-10.4,11.5-10.5L214.4,217.7C214.4,217.7,214.4,217.7,214.4,217.7z"/>
			</g>
			<g>
				<path class="st40" d="M107,240.4c0,2.6-2.1,4.7-4.7,4.8c-2.6,0-4.7-2.1-4.7-4.7c0-2.6,2.1-4.7,4.7-4.7
					C104.9,235.7,107,237.8,107,240.4z"/>
				<path class="st40" d="M189.1,239.9c0,2.6-2.1,4.7-4.7,4.7c-2.6,0-4.7-2.1-4.7-4.7c0-2.6,2.1-4.7,4.7-4.7
					C187,235.2,189.1,237.3,189.1,239.9z"/>
				<g>
					<path class="st40" d="M143.4,217.9c-13.5,0-24.4,10.6-24.4,23.6c0,13,10.9,23.6,24.4,23.6c13.5,0,24.4-10.6,24.4-23.6
						C167.7,228.4,156.8,217.9,143.4,217.9z M144.9,253.3v3h-2.5v-3c-4.1-0.2-7.3-1.7-9.4-3.6l2-2.2c1.6,1.5,4.1,2.9,7.3,3.2v-8.3
						c-4.2-1-8.5-2.1-8.5-6.3c0-3.5,3.6-6,8.5-6.3v-3.1h2.5v3.1c3.4,0.2,6.1,1.4,8.1,3.1L151,235c-1.6-1.5-3.8-2.4-6.1-2.6v7.5
						c4.2,1,8.7,2.3,8.7,6.7C153.7,249.7,151.3,252.9,144.9,253.3z"/>
					<path class="st40" d="M144.9,242.9v7.8c3.9-0.4,5.2-2.3,5.2-3.9C150.2,244.6,147.8,243.7,144.9,242.9z"/>
					<path class="st40" d="M137.4,235.9c0,1.9,2.2,2.7,5,3.4v-7C139.5,232.5,137.4,233.9,137.4,235.9z"/>
				</g>
			</g>
		</g>
		<g>
			<g>
				<rect x="59" y="197.6" class="st39" width="163.1" height="82.3"/>
				<rect x="62.6" y="200.9" class="st40" width="154.6" height="75.8"/>
				<path class="st41" d="M211.5,215c-7.9,0-11.8-4.4-11.7-10.5H79.7c-0.1,6-3.9,10-11.5,10.1v47.5c0,0,0.1,0,0.1,0
					c8.1,0,12,4.6,11.7,10.9h120.1c-0.1-6.1,3.7-10.4,11.5-10.5L211.5,215C211.6,215,211.6,215,211.5,215z"/>
			</g>
			<g>
				<path class="st40" d="M104.2,237.7c0,2.6-2.1,4.7-4.7,4.8c-2.6,0-4.7-2.1-4.7-4.7c0-2.6,2.1-4.7,4.7-4.7
					C102,233,104.2,235.1,104.2,237.7z"/>
				<path class="st40" d="M186.3,237.2c0,2.6-2.1,4.7-4.7,4.7c-2.6,0-4.7-2.1-4.7-4.7c0-2.6,2.1-4.7,4.7-4.7
					C184.1,232.5,186.3,234.6,186.3,237.2z"/>
				<g>
					<path class="st40" d="M140.5,215.1c-13.5,0-24.4,10.6-24.4,23.6c0,13,10.9,23.6,24.4,23.6s24.4-10.6,24.4-23.6
						C164.9,225.7,154,215.1,140.5,215.1z M142.1,250.6v3h-2.5v-3c-4.2-0.2-7.3-1.7-9.4-3.6l2.1-2.2c1.6,1.5,4.1,2.9,7.3,3.2v-8.3
						c-4.2-1-8.5-2.1-8.5-6.3c0-3.5,3.6-6,8.5-6.3v-3.1h2.5v3.1c3.4,0.2,6.1,1.4,8.2,3.1l-2.1,2.1c-1.6-1.5-3.8-2.4-6.1-2.6v7.4
						c4.3,1,8.8,2.3,8.8,6.8C150.8,247,148.4,250.2,142.1,250.6z"/>
					<path class="st40" d="M142.1,240.2v7.8c3.9-0.4,5.2-2.3,5.2-3.9C147.3,241.9,145,241,142.1,240.2z"/>
					<path class="st40" d="M134.6,233.2c0,1.9,2.2,2.7,5,3.4v-7C136.7,229.8,134.6,231.2,134.6,233.2z"/>
				</g>
			</g>
		</g>
		<g>
			<g>
				<rect x="56.1" y="194.9" class="st39" width="163.1" height="82.3"/>
				<rect x="59.8" y="198.2" class="st42" width="154.6" height="75.8"/>
				<path class="st39" d="M208.7,212.3c-7.9,0-11.8-4.4-11.8-10.5H76.9c-0.1,5.9-3.9,10-11.5,10.1v47.5c0,0,0.1,0,0.1,0
					c8.1,0,12,4.6,11.7,10.9h120.1c-0.1-6.1,3.7-10.4,11.5-10.5L208.7,212.3C208.8,212.3,208.7,212.3,208.7,212.3z"/>
			</g>
			<g>
				<path class="st42" d="M101.3,235c0,2.6-2.1,4.7-4.7,4.8c-2.6,0-4.7-2.1-4.7-4.7c0-2.6,2.1-4.7,4.7-4.7
					C99.2,230.3,101.3,232.4,101.3,235z"/>
				<path class="st42" d="M183.4,234.5c0,2.6-2.1,4.7-4.7,4.7c-2.6,0-4.7-2.1-4.7-4.7c0-2.6,2.1-4.7,4.7-4.7
					C181.3,229.8,183.4,231.9,183.4,234.5z"/>
				<g>
					<path class="st42" d="M137.7,212.4c-13.5,0-24.4,10.6-24.4,23.6c0,13,10.9,23.6,24.4,23.6c13.5,0,24.4-10.6,24.4-23.6
						C162.1,223,151.1,212.4,137.7,212.4z M139.2,247.8v3h-2.5v-3c-4.2-0.2-7.3-1.7-9.4-3.6l2.1-2.2c1.5,1.6,4.1,2.9,7.3,3.2V237
						c-4.2-1-8.5-2.1-8.5-6.3c0-3.5,3.6-6,8.5-6.3v-3.1h2.5v3.1c3.4,0.2,6.1,1.4,8.1,3.1l-2.1,2.1c-1.6-1.5-3.8-2.4-6.1-2.6v7.5
						c4.3,1,8.8,2.3,8.8,6.7C148,244.2,145.6,247.4,139.2,247.8z"/>
					<path class="st42" d="M139.2,237.5v7.8c3.9-0.4,5.2-2.3,5.2-4C144.5,239.1,142.1,238.2,139.2,237.5z"/>
					<path class="st42" d="M131.8,230.5c0,1.9,2.2,2.7,5,3.4v-7C133.8,227,131.8,228.5,131.8,230.5z"/>
				</g>
			</g>
		</g>
	</g>
	<g>
		<polygon class="st11" points="120.2,267.4 50,212.7 50,322.2 120.2,267.4 50,212.7 50,322.2 		"/>
		<polygon class="st11" points="166.4,267.4 236.6,212.7 236.6,322.2 166.4,267.4 236.6,212.7 236.6,322.2 		"/>
		<g>
			<rect x="49.7" y="212.8" class="st43" width="0.3" height="109.4"/>
			<polygon class="st37" points="166.6,267.2 120,267.2 120.2,267.4 50,322.2 236.6,322.2 166.4,267.4 			"/>
			<rect x="236.6" y="212.8" class="st43" width="0.4" height="109.4"/>
			<polygon class="st44" points="50,212.7 50,212.8 50.1,212.8 			"/>
			<polygon class="st44" points="236.6,212.7 236.5,212.8 236.6,212.8 			"/>
		</g>
	</g>
</g>
<g>
	<path class="st11" d="M384.1,147.1c-0.3-22.1-18.5-39.8-40.6-39.5c-22.1,0.3-39.8,18.5-39.5,40.6c0.2,11.7,5.4,22.2,13.5,29.4
		l-0.3,0c5.2,6,8.4,13.8,8.6,22.4l37.5-0.5c-0.1-8.4,2.8-16.2,7.7-22.4C379.2,169.7,384.3,158.9,384.1,147.1z"/>
	<path class="st3" d="M322.8,145c-0.5-0.7-1.4-0.8-2-0.3c-0.6,0.6-0.7,1.6-0.2,2.2c0.2,0.4,0.5,0.7,0.8,1l14.8,51.8
		c0.2,0.7,0.7,1.1,1.3,1.1c0.1,0,0.3,0,0.4-0.1c0.7-0.3,1.1-1.2,0.9-2l-13.7-47.9c3.3,1.9,7.5,2.7,10.9,1.5c0.7-0.3,1.4-0.6,2-1.1
		c1.7,1.2,3.7,2,5.8,2c2.5,0,4.9-0.9,6.8-2.6c1,0.6,2.2,1.1,3.5,1.5c3.9,1.1,7.3,0.9,10.2-0.7l-13.5,47.3c-0.2,0.8,0.2,1.7,0.9,2
		c0.1,0.1,0.3,0.1,0.4,0.1c0.6,0,1.1-0.4,1.3-1.1l14.8-51.9c0.1-0.2,0.3-0.3,0.4-0.5c0.5-0.7,0.4-1.7-0.2-2.2
		c-0.6-0.5-1.5-0.4-1.9,0.3c-2.7,3.9-6.6,5.2-11.6,3.7c-0.6-0.2-1.4-0.5-2.2-0.9c0.8-1.5,1.3-3.2,1.2-5c-0.1-3.5-1.1-6-2.8-7
		c-1-0.6-2.1-0.5-2.9,0.2c-1.5,1.1-2.2,3.7-2,7c0.1,2,0.9,3.8,2.2,5.3c-2.3,1.6-5.7,1.8-8.1,0.3c0.9-1.5,1.5-3.4,1.6-5.6
		c0.1-3.1-0.7-5.6-2.2-6.7c-1-0.7-2.2-0.7-3.2-0.1c-1.6,1-2.4,3.5-2.4,6.7c0,2.1,0.7,4.1,1.9,5.7c-0.2,0.1-0.4,0.2-0.6,0.3
		C331.1,150.9,325,148.2,322.8,145z M349.6,139.2C349.6,139.2,349.6,139.2,349.6,139.2c0.1,0,0.1,0,0.2,0c0.4,0.2,1.2,1.4,1.3,4.3
		c0,1.1-0.2,2.1-0.7,3.1c-0.8-0.8-1.3-1.9-1.4-3.3C348.7,140.8,349.2,139.5,349.6,139.2z M337.7,139.5c0,0,0.1-0.1,0.1-0.1
		c0.1,0,0.1,0,0.2,0.1c0.4,0.3,1,1.4,0.9,3.8c-0.1,1.5-0.4,2.8-1,3.8c-0.8-1.1-1.2-2.4-1.3-3.7C336.7,140.8,337.3,139.7,337.7,139.5
		z"/>
	<path class="st45" d="M362.3,198.5l-35.8,0.5c-1,0-1.8,0.8-1.8,1.8l0.2,13.6c0,1,0.8,1.8,1.8,1.8l6.6-0.1l3.5,5.8l15.9-0.2l3.3-5.9
		l6.6-0.1c1,0,1.8-0.8,1.8-1.8l-0.2-13.6C364.2,199.3,363.3,198.5,362.3,198.5z"/>
	<rect x="324.7" y="202.2" class="st46" width="39.7" height="3.1"/>
	<rect x="324.7" y="209.9" class="st46" width="39.7" height="3.1"/>
</g>
</svg>
